<?xml version="1.0" encoding="utf-8"?>
<!-- Generator: Adobe Illustrator 22.1.0, SVG Export Plug-In . SVG Version: 6.00 Build 0)  -->
<svg version="1.1" id="Layer_1" xmlns="http://www.w3.org/2000/svg" xmlns:xlink="http://www.w3.org/1999/xlink" x="0px" y="0px"
	 viewBox="0 0 1240 930" style="enable-background:new 0 0 1240 930;" xml:space="preserve">
<style type="text/css">
	.st0{fill:none;stroke:#000000;stroke-width:6;stroke-miterlimit:10;}
</style>
<image style="overflow:visible;" width="1240" height="930" xlink:href="processed.jpg" >
</image>
<path class="st0" d="M308.8,113.7c33.6-0.5,56.4,0.4,71.5,1.4c5,0.3,15.7,1.1,30.2,0.7c14.6-0.4,22.5-1.7,33-2.7
	c22.9-2.2,23.1,0.3,58.4-0.7c25.6-0.7,26.9-2.1,54.3-2.7c14.2-0.4,23.9-0.2,41.9,0c70.9,0.9,67.6,4.2,87.3,1.4
	c23.4-3.4,31.4-8.6,50.8-6.2c7.4,0.9,15.2,2.8,27.5,2.1c13.2-0.8,22.5-4,27.5-5.5c17.4-5.3,34.5-4.4,68.7-2.7
	c17.2,0.8,39,3,63.9,8.2"/>
<path class="st0" d="M47.5,197.9c26.5-6.4,48.2-8,63.6-8.1c11.9-0.1,14.8,0.7,29.8,0.7c27,0,46.3-2.4,60.9-4.1
	c70-7.8,73.1-7.4,84.6-6.1c6.6,0.8,17.5,2.4,33.1,2c14.6-0.3,23.9-2.2,32.5-3.4c20-2.8,26.2-0.6,62.2,0c28.7,0.5,50.2-0.4,71-1.4
	c35.6-1.6,35-3.2,66.3-4.7c48.2-2.4,51.5,1.3,103.5-0.7c38.7-1.4,42.1-3.7,73.7-4.1c34.1-0.4,32.6,2.3,76.4,3.4
	c24,0.6,53.4,0.2,112.3-0.7c25.4-0.4,28.8-0.6,37.9,0c18.2,1.2,25.6,3.3,39.9,1.4c13.6-1.9,11.4-4.4,25.7-6.8
	c13.7-2.2,19-0.4,49.4,0c0.4,0,7.3,0,21,0c59.7,0,67.9-0.2,79.8-2c8.5-1.3,21-3.8,35.9-8.8"/>
<path class="st0" d="M50.9,244.6c30.3,9,54,9.8,70.4,8.8c12.2-0.8,20.2-2.5,46-4.1c7.5-0.4,21.5-1.2,39.2-1.4
	c23.3-0.3,25.3,0.7,45.3,0.7c10.8,0,27.6-0.9,60.9-2.7c15.3-0.8,26.2-1.5,48-2.7c39.2-2.3,58.8-3.4,58.9-3.4
	c79.1-4.6,74.7-4.9,92.7-5.4c49.1-1.5,45.3,1.4,66.3-1.4c26.1-3.4,37.5-8.6,55.5-4.1c5.8,1.5,14.4,4.4,26.4,3.4
	c8.6-0.8,11.4-2.9,19.6-3.4c10.8-0.6,15.9,2.5,25.7,4.7c15.6,3.5,16.8-1.1,54.8-2c9.6-0.2,7.9,0.1,27.7,0c8.5,0,24-0.2,39.9-0.7
	c32.6-1.1,36.4-2.9,61.6-3.4c15.6-0.3,13.5,0.4,38.6,0.7c34.3,0.3,37.2-1,83.2-1.4c26.1-0.2,28.8,0.2,40.6-0.7
	c19.9-1.5,25.5-3.7,44-4.7c17.4-1,23.1,0.4,40.6,0.7c14.4,0.2,34.9-0.4,60.2-4.1"/>
<path class="st0" d="M48.8,294c23.1,6.1,41.4,7.8,54.1,8.1c10.2,0.3,17.2-0.2,30.4,1.4c17.3,2.1,21.9,5,33.1,6.1
	c17,1.7,17.4-4.3,42.6-6.8c8-0.8,5.4,0,39.9-0.7c17.2-0.3,17-0.5,29.1-0.7c21.5-0.3,21.7,0.3,37.9,0c23-0.4,25.5-1.6,41.9-1.4
	c12.1,0.2,12.2,0.8,32.5,2c36,2.1,60.6,1.6,67.6,1.4c11.7-0.3,20.5-0.6,32.5-2c13.3-1.6,17.1-3,27.7-4.1c13.4-1.4,19.5-0.4,36.5,0
	c28.8,0.7,26.1-1.7,60.9-1.4c18.7,0.2,24.5,0.9,39.9,0c11.7-0.7,14.2-1.4,26.4-2c16.7-0.8,24.9-0.1,37.2,0
	c30.1,0.2,30.7-5.8,48.7-3.4c9.8,1.3,14.5,3.4,26.4,3.4c9.2,0,12.8-1.3,23-2c13.1-1,20.5,0.1,30.4,0.7c22.1,1.2,22.4-2.3,59.5-4.1
	c29.4-1.4,28.1,0.9,46-1.4c13.9-1.7,21.3-3.9,36.5-4.1c10.8-0.1,12.2,1,27.7,2c25.5,1.8,46.2,0.6,56.1,0c17.8-1.1,18.5-2.2,35.2-2.7
	c11.1-0.3,12.1,0.1,31.8,0c3.8,0,8.2-0.1,37.2-0.7c12.2-0.3,22.8-0.5,31.1-0.7"/>
<path class="st0" d="M47.5,355.5c35.3,0.1,60.4,3.9,77.1,7.4c8.9,1.9,24.2,5.6,44.6,4.1c11.5-0.9,15.1-2.6,27.1-4.1
	c11.2-1.3,27.7-2.1,48.7,1.4"/>
<path class="st0" d="M50.9,447.5c23.7-3,42.8-3.8,56.1-4.1c2.3,0,3.2,0,33.1,0c25.8,0,38.8,0,39.9,0c25.4-1,29.7-3.6,56.1-4.1
	c10.6-0.2,9.6,0.2,21,0c23.9-0.5,26.1-2.3,44-2.7c21.6-0.5,32.5-0.7,46.7,2c5.4,1,13.9,3,25,1.4c6.9-1,8.7-3.1,16.2-4.7
	c10.1-2.2,16.6-1,25-0.7c11.9,0.5,13.2-1.2,37.9-4.1c7.5-0.9,9.7-1,42.6-3.4c55.2-4,52.4-4,54.8-4.1c36.1-0.9,39.9,3.8,71.7,1.4
	c6.7-0.5,2.4-0.4,39.2-4.7c26.9-3.2,40.5-4.8,50.7-5.4c27.6-1.8,25.8,1.6,52.8,0c22.3-1.3,27.7-3.7,51.4-4.7
	c4.6-0.2,15.3-0.2,36.5,0c49.8,0.5,54,1,72.4,0.7c20-0.3,31.8-0.5,48.7-2c30.6-2.8,35.7-6.1,62.2-7.4c18.4-0.9,18.9,0.6,44,0
	c23.3-0.5,37.8-2.2,52.8-3.4c20.3-1.7,49.5-3.3,86.6-2.7"/>
<path class="st0" d="M52.9,492.2c10.6,0.2,26.9,0.3,46.7-0.7c20.8-1.1,21.4-2.1,37.2-2.7c20.2-0.7,23.5,0.8,62.9,2
	c19.7,0.6,34.6,0.7,39.9,0.7c17.9,0,31.5-0.3,48.7-0.7c26.6-0.6,31.3-1.1,50.7-1.4c20.3-0.3,23.7,0.2,34.5,0
	c26.4-0.4,39.1-8.7,67.6-6.8c12.9,0.9,11.9,2.7,25.7,3.4c17.2,0.8,27.2-1.7,42.6-4.1c9.6-1.4,7.3-0.7,77.8-4.7
	c13.2-0.8,21.3-1,34.5-2c20.9-1.6,21.1-2.3,31.8-2.7c22-0.9,24.5,1.8,46,1.4c23.5-0.4,21-3.6,39.9-3.4c21.1,0.3,23.8,4.3,48,4.7
	c9.9,0.2,17.3-0.3,31.8-1.4c17.9-1.3,23.2-2.5,39.2-3.4c9.9-0.6,16.6-0.6,29.8-0.7c44.2-0.2,46.7,1.9,71.7,0.7
	c17.4-0.9,19.2-2,39.2-2.7c12.7-0.4,16.5,0.1,36.5,0c19.2-0.1,23.5-0.5,37.2-0.7c12.5-0.1,30.7,0,53.4,1.4"/>
<path class="st0" d="M48.2,540.2c20,1.6,38.8,2.4,56.1,2.7c19.4,0.3,20.7-0.3,42.6,0c30.4,0.5,35.8,1.8,56.1,1.4
	c16.7-0.3,16.1-1.3,40.6-2.7c39-2.3,69.1-1.5,76.4-1.4c32,0.9,29.4,2.8,54.8,2.7c22.1,0,27.4-1.5,58.9-2c26.9-0.5,25.2,0.5,44,0
	c29.2-0.8,34.6-3.3,71-6.1c27.7-2.1,42.8-3.2,64.3-2.7c28.4,0.7,40.2,3.6,65.6,1.4c16.4-1.4,20.3-5.1,37.2-6.1
	c15.3-0.9,19.9,1,44,2.7c13,0.9,31.2,2.2,53.4,1.4c21.8-0.9,27.7-3,51.4-3.4c3.3,0,7,0,29.8,0.7c39.3,1.2,45.8,1.8,58.9,2
	c20.1,0.4,20.7-1.1,60.9-2c3.7-0.1,10.4-0.2,19.6-0.7c14.6-0.7,24-1.6,30.4-2c17.5-1.3,25.2-0.6,46.7-0.7c13.9-0.1,33.7-0.5,58.2-2"
	/>
<path class="st0" d="M56.3,595c18.4,1.1,33.2,2,43.3,2.7c20.6,1.4,26,1.8,36.5,2c8.7,0.2,14,0,35.9-0.7c43.1-1.3,40.8-1.5,44-1.4
	c26,1.4,29.2,6.7,52.8,6.1c14-0.4,11.6-2.2,27.7-2.7c22.8-0.7,28.1,3,46.7,0.7c13.8-1.7,13-4,25-4.7c14.7-0.9,20.6,2.3,35.2,3.4
	c9,0.6,12.2-0.2,35.2-2.7c32.8-3.6,49.1-5.4,60.9-5.4c20.5,0,24.1,2.2,48,1.4c9.4-0.3,11.7-0.8,26.4-1.4c8.1-0.3,17.4-0.6,37.2-0.7
	c28.3-0.2,27.9,0.2,41.3,0c27-0.4,26.8-1.9,54.8-2.7c16-0.4,13.2,0.1,53.4,0c33.3-0.1,32.5-0.5,41.3,0c19.2,1.1,24.2,3,48.7,4.7
	c6.3,0.4,17.6,1.2,31.8,1.4c20.8,0.2,25.2-1.2,60.9-2.7c20.4-0.9,21.1-0.5,37.2-1.4c22.4-1.2,28.1-2.5,44.6-3.4
	c20.6-1.1,37.3-0.5,46,0c16.2,1,17.1,2.2,31.8,2.7c8.4,0.3,14.1,0.1,32.5-0.7c41.8-1.9,51.5-2.8,70.4-2.7c11.2,0,20.2,0.4,25.7,0.7"
	/>
<path class="st0" d="M56.3,643.7c17.3,3.5,36.8,6.5,58.2,8.1c7.5,0.6,7.4,0.3,39.9,1.4c29.4,1,44.1,1.5,48.7,2
	c27.1,3.2,30.8,7.7,47.4,5.4c8.7-1.2,12.2-3.1,26.4-4.7c13.3-1.5,23.5-1.4,27.1-1.4c14.9,0.3,22.7,2.5,33.8,4.1
	c20.1,2.9,35.5,1.7,66.3-0.7c19.2-1.5,22-3.7,40.6-4.7c13.2-0.7,20.7-0.3,35.9,0c8.7,0.1,14.7,0.1,25,0c21.2-0.2,24.9-0.8,35.9-0.7
	c16.8,0.1,19.5,1.9,37.9,2.7c8.9,0.4,13,0.5,31.1,0c25-0.6,37.6-0.9,50.1-0.7c28.9,0.6,28.3,3.7,54.1,4.1
	c21.6,0.3,20.5-1.9,50.1-2.7c26.8-0.8,48.1,0.4,63.6,1.4c21,1.2,18.1,1.8,42.6,3.4c31.4,2,47.4,2.9,66.3,0.7
	c13.9-1.7,11.7-2.7,36.5-6.8c11.2-1.8,29.1-4.7,49.4-6.1c33.2-2.2,34.9,4.2,66.3,1.4c10.7-1,18.4-2.3,33.8-2.7
	c12.6-0.3,13.1,0.5,30.4,0.7c20.4,0.2,24.9-0.8,46-0.7c10.5,0.1,19,0.4,24.4,0.7"/>
<path class="st0" d="M56.9,711.4c13.9,0.9,35.5,1.9,62.2,1.4c25.7-0.6,27.5-2,48-2c36.6-0.1,38.8,4.3,77.1,4.7
	c19.4,0.2,19-0.9,57.5-1.4c22.5-0.2,21.3,0.2,41.9,0c42.4-0.3,50.3-2.1,87.3-2c26.5,0,21.6,0.9,40.6,0.7c29-0.4,36.7-2.4,76.4-4.1
	c20.1-0.8,30.8-1.2,46-0.7c19.3,0.7,26.2,4.5,45.3,4.1c12.8-0.3,13.9-1.7,31.1-2.7c16-1,26.9-0.5,41.3,0c0,0,9.8,0.3,64.3,1.4
	c25.8,0.5,44.4-0.3,81.2-1.4c44.2-1.3,40.6-2.1,60.9-2c24.4,0,29.4,1.1,73.7,2c23.5,0.5,19.9,0.2,44,0.7c27.2,0.6,39.3,1.1,62.9,1.4
	c17.7,0.2,18.6-0.3,31.1,0c18.9,0.4,25.8,1.4,42.6,2c9.3,0.3,23.3,0.6,40.6,0"/>
<path class="st0" d="M56.3,766.8c34.8,4.7,57,5.6,71,5.4c3.9,0,15.8-0.2,32.5,0c2.2,0,10.7,0.2,26.4,0.7c17.4,0.6,29.9,1.2,34.5,1.4
	c32.2,1.4,40.1-0.1,85.2,0.7c24.8,0.4,21.2,0.9,48,1.4c27.5,0.5,46.1,0.8,69,0c38.9-1.4,47.5-4.5,90.7-6.1c22.9-0.9,25.2,0.4,44-0.7
	c27.4-1.6,35-4.2,55.5-3.4c18.7,0.8,21.3,3.3,38.6,4.7c16.2,1.3,15.4-1.1,62.2-4.7c31.4-2.5,44.4-2.6,56.1-2c3.9,0.2,8,0.4,15.6,0.7
	c3.3,0.1,17.9,0.5,37.9,0c27.6-0.7,25-2.6,38.6-2c14.2,0.5,16.9,2.4,36.5,4.7c14.4,1.7,24.4,2.1,41.9,2.7
	c29.8,1.1,35.8-0.3,60.2,0.7c26.8,1.1,22.5,3,41.9,3.4c32.1,0.6,33.8-4.4,62.9-2.7c11.1,0.6,19.5,1.9,33.8,0.7
	c12.5-1,12.4-2.5,24.4-3.4c15.6-1.1,28.1,0.5,39.2,2c9.3,1.3,17,2.8,22.3,4.1"/>
<path class="st0" d="M57.6,829.1c23.4,0.6,42.3,1.4,54.8,2c47,2.2,57.5,3.9,85.2,3.4c8.3-0.2,17.8-0.5,35.9-0.7
	c1.1,0,18.2-0.2,35.9,0c49.8,0.5,68.8,3.1,117,3.4c42.7,0.2,44.1-1.8,79.2-0.7c13.1,0.4,22.7,1,37.9,0c20.4-1.4,26.5-4,46.7-5.4
	c6.5-0.5,18.2-0.3,41.3,0c54.4,0.7,55.8,0.8,60.9,0.7c15.7-0.3,28.9-1.1,55.5-2.7c20.2-1.2,35.6-2.4,39.2-2.7
	c13.6-1.1,24.6-2.1,46.7-4.1c29.1-2.6,27.1-2.6,29.8-2.7c20.2-0.9,27.9,1,56.8,2.7c15.7,0.9,29.6,1.7,47.4,1.4
	c28.6-0.6,29.9-3.3,55.5-3.4c21.9,0,20.6,2,46.7,2c22.9,0,24.9-1.5,43.3-0.7c15.5,0.7,16.3,1.9,38.6,3.4c14.6,0.9,26,1.2,35.2,1.4
	c4.1,0.1,13.2,0.2,37.9,0c11.4-0.1,26.9-0.3,45.3-0.7"/>
<path class="st0" d="M52.9,885.9c11.1,0.8,28.2,1.7,49.4,2c14.3,0.2,17-0.1,37.2,0c29.6,0.1,44.4,0.2,60.2,1.4
	c12.7,1,30.8,2.9,52.8,7.4"/>
</svg>
