<?xml version="1.0" encoding="utf-8"?>
<!-- Generator: Adobe Illustrator 22.1.0, SVG Export Plug-In . SVG Version: 6.00 Build 0)  -->
<svg version="1.1" id="Layer_1" xmlns="http://www.w3.org/2000/svg" xmlns:xlink="http://www.w3.org/1999/xlink" x="0px" y="0px"
	 viewBox="0 0 1239.8 856" style="enable-background:new 0 0 1239.8 856;" xml:space="preserve">
<style type="text/css">
	.st0{fill:none;stroke:#000000;stroke-width:6;stroke-miterlimit:10;}
</style>
<image style="overflow:visible;" width="1240" height="858" xlink:href="processed.jpg"  transform="matrix(1 0 0 1 -0.1763 -1.9982)">
</image>
<path class="st0" d="M398.9,67.7c17.7,1.3,34,2.4,48.7,3.3c17.9,1.1,27,1.7,37.3,2c8.8,0.3,17.2,0.4,48.7,0
	c43.8-0.5,44.5-0.9,57.3-0.7c28.3,0.6,31.8,2.9,51.3,3.3c16.8,0.4,41.1-0.6,71.3-7.3"/>
<path class="st0" d="M91.6,142.4c35.6,1.2,61.6,2.7,79.3,4c6.3,0.4,16.6,1.2,30.7,1.3c19.2,0.2,31-1,45.3-2
	c50.6-3.4,75.8-5.1,91.3,0c6.8,2.3,20.1,7.5,38.7,7.3c7.3-0.1,11.8-1,18.7-2c15-2.1,26.9-2.3,50.6-2.7c31.4-0.5,38.4,1.2,82,2
	c35.2,0.7,60.8,0.2,68,0c39-0.9,36.5-2.4,62.6-2.7c42-0.5,44.6,3.4,106.6,4.7c26.5,0.5,46.5,0.2,56,0c18.6-0.4,26.9-1,38.7-1.3
	c28.1-0.9,41,0.7,80,2c27.9,0.9,49.7,1.2,60,1.3c22,0.2,40.9,0.3,66-0.7c18.2-0.7,33.5-1.8,44.7-2.7"/>
<path class="st0" d="M19.1,201.7c26.7,1.2,48.1,2.6,62.9,3.7c13.5,1,20.2,1.7,31.5,2.2c17.1,0.8,29.5,0.5,53.2,0
	c10.8-0.2,23.1-0.7,47.2-1.5c41.3-1.4,38.3-1.5,42.7-1.5c20.4-0.1,41.3-0.1,67.4,3.7c11,1.6,19.4,3.4,33.7,3.7
	c8.6,0.2,15.3-0.4,28.5-1.5c26.5-2.2,28.6-4,45-4.5c6.3-0.2,14.5,0.1,30.7,0.7c16.2,0.6,28.1,1.3,30.7,1.5
	c46.6,2.7,79.4-1.5,79.4-1.5c9.2-1.2,9.6-1.7,16.5-2.2c16.3-1.4,24.8,0.3,39.7,0.7c3.5,0.1,4.8,0.1,36.7-1.5
	c36.2-1.8,34.4-2.1,45-2.2c16.9-0.3,21.4,0.4,46.5,0.7c10.1,0.1,21,0.2,42.7,0c23.5-0.2,27-0.7,44.2-0.7c17-0.1,27.6,0.3,43.5,0.7
	c16.8,0.5,54.3,1.5,95.9,1.5c17.6,0,40.5-0.1,67.4-0.7"/>
<path class="st0" d="M20.2,261.9c12.6,0.1,28.8,0.1,47.7,0c38.6-0.2,53.9-0.7,103.8-1c28.8-0.2,39.3-0.1,48.4,0
	c23.2,0.3,24.8,0.7,50.7,1.2c30.1,0.5,33.5,0,63.1,0.6c7.9,0.2,19.2,0.5,41.9,1.2c51,1.5,57.6,2,72.5,1.8c14-0.2,27.7-3.9,48.4-2.4
	c5,0.4,7.5,0.8,14.7,1.2c17.1,1,28.1,0.3,38.3,0c23.8-0.7,21.5,1.6,54.3,1.8c18,0.1,17.4-0.6,40.1-0.6c28.2,0,26.4,1.1,40.7,0.6
	c25.2-0.9,30.2-4.1,55.4-5.3c11-0.5,12.7,0,38.9,0.6c33.7,0.8,33.2,0,87.9,0.6c33.2,0.4,34.1,0.7,52.5,0.6
	c15.1-0.1,18.6-0.3,58.4-1.2c47.6-1.1,52.4-1,77.8-1.8c29.4-0.9,33-1.3,48.9-1.8c45-1.3,58,1.7,101.4,1.2
	c13.5-0.2,30.2-0.6,49.5-1.8"/>
<path class="st0" d="M24.1,313.4c27.5,4.8,48.5,5.7,62.8,5.5c7.2-0.1,17.9-0.5,34.6,0c14.7,0.4,20.7,1.1,30.6,1.6
	c21.5,0.9,26.8-0.9,51-1.6c18.3-0.5,13.3,0.7,74.6,2.4c20,0.6,30,0.8,38.5,0.8c23.7-0.1,26.5-1.3,38.5,0c17.8,1.9,18.3,5.2,38.5,7.9
	c14.7,2,26.1,1.8,36.9,1.6c15.2-0.3,19-1.4,42.4-3.1c17.8-1.3,29.7-2.2,44.8-2.4c26.4-0.2,28.2,2.3,53.4,1.6
	c11.3-0.3,20.2-1.1,35.3-2.4c24.2-2.1,24.5-2.9,38.5-3.9c7.5-0.5,12.2-0.6,62,0c32.4,0.4,33.8,0.5,39.3,0
	c18.5-1.7,23.5-4.7,42.4-5.5c12.9-0.6,14.7,0.6,31.4,0.8c19,0.2,26.3-1.3,44.8-2.4c26.4-1.5,26.5,0.5,63.6,0
	c32.8-0.5,29.4-2.1,59.7-2.4c25.5-0.3,32.3,0.8,63.6,0.8c19,0,34.5-0.4,44.8-0.8"/>
<path class="st0" d="M26.4,389.7c19.2,0.2,38.8,0.2,58.6,0c26.1-0.2,27.8-0.7,53.3-0.9c10.2-0.1,13.6,0,54.1,0c0,0,0,0,24,0
	c23.1,0,46.2,0,69.2,0c37.3,0,46.2,0,46.2,0c53.1,0,55-0.2,65.7,0c41,0.8,39.4,4.6,71.9,4.4c21.9-0.1,23.8-1.6,55.9-1.8
	c22.8-0.1,25.8,0.6,43.5,0c19.2-0.6,26.1-1.8,49.7-3.6c18-1.3,33.2-2.2,53.3-2.7c18-0.4,31.8-0.1,39.9,0c30.6,0.6,28.3,1.8,45.3,1.8
	c31.9-0.1,30.2-4.2,58.6-3.6c16.1,0.4,24.1,1.9,43.5,0.9c8.3-0.4,8.7-0.8,23.1-1.8c5.3-0.4,20.9-1.4,39.9-1.8
	c15.4-0.3,19.9,0,37.3,0c18.7,0,32.3-0.1,49.7-0.9c25.7-1.1,25.6-2.4,43.5-2.5c18.5-0.1,20.1,1.2,38.9,0.9
	c13.7-0.2,12.1-0.8,39.8-2.3c25.8-1.4,32.6-1.1,50.9-2.8c10-0.9,18.2-2,23.6-2.7"/>
<path class="st0" d="M57.9,443.6c21.7-0.2,39.7-0.1,52.4,0c27.2,0.2,36.2,0.7,64.6,0.9c9.9,0.1,9.5,0,50.6,0c0,0,26.5,0,79.6,0
	c2.6,0,60.9,0,60.9,0c56.6,0,55.8,0,57.1,0c44.6,0.3,48.2,1.7,103,2.8c37.5,0.7,34.1,0.1,74.9,0.9c35.5,0.8,46.8,1.5,75.8,1.9
	c17.1,0.2,40.2,0.5,68.4,0c53.7-1,53-4.6,95.5-4.7c26.5,0,34.1,1.3,72.1,0.9c16.8-0.1,23-0.5,44-0.9c36.1-0.8,56.5-0.7,86.1-0.9
	c27-0.2,65.9-0.7,115.2-1.9"/>
<path class="st0" d="M40.4,486.2c40.6,8.2,67,9.2,84.2,8.4c6.1-0.3,22.7-1.3,45.3,0c11.8,0.7,15.2,1.4,25.3,2.1
	c21.7,1.4,28.6-0.6,51.6-1.1c31.8-0.7,35,2.7,68.4,2.1c19.4-0.4,19.4-1.7,36.8-2.1c14.6-0.3,49.6,3.3,61,4.2
	c22.5,1.7,16.9-2.6,48.6-2.1c10.3,0.2,14.5,0.6,47.9,1.6c10,0.3,16.4,0.5,25.3,0c12.3-0.6,15.3-1.7,25.3-2.2
	c10.5-0.5,10.9,0.6,30.7,1.6c21.1,1.1,36.3,0.7,40.4,0.5c11.3-0.3,11.7-0.8,21-1.1c19.4-0.6,33.7,1,40.4,1.6
	c41,3.8,51.4-3,104.7,1.1c21.8,1.7,31.4,3.7,57.7,4.4c9.6,0.3,10.4,0.1,37.7,0c41.3-0.1,61.9-0.2,77.7,0.7c25.1,1.5,25.6,3,48.8,3.7
	c12,0.4,22.8,0.2,44.4,0c18.5-0.2,32.4-0.6,37.7-0.7c27.2-0.8,31.3-1.5,38.5-1.5c15.9,0,38.9,3.4,68,19.2"/>
<path class="st0" d="M30.6,546.6c27.3,0.6,49.6,0.8,64.6,0.8c37.7,0,49.8-0.7,82.3,0c26.2,0.5,23.3,1.1,48.4,1.5
	c32.8,0.6,40.7-0.4,73.8,0c25.3,0.3,21.7,0.8,56.9,1.5c39.1,0.8,39.3,0,82.3,0.8c38.3,0.6,42.5,1.3,62.3,0.8
	c17.3-0.5,16.7-1.1,52.3-3.1c38.5-2.2,65-2.9,70.7-3.1c20.2-0.6,37-0.7,48.4-0.8"/>
<path class="st0" d="M178,616.9c26.9,0,49.6,0.3,66.7,0.7c27,0.6,40.5,1,60,2.2c33.1,2.2,31.9,3.8,54,4.5c27,0.8,28.5-1.6,60-0.7
	c18.2,0.5,19.8,1.4,45,2.2c4.7,0.2,23.5,0.8,45,0.7c39-0.1,47.6-4.2,85.4-3.7c13.6,0.2,12.2,0.6,27,0.7c28.3,0.2,47.2-1.4,61.5-2.2
	c34.5-2.1,61.3-1,86.9,0c35.7,1.4,41.2,3.7,80.2,5.2c15.7,0.6,16.5,0.3,61.5,0.7c66,0.6,99,1,120.7,2.2c21.2,1.3,31.1,2.4,51,2.2
	c19-0.1,28.6-1.3,54-2.2c20-0.7,36.2-0.8,46.5-0.7"/>
<path class="st0" d="M37.1,686.8c29.4,3.4,53.2,3.6,69.7,3.2c14.9-0.4,18.9-1.2,46.1-2.1c14.2-0.5,32.4-1.2,54.7-1.1
	c32.7,0.1,37.9,2.3,63.3,2.1c27.1-0.1,26.4-3.4,53.6-3.2c16.5,0.1,18.7,1.5,40.9,2.4c15.7,0.6,30.3,0.1,44.4,0
	c21.2-0.2,20.3,0.7,39.5,0.6c17.9-0.1,28-2.2,43.2-1.8c20.2,0.5,19.7,4.7,39.5,4.3c8-0.2,12.1-1,22.5-0.6
	c11.6,0.4,12.8,1.6,24.3,2.4c16.7,1.2,18.3-1,36.5,0c14.7,0.8,13.2,2.2,24.3,2.4c15.5,0.3,18.9-2.5,36.5-3.6c8.7-0.6,9.9,0,34.1,0.6
	c10.5,0.3,10.3,0.2,38.9,0.6c61.1,0.9,56.4,1.8,69.3,1.2c27.2-1.2,29.5-3.8,51.1-3c1.5,0.1,1,0,37.7,3c22.4,1.8,29.3,2.4,38.9,3
	c14.9,1,22.3,1.5,29.8,1.8c7.5,0.3,18,0.5,51.7-0.6c29.7-1,27-1.3,45.6-1.8c16.6-0.5,30.5-0.5,58.4-0.6c17.2-0.1,31.5,0,41.3,0"/>
<path class="st0" d="M38.5,753.2c36.3-2.2,65.6-2.5,86.1-2.3c17.6,0.1,33.7,0.6,69.8,0.8c17.2,0.1,19.5,0,37.2,0
	c6.9,0,39.4,0.1,80.7,0.8c47.7,0.8,83.9,2.1,91.5,2.3c83.1,2.9,82.1,5.2,112.5,3.9c12.1-0.5,29.9-1.6,55.9-0.8
	c22.3,0.7,38.4,2.5,45,3.1c24.6,2.4,65.8,0.3,115.6-1.6c27.2-1,41-1.5,55.1-1.6c19.4,0,34.1,0.5,62.8,1.6
	c40.4,1.5,47.1,2.4,68.3,2.3c19.8-0.1,24.3-1.6,45.8-1.6c14.7,0.1,21.3,0.6,43.4,1.6c9.7,0.4,23.8,0.9,52,1.6
	c22.2,0.5,54.6,0.4,97.7-2.3"/>
<path class="st0" d="M42.3,805.1c30.4,1,55.1,0.6,72.1,0c21.8-0.7,26.6-1.6,45-1.6c25,0,29.3,1.6,59.7,2.3c23.1,0.5,25.6-0.3,50.4,0
	c16.4,0.2,36.9,0.8,60.5,2.3"/>
</svg>
