<?xml version="1.0" encoding="utf-8"?>
<!-- Generator: Adobe Illustrator 22.1.0, SVG Export Plug-In . SVG Version: 6.00 Build 0)  -->
<svg version="1.1" id="Layer_1" xmlns="http://www.w3.org/2000/svg" xmlns:xlink="http://www.w3.org/1999/xlink" x="0px" y="0px"
	 viewBox="0 0 1240 809" style="enable-background:new 0 0 1240 809;" xml:space="preserve">
<style type="text/css">
	.st0{fill:none;stroke:#000000;stroke-width:6;stroke-miterlimit:10;}
</style>
<image style="overflow:visible;" width="1240" height="809" xlink:href="processed.jpg" >
</image>
<path class="st0" d="M290.5,47.4c19.8-3.2,45.7-6.3,76.4-7.3c16.6-0.5,29.4-0.2,39.1,0c38.7,0.9,49.2,5,79.1,5.5
	c10.1,0.1,8-0.3,50-2.7c51-2.9,76.9-4.4,98.2-3.6c32,1.1,33.3,4,61.8,4.5c32.1,0.6,58.4-2.7,75.5-5.5"/>
<path class="st0" d="M44,122.8c45,2.5,80.5,2.9,105.1,2.7c18.3-0.1,39.9-0.5,74.9,0c23.5,0.4,23.8,0.7,42.9,0.9
	c36.4,0.4,50.3-0.7,79.5-0.9c10.1-0.1,32.2,0.6,75.8,1.8c83,2.4,91.6,3,117,2.7c21.5-0.2,38.5-0.8,67.6-1.8
	c36.2-1.3,52.8-2.4,85.9-2.7c10.4-0.1,13.7-0.1,40.2,0c63.3,0.1,69.8-0.1,90.5,0c33.4,0.2,58.9,1,83.2,1.8c30,1,53.2,2.2,64,2.7
	c27.3,1.4,35.9,2.2,46.6,2.7c23.4,1.2,57.5,1.2,101.4-4.6"/>
<path class="st0" d="M45.8,177.5c42.6,3.9,76.7,3.4,100,2.2c29.9-1.5,48.1-4.5,85.8-3.7c20.6,0.4,21.9,1.5,50,2.2
	c30.4,0.8,36-0.2,73.9,0c15.4,0.1,34.1,0.6,71.6,1.5c59.3,1.5,57.8,2,70.1,1.5c32.2-1.2,37.6-4.2,64.2-3c15.8,0.8,21.1,2.2,42.5,3
	c6.3,0.2,15.8,0.5,43.3,0c42.8-0.8,49.3-1.9,82.8-2.2c21.1-0.2,19,0.3,39.5,0c31.3-0.4,35.7-1.5,58.9-1.5c9.7,0,8.8,0.2,51.5,1.5
	c31.7,1,47.6,1.5,54.5,1.5c31.4,0.1,33.6-1.4,68.6-1.5c22.5,0,19.5,0.6,51.5,0.7c34.6,0.1,54.2-0.5,59.7-0.7c20-0.7,31-1.7,40.3-2.2
	c22.3-1.3,54.6-1.4,97,4.5"/>
<path class="st0" d="M35.1,225.4c35.8,3.9,64.8,5,85.1,5.3c17,0.2,18.5-0.3,50.9,0c43.3,0.3,45.6,1.2,60.6,0c27-2.2,29.3-6,51.8-6.1
	c20.5-0.1,20.5,3,43,3.5c26.1,0.6,31.5-3.4,59.7-4.4c16.6-0.6,14.3,0.8,54.4,2.6c31.9,1.4,57.5,1.6,74.6,1.8c33,0.2,31.9-0.5,57,0
	c25,0.5,30.5,1.4,48.3,0.9c19.5-0.6,24.4-2,43-2.6c12.8-0.5,24,0.1,46.5,0.9c27.6,1,30,1.7,46.5,1.8c14.3,0,14.8-0.5,36-0.9
	c14.6-0.3,16.7-0.1,54.4,0c14.6,0,7.5,0,53.5,0c41,0,39.4,0,44.8,0c34.6-0.3,37-1.1,60.6-0.9c22.2,0.2,21.8,0.9,40.4,0.9
	c23-0.1,32.7-1.2,50-1.8c15.5-0.5,37.6-0.5,64.9,1.8"/>
<path class="st0" d="M42.9,278.8c12.3,1.6,28.7,3.4,48,4.7c16.3,1.1,35.6,2.4,60.3,1.9c21.7-0.5,26.8-2,57.4-3.8
	c23.9-1.4,36.1-2.1,51.8-1.9c15.5,0.2,24.3,2.4,47.1,2.8c8.5,0.1,15.3,0,17.9,0c16.2-0.3,23.2-1.1,37.7-1.9
	c7.1-0.4,4.9-0.1,39.6-0.9c32.4-0.8,29.4-0.8,39.6-0.9c7.3-0.1,7.3,0,44.3,0c0,0,14,0,18.8,0c1,0,41.4,0,41.4,0
	c59.1,0,57.8,0,59.3,0c36.3-0.8,37.3-2.8,59.3-1.9c19.6,0.8,19.4,2.4,45.2,3.8c13.1,0.7,25.6,0.8,49.9,0.9c25.8,0.2,27.2-0.1,47.1,0
	c33.6,0.2,37.7,1,57.4,0.9c35.9-0.1,32.7-3.1,62.2-2.8c13.5,0.1,14.2,0.7,59.5,2.4c15.3,0.6,22.9,0.9,28.2,1c31.5,0.6,54-1.1,68-1.9
	c21.2-1.3,51.7-2.1,91.3,0"/>
<path class="st0" d="M44.2,325.5c31.5,3.9,56.3,4.3,73.3,4c11.1-0.2,16.8-0.8,34.7-1c25.7-0.3,29.4,0.6,49.6,0
	c18.6-0.6,18.7-1.4,38.7-2c8.9-0.2,19-0.2,38.7,0c26.5,0.2,40,0.3,55.5,1c4.8,0.2,17.8,0.8,34.7,2c25.9,1.9,37.2,3.5,57.5,3
	c7.4-0.2,5.6-0.4,17.8-1c26.5-1.3,44.9-2.1,66.4,0c22.9,2.3,24,5.4,44.6,5.9c12.1,0.3,13.1-0.7,32.7-1c17.6-0.2,20.9,0.6,44.6,1
	c20.1,0.4,19.8-0.2,44.6,0c27.3,0.2,26.7,0.9,48.6,1c19.4,0.1,20.3-0.4,60.5-1c27.2-0.4,41-0.6,50.5,0c23.3,1.4,26.9,3.9,50.5,5.9
	c14.1,1.2,28.6,1.2,57.5,1c45.1-0.3,46.7-1.7,76.3-1c15.3,0.4,22,1,39.6,1c19.2,0,25.4-1.1,42.6-1c16.5,0.1,24.4,1.1,39.6,2
	c15.7,0.9,38.3,1.8,66.4,1"/>
<path class="st0" d="M53.3,378.5c14.8,0.1,33.8,0.2,55.8,0c14.8-0.1,31.7-0.3,53.9-0.9c40.2-1.2,41.6-2.4,60.6-1.9
	c18.7,0.5,23,1.8,50.2,3.8c29.1,2.1,43.7,3,62.5,2.8c19.3-0.2,19.2-1.3,48.3-1.9c16.5-0.4,28.5-0.6,44.5,0c25,0.9,27.3,2.8,52,3.8
	c9.5,0.4,21.5,0.3,45.4,0c29-0.3,34.7-0.7,58.7-0.9c19.3-0.2,32.3-0.3,49.2,0c36.4,0.7,44,2.6,71.9,2.8c28.8,0.3,27.8-2,56.8-1.9
	c22.8,0.1,30.6,1.3,62.5,2.8c21.7,1,13.1,0,65.3,1.9c32.2,1.1,41.1,1.9,61.5,1.9c23.7,0,21.1-1.1,42.6-0.9
	c21.7,0.2,29.6,1.4,53.9,1.9c9.9,0.2,19.5,0.2,38.8,0c26.5-0.3,33-0.9,47.3-0.9c14.6-0.1,35.3,0.4,60.6,2.8"/>
<path class="st0" d="M49.7,430.1c24.5-0.5,44.4-1.4,57.7-2.1c37.2-2.1,43.5-3.8,65.2-3.2c24.1,0.6,23.8,2.9,50.2,3.2
	c17.8,0.2,25.1-0.8,46,0c14.4,0.5,16.7,1.2,32.1,2.1c30.2,1.8,33.2-0.1,60.9,1.1c35.7,1.5,34,4.8,58.8,4.3c18.7-0.4,20.7-2.3,47-3.2
	c12-0.4,22.6-0.3,43.8,0c31.4,0.4,34.3,1.1,54.5,1.1c27.8,0,25.9-1.2,48.1-1.1c28,0.2,35.6,2.1,65.2,3.2c18.7,0.7,35.8,1.1,58.8,0
	c26.6-1.2,33.6-3.3,54.5-2.1c17.4,1,18.2,2.7,35.3,3.2c19.5,0.6,22.4-1.5,47-2.1c16.1-0.4,28,0.2,44.9,1.1c29.5,1.5,28.9,2.9,47,3.2
	c22.3,0.3,22.6-1.9,51.3-2.1c14.2-0.1,24.9,0.3,43.8,1.1c23.2,0.9,24.2,1.5,40.6,2.1c24,0.9,41.9,0.5,64.1,0
	c13.9-0.3,31.7-0.9,52.4-2.1"/>
<path class="st0" d="M50.7,475c30.9,1.4,55.8,0.8,72.7,0c27.2-1.2,36.7-3.1,65.2-3.2c8.7,0,7.6,0.1,49.2,1.1
	c19.6,0.4,34.3,0.7,52.4,1.1c41.1,0.8,39.4,0.6,57.7,1.1c35.1,0.8,52.6,1.2,63.1,2.1c27.1,2.3,33.8,4.9,58.8,5.3
	c12.9,0.2,14.9-0.4,32.1,0c23.5,0.5,29.5,1.8,44.9,2.1c23.3,0.5,25-2.3,50.2-3.2c26.6-1,32.6,1.8,68.4,3.2c26.3,1,46.4,0.4,59.9,0
	c17.1-0.5,37.7-2.2,79.1-5.3c10-0.8,22.6-1.7,39.6,0c13.7,1.4,17.7,3.3,29.9,5.3c13.2,2.2,18,1.6,62,1.1c27.6-0.3,41.6-0.5,53.5,0
	c19.9,0.8,26.4,2,44.9,3.2c23.4,1.5,26.7,0.3,68.4,1.1c28.4,0.6,27.4,1,41.7,1.1c21.3,0.1,44.2-0.8,68.4-3.2"/>
<path class="st0" d="M44.9,527.4c23.8-1.8,43.1-2.2,56.5-2.3c24.7-0.1,29.1,1,47.2,0c26.8-1.5,28.3-4.7,51.8-5.8
	c11.5-0.5,25.4,0.4,53,2.3c29.6,2,34.6,3.1,58.8,4.6c19.1,1.2,32.5,1.7,53,2.3c25.1,0.8,49.3,1.6,80.6,1.2c37.1-0.5,35.2-2,55.3-1.2
	c26.7,1.1,31.1,3.8,64.5,5.8c27.4,1.6,48.2,1.3,53,1.2c29.2-0.6,31.3-2.8,59.9-3.5c19.8-0.4,19,0.6,55.3,1.2
	c30.5,0.4,30.6-0.3,65.7,0c38.5,0.3,36.1,1.2,65.7,1.2c32.1-0.1,35.2-1.1,54.1,0c19.4,1.1,24,2.7,44.9,3.5c17.9,0.6,17.8-0.4,40.3,0
	c19.7,0.3,22.8,1.2,51.8,2.3c12.5,0.5,25.7,1,42.6,1.2c23.9,0.2,42-0.5,61.1-1.2c12.1-0.4,28.2-1.1,47.2-2.3"/>
<path class="st0" d="M39.2,574.7c27.1,1.6,49.2,2.1,64.5,2.3c10.3,0.1,14.1,0,47.2,0c35.2-0.1,52.9-0.1,58.8,0
	c34.3,0.4,35.3,1.8,84.1,3.5c32.8,1.1,49.1,1.6,69.1,1.2c23-0.6,30-1.7,59.9-2.3c22.6-0.5,33.8-0.7,48.4,0c35.4,1.7,38.2,6,72.6,8.1
	c9.5,0.6,5.3,0,63.4,0c38.7,0,40.8,0.2,61.1,0c33.3-0.4,32.7-1.2,55.3-1.2c17.6,0,40,0.1,68,2.3c35.7,2.9,36.7,5.8,64.5,6.9
	c19.7,0.8,25.5-0.4,57.6-1.2c25.2-0.6,43.5-0.3,64.5,0c48.2,0.6,51.8,2.1,95.6,2.3c21.8,0.1,26-0.2,51.8,0
	c24.4,0.2,44.4,0.7,57.6,1.2"/>
<path class="st0" d="M43.8,619.6c27,0.2,49.1,1.3,64.5,2.3c29.9,1.9,42.2,3.9,71.4,4.6c15.2,0.3,13-0.2,42.6,0
	c15.1,0.1,36.5,0.2,63.4,1.2c33.5,1.2,59.3,3,65.7,3.5c38.4,2.8,38.6,4.2,58.8,4.6c25.9,0.6,33.7-1.5,61.1-2.3
	c32.4-0.9,59.3,1.4,72.6,2.3c17.6,1.2,17.9,1.9,28.8,2.3c10.5,0.4,46.6-1.9,53-2.3c8.9-0.5,4.6,0.4,53,3.5
	c20.7,1.3,36.2,2.1,40.3,2.3c15.2,0.8,37.8,1.9,64.5,2.3c32.5,0.5,28.7-0.6,51.8,0c37.3,0.9,40.7,3.7,77.2,4.6
	c19.8,0.5,16.3-0.4,53,0c5.9,0.1,27.2,0.3,55.3,1.2c33.9,1,33.1,1.8,56.5,2.3c19.2,0.4,18.7-0.1,62.2,0c38.5,0.1,39,0.4,49.5,0
	c15.6-0.7,38.1-2.5,65.7-8.1"/>
<path class="st0" d="M47.2,679.5c11.6-0.8,29.2-1.8,50.7-2.3c17.9-0.4,24.4-0.1,62.2,0c8.2,0,37.3,0.1,70.3,0
	c48.1-0.2,47.8-0.6,61.1,0c27.8,1.3,31.2,3.4,55.3,3.5c20.7,0,23-1.5,44.9-1.2c20.7,0.3,23.2,1.8,43.8,2.3c22.9,0.6,25.3-1,48.4-1.2
	c18.9-0.1,25.3,1,63.4,3.5c14.2,0.9,35.8,2.3,61.1,3.5c43.9,2,49.8,1.1,84.1,3.5c15.7,1.1,20,1.6,34.6,2.3c27.4,1.3,32.9,0.3,53,1.2
	c36.5,1.5,34.5,5.5,62.2,5.8c22.6,0.2,21.5-2.4,56.5-3.5c14-0.4,19-0.1,50.7,0c34.5,0.2,37.4-1,51.8,0c19.3,1.3,22.8,3.2,41.5,4.6
	c19.8,1.4,35.9,0.8,46.1,0"/>
<path class="st0" d="M107.1,731.4c25.9,0,52.4,0.4,79.5,1.2c37.3,1.1,38.6,2.8,58.8,2.3c33.1-0.9,40.5-4.9,71.4-3.5
	c11.2,0.5,15.7,1.3,36.9,2.3c13.8,0.6,23.9,0.9,39.2,1.2c40.1,0.8,60.1,1.2,65.7,1.2c45.3-0.1,42.9-2.4,70.3-1.2
	c21.8,1,26.9,2.7,53,3.5c19.8,0.6,22.5-0.2,43.8,0c25.6,0.2,28.8,1.4,71.4,3.5c29.2,1.4,52.2,2,65.7,2.3c32.2,0.8,32.7,0.3,61.1,1.2
	c28,0.8,29.5,1.3,61.1,2.3c29.5,0.9,44.3,1.4,56.5,1.2c28.2-0.5,38.2-2.3,64.5-1.2c13.3,0.6,20.3,1.5,30,2.3c20.3,1.7,50,2.9,88.7,0
	"/>
</svg>
