<?xml version="1.0" encoding="utf-8"?>
<!-- Generator: Adobe Illustrator 22.1.0, SVG Export Plug-In . SVG Version: 6.00 Build 0)  -->
<svg version="1.1" id="Layer_1" xmlns="http://www.w3.org/2000/svg" xmlns:xlink="http://www.w3.org/1999/xlink" x="0px" y="0px"
	 viewBox="0 0 1239.8 2204" style="enable-background:new 0 0 1239.8 2204;" xml:space="preserve">
<style type="text/css">
	.st0{fill:none;stroke:#1D1D1B;stroke-width:6;stroke-miterlimit:10;}
</style>
<image style="overflow:visible;" width="1240" height="2204" xlink:href="processed.jpg" >
</image>
<title>paper_5</title>
<path class="st0" d="M172,566.3c34.9,3.9,63.3,7.3,82.9,9.8c32.7,4,45,5.8,64.2,7.3c36.9,3,33.2-0.3,75.6,2.4
	c23.2,1.5,38.7,3.4,65.1,2.4c12.6-0.4,15.9-1.1,26-1.6c37.4-2,44.9,5.4,77.3,4.9c25-0.4,22.2-4.2,48-4.1c10.5,0.1,17.9,0.7,52,4.1
	c35.8,3.5,32.4,3.6,41.5,4.1c22.8,1.2,27.2-0.7,61-0.8c26.2-0.1,23.7,1,48,0.8c25.5-0.2,27.1-1.4,61.8-2.4c24.4-0.7,44.7-0.8,61-0.8
	c33.5-0.1,33.4,0.5,43.1,0c16.7-0.9,41-4.1,70.7-14.6"/>
<path class="st0" d="M180.2,615.1c32.6,9.5,56.3,11,72.4,10.6c7-0.2,16.1-0.9,30.1,0c16.6,1.1,22.8,3.2,38.2,4.1
	c14.8,0.8,17-1.1,30.9-0.8c13.1,0.3,20.5,2.4,37.4,4.9c12.4,1.8,22.9,1.7,43.9,1.6c25.6-0.2,25.6-1.9,49.6-2.4
	c32.7-0.7,34.6,2.4,70.7,1.6c17.5-0.4,21.1-1.2,35-0.8c17.8,0.5,25.2,3,45.6,4.9c11.5,1,23,2.4,38.2,1.6c13.8-0.7,13.5-2.2,25.2-2.4
	c16.5-0.3,19,2.6,38.2,3.2c11.3,0.4,11.5-0.5,29.3-0.8c15-0.2,22.5,0.4,36.6,0.8c26.5,0.8,47.3,0.3,58.5,0
	c25.7-0.7,45.4-2.3,56.9-3.2c6.2-0.5,12-1,53.7-5.7c56.6-6.3,69.6-8,87.8-11.4c13.1-2.4,23.8-4.8,30.9-6.5"/>
<path class="st0" d="M178.5,671.2c31.1,4.3,55.8,8.4,72.4,11.4c33.4,5.9,42.6,8.5,60.2,7.3c10.6-0.7,19.3-2.4,37.4-2.4
	c13.7,0,16.3,1,29.3,0.8c14.6-0.2,19.5-1.5,38.2-3.2c8-0.7,26.9-2.4,47.2-2.4c20,0,19.6,2.1,48.8,3.2c17.1,0.7,16.5,0,39.8,0.8
	c22.2,0.7,24.7,1.4,39.8,1.6c16,0.2,15.8-0.5,39-0.8c34.1-0.5,34.7,1,57.8,0c21.1-1,22.3-2.3,35-1.6c12.5,0.7,17.7,2.4,36.6,4.1
	c5.7,0.5,15.4,1.4,26.8,1.6c27.1,0.6,33.3-2.9,61.8-2.4c11.2,0.2,10.7,0.7,22.8,0.8c14.5,0.1,23.2-0.7,39-1.6
	c11.5-0.7,24.4-1.3,50.4-2.4c27.1-1.2,33.2-1.2,42.3-1.6c19.9-1,48.2-4.2,83.8-13.8"/>
<path class="st0" d="M183.4,729c30.8-0.9,54.5,1.5,70.7,4.1c15.9,2.5,27.3,5.4,45.6,4.1c9.6-0.7,16.1-2.3,30.1-2.4
	c12.1-0.1,20.4,0.9,27.6,1.6c6.2,0.6,22,1.2,53.7,2.4c51.8,2,77.8,3,96.8,2.4c14.4-0.4,22.3-1,39-0.8c15.5,0.2,19,0.8,44.7,1.6
	c11.1,0.3,19.9,0.5,37.4,0.8c31,0.5,33.7,0.3,45.6,0.8c16.8,0.7,17.3,1.5,43.9,3.2c22.5,1.5,33.7,2.3,46.3,2.4
	c18.3,0.2,17-0.9,56.9-2.4c25.1-1,37.9-1.4,52-0.8c17.7,0.7,19.7,1.9,32.5,1.6c19.4-0.5,26.2-3.4,43.1-4.9
	c24.3-2.1,24.7,3.9,46.3,1.6c11.1-1.2,12.8-2.7,34.1-5.7c12.3-1.7,21.5-2.7,27.6-3.2c15.1-1.5,35.5-2.9,60.2-3.2"/>
<path class="st0" d="M181,773.7c15.2,2.5,37,5.7,63.4,8.1c16.8,1.6,36.7,2.4,76.4,4.1c47.2,2,71,2.9,83.8,1.6
	c11.1-1.2,22.2-1.8,33.4-1.6c13.1,0.2,18.8,1.5,30.9,2.4c18.8,1.5,24,0,48,0c29.2-0.1,27.1,2,58.5,2.4c28.7,0.4,33.4-1.4,57.8-0.8
	c19.8,0.5,17.2,1.7,52.9,4.1c25.9,1.7,44.9,3,70,2.4c16.5-0.3,13.6-1,35-1.6c6.3-0.2,31-0.8,65.1,0c27,0.7,32.6,1.6,47.2,0
	c12.1-1.3,16.6-2.9,28.5-4.1c17.6-1.7,26.5,0,43.1,0.8c26.5,1.2,47.1-0.9,61.8-2.4c21.4-2.2,24.6-4.1,54.5-8.1
	c19.5-2.6,35.5-4.1,45.6-4.9"/>
<path class="st0" d="M183,827c28.4,3,51.4,4.4,67.4,5.2c17.9,0.9,21.9,0.6,40.6,1.7c31.6,1.9,32.4,3.2,56.1,4.3
	c18.3,0.8,15.9-0.1,52.7,0.9c20.2,0.5,22.4,0.8,34.6,0.9c17,0,22.8-0.5,42.3-0.9c20.1-0.3,20.1,0.2,39.7,0
	c36.9-0.3,37.4-2.1,62.2-1.7c4.5,0.1,19.5,0.9,49.2,2.6c44.6,2.5,42.5,2.5,45.8,2.6c39.3,1.4,40.6-2.4,77.8-1.7
	c27.8,0.5,28.4,2.7,69.1,4.3c14.2,0.5,27,0.7,51.8,0.9c39.7,0.3,55.2,0,104.5,0c58.3,0,54.5,0.4,66.5,0c32.2-1.1,64.2-4.2,95.9-9.5"
	/>
<path class="st0" d="M181.3,884c28,3.5,50.7,5.1,66.5,6.1c11.9,0.7,18.6,0.8,33.7,1.7c26.5,1.6,35.2,4.6,54.4,4.3
	c13.4-0.2,13.5-1.5,29.4-2.6c26.1-1.7,40.4,0.9,65.6,2.6c7,0.5,26.3,0.5,64.8,0.9c40.1,0.4,46.9,0.2,51,0
	c30.2-1.1,31.2-3.3,54.4-3.4c24.1-0.2,25.1,2.1,53.6,2.6c23.6,0.4,26.5-1.1,57-1.7c14.4-0.3,14.1,0,67.4,0.9
	c21.5,0.3,46.7,0.7,75.1,0.9c32.5,0.2,42.5,0.1,47.5,0c25.1-0.4,30.2-1.2,53.6-1.7c29.8-0.7,28.5,0.4,60.5,0
	c24.9-0.3,44.1-1.2,72.6-2.6c19.4-0.9,35.6-1.9,47.5-2.6"/>
<path class="st0" d="M183,937.6c15.2,0.4,38.3,1,66.5,1.7c35.1,0.9,52.9,1.4,60.5,1.7c43.9,1.8,48.4,3.6,90.7,5.2
	c25.4,1,38.9,1.5,58.8,0.9c25.2-0.7,31.8-2.4,54.4-2.6c26.1-0.3,27,1.8,57,2.6c41.1,1.1,41.4-2.7,85.5-1.7
	c22.9,0.5,28.7,1.7,55.3,1.7c17.5,0,22.4-0.5,44.1-0.9c35.4-0.7,44.6,0.2,70.8,0c41.3-0.4,39.4-2.9,76.9-3.4
	c22.6-0.3,29.7,0.5,73.4,1.7c19.6,0.6,48.4,1.3,83.8,1.7"/>
<path class="st0" d="M178.7,985.1c25.8,2.4,46.8,3.2,61.3,3.4c16.6,0.2,21-0.2,48.4,0c22.4,0.2,27.8,0.6,49.2,0.9
	c17.8,0.2,25.4,0.1,59.6,0c52.2-0.2,78.2-0.3,91.6,0c37.5,0.8,36.5,2,73.4,2.6c32.4,0.5,33.6-0.5,70,0c32.5,0.4,39.1,1.2,71.7,1.7
	c34.7,0.5,32.8-0.5,63.1,0c27.9,0.5,33.3,1.3,63.9,1.7c21.3,0.3,31.9,0.4,46.6,0c36.9-1,45.7-3.9,69.1-2.6
	c20.5,1.2,18.8,4.1,42.3,6.1c10,0.8,16,0.9,58.8,0c41-0.8,47.1-1.1,60.5-0.9c20.3,0.4,36.8,1.6,47.5,2.6"/>
<path class="st0" d="M177,1030.9c9.8,1.1,24.8,2.7,43.2,3.4c17.6,0.8,25.4,0.3,60.5,0c33.9-0.3,50.9-0.5,70,0
	c24,0.6,43,1.9,53.6,2.6c43.8,2.9,47.8,5.2,72.6,5.2c11.8,0,8.9-0.5,50.1-2.6c30.3-1.5,46.3-2.4,64.8-2.6
	c25.1-0.3,28.8,0.7,68.3,1.7c53.6,1.4,49.1-0.5,85.5,0.9c40.4,1.6,43.5,3.8,89,5.2c17.4,0.5,32.7,0.7,51.8,0.9
	c25.4,0.2,40.3,0.4,60.5,0c27.8-0.5,29-1.4,52.7-1.7c22.7-0.3,39.5,0.2,58.8,0.9c20.5,0.7,46.8,1.9,77.8,4.3"/>
<path class="st0" d="M172.6,1075.9c24.8,1.8,44.9,3.3,58.8,4.3c28.5,2.1,37.4,2.8,51.8,3.4c8.5,0.4,23.9,0.9,51,0.9
	c32.3-0.1,46-0.9,77.8-1.7c44.9-1.1,80.1-1,101.1-0.9c37,0.2,36.6,0.7,78.6,0.9c25.8,0.1,33.4-0.1,67.4,0
	c32.7,0.1,49.4,0.2,63.9,0.9c30.5,1.4,30.5,3,59.6,4.3c24.6,1.1,25.7,0.1,68.3,0.9c12.8,0.2,10.6,0.3,59.6,1.7
	c59.8,1.7,66.5,1.7,72.6,1.7c13.4-0.1,29.6-0.6,62.2-1.7c20.1-0.7,36.6-1.3,47.5-1.7"/>
<path class="st0" d="M164,1124.2c25.9,2.3,47.5,3.2,63.1,3.4c24.6,0.5,45.6-0.2,69.1-0.9c36.7-1.1,40-2.1,55.3-0.9
	c20.7,1.7,24.8,4.5,47.5,6.1c17.1,1.2,26.2,0.4,45.8,0c32.2-0.7,57.8,0.5,70,0.9c27.1,0.8,26.6,1.3,48.4,1.7
	c27.6,0.5,30.7-0.3,55.3,0c36.5,0.5,35.8,2.5,63.9,2.6c33.4,0.1,33.1-2.7,65.6-2.6c20.7,0,20,1.2,67.4,3.4
	c14.4,0.7,11.3,0.5,66.5,2.6c35.1,1.4,52.7,2.1,63.9,2.6c42.7,2,43.5,2.8,67.4,3.4c7.2,0.2,31.3,0.8,63.1,0
	c21-0.5,39.8-1.5,56.1-2.6"/>
<path class="st0" d="M161.4,1179.5c26.8,1.3,48.7,1.7,63.9,1.7c31,0.2,38.3-0.8,64.8,0c33.5,1,31.1,2.9,52.7,2.6
	c29.4-0.4,33-3.9,58.8-2.6c15.6,0.8,20.6,2.3,38,2.6c16.1,0.2,26.9-0.9,37.1-1.7c35.8-2.9,36.3,0.3,96.8-1.7
	c25.6-0.9,29-1.5,49.2-1.7c9.8-0.1,27.8-0.1,50.1,0.9c46,2,50.5,7.2,87.3,7.8c31.5,0.5,29.4-3.2,58.8-1.7
	c23.6,1.2,32.3,3.9,59.6,4.3c20.8,0.3,20-1.2,38.9-0.9c23.7,0.5,29.4,3,61.3,6.1c21,2,38.8,3.7,62.2,3.4c23.1-0.2,29.4-2.2,57-2.6
	c18.4-0.2,33.4,0.3,43.2,0.9"/>
<path class="st0" d="M164,1225.3c37.3,3.8,66.4,4.4,86.4,4.3c12.9-0.1,23.2-0.5,42.3,0c26.7,0.7,30.3,2.2,52.7,2.6
	c18.2,0.3,36.3-0.2,54.4-1.7c33.3-2.9,31.9-6.3,51.8-6.1c28.6,0.3,30.1,7.3,51.8,4.3c18.3-2.5,23.4-8.4,38.9-6.1
	c12.2,1.9,12.9,6.1,27.6,8.6c8.8,1.5,11.1,0.4,33.7,0c15.4-0.3,15.3,0.2,30.2,0c20.3-0.2,34.4-1.3,41.4-1.7
	c39.4-2.3,47.7,4.9,105.4,6.1c27.2,0.5,28.8-1,59.6,0c20.2,0.7,29.9,1.7,49.2,1.7c25.4,0.1,26.8-1.8,47.5-1.7
	c24.9,0.1,25.2,2.6,57.9,4.3c17.7,0.9,20.7,0.3,62.2,0.9c20.2,0.2,36.6,0.6,47.5,0.9"/>
<path class="st0" d="M158,1287.5c17.8,1.8,35.7,2.4,53.6,1.7c14.4-0.5,17.8-1.4,44.9-3.4c20.5-1.5,38.5-2.9,60.5-3.4
	c31-0.8,31.2,1,60.5,0c28.7-1,29.5-2.8,50.1-2.6c22.3,0.2,23.6,2.3,51.8,3.4c11.7,0.5,11.8,0.1,54.4,0c22.3-0.1,16.7,0,59.6,0
	c41.4,0,41-0.1,51,0c29.1,0.4,31,1.3,58.8,1.7c33.7,0.6,33.3-0.7,60.5,0c26.9,0.7,27,1.8,63.9,3.4c14.9,0.7,38.6,1.7,69.1,1.7
	c27.8,0,36-0.7,59.6,0c20.7,0.7,36.6,2,44.1,2.6c26.2,2.2,36.1,5,51,6.1c9.7,0.7,13.4,0.1,32.8-0.9c16.1-0.8,39-1.6,67.4-1.7"/>
<path class="st0" d="M158,1341.9c9.3,1,23.7,2.2,41.4,2.6c26,0.6,31.2-1.3,57.9-0.9c27.6,0.4,26.3,2.5,52.7,2.6
	c4.7,0,20.1-0.6,51-1.7c27.9-1,39.5-1.6,43.2-1.7c23.7-1,26.3-1.3,36.3-1.7c18-0.7,31-0.6,62.2,0c52.7,1,55.3,2.4,82.1,1.7
	c29.2-0.7,24.6-2.3,48.4-2.6c16.9-0.2,25.1,0.6,88.1,5.2c39.5,2.9,43.9,3.2,51,3.4c30.5,1.3,31.9-0.1,62.2,0.9
	c33.2,1,37.9,2.9,76,4.3c18.1,0.7,19.6,0.3,47.5,0.9c49.6,1,63.8,2.4,106.3,3.4c19.5,0.5,47.3,1,81.2,0.9"/>
<path class="st0" d="M159.7,1400.7c29.2,4.1,51.7,2,67.4-0.9c11.7-2.2,19.7-4.8,34.6-5.2c18.1-0.5,26.1,2.9,44.1,5.2
	c18.8,2.4,18-0.3,55.3,0c33.8,0.3,39,2.5,70,2.6c11,0,23.5-0.7,48.4-1.7c27.8-1.2,31.7-1.7,44.9-1.7c18.5,0,22.7,1.1,44.9,1.7
	c23.4,0.7,31-0.1,48.4,0c38.7,0.2,39.2,4.4,80.3,6.1c37.9,1.5,38.7-1.9,84.6,0c18.9,0.8,21.2,1.5,48.4,2.6
	c18.4,0.8,26.3,0.8,57.9,1.7c46.2,1.3,39.2,1.4,56.1,1.7c42.7,0.7,48.8-0.7,78.6,0.9c18.5,1,20.7,1.8,43.2,3.4
	c19.9,1.5,49.1,3.2,85.5,3.4"/>
<path class="st0" d="M156.2,1466.3c49.8-1.5,89.2-2.7,116.6-3.4c40.6-1.2,56.9-1.5,82.9-3.4c20.4-1.5,30.4-2.7,49.2-3.4
	c31.7-1.2,36.5,1.7,66.5,0.9c26.6-0.8,25.2-2.9,56.1-4.3c18-0.8,33.9-0.5,64.8,0c33,0.6,43,1.2,65.6,1.7c51.6,1.2,66.9,1.2,86.4,0
	c20.3-1.3,18-2.1,31.9-2.6c30.7-1,38.8,3.1,77.8,6.1c33.8,2.5,30.8-0.4,70.8,2.6c21.3,1.6,28.7,2.9,45.8,2.6
	c15.4-0.2,21.9-1.5,41.4-1.7c14.9-0.2,25.6,0.5,33.7,0.9c17.7,0.9,43.9,2,80.3,2.6"/>
</svg>
