<svg id="Layer_1" data-name="Layer 1" xmlns="http://www.w3.org/2000/svg" xmlns:xlink="http://www.w3.org/1999/xlink" viewBox="0 0 3059.29 4032"><defs><style>.cls-1{fill:none;stroke:#1d1d1b;stroke-miterlimit:10;stroke-width:6px;}</style></defs><title>paper_3</title><image width="3024" height="4032" xlink:href="paper_3.jpg"/><path class="cls-1" d="M196,123.42q155.22,10.11,319.61,15.33,127.42,3.93,249.56,4.38"/><path class="cls-1" d="M964.37,171.59c98.88,3.72,177.82,1,232.05-2.19,68.26-4.05,113.35-9.86,197-8.76,39.32.52,49.49,2.06,100.7,2.19,63.75.16,76.34-2.16,144.48-2.19,27.5,0,65.28,0,113.84,2.19,63.75,2.85,74.17,6.17,127,8.76,25.4,1.24,81.59,3.34,148.86,0,96.59-4.81,100.82-15.11,175.13-15.33,63.45-.19,61.46,7.32,137.91,8.76,67.27,1.26,62.58-4.67,164.19-6.57,35.83-.67,94.45-1,166.38,2.19,30.1,1.34,55.54,3,74.43,4.38"/><path class="cls-1" d="M487.79,371.16c157.51,4,284.58,6.24,371.49,7.58,116.59,1.8,188.93,2.36,212.29,2.53,139.67,1,251.88.49,318.42,0,84.34-.63,171.94-2.11,343.69-5.06,282.29-4.84,268.31-5.58,310.85-5,159.41,2,162.94,10,391.71,15.16,73,1.66,118.7,1.89,219.86,5.05,83.84,2.63,132.49,3.57,194.59,7.59,61.56,4,112.21,8.92,146.58,12.63"/><path class="cls-1" d="M288.14,492.46c51.65,7.82,124.46,17.16,212.29,22.75,35.65,2.27,88.63,4.86,197.12,5,107.81.19,157.07-2.21,283-5,32.66-.74,142.24-2.18,361.38-5.06,230.32-3,243.66-2.93,265.36-2.53,120,2.23,160,7.65,288.09,7.59,98.85-.05,91.29-3.29,171.85-2.53,133,1.24,161.44,10.13,280.52,12.63,127.46,2.68,133.7-6.69,237.55-5,73,1.15,179.7,7.51,310.84,32.85"/><path class="cls-1" d="M252.76,628.93c90.33,8.12,168.93,13.73,232.5,17.69,143.25,8.91,250.39,11.9,278,12.63,62.88,1.67,120.49,2.38,171.85,2.53,129.42.38,160.68-3.06,293.15-5,185.06-2.79,189.45,2.93,406.87,0,112.85-1.52,119.09-3.16,187-2.53,130.71,1.22,159.93,7.77,285.57,10.11,114.43,2.13,104.63-3,257.78-2.53,88.52.3,175.59.59,285.57,7.58,72.81,4.63,171.24,13.19,288.09,30.33"/><path class="cls-1" d="M260.35,765.4c70.1-1.15,145.29.17,224.91,5.05,133.71,8.2,158.41,29.14,260.3,27.8C839.94,797,839.94,781.62,955.32,778c88.74-2.76,91.14,6.27,209.75,7.58,82.86.92,84.23-3.46,240.08-7.58,101.11-2.67,152.43-4,224.92-2.53,23.35.49,64.15,1.58,250.19,12.64,145.34,8.64,125.21,8.38,164.27,10.11,135.53,6,244,2.44,386.65-2.53,106.23-3.7,128-6.34,217.34-7.58,143.73-2,200.95,3.27,260.3,17.69a676.77,676.77,0,0,1,149.1,55.6"/><path class="cls-1" d="M250.24,886.7A3443.64,3443.64,0,0,0,636.89,912c94.27.77,187-2.48,260.3-5.05,167.61-5.89,160.5-10.65,242.61-10.11,137.54.9,172,14.36,290.62,10.11,41.34-1.48,86-10.54,179.43-17.69,64.78-5,92-5.46,116.25-5.06,54.24.91,85.94,6.24,141.52,12.64,25.92,3,107.22,12,182,15.16,98.41,4.16,116.21-4.92,224.92-5.05,25.24,0,84.22,3.59,202.17,10.11,55.29,3.05,95,5.47,156.69,7.58,59.43,2,75.86,1.6,98.55,2.52,54.59,2.23,133.13,11.79,232.5,45.49"/><path class="cls-1" d="M237.6,1018.11c117.56,8,218,12.51,295.68,15.17,164.83,5.63,280.61,9.6,434.67,2.52,61.89-2.84,85.46-5.42,192.07-10.11,73.21-3.22,143.5-6.25,235-7.58,82.35-1.19,162.63-2.23,267.88,2.53,136.94,6.19,179.43,12.64,179.43,12.64,43.41,4.06,80.86,8.33,133.94,5,40.68-2.52,60.32-7.6,93.51-12.64,45.41-6.89,110.08-6.37,237.55-5.05,75.83.78,84.56,1.64,182,2.53,69.91.63,100.67.51,131.41,0,83.52-1.41,109.51-4.91,139-5.06,56.47-.29,138.29,11.44,242.61,68.24"/><path class="cls-1" d="M207.27,1157.11c39.87-.84,100.43-1.93,174.38-2.53,79.55-.65,146.76-.5,235,0,194.6,1.1,205.89,9.24,295.67,2.53,60.29-4.51,78.06-9.3,149.11-12.64,74.15-3.48,129.26-1.76,182,0,196.68,6.57,230.23,25.77,310.84,5.06,14.61-3.76,40.58-11.34,78.35-15.17,59.42-6,104.13,1.72,126.36,5.06,34.74,5.21,97.29,5.16,222.39,5,170.63-.15,153.09-13.07,260.29-7.58,78.12,4,112.75,12.16,202.18,10.11,55.88-1.28,68.19-5.06,111.19-5.06,58.61,0,126.5,7,202.18,27.8"/><path class="cls-1" d="M202.22,1288.52a1683.11,1683.11,0,0,0,242.61,17.69c62.1,0,115.11-3.59,174.37-7.58,99-6.66,107.09-10.86,171.85-15.17,95.22-6.32,111.63.47,308.31,2.53,57.12.6,25.88-.28,202.18,0,161.08.26,198.38,1,278,0,104.7-1.34,115.55-4.17,197.12-5,103.48-1.12,162.67,11.2,255.24,5,100-6.64,105.27-26.13,171.85-17.69,25.39,3.22,56,10,108.66,12.64,31,1.53,49.71.62,78.35,0,92-2,108.08,3,197.12,2.52,99.41-.48,101.88-12.4,144-5,60.66,10.57,106.69,39.73,136.47,63.18"/><path class="cls-1" d="M204.75,1425c77.17,4.11,143.89,7.49,197.12,10.1,200.14,9.86,253,11.2,321,7.59,86.11-4.59,76.81-12.46,169.32-17.69,89.37-5.06,112,.47,237.55-2.53,89.2-2.14,85.54-5.12,176.9-7.58,108.35-2.93,140.4.54,235,0,115.07-.66,108-6,290.62-12.64,110.65-4,204.15-7.26,328.53-5,113.28,2,169.91,3,224.92,7.58,89.2,7.4,118.4,15.3,179.43,7.58,28.49-3.6,58.48-9.92,106.14-10.11,44.91-.18,76.57,5.25,93.51,7.58,46.45,6.41,115.55,8.41,212.28-12.63"/><path class="cls-1" d="M74.37,1767.41A2074.76,2074.76,0,0,0,336,1794a2075,2075,0,0,0,316.85-12.26"/><path class="cls-1" d="M710.1,1779.67A2425.87,2425.87,0,0,0,969.71,1796c85.65.79,156.31-4,222.81-8.18,150.09-9.47,166.79-17.9,263.7-18.4,55.55-.28,36.88,2.56,188.06,8.18,125.18,4.65,220.63,5.78,261.65,6.13,92.68.81,85.37-.76,165.58,0,79.88.76,144,2.84,276,8.18,67.15,2.71,164.44,6.78,284.14,12.26"/><path class="cls-1" d="M430.08,1946.86a1643.3,1643.3,0,0,1,187.39,4.57c32.47,2.7,66.77,6.6,114.26,2.28,38.16-3.47,50.17-12.25,102.83-20.57,37.24-5.87,65.14-7.52,93.7-9.14,42.78-2.41,61.88-1.41,155.39,0,129.24,2,158.45,1,180.53,0,24.28-1.12,48.94-3,98.26-6.85,100.68-7.81,108.82-10.72,150.83-11.43,46-.77,48.88,2.51,121.11,4.57,55.88,1.6,84.89.52,141.68,0,129.7-1.17,139.85,3,240,2.29,99.81-.74,90.28-4.92,233.09-9.14,98-2.9,162.14-2.69,290.22-2.29,116.09.37,158.77,2,210.23,6.86,60.77,5.77,111,14,146.26,20.56"/><path class="cls-1" d="M146.72,2072.54c106.3,9.27,187.11,5.47,242.23,0,35.87-3.55,73.64-9.08,137.11-11.42,58.22-2.16,64.19,1.09,116.55-2.29,63.94-4.13,71-10,125.68-11.43,38-1,42.14,1.67,98.27,2.29,43.92.49,75.92-.75,114.26-2.29,141.1-5.65,173.89-7.47,219.37-9.14,164.17-6,155.1,2.47,292.51-4.57,46.42-2.37,90.86-5.56,164.53-6.85,58.36-1,101.84-.28,118.83,0,207.21,3.36,310.8,5.38,377.06,2.28,154-7.19,201.12-26.61,308.5-16,15.58,1.54,48.11,5.26,98.26,9.14,91.43,7.06,122,5.41,157.68,9.14,48.35,5.06,117.63,21.26,201.1,73.12"/><path class="cls-1" d="M114.66,2185.53c110.12.95,199,4.06,259.68,6.72,81.15,3.54,136.18,7.34,228.34,8.95,92.92,1.62,122.33,2.46,156.7,0,79.36-5.69,82.65-19.33,176.86-29.1,28.39-2.95,69.67-4.95,152.22-9,54.33-2.63,81.5-3.95,105.22-4.47,96.23-2.13,113.74,4.4,206,4.47,28.53,0,76.48-2.22,172.38-6.71,108.68-5.09,109.48-6.25,176.85-9,61.18-2.45,129.43-5.11,212.67-4.47,69.62.53,94.59,2.95,190.29,6.71,139.4,5.48,209.12,7.68,257.44,6.72,109.7-2.18,134.11-10.8,268.64-11.2,59.63-.17,107.27,1.37,165.66,17.91a490.13,490.13,0,0,1,118.64,51.49"/><path class="cls-1" d="M94.57,2307a2003.33,2003.33,0,0,0,232.84,4.9c92.59-3.39,101.68-10.07,213.24-14.71,115.69-4.8,131.09,1.34,247.55-4.9,55.5-3,46.2-4,161.76-12.25,114-8.09,171-12.14,218.14-12.26,85.64-.22,80.27,6.44,208.33,9.81,22.31.58,98.53,2.38,198.53,0s98.13-6,176.47-7.36c108.78-2,132.6,4.55,242.65,4.91,103.22.33,126-5.25,215.68-7.36,78.74-1.85,192.45-.64,333.34,14.71"/><path class="cls-1" d="M309.19,2433c23.92-2.82,63.56-7,112.79-9.9,122.74-7.16,167.74,2,282.94-5.58,67.92-4.45,49.35-7.44,141.48-14.89,70-5.67,145.81-11.81,242-9.31,88.83,2.3,100.53,9.52,169.4,5.58,57.52-3.28,74-9.73,132.17-14.89,59.25-5.26,65.78.19,186.15,0,80.93-.13,77.53-2.09,150.78-1.86,56.69.18,75.34,1.42,169.4,3.72,18.17.45,111.85,2.72,199.18,3.73,60.7.7,105.5.64,227.1,0,148-.78,196.51,1.89,290.4-1.86,12.74-.51,51.62-5.91,104.24-5.59,27.17.17,59.87.37,89.35,5.59,30.44,5.38,88.59,21.62,152.65,81.9"/><path class="cls-1" d="M91.66,2550.53c58.27,2.31,139.89,3.84,237.83,0,68.09-2.68,102.15-6.3,187.18-11,123.23-6.83,135.77-2.24,244.44-8.81,46.11-2.79,89.58-6.17,151.95-11,133.51-10.38,127.09-11,134.33-11,76.08-.38,92.68,11.46,169.57,13.21,56.15,1.28,83.07-4.22,136.53-8.81,88.46-7.6,111-.82,273.07,2.2,172.81,3.23,178.46-3.89,321.52,0,137.55,3.75,145.71,16.64,237.83,13.22,71.53-2.66,108-10.24,202.6-8.81,38.46.58,61.25,2.26,112.31,2.2,60.82-.08,74.9-4,138.73-4.41,47.88-.33,75.85-.52,114.28,3.63,51.91,5.61,85.74,9.27,121.63,25.61,23.45,10.68,74.1,38.74,115.24,110.44"/><path class="cls-1" d="M90.05,2672.65c127.05,9.13,228,5.4,298.08,0,56.58-4.35,83.37-9,153.78-11.83,102.92-4.08,113.06,3.25,203.45-2.36,78-4.84,91-11.58,158.51-11.83,56.43-.21,86.8,4.35,125.38,7.1,86.09,6.13,115.9-3.69,255.5-14.2,95.1-7.15,168.28-8.71,314.65-11.83,101.65-2.16,153.87-3.18,222.38,0,95.61,4.44,97.53,10.4,186.89,14.2,66.62,2.83,128,1.1,250.77-2.37,143.59-4.05,153.47-7.63,203.45-2.36,19.43,2,65,8.46,156.14,21.29,51.32,7.22,77,10.84,82.8,11.83,52.47,8.95,127.69,31.73,220,94.63"/><path class="cls-1" d="M125.87,2793.55c103.76,19.11,185.39,16.18,241.8,9.58,38.15-4.47,58-9.82,102.94-14.37,85.67-8.66,123.26,1.8,205.89,2.4,59.92.44,46.73-4.29,177.16-12,85.55-5,106.71-3.92,265.74-9.58,147.84-5.26,123.47-6,179.56-7.18,176.35-3.67,206.19,8.17,385.44,4.79,86.11-1.62,87.7-4.52,167.59-4.79,25.77-.09,101.75,0,234.61,7.18,124,6.75,118.56,10,263.35,19.15,58.21,3.68,136,8,253.77,16.76,90.27,6.72,133.79,10.82,189.13,31.13a483.82,483.82,0,0,1,129.28,71.82"/><path class="cls-1" d="M135.9,2923.64c39,1.5,103.6,3,183.66,0,110-4.15,142.74-12.84,284.8-21.29,50.14-3,102.63-4.65,207.61-8,119.15-3.78,178.73-5.67,250.2-5.32,87.28.43,100.19,5.56,231.57,8,60.35,1.11,71.26.51,106.47,2.66,86.47,5.28,108,14.28,173,16,39.93,1,71-2,133.08-8,129.26-12.52,146.79-26.08,197-18.63,35.4,5.26,87.18,21,146.39,71.87"/><path class="cls-1" d="M172.29,3049.87c126.59,1.69,229.1-3.46,300-8.57,82.42-6,108.7-10.79,237.14-20,91.22-6.55,147.77-10.52,222.86-11.43,83.43-1,105.2,3.5,205.71,5.71,111.69,2.46,168.93,7.09,243.23-1.8,44.5-5.33,41.2-8.12,75.46-10.78,79.33-6.18,116.67,7.22,185.42,12.93,92.42,7.68,83.65-11.66,198.37-8.62,91.74,2.43,88.44,14.56,191.89,19.4,84.07,3.94,76.92-4.51,209.14-2.15,43.31.77,59.37,2,157.4,4.31,26.22.63,57.7,2.42,101.33,2.16,43.91-.27,44.92-2,77.62-2.16,24.31-.11,97.14.61,187.58,19.4,38.93,8.09,58.4,12.14,75.47,19.41,71.08,30.27,110,91.23,129.36,129.37"/><path class="cls-1" d="M82.65,3167.48c160.78-19.67,290.07-22.76,381-21.61,73.11.92,131.43,4.7,248.58,2.7,84.16-1.44,101.81-4.2,213.46-8.11,20.16-.7,147.68-5.06,299.92-5.4,103.05-.23,177.68,1.65,326.94,5.4,223.6,5.63,335.4,8.44,378.27,13.51,112.54,13.31,179.12,30.32,299.92,24.32,41.14-2,66.15-5.64,127-8.11,88.18-3.57,125.93,7.05,224.27,2.71,55.49-2.46,51.07-5.46,78.35-5.41,61.62.13,137.27,15.58,224.27,67.55"/><path class="cls-1" d="M125.88,3272.86c38.64.25,79.24-.54,121.59-2.7,78.39-4,96.62-15.63,154-13.51,53.94,2,53.29,11.09,116.18,16.21,21.38,1.74,58.56,3.71,159.42-5.4,105.81-9.57,102.64-15.15,181-21.62,107.88-8.91,185.38-4.25,208.05-2.7a1240.26,1240.26,0,0,1,132.4,16.21"/><path class="cls-1" d="M304.21,3402.55q152.64-17,313.43-29.72c67.5-5.31,121.37-12.29,197.25-13.51,39.07-.62,83.69,1.7,172.92,5.41,92.27,3.83,104.09,5.61,148.61,5.4,77.73-.36,74.62-5.92,140.5-5.4,80.88.63,88.86,9,167.53,8.1,51.89-.61,54.48-4.34,110.78-5.4,62.87-1.18,106.7,2.59,145.9,5.4,116.48,8.37,99.52,1.7,270.2,10.81,163.64,8.74,175.62,14.68,248.58,10.81,67.4-3.58,76-9.64,143.21-10.81,85.78-1.49,151.26,7,199.94,13.51,92.9,12.42,139.35,18.63,189.14,37.83,44.15,17,113.25,51.29,183.74,124.29"/><path class="cls-1" d="M85.35,3529.55c39.61,3.6,102.87,8.14,181,8.1,74.53,0,115.69-4.2,232.37-10.81,125.78-7.11,109.94-4.08,232.37-10.8,222.24-12.21,216.37-19,310.72-18.92,7.11,0,.48,0,264.8,13.51,98.19,5,152.63,7.66,229.66,5.41,63.65-1.86,73.67-5.05,118.89-5.41,94.43-.75,128.4,20.53,227,24.32,52.24,2,85.1-1.39,110.78-2.7,80.86-4.13,204.77,6.61,389.08,75.65"/></svg>