<?xml version="1.0" encoding="utf-8"?>
<!-- Generator: Adobe Illustrator 22.1.0, SVG Export Plug-In . SVG Version: 6.00 Build 0)  -->
<svg version="1.1" id="Layer_1" xmlns="http://www.w3.org/2000/svg" xmlns:xlink="http://www.w3.org/1999/xlink" x="0px" y="0px"
	 viewBox="0 0 1240 2204" style="enable-background:new 0 0 1240 2204;" xml:space="preserve">
<style type="text/css">
	.st0{fill:none;stroke:#1D1D1B;stroke-width:6;stroke-miterlimit:10;}
</style>
<title>paper_4</title>
<image style="overflow:visible;" width="1240" height="2204" xlink:href="processed.jpg" >
</image>
<path class="st0" d="M167,393.2c18.7,4.4,37.6,7.6,56.7,9.8c15.1,1.7,26.1,2.2,43.9,3c51.5,2.4,55.3,2.1,84.1,3.7
	c44.6,2.4,49.2,4.1,78.7,4.3c16,0.1,15.6-0.4,42.7-0.6c30.1-0.2,53,0.3,68.3,0.6c32.9,0.7,34.8,1.3,76.2,2.4
	c23.2,0.6,26.4,0.5,58,1.2c51.5,1.1,77.2,1.7,92.1,2.4c61.8,3.2,69,7.8,108.6,6.1c11.1-0.5,21.2-1.3,42.1-1.8
	c30-0.8,39.4,0.5,59.8,0c21.9-0.5,31.8-2.4,64.6-6.1c21.6-2.4,52.4-5.6,90.3-8.5"/>
<path class="st0" d="M168.3,435.4c35.8,5.3,65.6,8.2,87,10c32.2,2.7,35.2,1.7,76.5,5c48.7,3.8,51.4,5.6,84.2,7.2
	c31.3,1.5,29.6-0.1,66.5,1.7c35.1,1.7,40.4,3.4,67.6,3.9c29.2,0.5,29.7-1.2,58.8-1.1c33.8,0.2,35.7,2.6,85.3,5
	c25.6,1.2,21.5,0.4,78.7,2.2c50.3,1.6,45.4,2,65.4,2.2c34.4,0.4,42.7-0.8,80.4,0c27.2,0.6,24.8,1.2,39.9,1.1
	c31.7-0.3,34-3.2,70.4-4.4c25.7-0.9,32.4,0.3,52.7-2.2c12.4-1.5,18.4-3,32.2-5.6c15.5-2.9,37.7-6.5,65.4-9.4"/>
<path class="st0" d="M162.2,483.7c28.3,3.5,57.4,6.6,87.3,9.3c21.9,2,36.3,3.3,56.7,4.4c19.4,1.1,22,0.8,95.3,3.1
	c19.9,0.6,31.5,1,47.4,1.8c20.3,1,28.6,2.2,44.8,2.7c25.1,0.8,23.2-1.1,43.4-0.5c34.1,1,41.2,6.1,71.8,4.9c12-0.5,10.2-1.2,23.5-1.8
	c18-0.7,29.1,0.4,55.8,2.2c15.4,1,29.6,2,43.9,2.7c23.6,1.1,34.4,0.7,54.9,0.9c51.7,0.6,56.3,3.9,115.2,4.9
	c24.8,0.4,38.8,0,49.6-0.5c19.5-0.8,31.8-2.2,54.5-4.4c57.9-5.8,50.6-4.3,98.8-9.3c15.8-1.6,39.5-4.1,68.7-7.6"/>
<path class="st0" d="M157.4,534.5c16.1,3,37,6.4,61.7,8.9c23.6,2.4,41,3.1,44.6,3.2c31.9,1.1,36.1-1.3,66.2-1.3
	c31.9,0.1,32.1,2.8,85.9,5.1c14.5,0.6,30.2,1.2,50.9,1.3c39,0,43.7-2.2,77.7-2.5c8.2-0.1,34,1,85.3,3.2c43.2,1.8,54.5,2.4,66.2,3.2
	c32.2,2,39.3,3.2,58.5,4.4c42.6,2.7,47-0.6,100.6,0c71.4,0.9,71.1,6.9,112.6,3.2c20.7-1.9,33.4-4.5,68.1-7
	c17.4-1.2,48.4-2.3,55.3-2.5c24.4-1,24.7-0.8,30.5-1.3c14.2-1.2,35-4.1,60.5-12.1"/>
<path class="st0" d="M152.4,579.5c26.3,1.8,53.1,4,80.3,6.4c13.9,1.2,39,3.6,70.7,7.1c40.6,4.4,39.3,4.9,62.3,7.1
	c18,1.7,37.1,2.9,74.6,5.1c30.5,1.9,45.8,2.8,56.6,3.2c34,1.3,59.7,1,86.8,0.7c55.3-0.7,61.3-2.7,94.5-1.3c16.3,0.7,12.1,1.1,54,3.9
	c6.4,0.4,36.2,2.4,78.4,4.5c29.9,1.5,53.1,2.7,74.6,3.2c53.7,1.4,94.8-0.9,134.3-3.2c40.4-2.4,90.6-6.5,148.5-14.1"/>
<path class="st0" d="M142.9,634.7c32.4,1.9,64.8,5.7,96.8,11.3c37.7,6.7,49.7,11.6,82.8,13.9c21.7,1.5,22.7-0.1,68.9,0.9
	c38.8,0.8,38.8,2,69.7,2.6c49.7,0.9,50.5-2.2,89.8-0.9c36.1,1.2,33.7,3.7,80.2,6.1c32.3,1.6,58.9,1.7,85.4,1.7
	c44.4,0.1,45.4-1.1,70.6,0c25.7,1.1,30.2,2.6,65.4,4.4c18.9,0.9,32.7,1.2,54,1.7c24.8,0.6,45.2,1,67.1,0.9
	c12.3-0.1,52-0.6,103.7-5.2c31.7-2.9,67.4-7.2,106.3-13.9"/>
<path class="st0" d="M148.4,690.9c31,2.3,57.1,5.3,77.2,8c33.9,4.5,47.3,7.7,73.8,10.2c18.2,1.7,17.8,0.8,76.1,2.3
	c63.1,1.6,94.7,2.4,110.1,3.4c7.5,0.5,22.1,1.5,42,1.1c20.7-0.4,23.6-1.9,38.6-2.3c31.5-0.9,39.6,5,73.8,6.8
	c21.6,1.1,27.2-3.2,48.8-1.1c16.1,1.5,16.6,3.5,32.9,5.7c28.6,3.8,33.4-1.5,70.4,0c23.9,0.9,24.6,3.2,47.7,3.4
	c19.2,0.2,27.1-1.4,44.3-2.3c26.6-1.4,33.2,0.9,71.5,2.3c19,0.7,19.1,0.2,85.1,0c17.7,0,44.3-0.1,77.2,0"/>
<path class="st0" d="M147.7,753.2c18.4,1.3,46.3,3.3,80.3,5.6c45.9,3.1,57.5,3.6,66,4c45.2,1.9,50.4-0.6,97,0
	c69,0.9,74.2,6.4,137.6,5.6c23.2-0.3,26.1-1.1,62.9-1.6c39.2-0.5,59.5-0.8,86.7,0.8c9.4,0.5,29,2.5,68.4,6.3
	c44.5,4.4,48.1,5.1,62,5.6c25,0.8,32.7-0.9,65.2-1.6c21.2-0.5,37.5,0.1,70,0.8c36.5,0.8,46.5,1.6,73.2,1.6c21,0,31.5-0.5,43.7-0.8
	c25.2-0.5,61.7,0.1,108.5,5.4"/>
<path class="st0" d="M142.7,806c20.4,0.9,40.7,2.9,60.8,5.9c18.5,2.8,26.7,5,43.2,5.9c18.1,1,25.8-0.7,47.1-2
	c18.5-1.2,17.7-0.2,82.4,0c53.4,0.2,45.1-0.5,58.8,0c38.1,1.4,47.6,4.6,81.4,3.9c17.2-0.3,19.5-1.2,35.3-1c23.3,0.4,32,2.6,53.9,3.9
	c17.3,1.1,29.5,0.7,53.9,0c41.4-1.2,42.6-3.8,70.6-3.9c26.4-0.2,31,2.1,67.7,3.9c33.5,1.7,43.1-1,72.6,1c20.9,1.4,20.2,3.1,45.1,4.9
	c13.7,1,14,0.6,51,2c31,1.2,36.7,1.7,55.9,2c14.2,0.2,22.2,0.3,33.4,0c18.1-0.5,29.9-1.9,50-3.9c14.5-1.5,35.6-3.5,61.8-5.9"/>
<path class="st0" d="M136.7,855.2c24.9,1,50.6,2.5,77,4.5c38.7,3,40,4.6,67.1,6.3c45.6,3,83.5,1.7,107.9,0.9
	c33.6-1.2,39.3-2.7,68.9-2.7c16.6,0,31,0.6,59.8,1.8c38.7,1.6,41.4,2.3,74.4,3.6c32.6,1.3,50,2,74.4,1.8c35.4-0.3,33.2-2.1,61.7-1.8
	c17.6,0.2,35.9,1.3,72.5,3.6c33.6,2.1,34.6,2.6,47.1,2.7c23.3,0.2,32.2-1.4,53.5-0.9c21.2,0.5,19.7,2.7,43.5,3.6
	c15.2,0.6,29,0.3,43.5,0c15.2-0.3,26.4-0.8,29-0.9c18-0.7,49.5-1.2,108.8,0"/>
<path class="st0" d="M136.6,902.2c21.5,3.8,43.3,6.3,65.1,7.5c9,0.5,18.9,0.7,38.4,1.1c53.7,1,53.7-0.1,72.6,1.1
	c32.8,2.1,35.1,5.6,65.1,7.5c20.6,1.2,26-0.2,61.9-1.1c18-0.4,47.3-1.1,84.3,0c12,0.4,48.5,1.5,90.7,5.4c11.9,1.1,22.7,2.3,38.4,2.1
	c18.4-0.2,25.6-1.9,43.8-2.1c18-0.2,21.5,1.5,39.5,2.1c23.6,0.8,28-3.4,52.3-2.1c14.4,0.8,24.6,3.4,28.8,4.3c14.6,3.2,21.6,1,49.1,0
	c9-0.3,26.7,0.2,61.9,1.1c48.7,1.3,44.6,2.2,66.2,2.1c33.8,0,33.2-2.2,69.4-2.1c20.7,0,25.6,0.7,56.6,1.1c20.2,0.2,36.9,0.1,48,0"/>
<path class="st0" d="M136.6,966.2c19.9-0.9,39.9-0.5,59.8,1.1c35.8,2.8,43.7,7.4,72.6,7.5c25.1,0,24.2-3.4,61.9-5.4
	c29.1-1.5,52.3-0.5,65.1,0c37.1,1.6,40.2,4.4,68.3,4.3c24.5-0.1,23.1-2.2,52.3-3.2c7.3-0.2,17.8-0.4,81.1,2.1
	c43.4,1.8,45.2,2.1,58.7,2.1c27.9,0,36.8-1.5,61.9-2.1c15.2-0.4,35.7,0.6,76.8,2.1c44.6,1.7,48.1,2.3,66.2,2.1
	c28.3-0.2,29.3-1.9,49.1-1.1c28,1.1,34.3,4.6,58.7,5.4c24.2,0.7,41.5-2.1,50.2-3.2c27.6-3.6,74.8-4.2,161.2,7.5"/>
<path class="st0" d="M122.4,1022.4c51.8-7.2,88.4-6.4,112.8-4.1c8.8,0.8,27.4,2.9,54.4,4.1c16.1,0.7,28.8,0.8,50.2,1
	c23.6,0.2,42.3,0.1,56.4,0c60.7-0.5,57.8-1.2,79-1c59,0.5,59.9,6.2,115.9,6.1c5.9,0,5.3-0.1,70.8-2.1c26.2-0.8,42.3-2.2,68.7-2
	c3.7,0,17.7,0.1,40,1c16.4,0.7,43.6,2.1,97.5,7.2c57.3,5.4,51,6.1,71.8,7.2c33.4,1.7,48.6-0.3,85.1-1c23.9-0.5,58.7-0.5,101.5,2"/>
<path class="st0" d="M128.6,1065.5c29.6,0.5,53.5,1.3,69.7,2.1c32.7,1.5,43.4,2.6,66.7,2c20.9-0.5,22.6-1.7,45.1-2
	c25.8-0.4,26.9,1.2,53.3,1c19-0.1,22.2-0.9,56.4-2c15.6-0.5,27.1-0.9,41-1c22.9-0.2,41.8,0.2,65.6,1c17.7,0.6,48.4,1.7,87.2,4.1
	c38.5,2.4,47.7,3.7,69.7,3.1c20-0.5,25.9-1.9,43.1-2c31.7-0.2,38.4,5.1,65.6,6.1c30.8,1.1,30.1-4.8,62.6-5.1c28.4-0.3,33,4.1,78,9.2
	c34.7,3.9,61.2,4.6,81,5.1c25.8,0.7,36.8,0,91.3-1c31.9-0.6,57.6-0.9,73.9-1"/>
<path class="st0" d="M131.7,1116.1c24.5,2,49.1,2,73.6,0c14.5-1.2,14.7-2,26.6-2.5c5.9-0.3,24.4-1,74.8,3.8
	c18.6,1.8,16.6,2,25.4,2.5c26.5,1.8,43.2,0.4,55.8,0c52.8-1.5,52.9,16.1,93.9,11.4c26.5-3,32.4-11,63.4-11.4
	c16.2-0.2,16.2,2,41.9,3.8c28.7,2.1,39.2,0.2,78.7,0c6.3,0,25,0.4,62.2,1.3c54.6,1.3,81.9,1.9,97.7,2.5c23.3,0.9,45.9,2.3,90.1,5.1
	c41.7,2.6,67.7,4.4,96.4,6.3c32.9,2.2,80.5,5.4,139.6,8.9"/>
<path class="st0" d="M133,1165.6c50,10.7,82.8,10.3,104.1,7.6c15.6-2.2,31.2-3.4,47-3.8c13.5-0.3,23.2,0.2,41.9,1.3
	c44.7,2.5,48.1,4.8,74.8,5.1c17.7,0.2,13.5-0.9,45.7-1.3c26.7-0.3,31,0.4,57.1,0c32.3-0.5,30.5-1.6,48.2-1.3
	c23.1,0.4,31,2.4,60.9,5.1c31,2.7,27.9,1,67.3,3.8c57.8,4.1,59.1,7.3,86.3,6.3c26.3-1,26.6-4.1,59.6-5.1c6.6-0.2,28.7-0.7,58.4,1.2
	c25.6,1.7,23.2,3.1,50.7,5.1c31.9,2.3,37.8,0.7,64.7,3.8c21.7,2.5,20.9,3.9,35.5,5.1c28.8,2.4,46.6-1.7,66-3.8
	c19.5-2.1,48.2-3,85,3.8"/>
<path class="st0" d="M130.4,1221.4c10.9-0.2,28.1-0.4,49.5,0c26.6,0.5,33.2,1.5,53.3,1.3c22.9-0.2,24-1.6,52-2.5
	c14-0.5,36.3-1.2,63.4,0c29,1.3,30.9,3.4,66,5.1c7.3,0.4,19.7,0.7,44.4,1.3c27.4,0.7,43,1.1,62.2,1.3c20.3,0.2,29.6,0.1,59.6,0
	c73.8-0.2,71-1.6,82.5,0c26.4,3.8,36.9,9.6,64.7,8.9c13.6-0.4,15.3-1.9,31.7-2.5c25-1,42,1.6,60.9,3.8c0,0,35.1,4.2,82.5,6.3
	c25.3,1.2,32.5,0.4,88.8,0c28.3-0.2,54.5-1.7,83.7,0c32.5,1.9,64.7,6.6,96.4,13.9"/>
<path class="st0" d="M129.2,1295c19.3,2.7,38.8,3.9,58.4,3.8c29.3-0.2,39.7-3.4,74.8-5.1c14.6-0.7,10.2,0,68.5,0
	c59.4,0,77.2-0.7,88.8-1.3c21.3-1.1,30.7-4.4,50.7-3.8c19.3,0.5,21.5,3.4,48.2,6.3c35.4,3.9,42.9-2.8,88.8-2.5
	c21.9,0.1,16.8,1.6,58.4,3.8c42.2,2.2,46.6,0.7,97.7,2.5c14.1,0.5,35.2,1.6,77.4,3.8c42.5,2.2,53.3,2.9,73.6,2.5
	c18.3-0.4,25.2-1.3,44.4-1.2c14.7,0,20.9,0.7,53.3,2.5c30.9,1.7,46.4,2.6,52,2.5c36.3-0.1,41.9-5.2,66-3.8
	c13.5,0.8,33.7,3.6,58.4,13.9"/>
<path class="st0" d="M126.6,1353.4c21,0.3,42.5,0.3,64.7,0c31.2-0.5,46.4-1.7,72.3-2.5c17.6-0.5,42.2-0.3,91.4,0
	c57.1,0.3,63.7,0.7,86.3,0c31.2-1,30.1-2.2,55.8-2.5c32-0.4,41.2,1.3,72.3,0c23.2-1,21.6-2.1,40.6-2.5c25.2-0.6,36.3,1.1,66,2.5
	c33.1,1.6,28.3-0.1,67.3,1.3c43.1,1.6,48.3,3.7,81.2,3.8c29.8,0.1,26.3-1.6,50.7-1.3c37.3,0.5,43,4.4,93.9,7.6
	c26.4,1.7,21.9,0.4,60.9,2.5c48.1,2.6,48.3,4.1,68.5,3.8c29.1-0.5,35.6-3.8,66-3.8c15.3,0,30.5,0.9,45.7,2.5"/>
<path class="st0" d="M106.3,1420.6c25.7,2.2,51.6,2.6,77.4,1.3c23-1.2,25.5-3.4,52-5.1c40.2-2.5,40.7,1.4,76.1-1.3
	c28.7-2.2,34.4-5.2,59.6-5.1c18.9,0.1,23.9,1.9,40.6,2.5c20.6,0.8,29.7-1.4,71-6.3c39-4.6,58.5-7,76.1-7.6c20.8-0.7,15.6,1.1,66,2.5
	c26.1,0.7,33.3,0.5,72.3,1.3c42.6,0.9,45,0.8,49.5,1.3c13.7,1.5,23.6,3.5,40.6,3.8c11.8,0.2,11.8-0.9,27.9-1.3
	c33-0.8,40.8,5.1,72.3,3.8c18-0.7,14.4-2.6,27.9-2.5c26.5,0.1,32.3,7.2,60.9,8.9c18.1,1,18.3-1.7,36.8,0c17.3,1.6,26.8,4.9,39.3,7.6
	c14.4,3.2,35.3,6.3,62.2,5.1"/>
<path class="st0" d="M107.6,1476.5c22.6,1.6,46.8,2.5,72.3,2.5c18.6,0,22.2-0.7,73.6-2.5c27.6-1,27.5-0.9,76.1-2.5
	c49.7-1.7,54.5-2,60.9-2.5c20.2-1.6,29.7-3.2,50.7-3.8c15.8-0.5,17.6,0.2,36.8,0c21.9-0.2,32.7-1.2,58.4-2.5
	c32.9-1.7,49.4-2.4,64.7-2.5c27.3-0.1,27.2,1.5,63.4,2.5c37.8,1.1,47.5-0.4,96.4,0c28.3,0.2,30.4,0.8,60.9,1.3
	c44.8,0.7,87.5,0,87.5,0c40.1-0.7,36.3-1.5,57.1-1.3c23.4,0.3,43.7,1.7,57.1,2.5c31.7,2.1,29.3,3,46.9,3.8c34.6,1.5,43.5-2,73.6-1.3
	c20,0.5,40,2.6,59.6,6.3"/>
<path class="st0" d="M113.9,1532.3c21.6-1.3,43.2-1.3,64.7,0c21.8,1.3,30.2,3.2,53.3,3.8c16.7,0.5,27.6-0.1,50.7-1.3
	c58.1-2.8,64.3-3.2,82.5-3.8c35.8-1.1,56.9,0,74.8,0c27.9,0.1,32.7-2.3,64.7-3.8c28.7-1.3,49.2-0.4,85,1.3c43.7,2,49.5,4.2,80,5.1
	c40.9,1.2,46-5,81.2-2.5c23.2,1.6,27.5,4.1,53.3,5.1c19.1,0.7,23-0.5,55.8-1.3c21-0.5,42-1,67.3,0c30.8,1.2,32.8,3.3,67.3,5.1
	c28.7,1.5,27.8,0.1,66,1.3c9.8,0.3,44.2,1.4,88.8,5.1c24.8,2,46.2,4.3,63.4,6.3"/>
<path class="st0" d="M111.4,1585.6c37.3,0.1,67.5,1.3,88.8,2.5c23.1,1.3,43.4,2.9,72.3,1.3c6.8-0.4,19.9-2,45.7-5.1
	c54.7-6.5,52.2-6.8,63.4-7.6c32.6-2.4,32.3,1.8,78.7,1.3c47.2-0.5,44.4-4.8,71.1-2.5c30.3,2.5,36,8.3,73.6,11.4
	c6.8,0.6,6.3,0.4,49.5,1.3c63.9,1.4,69.3,1.9,88.8,1.3c34-1.1,29.9-3.2,48.2-2.5c36.9,1.4,42.2,9.5,74.8,8.9
	c23-0.5,24.9-4.6,49.5-3.8c18.7,0.6,24.6,3.2,44.4,5.1c27.1,2.7,40.7,0.2,59.6,0c21.2-0.2,51.7,2.2,90.1,15.2"/>
<path class="st0" d="M110.2,1642.7c21.1,2.4,42.3,2.8,63.4,1.3c15.4-1.1,19.8-2.5,36.8-3.8c23.3-1.7,35.4-0.7,63.4,0
	c40.4,1,38.8-0.7,82.5,0c38.4,0.6,43.8,3.9,69.8,2.5c23.6-1.3,24.3-3.6,49.5-5.1c24.9-1.4,34.6,0.2,68.5,1.3
	c36.9,1.1,34.5-0.7,76.1,0c32.6,0.5,56.6,2,87.5,3.8c38.6,2.3,39.6,3.1,88.8,6.3c31.2,2.1,38.2,2.2,86.3,5.1
	c25.3,1.5,28.3,1.8,81.2,5.1c48.6,3,55.6,3.4,64.7,3.8c29.8,1.4,37.7,1.2,59.6,2.5c24.9,1.5,45.1,3.6,58.4,5.1"/>
<path class="st0" d="M110.2,1694.7c15.9-1.5,40.7-3.4,71-3.8c20-0.3,29.3,0.2,91.4,2.5c73.7,2.7,83,2.8,95.1,2.5
	c33.5-0.6,31.5-2.4,74.8-3.8c49.3-1.6,84.7-0.3,93.9,0c35.8,1.4,41.9,4.9,73.6,5.1c30.3,0.2,30.9-2.4,58.4-2.5
	c36.2-0.2,41.6,4.3,97.7,8.9c16.2,1.3,44.6,3.3,78.7,3.8c39,0.6,40.3-1.4,82.5-1.3c21.1,0.1,56,0.7,97.7,3.8
	c25.8,1.9,30.2,3,78.7,7.6c30.7,2.9,55.8,5,72.3,6.3"/>
<path class="st0" d="M106.3,1746.7c25.6-0.7,46.8-0.5,62.2,0c43.6,1.2,50.7,4.1,78.7,2.5c27.7-1.6,27.7-4.8,59.6-6.3
	c14.4-0.7,28.2-0.5,55.8,0c30.5,0.5,36.4,1.2,57.1,1.3c25.6,0,27.5-1,50.7-1.3c21.1-0.2,47.3,1.1,99,3.8c38.3,2,41.5,2.5,55.8,2.5
	c29.7,0.1,32.4-1.9,57.1-1.3c22.4,0.5,22.5,2.2,63.4,5.1c18.8,1.3,33.8,2.3,53.3,2.5c28.5,0.3,31.4-1.5,52-1.3
	c33.7,0.2,43.2,5.1,81.2,8.9c21.1,2.1,20.9,0.5,72.3,2.5c12.1,0.5,32.8,1.2,54.6,2.5c30.6,1.9,34.5,3.2,60.9,5.1
	c14.9,1,37.1,2.3,64.7,2.5"/>
<path class="st0" d="M102.5,1801.2c13.9,0.7,28.3,1.1,43.2,1.3c18.6,0.2,30.7-0.4,60.9-1.3c41.8-1.2,42.2-1.3,50.7-1.3
	c20.5,0.1,25.2,0.9,52,1.3c13.8,0.2,20.2,0.1,41.9,0c28.8-0.1,54.2-0.2,76.1,0c22.2,0.2,27.8,0.7,83.7,2.5
	c45.3,1.5,55.2,2.3,81.2,2.5c24.2,0.2,24.2-0.3,47,0c29.7,0.4,38.8,1.5,72.3,2.5c26.3,0.9,45.3,1,68.5,1.3c18.3,0.2,46.9,0.5,83.7,0
	c48-0.6,55.7-1.7,77.4,0c21.9,1.7,33.5,8.5,58.4,8.9c19,0.3,15.6-3.4,41.9-3.8c11.8-0.2,17.4,0.7,59.6,6.3c29,3.9,43.6,5.8,49.5,6.3
	c20.2,1.8,40.6,2.2,60.9,1.3"/>
<path class="st0" d="M108.9,1864.7c11.6,0.4,29.7,1,52,1.3c38.7,0.5,53.1-0.2,95.2,0c39.7,0.2,59.6,0.2,77.4,1.2
	c52.2,3,55.7,8,91.4,7.6c33.5-0.4,32.8-4.8,73.6-6.3c24.8-0.9,32.2,0.5,85,2.5c57.1,2.2,49.4,0.7,88.8,2.5
	c70.5,3.3,74.9,7.4,110.4,5.1c25.2-1.7,30.2-4.2,63.4-6.3c25-1.6,44.8-1.4,72.3-1.3c29,0.1,54.9,0.9,66,1.3
	c19.3,0.6,25.3,1,41.9,1.2c20.4,0.3,27.8,0,46.9,0c15.4,0,38.6,0.1,59.6,1.3c26,1.5,51.9,4.9,77.4,10.2"/>
</svg>
