<?xml version="1.0" encoding="utf-8"?>
<!-- Generator: Adobe Illustrator 22.1.0, SVG Export Plug-In . SVG Version: 6.00 Build 0)  -->
<svg version="1.1" id="Layer_1" xmlns="http://www.w3.org/2000/svg" xmlns:xlink="http://www.w3.org/1999/xlink" x="0px" y="0px"
	 viewBox="0 0 1240 1588" style="enable-background:new 0 0 1240 1588;" xml:space="preserve">
<style type="text/css">
	.st0{fill:none;stroke:#1D1D1B;stroke-width:6;stroke-miterlimit:10;}
</style>
<image style="overflow:visible;" width="1240" height="1588" xlink:href="processed.jpg" >
</image>
<title>paper_1</title>
<g id="Layer_2_1_">
	<path class="st0" d="M348,58.7c33.5,6,67.5,8.9,101.6,8.8c47.3-0.1,94.4-6.1,140.2-17.6"/>
	<path class="st0" d="M47.7,163.7c18.4,1.6,48,4.5,84.8,8.1c60.6,6.1,74.5,8.1,107,10.1c13.4,0.9,46.8,2.7,89.9,3
		c43.6,0.2,45.9-1.5,83.8-1c49.6,0.6,58,3.8,90.8,4c44.4,0.1,66.6-5.6,109-11c18.6-2.4,16.6-1.9,158.4-8.1
		c73.6-3.2,86.1-4.2,95.8-5.1c34.3-3,43.3-5,72.6-6.1c33-1.2,35.9,0.9,68.6-1c33.4-1.9,35.6-4.3,59.6-4c25.2,0.2,28.5,3,51.5,2
		c17.3-0.7,22.5-2.6,46.4-5.1c20.2-2,36.7-2.7,47.4-3"/>
	<path class="st0" d="M0.9,234.3c26.1,8.6,52.9,14.9,80.1,19c33.3,5,44.9,3.1,118.4,6c72.2,2.7,69.8,4.8,107.7,4.7
		c47.5-0.1,49.5-3.5,100.7-3.6c47.9-0.1,46.7,2.7,94.7,2.4c20-0.1,44.6-1.2,93.6-3.6c33.5-1.5,50.1-2.4,69.9-3.6
		c57.8-3.6,59.3-5.7,95.9-7.1c38-1.5,38.8,0.5,80.5-1.2c34.3-1.4,33.8-2.9,71.1-4.7c27.8-1.4,31.2-0.9,99.5-2.4
		c46.4-1.1,69.8-1.6,76.9-2.4c27.9-3,49.4-7.7,92.3-10.7c9.1-0.6,16.5-1,21.3-1.2"/>
	<path class="st0" d="M9.7,310.9c41.8,10.1,84.4,17,127.2,20.9c49.5,4.3,65.5,1.6,160.2,3.7c82.9,1.9,86.3,4.3,144.3,4.8
		c84.9,0.9,75.2-4.7,166.3-5c83-0.1,111.6,4.2,177.4-2.5c18.6-1.9,30.8-3.7,59.9-6.1c11.7-1,53-4.3,113.8-6.1
		c47.7-1.4,51-0.2,72.2-2.5c33.5-3.5,44.4-9.6,80.7-15.9c27.1-4.7,54.5-7.6,81.9-8.6"/>
	<path class="st0" d="M53,412.9c14,4.6,35.4,10.3,61.9,12.4c19.1,1.5,27.7,0.1,49.5,0c42.4-0.2,45.5,5,85.1,6.2
		c36,1.1,33.8-3.2,93-4.6c11.2-0.2,9.6-0.1,71.2,0c34.6,0,32.5,0,85.1,0c90.2,0,85.4,0.4,97.6,0c36-1,50.5-2.6,93-3.1
		c12.8-0.1,25.4,1.1,44.9,0c16.9-1,24.3-2.6,40.2-3.1c18.2-0.6,23.5,1,40.2,1.5c8.7,0.2,15.4,0.1,78.9-6.2c36.5-3.6,38.6-4,49.5-4.6
		c19.9-1.1,26.7-0.6,51.1-1.5c10.3-0.4,31.3-1.1,54.2-3.1c47-4,54-8.9,83.7-9.3c14.5-0.2,32.9,0.7,54.2,4.6"/>
	<path class="st0" d="M4.6,483.4c29.9,5,73,11.2,125.4,14.8c14.9,1,41.1,2.6,108,3.5c53,0.7,93.6,0.5,147.9,0
		c119.1-1,179.7-1.6,226.4-3.5c63.5-2.6,70-5.6,134.9-7.8c49.4-1.7,67.1-1.1,128-3.5c27.3-1.1,52.1-2.5,101.8-5.2
		c108.7-6.1,148.9-9.7,167.2-11.3c24.8-2.4,45.3-4.5,59.2-6.1"/>
	<path class="st0" d="M0.9,557.1c29.3,3.8,69,8.3,116.4,11.7c20.4,1.4,80.7,5.2,168.8,4.2c91.1-1,86.9-5.7,180.5-7.4
		c91.2-1.6,94.4,3,175.1,0c54.7-2,50.4-4,140.2-8.4c74.2-3.7,83.3-2.6,144.6-6.3c15.5-1,37.7-2.4,124.5-9.4
		c36.4-3,87.6-7.2,149.8-12.7"/>
	<path class="st0" d="M0.9,618.2c28.7,4.8,72,11.2,125.2,15.4c53.9,4.2,96.9,4.1,181,3.8c69.4-0.2,126.3-1.7,166.4-2.9
		c90.1-2.5,97.2-4.1,144.3-3.8c75.1,0.4,76.9,4.6,136.6,3.8c63.8-0.7,64.3-5.6,150.2-9.7c73.2-3.5,86.1-0.5,165.4-3.8
		c51.3-2.1,93.1-5.3,120.3-7.7"/>
	<path class="st0" d="M13.7,695.8c24.6,1.7,59.2,4.2,100.9,6.8c37.2,2.2,55.7,3.5,80.5,4.6c56.7,2.5,57,0.9,106.6,3.4
		c37.5,1.9,46.8,3.2,73.7,3.4c28,0.1,50.9-1.1,65.8-2.2"/>
	<path class="st0" d="M42.1,783.1c22.6,1.9,52.7,4,88.5,5.7c56.1,2.7,98.3,3.1,137.3,3.4c55.6,0.5,55.9-0.6,143-1.1
		c34.4-0.2,37.1,0,154.3,0c99.5,0,85.6,0,129.3,0c156.3,0.2,164.1,1.4,222.4,0c34.4-0.7,87.5-2.5,154.3-7.9
		c10.8-0.9,19.9-1.7,26.1-2.2"/>
	<path class="st0" d="M0.9,851.3c25.6,1.9,63.5,4.6,110,6.6c57.1,2.5,93.5,2.7,144.6,3.7c132.3,2.6,112.2,5.6,178.5,5.6
		c91.5,0.1,112.1-4.8,192.5-2.9c13,0.4,35.1,1,65.8,0c43.3-1.5,54.5-4.8,89.2-6.6c25.8-1.4,33.8-0.2,109.8,2.9
		c66.2,2.6,75.2,4.6,107.1,3.7c28-0.7,36.2-2.4,72.4-4.7c28.4-1.9,69.8-3.8,121.1-3.7"/>
	<path class="st0" d="M14.7,915.7c33,1.9,66.3,3.7,99.8,5.3c56.7,2.9,109,5.5,176.9,7.4c40.2,1.2,106.9,3.2,194.1,3.2
		c62.2,0,70.4-1,124.4-1.1c60.1,0,90.1,2.2,197.3,4.3c11.5,0.2,32.9,4.3,61.1,1.1c17.1-2,22.3-4.5,38.6-6.5
		c25.9-3.1,41.8,0.1,64.3,2.1c40,3.7,70.5,1.1,110.5-2.1c18.4-1.5,43.7-4.2,74-9.7"/>
	<path class="st0" d="M12.4,989.3c30,2,76.6,4.7,133.8,6.6c47.9,1.6,49.4,0.9,101.3,2.5c106.2,3.2,116.2,6.8,180.2,6.6
		c5.3,0,40.3-1.1,110.5-3.4c100.2-3.1,117.3-4,151.2-2.5c45.4,2,47.4,5,90.6,5.8c37.9,0.7,57.5-1.2,105.5-3.4
		c24-1.1,58.1-1.9,126.2-3.4c44.7-1,107.4-2.1,184.4-2.5"/>
	<path class="st0" d="M20.5,1054.6c15.6,0.4,39.3,1.1,68.3,2c39.1,1.1,60.1,1.9,94.6,3c40.7,1.2,81.8,2.4,106.4,2.9
		c92.8,2.2,100.4,0.4,207.8,2c77.4,1.1,85.6,2.4,156,2.9c13.7,0.1,48.7,0.1,118,0c118.4-0.1,178.6-0.2,224.4-2
		c27.1-1,34.9-1.6,72.2-3c52.7-1.9,95.9-2.6,124.9-2.9"/>
	<path class="st0" d="M20.8,1118.5c15.6,0.9,38.2,2.1,65.5,3.5c54.2,2.7,81.4,4,105.6,4.6c75.8,1.9,74.3-3,132.1,0
		c41,2.1,49.4,4.8,88.5,5.7c41,1,48.2-4.2,87.3-2.2c32.5,1.6,36.2,4.7,66.6,4.6c25.4-0.1,30.4-2.5,59.7-2.2
		c21.8,0.1,24.9,1.5,52.9,2.2c23.1,0.7,32.6,0.1,59.7,0c46.5-0.2,45.7,1.2,88.5,1.1c21.1,0,46.7-0.7,97.7-2.2
		c57.6-1.7,54.9-2.1,75.8-2.4c28.8-0.4,41.6,0.2,98.8,1.1c19.5,0.4,47.9,0.7,82.7,1.1"/>
	<path class="st0" d="M28.7,1185.4c41.2,5.2,82.7,8.1,124.2,8.4c54.1,0.4,66-3.7,123-2.5c47.5,1.1,47.4,4.2,112.2,7.2
		c42.1,2,56.3,1.4,120.6,2.5c81,1.4,78.7,2.7,135,3.6c64.3,1,112.1,0.1,178.5-1.2c79.2-1.5,87.6-2.9,159.2-3.6
		c54.9-0.6,93.7-0.2,112.2,0c41.1,0.5,76.9,1.5,106.1,2.4"/>
	<path class="st0" d="M33.5,1255.3c14.9,0.4,37.6,0.9,65.2,1.2c45.4,0.5,73.5,0.1,95.3,0c46.2-0.2,50,1.1,172.5,4.8
		c11.4,0.4,53,1.5,136.3,3.6c91.3,2.4,137.4,3.6,152,3.6c105.6,0.1,100.8-5.6,152-1.2c29.2,2.5,57.7,6.6,102.5,4.8
		c25.2-1,27.1-2.7,55.5-3.6c34.4-1,39.2,1.2,95.3,2.4c37.7,0.7,43.3-0.1,73.6,1.2c23.2,1,42.1,2.5,54.2,3.6"/>
	<path class="st0" d="M27.5,1319.2c14.6-0.6,36.4-1.4,62.7-1.2c30.4,0.2,40.2,1.4,72.4,2.5c62.8,2.1,65.9-1.1,112.2,1.2
		c37,1.9,29.5,3.6,80.8,7.2c41.2,2.9,73.7,3.7,117,4.8c15.4,0.4,39.8,1,72.4,1.2c56.2,0.4,56.6-1,86.9,0c52.3,1.7,51.9,5.7,86.9,4.8
		c37.2-1,37.7-5.6,77.2-6.1c25.2-0.2,27.6,1.6,70,2.4c13.5,0.2,13.9,0.1,62.7,0c32.8,0,26.1,0,90.5,0c60.8,0,59-0.1,63.9,0
		c23.5,0.5,57.7,2.1,100.2,7.2"/>
	<path class="st0" d="M44.3,1385.6c11.5-0.5,29.2-1.4,50.6-2.4c62.7-3.1,67.5-3.6,83.3-3.6c34.5,0,32.8,2.6,78.4,3.6
		c40,0.9,39.8-1.1,73.6,0c30.8,1,32.3,2.7,82,6.1c27.7,1.7,49.1,3.2,77.2,3.6c40.1,0.6,49-1.5,86.9-1.2c46.4,0.4,42.9,3.7,77.2,3.6
		c44.8-0.1,48.7-5.3,108.6-8.4c30.2-1.5,52.7-1.4,88.1-1.2c50.4,0.2,50.1,2.1,92.8,2.5c71.4,0.5,72.6-4.3,115.8-1.2
		c44.1,3.2,50.4,8.7,84.4,8.4c28.5-0.2,57-4.3,84.4-12"/>
	<path class="st0" d="M600.7,1504.6c36.9,9.1,74.6,13.9,112.6,14.1c25.8,0.1,29-2,88.5-4.3c31.5-1.2,53.7-1.6,95.1-2.2
		c55.6-0.9,80.7-0.4,95.1,0c13.7,0.4,24.9,0.7,32.8,1.1"/>
</g>
</svg>
