<svg id="Layer_1" data-name="Layer 1" xmlns="http://www.w3.org/2000/svg" xmlns:xlink="http://www.w3.org/1999/xlink" viewBox="0 0 2988 5312"><defs><style>.cls-1{fill:none;stroke:#1d1d1b;stroke-miterlimit:10;stroke-width:6px;}</style></defs><title>paper_5</title><image width="5312" height="2988" transform="translate(2988) rotate(90)" xlink:href="paper_5.jpg"/><path class="cls-1" d="M414.62,1364.94c84.09,9.45,152.59,17.7,199.92,23.52,78.73,9.69,108.53,13.86,154.84,17.64,88.89,7.26,79.89-.79,182.28,5.88,55.87,3.64,93.22,8.09,156.8,5.88,30.4-1,38.38-2.64,62.72-3.92,90.25-4.73,108.12,12.9,186.2,11.76,60.22-.88,53.49-10.17,115.64-9.8,25.19.15,43.1,1.78,125.45,9.8,86.16,8.4,78.25,8.66,100,9.8,54.89,2.89,65.46-1.57,147-2,63.18-.3,57.13,2.37,115.64,2,61.37-.43,65.36-3.35,149-5.88,58.67-1.77,107.84-1.88,147-2,80.69-.17,80.62,1.29,103.88,0,40.17-2.22,98.78-9.79,170.52-35.28"/><path class="cls-1" d="M434.22,1482.54c78.61,22.77,135.72,26.61,174.44,25.48,16.87-.49,38.68-2.17,72.52,0,40,2.57,55,7.83,92.12,9.8,35.62,1.89,40.94-2.67,74.48-2,31.51.67,49.35,5.79,90.16,11.76,29.85,4.37,55.18,4.22,105.84,3.92,61.69-.36,61.72-4.58,119.56-5.88,78.84-1.77,83.51,5.92,170.52,3.92,42.16-1,50.92-3,84.28-2,43,1.33,60.79,7.34,109.76,11.76,27.84,2.51,55.42,5.86,92.13,3.92,33.32-1.76,32.52-5.32,60.76-5.88,39.66-.78,45.9,6.16,92.12,7.84,27.31,1,27.83-1.33,70.56-2,36.19-.53,54.22.87,88.2,2,63.87,2,114,.75,141.12,0,62-1.7,109.36-5.54,137.2-7.84,15-1.24,28.87-2.5,129.36-13.72,136.29-15.21,167.72-19.23,211.68-27.44,31.51-5.88,57.28-11.64,74.48-15.68"/><path class="cls-1" d="M430.3,1617.78c74.91,10.39,134.35,20.35,174.44,27.44,80.64,14.27,102.58,20.45,145,17.64,25.59-1.69,46.55-5.85,90.16-5.88,33,0,39.22,2.35,70.56,2,35.31-.43,47.07-3.69,92.12-7.84,19.3-1.78,64.82-5.88,113.68-5.88,48.12,0,47.19,5,117.6,7.84,41.25,1.68,39.71.07,96,2,53.52,1.8,59.56,3.41,96,3.92,38.61.54,38.07-1.17,94.08-2,82.16-1.15,83.56,2.53,139.17,0,50.86-2.31,53.76-5.58,84.28-3.92,30.18,1.65,42.6,5.68,88.2,9.8,13.72,1.24,37,3.32,64.68,3.92,65.38,1.43,80.16-7,149-5.88,27.09.44,25.92,1.76,54.88,2,34.94.24,55.75-1.56,94.08-3.92,27.64-1.7,58.94-3.09,121.52-5.88,65.16-2.9,80.05-2.8,101.92-3.92,48-2.45,116.19-10.07,201.88-33.32"/><path class="cls-1" d="M442.06,1756.94c74.35-2.24,131.34,3.69,170.52,9.8,38.29,6,65.86,13.13,109.76,9.8,23.19-1.75,38.85-5.51,72.52-5.88,29.11-.31,49.2,2.16,66.64,3.92,15,1.53,53.14,3,129.36,5.88,124.93,4.77,187.39,7.15,233.24,5.88,34.58-.95,53.74-2.43,94.08-2,37.33.45,45.9,2,107.8,3.92,26.76.83,47.89,1.21,90.16,2,74.69,1.34,81.31.82,109.77,2,40.44,1.63,41.62,3.46,105.84,7.84,54.17,3.7,81.26,5.55,111.72,5.88,44.13.49,40.92-2.23,137.2-5.88,60.4-2.28,91.29-3.4,125.44-2,42.64,1.8,47.47,4.64,78.4,3.92,46.73-1.08,63.14-8.18,103.88-11.76,58.47-5.13,59.48,9.42,111.72,3.92,26.75-2.81,30.93-6.39,82.32-13.72,29.56-4.21,51.85-6.4,66.64-7.84,36.5-3.54,85.55-7,145-7.84"/><path class="cls-1" d="M436.18,1864.74c36.6,6,89.16,13.71,152.88,19.6,40.58,3.76,88.47,5.77,184.24,9.8,113.67,4.79,171.13,7.12,201.88,3.92a619.22,619.22,0,0,1,80.36-3.92c31.58.55,45.33,3.58,74.48,5.88,45.45,3.59,57.78.13,115.64,0,70.4-.15,65.18,4.94,141.12,5.88,69.11.87,80.53-3.26,139.16-2,47.71,1.07,41.43,4,127.41,9.8,62.48,4.2,108.2,7.16,168.56,5.88,39.84-.84,32.75-2.4,84.28-3.92,15.21-.44,74.84-2,156.8,0,65,1.63,78.55,3.9,113.68,0,29.07-3.22,40-7,68.6-9.8,42.32-4.09,63.91.14,103.88,2,63.95,2.92,113.44-2.2,149-5.88,51.51-5.32,59.31-10,131.32-19.6,47.09-6.25,85.47-9.79,109.76-11.76"/><path class="cls-1" d="M441,1993.32c68.35,7.19,123.89,10.66,162.4,12.49,43.06,2.06,52.68,1.5,97.85,4.17,76.19,4.5,78.17,7.83,135.33,10.41,44.24,2,38.35-.21,127,2.08,48.72,1.26,53.86,2,83.28,2.08,40.94.1,55-1.3,102-2.08,48.46-.81,48.38.43,95.77,0,88.9-.8,90.06-5,149.91-4.16,10.91.16,47,2.19,118.67,6.24,107.59,6.08,102.44,6,110.35,6.25,94.6,3.34,97.95-5.91,187.39-4.17,67.08,1.31,68.42,6.58,166.56,10.41,34.27,1.34,65,1.61,124.92,2.09,95.61.76,133.07,0,251.93,0,140.39,0,131.26,1,160.31,0a1763.69,1763.69,0,0,0,231.11-22.91"/><path class="cls-1" d="M436.87,2130.74c67.57,8.36,122.29,12.41,160.32,14.57,28.77,1.63,44.9,2,81.2,4.16,63.85,3.81,84.93,11.21,131.17,10.41,32.38-.56,32.5-3.73,70.79-6.24,62.9-4.14,97.39,2.14,158.23,6.24,16.92,1.14,63.34,1.25,156.15,2.09,96.66.86,113.09.35,122.84,0,72.67-2.66,75.34-7.85,131.17-8.33,58-.51,60.49,5,129.09,6.24,57,1,63.83-2.66,137.41-4.16,34.76-.71,34,.1,162.4,2.08,51.92.81,112.59,1.61,181.14,2.08,78.38.54,102.51.2,114.51,0,60.61-1,72.93-2.88,129.08-4.16,71.79-1.64,68.64,1,145.75,0,60.14-.79,106.45-3,174.89-6.25,46.72-2.22,85.94-4.48,114.51-6.24"/><path class="cls-1" d="M441,2259.82c36.74.93,92.32,2.36,160.31,4.17,84.66,2.25,127.36,3.39,145.75,4.16,105.67,4.45,116.66,8.73,218.61,12.49,61.2,2.26,93.75,3.46,141.58,2.08,60.71-1.75,76.66-5.66,131.17-6.24,63-.68,65,4.3,137.41,6.24,99,2.66,99.76-6.54,206.12-4.16,55.34,1.24,69.21,4,133.25,4.16,42.2.08,54-1.1,106.19-2.08,85.38-1.59,107.46.58,170.72,0,99.54-.9,95-7.15,185.3-8.33,54.45-.71,71.69,1.14,177,4.17,47.23,1.36,116.59,3.08,202,4.16"/><path class="cls-1" d="M430.63,2374.33c62.12,5.94,112.76,7.77,147.82,8.33,40.12.64,50.61-.53,116.6,0,54.09.43,67,1.38,118.67,2.08,43,.59,61.33.3,143.66,0,125.67-.45,188.51-.68,220.7,0,90.43,1.93,87.92,4.91,177,6.25,78,1.18,80.93-1.09,168.64,0,78.35,1,94.18,3,172.81,4.16,83.57,1.24,79-1.3,152,0,67.29,1.21,80.31,3.21,154.07,4.17,51.31.66,77,1,112.43,0,88.94-2.5,110.13-9.39,166.56-6.25,49.49,2.76,45.33,9.79,102,14.58,24,2,38.59,2.11,141.58,0,98.82-2,113.64-2.7,145.74-2.09,48.87.94,88.66,3.91,114.52,6.25"/><path class="cls-1" d="M426.46,2484.68c23.5,2.74,59.69,6.37,104.11,8.33,42.41,1.87,61.14.83,145.74,0,81.79-.81,122.69-1.21,168.64,0,57.92,1.52,103.67,4.54,129.09,6.24,105.56,7.08,115.15,12.49,174.89,12.5,28.37,0,21.51-1.22,120.76-6.25,73.13-3.7,111.72-5.66,156.15-6.25,60.56-.8,69.37,1.76,164.48,4.17,129.11,3.26,118.26-1.32,206.12,2.08,97.39,3.77,104.79,9.18,214.45,12.49,41.91,1.27,78.94,1.63,124.92,2.09,61.34.6,97.16,1,145.74,0,66.92-1.32,69.9-3.38,127-4.17,54.73-.76,95.12.53,141.58,2.08,49.39,1.65,112.93,4.64,187.38,10.41"/><path class="cls-1" d="M416.05,2593c59.72,4.33,108.31,7.93,141.58,10.41,68.62,5.11,90.2,6.83,124.92,8.32,20.43.89,57.71,2.22,122.84,2.09,77.77-.17,110.79-2.25,187.39-4.17,108.26-2.71,193-2.31,243.59-2.08,89.19.41,88.32,1.81,189.47,2.08,62.17.17,80.38-.29,162.4,0,78.83.29,119,.46,154.07,2.08,73.59,3.4,73.41,7.19,143.66,10.41,59.45,2.74,62,.18,164.48,2.09,30.86.57,25.51.71,143.66,4.16,144.23,4.22,160.28,4.25,174.89,4.16,32.22-.18,71.45-1.51,149.91-4.16,48.51-1.64,88.24-3.14,114.51-4.16"/><path class="cls-1" d="M395.23,2709.54c62.51,5.63,114.51,7.61,152,8.33,59.28,1.13,109.95-.39,166.56-2.08,88.38-2.65,96.55-5.13,133.25-2.09,49.76,4.13,59.81,10.76,114.52,14.58,41.31,2.88,63.12,1,110.34,0,77.65-1.68,139.39,1.25,168.65,2.08,65.37,1.86,64.18,3.2,116.59,4.16,66.55,1.22,74-.84,133.25,0,87.87,1.26,86.18,6,154.07,6.25,80.48.29,79.75-6.4,158.24-6.25,50,.1,48.31,2.81,162.4,8.33,34.78,1.69,27.17,1.06,160.31,6.25,84.74,3.3,127.1,5,154.07,6.24,103,4.94,104.86,6.79,162.4,8.33,17.42.47,75.53,1.87,152,0,50.48-1.23,95.93-3.56,135.33-6.24"/><path class="cls-1" d="M389,2842.79c64.47,3.15,117.29,4,154.07,4.16,74.76.36,92.31-2,156.15,0,80.69,2.54,75,7,127,6.25,70.87-1,79.51-9.31,141.58-6.25,37.54,1.86,49.67,5.64,91.61,6.25,38.93.57,64.79-2.19,89.53-4.16,86.17-6.89,87.5.69,233.19-4.17,61.77-2.06,70-3.7,118.67-4.16,23.69-.22,67-.25,120.76,2.08,110.85,4.81,121.64,17.34,210.29,18.74,75.79,1.19,70.87-7.71,141.57-4.17,56.88,2.86,77.75,9.51,143.66,10.41,50.09.69,48.08-3,93.7-2.08,57.06,1.17,70.82,7.18,147.82,14.58,50.54,4.85,93.37,9,149.91,8.32,55.65-.63,70.84-5.27,137.41-6.24,44.27-.65,80.47.78,104.1,2.08"/><path class="cls-1" d="M395.23,2953.14c89.92,9.17,160.09,10.74,208.21,10.41,31.09-.22,55.91-1.24,102,0,64.43,1.73,73,5.28,127,6.24a1297.61,1297.61,0,0,0,131.17-4.16c80.17-6.93,77-15.1,124.92-14.57,69,.75,72.6,17.71,124.92,10.41,44-6.15,56.51-20.24,93.69-14.58,29.52,4.5,31,14.8,66.63,20.82,21.07,3.56,26.76,1,81.2,0,37.17-.68,36.82.46,72.87,0,49-.63,82.87-3.18,99.94-4.16,95-5.49,114.9,11.85,254,14.57,65.58,1.29,69.26-2.41,143.66,0,48.7,1.58,72.14,4,118.68,4.17,61.18.25,64.47-4.4,114.51-4.17,60.07.28,60.72,6.33,139.5,10.41,42.59,2.21,49.85.83,149.9,2.08,48.58.61,88.32,1.46,114.52,2.09"/><path class="cls-1" d="M380.66,3103a951.25,951.25,0,0,0,129.08,4.17c34.68-1.22,42.79-3.39,108.27-8.33,49.27-3.72,92.73-7,145.74-8.33,74.84-1.87,75.08,2.49,145.75,0,69.07-2.43,71.09-6.68,120.75-6.24,53.81.47,57,5.5,124.92,8.32,28.34,1.18,28.42.33,131.17,0,53.69-.17,40.35.11,143.66,0,99.74-.1,98.9-.34,122.84,0,70.22,1,74.78,3.06,141.58,4.17,81.34,1.35,80.21-1.59,145.74,0,64.83,1.57,65,4.42,154.07,8.33,35.85,1.57,93.15,4,166.57,4.16,67,.13,86.81-1.77,143.66,0,49.87,1.55,88.24,4.7,106.18,6.25,63.05,5.44,86.9,12.05,122.84,14.57,23.42,1.64,32.35.22,79.12-2.08,38.8-1.91,94-3.94,162.4-4.17"/><path class="cls-1" d="M380.66,3234.21c22.33,2.32,57.12,5.31,99.94,6.25,62.58,1.37,75.11-3.1,139.49-2.08,66.37,1,63.37,6,127,6.24,11.27.05,48.46-1.35,122.84-4.16,67.3-2.54,95.09-3.77,104.1-4.17,57.19-2.53,63.39-3.23,87.44-4.16,43.48-1.67,74.71-1.36,149.91,0,127.09,2.3,133.18,5.73,197.79,4.16,70.37-1.7,59.23-5.62,116.6-6.24,40.66-.44,60.6,1.37,212.36,12.49,95.09,7,105.7,7.6,122.84,8.33,73.6,3.11,77-.23,149.91,2.08,79.88,2.54,91.44,7.05,183.22,10.41,43.72,1.6,47.29.8,114.51,2.08,119.6,2.28,153.75,5.66,256.09,8.33,46.85,1.22,113.93,2.45,195.71,2.08"/><path class="cls-1" d="M384.82,3375.79c70.4,9.88,124.71,4.87,162.4-2.08,28.16-5.19,47.46-11.54,83.28-12.49,43.63-1.16,62.89,7,106.19,12.49,45.3,5.75,43.35-.74,133.25,0,81.49.67,94,6.09,168.64,6.24,26.64.06,56.62-1.55,116.59-4.16,67.06-2.92,76.27-4.2,108.27-4.16,44.57,0,54.73,2.57,108.27,4.16,56.29,1.67,74.66-.24,116.59,0,93.31.54,94.5,10.54,193.63,14.57,91.29,3.72,93.21-4.64,204,0,45.59,1.91,51.18,3.53,116.59,6.25,44.38,1.85,63.27,2,139.5,4.16,111.44,3.14,94.39,3.44,135.33,4.17,102.78,1.83,117.55-1.68,189.47,2.08,44.57,2.33,49.92,4.26,104.1,8.33,47.88,3.59,118.31,7.69,206.12,8.33"/><path class="cls-1" d="M376.49,3534c120-3.7,215-6.45,281.08-8.32,97.76-2.77,137.22-3.74,199.87-8.33,49.13-3.6,73.34-6.55,118.68-8.33,76.54-3,88,4.25,160.32,2.08,64.2-1.92,60.73-7.06,135.33-10.41,43.52-1.95,81.66-1.33,156.15,0,79.61,1.42,103.68,2.94,158.24,4.17,124.34,2.78,161.23,3,208.2,0,48.91-3.09,43.33-5.12,77-6.25,74-2.48,93.41,7.54,187.39,14.57,81.44,6.1,74.29-.88,170.72,6.25,51.29,3.79,69.19,6.94,110.35,6.25,37.09-.63,52.94-3.7,99.94-4.17,35.91-.35,61.66,1.09,81.2,2.08,42.61,2.17,105.79,4.74,193.63,6.25"/></svg>