<?xml version="1.0" encoding="utf-8"?>
<!-- Generator: Adobe Illustrator 22.1.0, SVG Export Plug-In . SVG Version: 6.00 Build 0)  -->
<svg version="1.1" id="Layer_1" xmlns="http://www.w3.org/2000/svg" xmlns:xlink="http://www.w3.org/1999/xlink" x="0px" y="0px"
	 viewBox="0 0 1240 1653" style="enable-background:new 0 0 1240 1653;" xml:space="preserve">
<style type="text/css">
	.st0{fill:none;stroke:#000000;stroke-width:6;stroke-miterlimit:10;}
</style>
<image style="overflow:visible;" width="1240" height="1653" xlink:href="processed.jpg" >
</image>
<path class="st0" d="M101.5,52.6c21.1,0.8,53.7,1.4,93.5-0.7c48.3-2.5,53-6,92.9-7.2c36.5-1.1,37.9,1.7,118.4,3.9
	c40.9,1.1,71.1,1.3,77.8,1.3c52.5,0.2,96.4-1,105.3-1.3c34.7-1,42.9-1.8,69.3-2c33.5-0.2,41.6,1.4,65.4,1.3c32.8-0.2,48.7-5,85-6.5
	c45.7-2,41.8,6.7,98.7,6.4c30.1-0.2,31.3-2.6,75.8-3.1c30-0.3,52.7,0.5,64.3,1c28.5,1.3,33,2.9,52.3,3.7c17.8,0.7,43.5,0.6,75.3-3.7
	"/>
<path class="st0" d="M27.2,134.5c19.8-1.2,47.7-2.7,81.2-4.3c30.5-1.4,51.8-2.4,79.1-3.2c72.5-2,65.9,2.4,95.1-1.1
	c29.9-3.5,46.7-9,78-7.5c8,0.4,26.7,1.7,33.1,2.1c34.7,2.4,33.8,2.9,43.8,3.2c23.8,0.7,24-2.2,57.7-3.2c23.3-0.7,22.8,0.7,47,0
	c23.6-0.7,29.4-2.2,51.3-3.2c23.2-1.1,29.7-0.1,59.9,0c38,0.1,36.8-1.4,85.5-2.1c46.1-0.7,41,0.8,83.4,0c38.2-0.8,46.5-2.1,73.7-1.1
	c14.5,0.5,23.1,1.3,47,2.1c17.3,0.6,30,1.1,44.9,1.1c27.2,0,36.9-1.5,56.6-2.1c17.5-0.5,42.6-0.4,73.7,3.2"/>
<path class="st0" d="M28.3,208.2c13,1.1,33.5,2.3,58.8,1.1c17.5-0.8,23.6-2.2,42.8-3.2c28.8-1.6,39.7,0.1,62,0
	c37.8-0.2,40.6-5.2,79.1-7.5c51.2-3,49.2,5.7,99.4,3.2c44.5-2.2,44.8-8.9,90.9-9.6c22-0.3,32.3,1.1,64.1,0
	c25.1-0.8,35.6-2.3,52.4-3.2c35.4-2,66.8,1.2,95.1,3.2c17,1.2,27.4,2.3,44.9,2.1c10.2-0.1,17.3-0.6,40.6-2.1
	c30.8-2.1,46.1-3.1,48.1-3.2c44.2-2.9,80.5-2.4,96.2-2.1c15.4,0.2,32.7,0.9,67.3,2.1c9.8,0.4,16.6,0.8,27.8,1.1
	c29.7,0.7,30-0.7,48.1,0c23.1,0.9,26.9,3.5,57.7,5.3c11.8,0.7,21.5,1,27.8,1.1"/>
<path class="st0" d="M32.2,273.1c25.3,3.7,54,6.4,85.5,7.1c36.7,0.8,42.8-4.1,82.5-3.1c15.6,0.4,31.1,1.5,51.9-1
	c4.8-0.6,13.2-1.8,26.5-3.1c1.4-0.1,15.7-1.5,25.5-2c20.1-1.1,31.1,1,46.8,2c27.9,1.8,28.4-2.6,86.5-5.1c18.5-0.8,18.2-0.3,36.6-1
	c27.4-1,52-2.3,82.5-6.1c10.9-1.3,24.5-3.3,43.8-3.1c8.8,0.1,11.9,0.6,20.4,1c21.3,0.9,36.4-0.7,50.9-2c45.3-4,83.7-4.1,97.7-4.1
	c16,0,26.3,2.6,43.8,1c7.5-0.7,15.6-1.9,28.5-2c10.8-0.1,18.8,0.7,22.4,1c7.9,0.7,25.6,1.1,61.1,2c30,0.8,45,1.1,64.1,1
	c18.5-0.1,33.1-0.6,47.8-1c11-0.3,15.1-0.5,55-2c26.2-1,27.4-1,29.5-1c13.7-0.1,33.5,0.6,58,4.1"/>
<path class="st0" d="M33.2,351.5c15.8,0.6,38.2,0.9,65.2,0c20-0.7,23-1.4,43.8-2c19.2-0.6,24.3-0.1,67.2,0c0.7,0-0.2,0,54,0
	c63.1,0,62.9,0,63.1,0c50-1.5,59.2-8.3,108.9-11.2c34.2-2,30.8,1.8,69.2,0c31.1-1.5,39-3.8,80.4-6.1c13.7-0.8,10.9-0.4,56-2
	c60.4-2.2,58-2.6,80.4-3.1c27.8-0.6,49.3-0.3,80.4,0c39.4,0.4,42.9,1,65.2,1c39.7,0,71.7-2.1,87.5-3.1c32.6-2,43.9-3.7,79.4-5.1
	c13.4-0.5,24.5-1,38.7-1c30.4-0.1,56.8,1.8,78.4,4.1"/>
<path class="st0" d="M43.9,420.6c37.5,3.7,67.8,3.5,88.5,2.7c29.5-1.2,30.5-3.4,70.2-5.2c33.8-1.5,37.8-0.1,81.5-2.1
	c21.2-0.9,27.9-1.6,47.5-2.1c25.3-0.6,38.9,0,51.6,0c42.5,0.1,49.1-5.8,98-9.3c38.9-2.8,41.6,0.5,96-1c65.4-1.8,76.1-2.9,85.7-5.2
	c4.7-1.1,17.5-4.3,35.1-5.2c13.7-0.6,23.1,0.5,29.9,1c26.3,2,44.8-3.1,63-6.2c31.9-5.5,32.7,0.3,135.2,0c34.4-0.1,34.8-0.7,87.7-1
	c30.1-0.2,54.9-0.1,71.2,0"/>
<path class="st0" d="M46.8,497c33.8-0.6,67.7-1.3,101.5-2.2c34.9-0.9,69.8-2,104.8-3.3"/>
<path class="st0" d="M128.7,561.4c26.3,0.4,62.9,1.1,106.9,2.2c30.9,0.8,41.7,1.2,57.8,1.1c49.9-0.3,63.2-8.5,110.2-7.6
	c9.5,0.2,18.8,0.6,33.8,0c25-1.1,42.9-4.1,51.3-5.5c29.4-4.6,36.5-2,105.8-4.4c17.2-0.6,40.2-1.8,86.2-4.4
	c9.9-0.5,56.7-3.1,126.6-7.6c34.5-2.2,44.8-2.1,65.5-4.4c34.2-3.8,37.9-6.5,65.5-8.7c26.8-2.2,34-0.4,73.1-1.1
	c16.4-0.3,40.8-1,70.9-3.3"/>
<path class="st0" d="M36,651.6c36.7-2.2,66.3-4.2,86.9-5.6c16.8-1.2,26.1-1.9,42.1-2.8c23.3-1.3,41-2,65.9-2.8
	c88.4-2.9,79.7-1.9,89.7-2.8c39.3-3.5,50.8-8.2,88.3-8.4c12.9-0.1,17.2,0.5,32.2,0c31.1-1,42.3-4.2,64.5-5.6
	c30.6-1.9,29.4,2.9,65.9,2.8c33.8-0.1,35.3-4.3,79.9-7c41.4-2.5,38.5,1.2,79.9-1.4c21.6-1.3,27.3-2.6,82.7-8.4
	c40-4.2,36.4-3.4,56.1-5.6c52-5.7,55.5-7.8,82.7-9.8c22-1.6,21.2-0.4,74.3-1.4c13-0.2,49.2-0.9,88.3-2.8c25.4-1.2,59.8-3.3,100.9-7"
	/>
<path class="st0" d="M41.3,711.5c60.4-5.2,91.5-5.4,108.9-4.3c3.7,0.2,15.6,1.1,31.6,0c16.4-1.2,26.8-3.7,36-5.4
	c29.2-5.6,34.6-1.1,73-4.4c36.3-3.1,31.5-7.2,58.8-8.7c35.8-2,45,4.9,78.4,4.4c34.1-0.5,30.1-8.5,68.6-10.9c32.2-2,37.2,2.7,77.4,0
	c17.4-1.2,17.8-2.1,45.8-4.4c20.2-1.6,30.6-1.9,56.7-3.3c58.5-3,56.4-3.8,77.4-4.4c18.2-0.5,45.1-0.5,78.4,2.2"/>
<path class="st0" d="M120.7,794.3c75.7-1.3,134.2-7.9,174.7-14c27.8-4.2,50.6-8.7,89.3-11.5c31.8-2.3,48.8-1.6,99.5-3.8
	c21.2-0.9,41.3-1.9,67.6-3.8c43.8-3.2,76.9-7.2,112.2-11.5c59.8-7.3,58.9-11.1,85.4-11.5c14.3-0.2,28,0.5,52.3-1.3
	c23.3-1.7,30.8-3.7,45.9-5.1c35.5-3.3,48.7,3,84.2,5.1c29.6,1.8,34.7-1.7,93.1-6.4c25.7-2,63.2-4.4,109.7-5.1"/>
<path class="st0" d="M26.4,878c30-2.9,77.2-7.4,135.5-12.9c82.9-7.8,100.4-9.3,165.2-15.5c109.3-10.4,163.9-15.6,182-18.1
	c34.5-4.7,55.4-8.4,91.6-10.3c44.8-2.3,51.5,1.3,96.8-1.3c43.3-2.5,42.7-6.1,98.1-10.3c36.9-2.8,66-3.4,90.3-3.9
	c42.8-0.9,51.9,3.9,81.3,0c28.1-3.7,30.8-8.3,56.8-10.3c30.5-2.4,35.7,3.2,69.7,3.9c34.7,0.7,40.6-4.8,91.6-9
	c17.1-1.4,42.4-2.9,73.6-2.6"/>
<path class="st0" d="M29.9,943.7c16.8-3.3,42-7.2,72.9-7.5c18.3-0.2,25.7,1,44,1.3c27.4,0.4,47.3-1.7,85.5-6.3
	c85.8-10.3,78.1-10.8,109.4-13.8c58.2-5.6,59.2-1.4,115.7-7.5c44.4-4.9,44.7-7.6,86.8-11.3c37.8-3.4,34.8-0.9,91.8-5
	c35.6-2.6,49.7-4.4,80.5-5c23-0.4,22.3,0.5,45.3,0c29.3-0.6,46.2-2.4,80.5-5c24-1.8,41.6-2.9,76.7-5c41.1-2.5,67.7-3.7,95.6-5
	c36.6-1.8,89.6-4.5,157.2-8.8"/>
<path class="st0" d="M23.7,998c42.8,3,79.6,2.1,108.8,0c35.3-2.5,37.6-5.2,77.7-7.8c43.4-2.8,50.5-0.4,107.3-3.1
	c8.4-0.4,35.2-1.8,70-4.7c51.1-4.3,55-6.5,85.5-7.8c40.9-1.7,41,2.1,74.6,0c45.5-2.8,44-9.6,85.5-12.4c39.2-2.7,42.4,3.2,102.6,1.6
	c24.3-0.7,43.6-2.2,54.4-3.1c39.2-3.4,45.1-7,80.8-10.9c9-1,17.7-1.7,85.5-4.7c35.1-1.5,52.7-0.6,76.2-3.1c3-0.3,12.8-1.4,26.3-2.6
	c0,0,16.5-1.4,31.6-2.2c35.6-1.9,79.9-0.3,87.3,0"/>
<path class="st0" d="M9.5,1077c58.9-6.3,106.5-9.4,139.2-11c32.6-1.6,51.5-1.8,107.9-4.7c39.7-2,59.6-3,81.4-4.7
	c58.1-4.4,72.2-7.8,118.9-9.4c14.4-0.5,22.9-0.5,40.7-1.6c25.7-1.5,42.5-3.6,67.3-6.3c37.2-4,55.8-6.1,78.2-7.8
	c46.1-3.6,86-4.5,97-4.7c31.2-0.6,38.2,0.2,57.9-1.6c29.3-2.6,31.5-6.5,65.7-11c8.6-1.1,35.4-4.4,70.4-4.7
	c26.9-0.2,23.2,1.6,48.5,1.6c23.6,0,32.3-1.5,79.8-4.7c16.9-1.1,9.7-0.5,51.6-3.1c23.2-1.4,56.2-3.5,97-6.3"/>
<path class="st0" d="M24.3,1169.9c39.3-0.6,70.3-4.2,91.7-7.5c17-2.6,31.7-5.6,57.8-8.8c20.4-2.5,32-3.2,55.2-5
	c29-2.3,67.8-5.3,109.2-10c53.1-6,53.9-8.3,79.1-8.8c20-0.4,32.1,0.8,56.5-1.3c21.6-1.9,34.1-4.7,50.2-7.5
	c36.4-6.4,63.5-7.7,109.2-10c53.4-2.7,48.7,0.8,89.2-2.5c27.4-2.3,42.4-5,79.1-7.5c21.2-1.5,29.4-0.9,51.5-2.5
	c16.2-1.2,30.2-3.7,59-6.3c7-0.6,10.5-0.9,15.1-1.3c9.2-0.8,58.5-7.1,76.6-8.8c26.2-2.5,21.8,1.4,60.3,0c26.9-1,40-3.1,61.5-5
	c22.9-2.1,55.7-3.9,96.7-2.5"/>
<path class="st0" d="M8,1244c28.5,0.6,58.7,0.3,90.4-1.3c56.9-2.8,109-9.3,155.7-17.6"/>
</svg>
