<?xml version="1.0" encoding="utf-8"?>
<!-- Generator: Adobe Illustrator 22.1.0, SVG Export Plug-In . SVG Version: 6.00 Build 0)  -->
<svg version="1.1" id="Layer_1" xmlns="http://www.w3.org/2000/svg" xmlns:xlink="http://www.w3.org/1999/xlink" x="0px" y="0px"
	 viewBox="0 0 999.9 1280" style="enable-background:new 0 0 999.9 1280;" xml:space="preserve">
<style type="text/css">
	.st0{fill:none;stroke:#1D1D1B;stroke-width:6;stroke-miterlimit:10;}
</style>
<title>paper_1</title>
<g id="Layer_1_1_">
	
		<image style="overflow:visible;enable-background:new    ;" width="999" height="1280" xlink:href="paper_1.jpg"  transform="matrix(1 0 0 1 1.88 6.728292e-05)">
	</image>
</g>
<g id="Layer_2_1_">
	<path class="st0" d="M280.6,47.6c27,4.8,54.4,7.2,81.9,7.1c38.1-0.1,76.1-4.9,113-14.2"/>
	<path class="st0" d="M38.6,132.2c14.8,1.3,38.7,3.6,68.3,6.5c48.8,4.9,60,6.5,86.2,8.1c10.8,0.7,37.7,2.2,72.4,2.4
		c35.1,0.2,37-1.2,67.5-0.8c40,0.5,46.7,3.1,73.2,3.2c35.8,0.1,53.7-4.5,87.8-8.9c15-1.9,13.4-1.5,127.6-6.5
		c59.3-2.6,69.4-3.4,77.2-4.1c27.6-2.4,34.9-4,58.5-4.9c26.6-1,28.9,0.7,55.3-0.8c26.9-1.5,28.7-3.5,48-3.2
		c20.3,0.2,23,2.4,41.5,1.6c13.9-0.6,18.1-2.1,37.4-4.1c16.3-1.6,29.6-2.2,38.2-2.4"/>
	<path class="st0" d="M0.9,189.1c21,6.9,42.6,12,64.5,15.3c26.8,4,36.2,2.5,95.4,4.8c58.2,2.2,56.2,3.9,86.8,3.8
		c38.3-0.1,39.9-2.8,81.1-2.9c38.6-0.1,37.6,2.2,76.3,1.9c16.1-0.1,35.9-1,75.4-2.9c27-1.2,40.4-1.9,56.3-2.9
		c46.6-2.9,47.8-4.6,77.3-5.7c30.6-1.2,31.3,0.4,64.9-1c27.6-1.1,27.2-2.3,57.3-3.8c22.4-1.1,25.1-0.7,80.2-1.9
		c37.4-0.9,56.2-1.3,62-1.9c22.5-2.4,39.8-6.2,74.4-8.6c7.3-0.5,13.3-0.8,17.2-1"/>
	<path class="st0" d="M8,250.8c33.7,8.1,68,13.7,102.5,16.8c39.9,3.5,52.8,1.3,129.1,3c66.8,1.5,69.5,3.5,116.3,3.9
		c68.4,0.7,60.6-3.8,134-4c66.9-0.1,89.9,3.4,142.9-2c15-1.5,24.8-3,48.3-4.9c9.4-0.8,42.7-3.5,91.7-4.9c38.4-1.1,41.1-0.2,58.2-2
		c27-2.8,35.8-7.7,65-12.8c21.8-3.8,43.9-6.1,66-6.9"/>
	<path class="st0" d="M42.9,333c11.3,3.7,28.5,8.3,49.9,10c15.4,1.2,22.3,0.1,39.9,0c34.2-0.2,36.7,4,68.6,5
		c29,0.9,27.2-2.6,74.9-3.7c9-0.2,7.7-0.1,57.4,0c27.9,0,26.2,0,68.6,0c72.7,0,68.8,0.3,78.6,0c29-0.8,40.7-2.1,74.9-2.5
		c10.3-0.1,20.5,0.9,36.2,0c13.6-0.8,19.6-2.1,32.4-2.5c14.7-0.5,18.9,0.8,32.4,1.2c7,0.2,12.4,0.1,63.6-5
		c29.4-2.9,31.1-3.2,39.9-3.7c16-0.9,21.5-0.5,41.2-1.2c8.3-0.3,25.2-0.9,43.7-2.5c37.9-3.2,43.5-7.2,67.4-7.5
		c11.7-0.2,26.5,0.6,43.7,3.7"/>
	<path class="st0" d="M3.9,389.8c24.1,4,58.8,9,101,11.9c12,0.8,33.1,2.1,87,2.8c42.7,0.6,75.4,0.4,119.2,0
		c96-0.8,144.8-1.3,182.4-2.8c51.2-2.1,56.4-4.5,108.7-6.3c39.8-1.4,54.1-0.9,103.1-2.8c22-0.9,42-2,82-4.2
		c87.6-4.9,120-7.8,134.7-9.1c20-1.9,36.5-3.6,47.7-4.9"/>
	<path class="st0" d="M0.9,449.2c23.6,3.1,55.6,6.7,93.8,9.4c16.4,1.1,65,4.2,136,3.4c73.4-0.8,70-4.6,145.4-6
		c73.5-1.3,76.1,2.4,141.1,0c44.1-1.6,40.6-3.2,113-6.8c59.8-3,67.1-2.1,116.5-5.1c12.5-0.8,30.4-1.9,100.3-7.6
		c29.3-2.4,70.6-5.8,120.7-10.2"/>
	<path class="st0" d="M0.9,498.4c23.1,3.9,58,9,100.9,12.4c43.4,3.4,78.1,3.3,145.8,3.1c55.9-0.2,101.8-1.4,134.1-2.3
		c72.6-2,78.3-3.3,116.3-3.1c60.5,0.3,62,3.7,110.1,3.1c51.4-0.6,51.8-4.5,121-7.8c59-2.8,69.4-0.4,133.3-3.1
		c41.3-1.7,75-4.3,96.9-6.2"/>
	<path class="st0" d="M11.2,560.9c19.8,1.4,47.7,3.4,81.3,5.5c30,1.8,44.9,2.8,64.9,3.7c45.7,2,45.9,0.7,85.9,2.7
		c30.2,1.5,37.7,2.6,59.4,2.7c22.6,0.1,41-0.9,53-1.8"/>
	<path class="st0" d="M34.1,631.3c18.2,1.5,42.5,3.2,71.3,4.6c45.2,2.2,79.2,2.5,110.6,2.7c44.8,0.4,45-0.5,115.2-0.9
		c27.7-0.2,29.9,0,124.3,0c80.2,0,69,0,104.2,0c125.9,0.2,132.2,1.1,179.2,0c27.7-0.6,70.5-2,124.3-6.4c8.7-0.7,16-1.4,21-1.8"/>
	<path class="st0" d="M0.9,686.2c20.6,1.5,51.2,3.7,88.6,5.3c46,2,75.3,2.2,116.5,3c106.6,2.1,90.4,4.5,143.8,4.5
		c73.7,0.1,90.3-3.9,155.1-2.3c10.5,0.3,28.3,0.8,53,0c34.9-1.2,43.9-3.9,71.9-5.3c20.8-1.1,27.2-0.2,88.5,2.3
		c53.3,2.1,60.6,3.7,86.3,3c22.6-0.6,29.2-1.9,58.3-3.8c22.9-1.5,56.2-3.1,97.6-3"/>
	<path class="st0" d="M12,738.1c26.6,1.5,53.4,3,80.4,4.3c45.7,2.3,87.8,4.4,142.5,6c32.4,1,86.1,2.6,156.4,2.6
		c50.1,0,56.7-0.8,100.2-0.9c48.4,0,72.6,1.8,159,3.5c9.3,0.2,26.5,3.5,49.2,0.9c13.8-1.6,18-3.6,31.1-5.2
		c20.9-2.5,33.7,0.1,51.8,1.7c32.2,3,56.8,0.9,89-1.7c14.8-1.2,35.2-3.4,59.6-7.8"/>
	<path class="st0" d="M10.2,797.4c24.2,1.6,61.7,3.8,107.8,5.3c38.6,1.3,39.8,0.7,81.6,2c85.6,2.6,93.6,5.5,145.2,5.3
		c4.3,0,32.5-0.9,89-2.7c80.7-2.5,94.5-3.2,121.8-2c36.6,1.6,38.2,4,73,4.7c30.5,0.6,46.3-1,85-2.7c19.3-0.9,46.8-1.5,101.7-2.7
		c36-0.8,86.5-1.7,148.6-2"/>
	<path class="st0" d="M16.7,850c12.6,0.3,31.7,0.9,55,1.6c31.5,0.9,48.4,1.5,76.2,2.4c32.8,1,65.9,1.9,85.7,2.3
		c74.8,1.8,80.9,0.3,167.4,1.6c62.4,0.9,69,1.9,125.7,2.3c11,0.1,39.2,0.1,95.1,0c95.4-0.1,143.9-0.2,180.8-1.6
		c21.8-0.8,28.1-1.3,58.2-2.4c42.5-1.5,77.3-2.1,100.6-2.3"/>
	<path class="st0" d="M16.9,901.5c12.6,0.7,30.8,1.7,52.8,2.8c43.7,2.2,65.6,3.2,85.1,3.7c61.1,1.5,59.9-2.4,106.4,0
		c33,1.7,39.8,3.9,71.3,4.6c33,0.8,38.8-3.4,70.3-1.8c26.2,1.3,29.2,3.8,53.7,3.7c20.5-0.1,24.5-2,48.1-1.8
		c17.6,0.1,20.1,1.2,42.6,1.8c18.6,0.6,26.3,0.1,48.1,0c37.5-0.2,36.8,1,71.3,0.9c17,0,37.6-0.6,78.7-1.8
		c46.4-1.4,44.2-1.7,61.1-1.9c23.2-0.3,33.5,0.2,79.6,0.9c15.7,0.3,38.6,0.6,66.6,0.9"/>
	<path class="st0" d="M23.3,955.4c33.2,4.2,66.6,6.5,100.1,6.8c43.6,0.3,53.2-3,99.1-2c38.3,0.9,38.2,3.4,90.4,5.8
		c33.9,1.6,45.4,1.1,97.2,2c65.3,1.1,63.4,2.2,108.8,2.9c51.8,0.8,90.3,0.1,143.8-1c63.8-1.2,70.6-2.3,128.3-2.9
		c44.2-0.5,75.5-0.2,90.4,0c33.1,0.4,62,1.2,85.5,1.9"/>
	<path class="st0" d="M27.2,1011.7c12,0.3,30.3,0.7,52.5,1c36.6,0.4,59.2,0.1,76.8,0c37.2-0.2,40.3,0.9,139,3.9
		c9.2,0.3,42.7,1.2,109.8,2.9c73.6,1.9,110.7,2.9,122.5,2.9c85.1,0.1,81.2-4.5,122.5-1c23.5,2,46.5,5.3,82.6,3.9
		c20.3-0.8,21.8-2.2,44.7-2.9c27.7-0.8,31.6,1,76.8,1.9c30.4,0.6,34.9-0.1,59.3,1c18.7,0.8,33.9,2,43.7,2.9"/>
	<path class="st0" d="M22.3,1063.2c11.8-0.5,29.3-1.1,50.5-1c24.5,0.2,32.4,1.1,58.3,2c50.6,1.7,53.1-0.9,90.4,1
		c29.8,1.5,23.8,2.9,65.1,5.8c33.2,2.3,59.4,3,94.3,3.9c12.4,0.3,32.1,0.8,58.3,1c45.3,0.3,45.6-0.8,70,0c42.1,1.4,41.8,4.6,70,3.9
		c30-0.8,30.4-4.5,62.2-4.9c20.3-0.2,22.2,1.3,56.4,1.9c10.9,0.2,11.2,0.1,50.5,0c26.4,0,21,0,72.9,0c49,0,47.5-0.1,51.5,0
		c18.9,0.4,46.5,1.7,80.7,5.8"/>
	<path class="st0" d="M35.9,1116.7c9.3-0.4,23.5-1.1,40.8-1.9c50.5-2.5,54.4-2.9,67.1-2.9c27.8,0,26.4,2.1,63.2,2.9
		c32.2,0.7,32.1-0.9,59.3,0c24.8,0.8,26,2.2,66.1,4.9c22.3,1.4,39.6,2.6,62.2,2.9c32.3,0.5,39.5-1.2,70-1c37.4,0.3,34.6,3,62.2,2.9
		c36.1-0.1,39.2-4.3,87.5-6.8c24.3-1.2,42.5-1.1,71-1c40.6,0.2,40.4,1.7,74.8,2c57.5,0.4,58.5-3.5,93.3-1c35.5,2.6,40.6,7,68,6.8
		c23-0.2,45.9-3.5,68-9.7"/>
	<path class="st0" d="M484.2,1212.6c29.7,7.3,60.1,11.2,90.7,11.4c20.8,0.1,23.4-1.6,71.3-3.5c25.4-1,43.3-1.3,76.6-1.8
		c44.8-0.7,65-0.3,76.6,0c11,0.3,20.1,0.6,26.4,0.9"/>
</g>
</svg>
