<?xml version="1.0" encoding="utf-8"?>
<!-- Generator: Adobe Illustrator 22.1.0, SVG Export Plug-In . SVG Version: 6.00 Build 0)  -->
<svg version="1.1" id="Layer_1" xmlns="http://www.w3.org/2000/svg" xmlns:xlink="http://www.w3.org/1999/xlink" x="0px" y="0px"
	 viewBox="0 0 1240 1653" style="enable-background:new 0 0 1240 1653;" xml:space="preserve">
<style type="text/css">
	.st0{fill:none;stroke:#1D1D1B;stroke-width:6;stroke-miterlimit:10;}
</style>
<image style="overflow:visible;" width="1240" height="1653" xlink:href="processed.jpg" >
</image>
<title>paper_2</title>
<path class="st0" d="M73.5,40.3c19.4,4.1,38.9,7.2,58.6,9.3c23,2.4,40.3,2.8,59.4,3.1c49.7,0.8,77.6,0.6,104.1,0.8
	c65.7,0.5,58,2.9,119.5,3.1c47.6,0.2,56.9-1.3,99.4,0c18.5,0.6,28.2,1.2,64,2.3c29.8,0.9,37.4,0.9,60.9,1.6
	c49.7,1.4,58.5,2.7,95.6,3.9c42.6,1.4,37.5-0.2,101,0.8c83.1,1.2,83.6,3.7,127.2,2.3c21.4-0.7,37.5-1.8,67.1-1.6
	c31.6,0.2,40.3,2.4,62.4,2.3c18.8,0,46.3-1.5,80.1-8.5"/>
<path class="st0" d="M19.8,94.3c13,2.5,26.5,4.9,40.7,7c27,3.9,41.6,6.2,59.9,6.4c24.2,0.2,23.3-3.3,57.5-5.2
	c15.3-0.9,21.4-0.5,62.7,0c52.6,0.7,44.2,0.1,66.8,0.6c71.7,1.6,69.9,5.4,100.5,2.9c20.3-1.6,32.3-4.2,58.1-4.1
	c19.2,0.1,39.5,1.6,40.7,1.7c27,2.1,31.6,4.3,47.6,3.5c18.3-1,17.8-4.2,34.3-4.6c18.4-0.5,21.9,3.4,45.9,5.8
	c4.7,0.5,19.1,0.5,47.6,0.6c26.2,0.1,39.2,0.1,48.8,0c31.1-0.3,31.2-0.9,44.7-0.6c24,0.6,31.6,2.7,51.7,4.1
	c10.3,0.7,28.8,0,65.6-1.1c49-1.6,55.2-2.6,72.6-1.1c8.1,0.8,16.2,1.2,24.4,1.1c16-0.1,18.2-1.8,36.6-2.9
	c15.8-0.9,28.7-1.7,45.3,0.6c10.5,1.4,13.1,2.8,22.1,2.9c9.7,0.1,11.6-1.5,29.1-4.1c11.9-1.8,23.9-3,36-3.5c0.7,0,7.3,0,20.3,0h7.5
	c6.6,0,16.4-1,30.2-5.2"/>
<path class="st0" d="M13.5,143.8c9.6,2.4,38.9,7.7,51.8,8.7c11.3,0.8,11.8-0.6,23.4,0.4c11.9,1,16.8,2.8,30.4,3.3
	c3.4,0.1,7.7,0.3,13.5,0c13.2-0.7,17.9-2.9,28.9-4c4.4-0.5,10.8-0.3,23.4,0c27.8,0.7,26,2,37.7,1.5c15-0.7,18-2.7,32.6-2.2
	c8,0.3,8.4,1,18.3,1.8c15.3,1.3,23.2,0.4,43.5,0c21.4-0.4,17.5,0.5,34,0c26.6-0.7,32.7-2.8,51.2-2.2c16.1,0.5,17.1,3.8,30,2.9
	c8-0.5,11.6-1.9,21.6-2.2c10-0.3,16.8,0.8,22.3,1.5c12.1,1.4,13.2,0.1,43.2-0.4c31.1-0.5,46.6-0.7,55.6,1.1
	c6.3,1.3,14.5,3.4,26.4,2.9c8.9-0.4,10.6-1.8,20.5-2.9c11.8-1.4,12.4,0.4,35.1,0.7c9.4,0.1,19.7,0.3,33.3-0.7
	c9.5-0.7,10.4-1.2,15.7-1.1c13.7,0.2,16.1,3.7,28.2,4.8c13.3,1.2,13.4-2.7,30-2.2c10.7,0.3,11.2,2,23.8,2.9
	c10,0.7,15.2,0.2,31.5-0.7c17.5-0.9,27.8-1.5,37.7-1.5c24.7,0.1,23.4,3.8,47.2,4.4c18.8,0.5,19.5-1.8,51.6-2.2
	c13.5-0.2,20.5-0.2,28.2,0.7c20.3,2.5,22.3,7,36.2,6.6c12.8-0.3,13.1-4.2,31.8-6c6-0.6,12.3-0.5,24.8-0.4
	c24.1,0.2,23.1,1.3,34.5,0.9c17.4-0.6,31-3.5,38.3-5c9.1-2,16.8-4.1,22.6-6"/>
<path class="st0" d="M47.5,205.4c19.7,2.5,39.4,3.8,59.3,3.9c22.4,0.1,24.1-1.7,53.5-2.6c35.8-1.1,39.3,1.2,78,0
	c17.7-0.6,16.5-1,41.9-1.9c35.1-1.3,33.7-0.2,54.8-1.3c41.7-2.1,43.1-5.9,65.7-3.9c13.6,1.2,18.9,3.1,34.8,3.2
	c15,0.1,20.3-1.5,36.1-1.9c14.8-0.4,16.3,0.8,39.9,1.9c9.2,0.4,26.7,0.5,61.9,0.7c25,0.1,34.5,0,39.3,0c19.9-0.2,29.8-0.2,38-0.7
	c28.5-1.4,34.4-4.1,54.1-3.9c13.6,0.2,11.9,1.7,33.5,3.2c12.9,0.9,20.7,0.9,47.7,1.3c20.2,0.2,35.4,0.3,49,0.7
	c24.9,0.6,30.2,1.3,54.8,1.9c20.6,0.6,26.5,0,48.3,0.7c23.9,0.7,21.2,1.3,33.5,1.3c27.5,0,31.4-3.2,52.2-2.6
	c20.5,0.6,18.5,3.7,41.9,5.2c6.7,0.4,16,0.7,56-1.9c12.8-0.9,29.9-2.1,50.3-3.9"/>
<path class="st0" d="M10.9,258.2c23.6,1.2,42.8,2.1,56.2,2.7c27.8,1.2,40.7,1.6,46.7,1.8c10.7,0.3,31.5,0.9,49.4,0.9
	c52.5,0,53.2-5.4,101.1-5.4c24.6,0,34.7,1.4,62.9,0c22.5-1.1,19-2.3,39.6-3.2c29.6-1.3,38.4,0.9,76.4-0.5c6.7-0.2,8.1-0.4,22.5-0.9
	c21.1-0.8,38.3-1.3,41.8-1.4c22.4-0.5,45.8,2.4,92.6,7.6c2.8,0.3,10.1,3.9,19.4,2.3c5.4-0.9,8.2-2.9,12.1-4.5
	c9.9-4.1,17.3-2.3,31-1.4c3,0.2,15.2-0.2,39.6-0.9c26-0.8,23.7-1.6,38.7-1.8c24-0.3,30,1.8,59.4,2.7c11.6,0.4,9.9-0.1,40.9,0
	c21.3,0.1,27.3,0.3,35.1,0.9c17.7,1.4,18,3,29.2,3.2c15.1,0.2,20.9-2.5,36.4-4.5c15.6-2,14.9,0.2,42.7-0.5
	c22.8-0.5,26.4-1.9,49.4-2.7c16.5-0.5,30.8-0.4,42.3,0"/>
<path class="st0" d="M11.5,308.5c36.9-0.2,66.8,1.7,87.9,3.5c39.9,3.4,51.8,7.1,74.5,2.5c7.6-1.6,21.9-5.1,42.5-6
	c9.1-0.4,18.3-0.2,27.5,0.5c42.3,3.2,80.1,1.1,96.4,0.5c31.7-1.3,27.9-3.1,53.5-3.5c33.7-0.5,35.9,2.8,66.9,2.5
	c38.5-0.4,38.3-5.5,72.4-4.5c29.4,0.9,30.5,4.7,55.4,3.5c17.2-0.8,26.9-3.1,48-2c14.9,0.8,15,2.2,27.5,2.5c21.2,0.5,25.3-3.5,46.9-5
	c21.2-1.5,18.8,2.2,52.4,2c24.8-0.2,25.2-2.1,38.9-0.5c12.4,1.5,19.8,4,36,4.5c6.7,0.2,13.3,0,20-0.5c21.9-1.4,23.4-0.4,59.9-1.5
	c46.3-1.4,47.9-3.3,79.4-3.5c20.2-0.1,31.1,0.6,44.4,1c27,0.8,66.2,0.4,116.9-5.5"/>
<path class="st0" d="M26,355.4c48.3,3.2,91.2,4.6,127.2,4.9c63,0.6,113.5-1.7,124-2.2c48.4-2.3,69.3-4.9,95.3-1.1
	c7.3,1.1,22.8,3.8,43.9,3.2c10.7-0.3,14.6-1.2,27.6-1.6c18.7-0.6,32.3,0.6,39,1.1c22.1,1.6,41.9,0.6,81.2-1.1
	c33-1.4,39.6-2.8,56.3-0.5c10.8,1.5,16.8,3.3,29.2,3.8c18.2,0.7,30.1-2,41.1-3.8c17.4-2.8,37.9-1.8,79,0c26.1,1.2,27.3,2.3,59,3.8
	c0,0,26.8,1.3,54.2,1.6c45.2,0.5,77.6-2.2,125.6-5.4c26.9-1.8,66.4-4.2,115.3-6.5"/>
<path class="st0" d="M94.7,399.3c21.7,4.6,43.7,7.7,65.9,9.3c38.1,2.7,73.2,0.6,107.9-1.6c6.2-0.4,19.4-1.2,37.4-1
	c13,0.2,21.4,0.8,34.3,1.6c0,0,15.6,0.9,55.6,2.6c9.4,0.4,21.4,0.8,74.7,1.6c47.8,0.7,84.2,1,91.3,1c40.7,0.3,61,0.5,82,0.5
	c54.9,0,59.9-0.9,126.6-1.6c51.2-0.5,95.5-0.9,152.6,0.5c36.5,0.9,51.5,4.3,84.1,3.1c37.4-1.4,54.2-5.8,87.2-9.3
	c28.3-3,68.9-5.4,119.4-1.6"/>
<path class="st0" d="M2.6,466.5c31.6,3.2,57.3,4.1,74.7,4.2c32,0.3,38-1.6,80-1.1c26.6,0.3,32.5,1.1,53,0.5
	c25.7-0.8,31.1-2.6,54-3.7c37.4-1.9,36.8,2.2,72.6,1.1c38.3-1.2,39.8-5.9,81.1-6.9c17.8-0.5,31.3,0.1,56.7,1.1
	c25.3,1,29.6,1.7,64.1,3.7c61,3.5,92,5.2,112.3,1.6c5.9-1.1,16.2-3.1,30.7-3.7c20.1-0.8,29.9,1.9,45.6,3.2c22,1.8,20.9-2.2,67.3-5.3
	c13.8-0.9,29.4-1.3,60.4-2.1c27.8-0.7,49-0.9,57.8-1.1c79.7-0.9,95.4-0.5,124-1.1c29.4-0.5,71.9-2,124-6.4"/>
<path class="st0" d="M22.7,523c48,3.2,79.5,2.2,99.7,0.5c3.9-0.3,11.2-1,22.3-1.8c15.9-1.1,28.9-1.7,62.2-2.7
	c24.1-0.7,36.2-1.1,47.8-1.4c33.9-0.8,50.1-1,119.8-2.2c40.8-0.7,46.7-0.8,60.3-0.9c31.2-0.1,41.4,0.3,66.6,0.5
	c57.8,0.3,58-1.8,117.1-1.8c42.3,0,46.4,1.1,83.6,0.5c22-0.4,40.6-0.7,66.2-2.3c20.4-1.2,26.3-2.1,44.3-2.7c21.8-0.7,31.1,0,51.4,0
	c28.5,0,37.1-3.1,63.5-2.2c10.9,0.3,18.3,1,22.8,1.4c9.8,0.7,38.3,2.5,114.9-3.6c29.1-2.3,65.4-5.8,107.3-11.2"/>
<path class="st0" d="M17.3,580.3c12.1,0.8,29.9,1.8,51.7,2.3c17.5,0.4,21.2,0.1,53.6,0c53.7-0.1,65.4,0.7,94.8-0.9
	c9.7-0.5,14.1-0.9,32.1-2.3c70.7-5.4,75.2-5.2,109.4-7.8c60.8-4.7,53.3-5.1,69.1-5.5c33-0.8,47.1,1.6,85.6,1.8
	c12.6,0.1,30.4-0.6,65.9-1.8c96.9-3.4,94.9-5,122.7-4.1c20.3,0.7,35,1.9,61.4,0.9c18.4-0.7,21.8-1.7,42.6-2.3
	c28.2-0.8,29.8,0.9,54,0c23.4-0.8,27.3-2.5,50.8-3.6c20.5-1,30.4,2.5,51.7,0c13.3-1.6,11-2.7,22-3.6c23.7-2.1,32.2,3.1,53.1,1.4
	c14.2-1.2,10.8-3.8,27.9-5.9c16.2-2,33.1-4.1,44.9,0.5c1.5,0.6,4.4,1.8,8.2,1.4c5.4-0.7,7.6-4.3,12.3-6.9c5.6-3,10.7-2.5,16.5-2.3
	c20.7,0.6,25.7-4.7,55.8-4.6c12.1,0.1,24.2,1,36.1,2.7"/>
<path class="st0" d="M16.9,628.3c16.7,2.7,33.6,3.9,50.5,3.3c11.9-0.4,17.9-1.4,30.5-2.2c15.7-1.1,25.5-0.9,58.2,0
	c75.9,2,86.8,2.5,108.2,1.1c12.5-0.8,15-1.3,26.1-1.7c30.5-0.9,41.9,2.3,64.9,1.7c19.4-0.5,18.8-3.9,44.4-5.5
	c15.5-1,16.5-0.1,34.4-1.1c28.7-1.6,26.6-4,47.1-4.4c17.1-0.4,23.5,1.1,46.6,0c10.2-0.5,8.8-0.8,16.1-1.1
	c28.6-1.2,37.3,3.9,59.4,3.3c18.1-0.5,13-3.9,37.1-5.5c18.3-1.3,24.9,0.4,51-1.1c12.8-0.7,11.6-1.1,22.8-1.7
	c19.8-0.9,27.3,0.3,42.1,0c16.4-0.3,18.2-2,39.4-3.9c26.4-2.3,24.5,0.2,66-1.7c30.1-1.3,45.2-2,54.4-4.4c3.4-0.9,9.9-2.8,18.9-2.8
	c11,0,14.7,3,23.9,3.9c12,1.1,16.4-2.9,30-5.5c15.4-3,18.7,0.4,41,0.5c19.6,0.2,15.7-2.5,54.4-5.5c25-2,39.8-1.9,48.8-1.7
	c10.2,0.2,13,0.7,21.6,1.1c19.4,0.8,38.9,0.1,58.3-2.2"/>
<path class="st0" d="M11.4,674.5c16.2,3,32.6,4.8,49,5.2c20.3,0.6,27.5-1.2,60.9-1.9c7.6-0.2,19.5-0.1,42.8,0
	c42.7,0.2,64,0.3,71.4,0.5c47.4,1.2,56.7,3.7,80.4-0.5c11.7-2,13.9-3.4,27.1-5.2c21.3-2.9,33.3-1.7,58.1-1.4
	c21.2,0.2,36.4-0.3,65.2-1.4c31.6-1.2,33.8-2.2,55.2-2.4c25.7-0.2,25.5,1.1,49.5,0.9c14.4-0.1,37.6-0.4,66.6-3.8
	c28.3-3.4,33-6.3,53.3-6.2c18.9,0.1,17.5,2.7,38,2.9c28.9,0.2,31.5-5,53.3-2.4c12.7,1.5,17.4,3.9,31.4,3.8c9.9,0,11.1-1.3,26.2-2.9
	c23.7-2.5,25.5,0,47.1-2.4c16.4-1.8,16.4-3.4,30-4.3c14.8-0.9,19.7,0.7,33.8,0.9c20.5,0.4,25.3-2.6,50.4-4.8
	c11.2-0.9,23.7-0.9,48-0.9c18.7,0,43.7,0.2,73.3,1.1"/>
<path class="st0" d="M50.6,727.6c37.6,8.1,64,6.8,81.5,3.7c6-1,18.3-3.5,35.9-4.5c18.6-1,32.1,0.2,39.6,0.7c13,0.9,42.6,1.4,77-1.5
	c15.5-1.3,12.9-1.8,34.4-3.7c8.4-0.8,27.9-2.5,59.9-3.7c45.5-1.8,39,0.3,62.8-1.5c33.3-2.5,38.9-6.1,64.3-5.2
	c15.5,0.5,18.9,2.1,33.7,1.5c19.8-0.8,26.2-4,43.4-4.5c15.5-0.5,19.4,1.9,38.1,3.7c22.8,2.3,22.9-0.6,75.6-1.5
	c25.7-0.4,38.5-0.7,54.6,0c18.4,0.7,22.9,1.7,35.2,0.7c17.5-1.3,22.1-4.3,38.1-4.5c14.4-0.2,15.1,2.2,30.7,3
	c20.9,1.1,28-2.7,50.9-4.5c18.5-1.4,19.8,0.7,46.4,0.7c18,0.1,32.4-0.9,60.6-3c47.8-3.5,71.7-6.1,81.5-7.5c28-3.9,30.8-5.7,47.9-6.7
	c20.3-1.3,40.5-0.3,60.6,3"/>
<path class="st0" d="M92,789.2c23.7-2.7,41.6-1.6,53.9,0c5.8,0.7,11.7,1.8,21.2,2.1c13.4,0.5,20.9-0.8,35.1-2.1
	c10.9-1,7.1-0.3,42.1-2.1c33.7-1.8,29.9-2,42.5-2.5c29.1-0.9,31.6,1.1,57.8,0.4c20.9-0.7,18.9-2,49.6-3.9c6.9-0.4,14.4-0.8,61.7-2.1
	c48.4-1.4,43.1-1,52.8-1.4c43.5-1.9,43.8-4.1,72.1-4.3c25-0.1,29.7,1.6,52.1,0.5c15.2-0.7,22-2.4,45.8-4.8
	c5.7-0.6,23.3-2.8,44.7-3.7c12.9-0.5,13.2-0.1,48.4-0.5c10-0.1,18.9-0.2,30.3-0.5c2.3,0,21.8-0.5,43.6-1.6c44.9-2.1,67.6-5,132.4-9
	c24.9-1.5,40.3-2.3,49.4-2.7c15-0.7,21.4-0.8,42-1.6c25.7-1,45.7-1.9,50-2.1c19.6-0.9,55.6-3.2,111.1-9.1"/>
<path class="st0" d="M7.8,847.9c77.2,1.1,128.1-1.4,160.8-4c11.8-0.9,28.5-2.5,53.1-3.3c39.7-1.4,47.6,0.8,84.4-0.7
	c28.3-1.1,31-2.7,65.1-4.6c29.1-1.7,42.3-0.1,73.8-2c11.8-0.7,20.9-2.3,39.8-3.3c7.8-0.4,13.8-0.6,17.3-0.7
	c43.3-1.1,69.8-1.3,69.8-1.3c39.4,0,49.9,2.3,77.7-0.7c10.2-1.1,12.2-1.9,19.4-2.6c10.9-1.1,14,0,25.9-0.3
	c11.2-0.2,18.1-1.4,27.1-2.5c10.2-1.3,25-2.1,54.6-3.8c41-2.4,73-3.3,79.9-3.5c34.5-1,39.2-0.5,58.2-1.8c18.4-1.4,33-2.4,52.7-6.1
	c19.9-3.8,22.1-6,38-8c17.4-2.2,24.5-0.7,44.1-1.2c25.7-0.6,35.1-3.5,52.1-4.9c19.3-1.6,47.1-1,82.7,9.2"/>
<path class="st0" d="M35.5,904.6c24.9,1.4,49.9,1,74.7-1.2c16.4-1.5,20.6-2.7,45.8-4.8c21.3-1.8,38.7-2.7,56.6-3.6
	c20.7-1,25.9-1,43.9-1.8c83.9-3.6,97.7-8.9,132.5-4.2c6.7,0.9,14,2.1,25.3,2.4c19.7,0.5,30.8-2.5,54.2-5.4
	c10.7-1.4,20.5-2.1,40.3-3.6c32.9-2.5,58.4-3,87.3-3.6c31.6-0.6,29,0,57.2-0.6c33.7-0.7,51.6-1.1,74.7-3
	c46.2-3.8,50.3-8.4,97.5-11.4c22.5-1.4,42.5-1.7,51.2-1.8c27.7-0.3,31.1,0.7,62,0.6c14.4,0,38.4-0.1,68.1-1.8
	c19.3-1.1,21.4-1.8,57.2-4.8c27.1-2.3,52.4-4.4,81.9-6c20.9-1.1,48.8-2.2,81.9-2.4"/>
<path class="st0" d="M14.1,960.9c34.4-1,69.7-2.6,105.7-4.9c10.5-0.7,22.5-0.2,39.2-2.8c15-2.4,17.9-4.4,30.8-5.6
	c15.2-1.4,20,0.5,37.1,0.7c17.9,0.2,19.1-1.9,43.4-3.5c23.9-1.6,27.9,0,55.3-0.7c20.4-0.6,27.2-1.7,51.8-3.5
	c59-4.3,56.7-0.2,104.3-4.2c30.8-2.5,42.5-5.1,72.8-5.6c14.2-0.2,16.1,0.3,35.7,0c7.5-0.1,31-0.5,64.4-2.8
	c41.3-2.8,36.6-4.3,58.1-4.9c35.7-1,35.2,3.4,65.8,1.4c18.7-1.2,23.2-3.2,53.9-5.6c14-1.1,23.7-1.6,35.7-2.1c63.4-3,57.4-3.2,98-4.9
	c54.5-2.3,60-0.2,80.5-2.8c6.1-0.8,16.1-2.3,30.1-2.1c14.3,0.2,17.5,2,31.5,2.1c11.3,0.1,15.4-1,32.9-2.8c6.9-0.7,23.2-2.1,39.9-2.8
	c9.9-0.4,24-0.7,41.3,0"/>
<path class="st0" d="M33.7,1019.3c16.1-1.1,41.5-2.8,72.9-4.6c42.1-2.5,53.4-2.8,81.2-4.6c48-3.2,47.4-4.4,90.4-7.4
	c34.3-2.4,36-1.7,116.3-5.5c54.4-2.6,50.4-2.7,91.4-4.6c48-2.2,60.3-2.3,120.9-4.6c21.6-0.8,74.4-2.9,128.3-5.5
	c62.7-3.1,134.4-7.7,143-8.3c20.4-1.3,47.5-3.1,84.9-4.6c28.9-1.2,43.4-1.8,59.1-1.8c44.1-0.1,55.2,2.7,92.3,0.9
	c18.9-0.9,20.5-1.9,44.3-3.7c36-2.7,66.7-3.1,90.4-2.8"/>
<path class="st0" d="M18.9,1074.5c36.2-0.7,85.7-2.1,144.8-5.5c40.6-2.3,41.9-3.1,99-6.4c48-2.8,91.8-5.2,148.5-6.4
	c34.7-0.7,34.8-0.1,57.8-0.9c48.2-1.7,67.8-6,115.5-9.2c52.6-3.4,48.3,1.9,77-2.7c20.3-3.3,33.6-7.6,55.9-5.5
	c10.1,1,17.1,2.8,31.2,2.7c14.6,0,21-2,34.8-3.6c22.8-2.7,27.1,0,55.9-0.9c19.3-0.6,21.6-1.9,51.3-4.6c26.9-2.4,30.3-1.8,81.6-4.6
	c55.9-3.1,54.3-4,77-4.6c22.6-0.6,50.5-0.5,82.5,1.8"/>
<path class="st0" d="M79.5,1124.2c82-6.8,141-10,180.5-11.7c19.9-0.8,50.4-1.9,100.9-4.3c18.4-0.9,38.5-1.8,70.1-3.2
	c21.5-0.9,39.2-1.6,51-2.1"/>
<path class="st0" d="M81.1,1201.7c27-2.5,88.3-8,114.3-10.3c56.7-5.1,70.6-6.4,92.1-8c49.7-3.7,61.7-3.6,99.3-6.4
	c19.8-1.4,15.9-1.5,119.1-11.9c75.8-7.7,89.5-8.9,112.7-8.7c21.6,0.1,31.1,1.2,54.8,0c30.2-1.6,41.5-4.8,73.1-7.1
	c17.9-1.3,29.1-1.4,60.3-1.6c75.7-0.5,113.5-0.7,115.9-0.8c76.1-2.1,98.6-8.3,144.5-6.4c5.9,0.2,24.3,1.1,49.2,0.8
	c11.1-0.2,24.1-0.3,41.3-1.6c30.9-2.3,35-5.1,50.8-4.8c11.3,0.2,28,2.1,48.4,10.3"/>
<path class="st0" d="M34.2,1275.4c54.7-1.8,93.8-6.1,120-9.9c9.1-1.3,28.5-4.3,55.6-6.9c24.4-2.4,31.2-2.1,57.5-4
	c57.5-4,58.1-7.4,105.2-9.9c32.6-1.8,36-0.3,60.5-3c22.7-2.5,30.7-4.9,55.6-6.9c22.2-1.8,30-1.1,47.6-2c31.7-1.5,35.7-5.8,78.3-10.9
	c14.5-1.7,32.8-3.9,56.5-5c31.8-1.4,35.3,0.9,68.5,0c28.7-0.7,27.2-2.5,71.4-5c40.4-2.3,38.6-0.7,72.4-3c38.6-2.6,40.1-4.7,65.5-5
	c25.1-0.2,29.5,1.7,51.6,0c20.5-1.6,23.4-3.7,44.6-5c18.4-1.1,21.4,0.3,44.6,0c19.4-0.2,18.8-1.2,53.6-3c18.2-0.9,38.4-1.9,63.5-2
	c18.9,0,34.6,0.5,45.6,1"/>
<path class="st0" d="M16.2,1333.9c19.8,0.4,39.6-0.2,59.3-2c14.7-1.3,19-2.9,45.7-5.8c10.6-1.2,19.4-2,33.1-3.9
	c7.1-1,13.2-1.9,25.3-3.9c31.4-5.1,36.2-6.6,47.6-6.8c11.3-0.2,15.3,1.1,26.3,1.9c26.4,2.1,41.1-2.3,68.1-5.8
	c19.6-2.6,13.7-0.5,72-3.9c30.1-1.8,57.6-3.4,91.4-6.8c46.1-4.7,52.6-7.6,87.5-10.7c29.1-2.6,58.3-3.6,87.5-2.9"/>
<path class="st0" d="M26.9,1388.4c24.1,0,55.9-0.4,93.4-1.9c36.4-1.6,63.6-3.6,92.4-5.8c55.3-4.3,97.4-8.7,115.7-10.7
	c22.3-2.5,36.2-4.8,65.2-7.8c6-0.6,26.9-2.7,56.4-4.9c31.7-2.3,55-3.4,64.2-3.9c75.4-3.8,87.7-8.9,170.2-13.6
	c51.7-3,52.6-1.3,107.9-4.9c26.5-1.7,45.9-3.4,78.8-4.9c24.4-1.1,36.2-0.6,67.1-2c10.9-0.5,24.1-1.1,52.5-2.9
	c77.9-5,94.9-7.5,143-9.7c13.9-0.7,35.1-1.5,61.3-2"/>
<path class="st0" d="M59,1440.8c17.5,2,35.3,2,52.8,0c10.6-1.2,15.3-2.5,24.1-3.9c28.6-4.3,49.5-1.3,66,0c34.2,2.7,62.2-2,87-4.7
	c25.7-2.8,28-4.4,47.4-5.5c26-1.4,33.1,1,58.3,0c25.4-1,23.9-3.6,55.2-6.2c34.8-2.9,38,0.2,76.1-2.3c27.2-1.8,24.9-3.4,59-6.2
	c27.5-2.3,37.5-2,74.6-3.9c33.5-1.7,43.3-2.8,72.2-4.7c28.2-1.8,69.1-3.9,120.4-4.7"/>
</svg>
