<?xml version="1.0" encoding="utf-8"?>
<!-- Generator: Adobe Illustrator 22.1.0, SVG Export Plug-In . SVG Version: 6.00 Build 0)  -->
<svg version="1.1" id="Layer_1" xmlns="http://www.w3.org/2000/svg" xmlns:xlink="http://www.w3.org/1999/xlink" x="0px" y="0px"
	 viewBox="0 0 1240 1204" style="enable-background:new 0 0 1240 1204;" xml:space="preserve">
<style type="text/css">
	.st0{fill:none;stroke:#000000;stroke-width:6;stroke-miterlimit:10;}
</style>
<image style="overflow:visible;" width="1240" height="1204" xlink:href="processed.jpg" >
</image>
<path class="st0" d="M16.3,37.9c35-0.6,62.9-1.3,82-1.9c14.6-0.4,26.8-0.8,47.3-1.4c29.1-0.8,43.7-1.2,51.4-1.4
	c17.7-0.3,35.5-0.2,70.4,0c41.3,0.3,62.1,0.4,72.3,1.4c23.3,2.3,26.2,4.4,58.4,7.4c14,1.3,26.6,2.1,44.9,3.2
	c22.1,1.4,33.1,2.1,42.2,2.3c29.2,0.7,37.5-1.6,67.3-2.1c18.6-0.3,14.3,0.7,56.1,1.5c24.1,0.4,29.9,0.3,48.1,0.7
	c9.5,0.2,27.9,0.7,50.3,2.2c30.3,2.1,33.8,3.8,60.5,5.1c12.7,0.6,23.3,1.1,37.9,0.7c22.4-0.6,27.9-2.6,51.7-3.6
	c16.2-0.7,28-0.3,40.1,0c28.4,0.8,42.5,1.2,59.8,4.4c10.1,1.9,15.6,3.5,27,4.4c12.7,0.9,14.6-0.6,30.6-0.7
	c20.3-0.1,21.5,2.3,42.3,2.2c14.8-0.1,13.9-1.3,29.2-1.5c20.1-0.2,26.7,1.9,41.5,2.2c11,0.2,26.7-0.5,45.9-5.1"/>
<path class="st0" d="M18.6,76.4C49.3,77.3,74,77.6,91,77.6c10,0,16.3,0,52.5,0c43.1,0,40.8,0,44.6,0c46.6-0.6,47.9-2.8,69.4-1.2
	c25.2,1.9,48.9,6.6,48.9,6.6c14.8,3,24.6,5.8,41,6c10.5,0.1,10.4-1,24.1-1.2c13.2-0.2,15.7,0.8,40.4,2.4c24.3,1.6,25.3,0.8,39.8,2.4
	c11.9,1.3,14.5,2.2,27.1,3.6c3.3,0.4,14.2,1.5,33.2,2.4c26.4,1.2,31,0.2,50.7,1.2c17.6,0.9,15.2,1.8,39.2,3.6
	c34.6,2.7,38,0.7,68.8,3.6c15.9,1.5,18.4,2.3,31.4,3c17.4,0.9,27.1,0.2,41,0c17.9-0.2,14.7,0.9,53.7,2.4c11.8,0.5,29.6,0.9,65.2,1.8
	c16.2,0.4,24.2,0.6,25.9,0.6c36.6-0.1,41.5-4.3,67.6-3c22.1,1.1,38.6,4.2,38.6,4.2c11.7,2.2,18.5,4.4,30.8,4.2
	c8.3-0.1,11.1-1.2,19.3-1.2c11.4,0,17,2.3,27.1,4.2c7.2,1.3,17.4,1.7,38,2.4c10.5,0.4,24.5,0.7,41,0.6"/>
<path class="st0" d="M33.8,128.6c22,1.7,39.8,2,51.6,1.9c29-0.1,36.1-2,63.3-1c17.4,0.7,20.3,1.7,37.5,1.9
	c19.5,0.3,29.6-0.9,42.8-1.5c24.4-1.1,43.7,0.7,82.3,4.4c36.3,3.4,38,5.3,62.3,6.8c23.7,1.5,21.7-0.7,65.7,0
	c34.6,0.6,50.1,2,58.9,2.9c12.6,1.3,14,2,25.8,2.9c22.7,1.9,26.5,0.3,48.2,1.9c13.6,1,24.2,2.6,36.5,4.4c15.5,2.3,22.1,3.7,32.1,5.4
	c9.3,1.5,12.9,1.6,55.5,5.4c33.4,2.9,34.3,3,40.4,3.4c13.4,0.8,25.8,1.3,43.8,1.9c24.8,0.9,22.5,0.6,26.8,1
	c19.8,1.8,24.8,5,47.7,7.3c3.9,0.4,11.8,1.1,21.9,1.5c7.1,0.2,13.1,0.2,33.6-0.5c28.8-1,28.4-1.3,34.1-1c14.5,0.8,18,2.9,32.6,4.9
	c18.3,2.4,26.4,0.9,45.7,1c22.4,0.1,25.5,2.5,59.4,4.9c16.9,1.2,29.5,1.6,34.9,1.8c12.6,0.5,31.1,1.6,56.2,4.4"/>
<path class="st0" d="M34.5,185.7c16.5,0.7,29.9,1.3,39.1,1.7c14.2,0.7,17.3,0.9,25.3,1.1c19.1,0.7,33,0.6,36.2,0.6
	c17.1-0.1,27.9-0.8,36.8-1.1c38.1-1.6,45.2,2.2,104.6,2.9c23.1,0.2,20.1-0.4,41.4,0c27.5,0.5,47.7,1.7,74.7,3.4
	c30.5,1.9,47.8,3.1,72.4,5.7c21.3,2.3,20,2.8,55.2,6.9c27.1,3.2,32,3.4,55.7,6.3c20.5,2.5,36.7,4.8,47.1,6.3
	c53,7.5,52.3,8.9,67.2,9.2c21.6,0.5,26.1-2.2,47.7,0c11.5,1.2,16.8,2.6,34.5,5.2c19.6,2.8,29.4,4.1,40.2,4.6
	c17.8,0.8,19.6-2.5,42.5-2.3c8.5,0.1,15.3,0.5,25.3,1.1c17.3,1.1,29.6,2.5,33.3,2.9c12.9,1.1,19,1,49.4,1.1
	c21,0.1,38.2-0.9,59.8,0.6c4.1,0.3,2.4,0.2,33.9,2.9c27.9,2.3,25.8,2.1,27.6,2.3c22.4,2.8,27.3,6.7,43.7,6.9
	c7.7,0.1,7.8-1.3,20.7-1.7c7.2-0.2,10.1,0.1,14.9,0c6.8-0.1,16.6-0.8,28.7-4"/>
<path class="st0" d="M32.3,240.4c23.1,0.3,41.8,0.5,54.9,0.6c19.8,0.2,30.1,0.2,47.2,0.6c6.8,0.2,19.6,0.5,35.7,1.3
	c19.9,0.9,34.7,1.9,44.7,2.6c79.7,5.3,78.7,5.2,87.5,5.7c33.1,1.9,49.7,2.9,66.4,3.2c25.4,0.5,34.2-0.1,54.3,1.9
	c16.4,1.7,18.8,3,40.2,5.1c17.1,1.7,17.3,1.1,42.8,3.2c23.6,2,26.6,2.8,43.4,3.8c17,1.1,29.4,1.2,33.8,1.3
	c50.3,0.9,57.7,9.1,111.7,11.5c18.4,0.8,28.8,0.4,51.7,2.6c21.4,2,20.7,3.2,37,4.5c35,2.8,36.1-2.6,66.4,0.6
	c14.5,1.6,22.7,3.7,42.1,4.5c13.2,0.5,12.3-0.4,23.6,0c30.5,1.2,34.1,7.6,54.9,6.4c11.5-0.7,9.7-2.6,33.8-5.7
	c11.8-1.5,20.2-2.1,30-1.3c6.9,0.6,7.6,1.2,14.7,1.9c13.1,1.2,21.6-0.1,30-0.6c14.4-1,12.2,1.2,42.8,2.6c10.7,0.5,21.2,0.5,42.1,0.6
	c11.4,0.1,20.9,0,27.4,0"/>
<path class="st0" d="M28.8,291.7c24.2-3.1,43.6-2.5,57-1.4c17.7,1.5,26.9,4.1,48.4,5.7c13.9,1.1,22.6-0.5,44.2,0.7
	c7.1,0.4,6.4,0.5,19.9,1.4c6.9,0.5,22.6,1.5,39.2,2.1c17.7,0.7,23,0.4,34.9,0.7c23.2,0.6,40.4,2.8,58.4,5c48.5,6,53.1,11.1,84,11.4
	c15,0.2,15.5-1,34.9-0.7c14.4,0.2,34,1.2,57,4.3c10.7,1.4,9.9,1.8,18.5,2.8c16.4,2,24.5,1.5,42.7,2.1c18.6,0.6,32.7,1.9,43.4,2.8
	c19.7,1.8,23.9,2.9,38.5,4.3c17.9,1.7,31,1.8,57,2.1c32.9,0.4,49.3,0.6,66.9,0c9.2-0.3,18.1-0.7,30.6,0.7c15.6,1.8,18.5,4.3,32,6.4
	c15.5,2.4,18.5,0.1,47,0c10.4,0,6.5,0.3,43.4,1.4c23.5,0.7,27,0.7,52,1.4c19,0.6,25.1,0.9,41.3,1.4c66.4,2.3,70.2,1,94,2.8
	c15.6,1.2,38.7,3.7,66.9,9.3"/>
<path class="st0" d="M22.2,341.5c23.5,0,41.8-0.4,54.4-0.8c7.3-0.2,17.6-0.6,32.5-0.8c7.8-0.1,16.9-0.2,26.4,0
	c25.3,0.5,33,2.5,58.9,3.8c16.8,0.8,22.4,0.4,35.5,0.8c20.9,0.5,51.3,5.7,83.9,9.1c12,1.2,7,0.3,46.8,3c20.4,1.4,30.7,2.1,41.6,3
	c12.4,1,15.2,1.4,67.2,6.8c27.6,2.8,32.3,3.3,40.8,3.8c18.5,1,21.1,0.2,37,1.5c20.1,1.6,21,3.2,39.3,4.5c17.2,1.2,18.1-0.1,37,0.8
	c20.7,1,20.4,2.6,45.3,4.5c27.4,2.1,29.7,0.3,49.9,3c17.5,2.4,16.4,3.8,31,5.3c20,2,22.3-0.7,45.3,0.8c20.6,1.3,20.7,3.5,37.8,3.8
	c15.5,0.2,18-1.6,36.3-2.3c15.1-0.6,25.6,0.2,43.1,1.5c9.6,0.7,18,1.5,53.6,6c29.8,3.8,33,5,46.8,6c19.7,1.6,34.5,1,44.6,0.8
	c0,0,20-0.5,43.1,0c15.7,0.4,38.1,1.9,65.7,7.6"/>
<path class="st0" d="M29.6,390.6c16.9-0.4,34.5-0.4,52.7,0c13.2,0.3,23.5,0.8,41.2,1.6c17.3,0.8,29.3,1.4,44.5,2.5
	c33.3,2.4,33.6,3.9,53.6,4.9c32.8,1.7,31.7-2.4,60.1-0.8c29.9,1.6,30.6,6.1,65.9,9.1c28.6,2.4,25.4-0.8,57.7,1.6
	c28,2.1,37.8,5.1,64.3,5.8c17.1,0.4,20.4-0.7,37.1-0.8c32.2-0.3,55.8,3.3,73.3,5.8c42.7,5.9,85.7,8.6,128.5,13.2
	c51.4,5.5,87.5,9.2,135.9,13.2c69.9,5.7,101.9,6.4,158.2,12.4c2.4,0.3,22.8,2.4,50.3,4.9c29.4,2.7,44.4,4.1,61.8,4.9
	c26.2,1.3,29.3,0.3,47.8,1.6c22.9,1.7,41.2,5,52.7,7.4"/>
<path class="st0" d="M28.4,440.5c19.9-3,46.1-4.5,75.9,1c9,1.7,14.4,4.5,27.2,6.8c23.3,4.3,40,3.2,55.4,2.9c3.2-0.1,35-0.1,71,2.9
	c32.3,2.7,39.8,5.6,64.2,4.9c14.2-0.4,17.6-1.6,30.1-1c23,1.1,29.2,5.8,48.6,7.8c21.8,2.2,20.6-3.1,48.6-2.9
	c27.6,0.2,26.6,5.3,60.3,6.8c21.4,1,27.4-0.8,51.5,1c15,1.1,14.2,2.2,33.1,3.9c18.9,1.7,22.4,1.1,47.7,2.9c15.7,1.1,14.9,1.4,34,2.9
	c10.8,0.8,22.3,1.6,45.7,2.9c41.1,2.3,45.3,2,58.3,2.9c19.6,1.3,39.6,5,79.7,11.7c11.5,1.9,24.4,4.1,42.8,5.8
	c9.5,0.9,15.2,1.1,31.1,1.9c19.9,1.1,35.2,1.9,49.6,2.9c15.2,1.1,23.1,1.6,34,2.9c11.6,1.4,20.3,2.8,27.2,3.9
	c37.8,6.2,45.5,10.2,62.2,7.8c4.3-0.6,7.1-1.4,13.6-1.9c5.9-0.5,15.8-1,30.1,1c20.7,2.8,35,4.7,48,15.5c5.4,4.5,8.9,9.1,11,12.2"/>
<path class="st0" d="M24.9,496.9c35.5,0.1,60.6,3.7,77.3,7.1c8.5,1.8,21.5,4.9,39.5,4.4c14.6-0.4,17.5-2.7,32.4-3.3
	c16.3-0.6,24,1.8,43.9,4.4c15.9,2.1,27.6,2.7,51,3.8c48,2.4,53.9-1.7,88.3,2.2c20.5,2.3,18.4,3.8,40,6c30.2,3.1,34.1,0.3,61.4,3.8
	c17.8,2.3,21.5,4.3,41.1,6c2.6,0.2,14.7,1.3,31.8,1.6c17.3,0.3,27.7-0.3,36.7-0.5c24.5-0.6,27.9,2,83.9,6.6
	c8.2,0.7,21.2,1.5,47.2,3.3c33.3,2.2,46.5,3,68,4.4c46.3,3,69.4,4.6,81.7,6c24.1,2.8,35.2,5,58.7,6c16.9,0.7,20.3-0.8,41.7,0
	c17.7,0.6,21.7,1.7,44.4,2.7c20.3,1,22.7,0.4,37.3,1.1c23.2,1.1,37,3.5,56.5,6c18.2,2.4,44.4,5.3,77.3,7.1"/>
<path class="st0" d="M28.4,560.5c16.9-3,39.2-4.5,63.9,1c17.8,4,24.9,8.9,41.2,11.9c23.8,4.2,28.8-3.4,65.5-6.2
	c31.5-2.4,57.7,0.3,69.6,1.5c23,2.5,25.9,4.8,51,6.7c22.5,1.7,44,1.6,46.4,1.5c16.9-0.1,20.5-0.9,34.5-0.5
	c16.2,0.5,23.3,1.8,37.1,3.1c31.7,2.9,34.8-0.8,65.5,1c23.2,1.4,18.8,3.3,55.7,7.2c34.7,3.7,33.3,1.4,66,5.2c19,2.2,28.7,4,47.4,4.6
	c18.4,0.6,16.3-1,33-0.5c27.5,0.7,35.4,4.9,74.7,7.7c2.7,0.2,7.5,0.5,17,1c25.8,1.5,44.7,2.4,49,2.6c31.3,1.5,47.2,3.8,89.7,6.7
	c65.3,4.4,68.8,1.7,116,6.2c39.6,3.7,59.4,5.6,59.8,5.7c9.5,1.6,19.5,3.6,34,3.1c12.8-0.4,18.4-2.5,30.9-4.1
	c10.5-1.4,25.5-2.4,44.3-0.5"/>
<path class="st0" d="M15.6,622.7c32.1-4.9,54.3-2.6,68.8,0.6c5.8,1.3,13.7,3.4,25.8,4.3c16.1,1.1,23-1.2,38.1-1.2
	c17.8,0,17.9,4.1,35.6,4.3c10.8,0.1,11-1.1,28.9-1.8c12.9-0.5,22.6-0.2,31.3,0c10.6,0.3,23.7,1,38.7,2.5"/>
<path class="st0" d="M17.9,716.3c12.2-0.8,30.7-1.6,53.1-0.7c24.2,0.9,37.8,3.1,59.6,5c54.4,4.8,49.2-1.9,77.5,2.9
	c17.7,3,35.4,7.9,58.2,5.7c3.3-0.3,8.7-1,17.2-1.4c13.8-0.8,23.3-0.4,35.9,0c0,0,17.2,0.5,36.6,0.7c34.8,0.4,41.3-2.1,79-2.2
	c10.9,0,19.5,0.2,36.6,0.7c18.6,0.5,43.6,1.3,75.4,3.6c36.5,2.7,30.6,3.8,54.6,5c29.1,1.5,33.5-0.4,73.2,0.7c29,0.8,25,1.8,49.5,2.2
	c9.8,0.2,14.4,0.1,66.8,0c9.9,0,14.8,0,15.8,0c27.9,0.6,37.2,3.7,61,5c9.6,0.5,5.4-0.1,37.3,0c10,0,28.2,0.1,48.8,0.7
	c31.7,0.9,50.2,1.4,74.7,4.3c22.4,2.6,23.8,4.2,45.2,6.5c17.4,1.9,22.3,1,56.7,2.9c29.3,1.6,27.9,2.2,36.6,2.2
	c14.7,0,36-1.6,62.5-9.3"/>
<path class="st0" d="M4.3,773.2c25.7-1.8,46.6-1,60.9,0c38.3,2.8,43.1,8.4,72.5,7.3c23.9-0.9,29.1-5,53.7-3.6
	c14.7,0.8,20.9,2.7,38.5,3.6c20.1,1.1,23.7-1.4,42.8-0.7c17.1,0.6,22,2.5,39.9,4.4c16.4,1.7,15.6,0.5,57.3,1.5
	c37.8,0.9,45.6,2.5,82.7,2.9c20.3,0.2,17.5-0.4,31.9,0c22.3,0.6,32.2,2.2,58,3.6c3.9,0.2,15.2,0.6,37.7,1.5
	c14.1,0.5,27.4,0.9,43.5,1.5c31.4,1,37.6,1.2,48.6,2.2c18.4,1.7,17,3,29,3.6c21.7,1.2,24.4-2.7,48.6-2.9c8.5-0.1,20.4,0.9,44.3,2.9
	c12.6,1.1,16.6,1.6,31.9,2.9c21.2,1.8,31.8,2.8,37,2.9c27.6,0.8,32.9-3.1,60.9-1.5c10.7,0.6,8.4,1.1,23.2,2.2
	c20.1,1.5,25.6,0.7,51.5,1.5c19.7,0.6,35,1.6,43.5,2.2c9.5,0.6,22,1.5,35.5,2.9c16,1.7,37.7,4.6,63.8,10.2"/>
<path class="st0" d="M7.1,839.5c21.8-5.5,38.2-4.3,49.5-1.9c10,2.1,18,5.5,33.2,6.3c11.3,0.6,15.6-0.9,25.7-1.3
	c17.7-0.6,20.6,3.3,43.9,6.3c31.8,4.1,35.1-1.9,63.3,3.8c11,2.2,14.3,3.9,23.8,4.4c17,0.9,21-3.6,38.9-5.6
	c21.6-2.5,22.9,3.4,55.8,2.5c16.6-0.4,16-1.9,27-1.3c15.6,0.9,19.4,4.1,41.4,7.5c2.6,0.4,15.5,2.4,31.3,3.1
	c16.6,0.8,25.6-0.2,37.6-0.6c41.4-1.4,41.3,7.3,76.5,5c19.4-1.2,26.6-4.3,45.8-2.5c13.3,1.3,14.6,3.2,28.8,4.4
	c20.1,1.7,23.7-1.7,45.1-1.3c19.7,0.4,19.8,3.3,42,4.4c21.4,1.1,22.4-1.5,43.2-1.3c24,0.3,25.1,3.9,62.7,7.5
	c26.2,2.5,21.9,0.5,48.3,3.1c22.1,2.2,32.9,4.5,52.7,3.8c9.1-0.3,8.8-0.9,23.8-1.9c16.2-1.1,29.2-1.2,45.1-1.3
	c60.9,0,67.6-2.9,89,1.3c14.8,2.9,20.8,6.3,29.5,8.1c11.8,2.5,20.7,0.2,28.8-1.3c14.9-2.7,39.2-4.8,80.2-2.5"/>
<path class="st0" d="M7.4,904.8c18.5,0.7,37.3,1.6,56.5,2.8c28.9,1.8,50.9,3.6,56.5,4.1c11.6,1,34.8,3.2,80.6,7.6
	c6.4,0.6,15.7,1.5,28.3,2.1c13.5,0.6,16.3,0.2,28.9,0.7c5.7,0.2,10.6,0.5,36.5,2.8c38.9,3.4,35.5,3.3,38.6,3.4
	c28.3,1.3,31.6-2.3,59.3-0.7c13,0.7,13.3,1.6,34.5,3.4c17.5,1.5,31.4,2.1,46.2,2.8c13.1,0.6,25.1,1.1,38.6,1.4
	c41.9,0.7,41.6-2.5,68.9-1.4c17.3,0.7,11.7,1.8,65.5,6.9c15.2,1.4,25.5,2.3,38.6,2.8c16.9,0.6,30.5,0.3,38.6,0
	c10.1-0.4,14.3-2,23.4-1.4c8.3,0.6,11.4,2,21.4,2.8c7.5,0.6,12.7,0.3,20,0c0,0,8.3-0.4,42-1.4c7.7-0.2,23.1-0.6,40,0
	c31.7,1.1,34,4.1,62.7,4.8c22.3,0.6,22.5-1.2,42,0c21.8,1.4,21.1,3.6,42,4.8c21.3,1.3,24.4-0.8,50.3,0.7c15.2,0.9,16.2,1.8,26.9,2.1
	c17.8,0.5,24.8-3.5,44.1-3.4c8.8,0,11.6,0.7,20.7,1.4c12.9,0.9,31.8,1.2,55.8-2.1"/>
<path class="st0" d="M8.3,964.6c39.7,9.2,69.8,12.6,90.6,13.9c6.7,0.4,21.7,1.2,49,2.9c21,1.3,31.6,2,41.7,2.9
	c26.2,2.4,33.8,4.3,54.8,6.6c18.8,2,17.5,1,61.4,3.7c31.7,1.9,31.6,2.4,75.3,5.1c14.6,0.9,29.9,1.9,50.4,2.9
	c25.6,1.3,24.7,1,49.7,2.2c56.7,2.8,56.7,4.2,72.3,2.9c10.9-0.9,20.2-2.4,36.5-2.2c8.1,0.1,15.6,0.8,30.7,2.2
	c25.5,2.3,31.5,3.8,43.8,2.9c11.6-0.8,11.2-3.1,22.7-3.7c10.6-0.6,13.2,1,30.7,1.5c8.4,0.2,6.8-0.1,22.7,0c13.3,0.1,20,0.2,28.5,0.7
	c13.2,0.9,13.8,1.8,24.1,2.2c6.4,0.3,10.7,0.1,25.6-0.7c32-1.8,30.5-2,38.7-2.2c7.6-0.2,7.4,0.1,35.1,0.7
	c27.5,0.6,24.2,0.3,35.8,0.7c7.9,0.3,26.2,1,49.7,2.9c16.4,1.3,16.8,1.7,25.6,2.2c20.2,1.1,23-1,42.4-0.7c21.7,0.3,24.3,2.7,46,2.9
	c15.2,0.1,14.9-1.1,32.2-1.5c33.2-0.7,44.3,4.3,85.5,5.1c8.8,0.2,16,0.1,20.5,0"/>
<path class="st0" d="M11.7,1032.7c38.4,14.9,64.3,17.3,81.4,16.4c4.6-0.2,15-1.1,30-0.6c17.6,0.6,24.3,2.4,40.7,4
	c23.4,2.2,24-0.3,49.8,1.1c19,1,17.8,2.3,53.7,6.2c30.9,3.4,33.8,2.6,58.3,5.7c29,3.6,27.5,4.9,48.6,7.4c32.8,3.8,36.8,0.7,81.4,3.4
	c40.8,2.5,37,5.1,62.2,5.1c25.8,0,33-2.7,67.3-2.8c13.9,0,16.9,0.4,42.4,1.1c14.1,0.4,21.4,0.5,69.6,1.1c45.1,0.6,67.9,0.9,76.9,1.1
	c21.9,0.5,39.8,0.8,63.3,1.7c45.9,1.7,52.2,3.1,84.3,4c30.6,0.9,38.8,0,75.8,0c40.1,0,53,1,107.5,2.3c26.4,0.6,65,1.3,112.6,1.7"/>
<path class="st0" d="M13.2,1101.8c22.4,4.7,48.2,8.3,76.8,9.5c8.4,0.3,20.8-1.2,38.8,0c16.5,1.1,18,3.2,41,5.9
	c13.9,1.6,16.3,1.3,43.2,3.7c12.5,1.1,20.8,1.6,30.7,2.9c20.3,2.6,20.6,4.7,39.5,7.3c19.7,2.8,17.9,0.1,46.1,2.9
	c9.2,0.9,19.3,2.3,39.5,5.1c12.6,1.7,18.8,2.6,24.9,3.7c14.3,2.5,27.2,5.6,38.8,8.8"/>
</svg>
