<?xml version="1.0" encoding="utf-8"?>
<!-- Generator: Adobe Illustrator 22.1.0, SVG Export Plug-In . SVG Version: 6.00 Build 0)  -->
<svg version="1.1" id="Layer_1" xmlns="http://www.w3.org/2000/svg" xmlns:xlink="http://www.w3.org/1999/xlink" x="0px" y="0px"
	 viewBox="0 0 1240 1647" style="enable-background:new 0 0 1240 1647;" xml:space="preserve">
<style type="text/css">
	.st0{fill:none;stroke:#000000;stroke-width:6;stroke-miterlimit:10;}
</style>
<image style="overflow:visible;" width="1240" height="1647" xlink:href="processed.jpg" >
</image>
<path class="st0" d="M40.7,64.7C53,64,71.5,63.1,94.1,61.8c24.9-1.4,29.4-1.8,48.6-2.8c28.3-1.5,50-2.5,68.3-3.2
	c54.8-2.3,46-1.2,66.3-2.4c38.2-2.4,46.5-4.8,85.6-6.4c13-0.5,23.8-1,39-0.8c33.1,0.4,35.3,3,55.8,2c25.4-1.3,25-5.6,52.2-6.8
	c19.7-0.9,19.8,1.3,46.2,0.8c22.5-0.4,26.9-2.2,46.2-2.4c16.4-0.2,18.6,1,44.6,2.4c22.9,1.3,42.5,1.4,81.6,1.6
	c31.5,0.2,26.9-0.3,42.2,0c42.1,0.7,43.4,3,61.5,1.2c22.3-2.2,25.4-6.2,48.2-6.8c12.2-0.3,12.6,0.8,33.3,1.2
	c12.6,0.3,24.5-0.1,47.8-0.8c52.2-1.6,51.8-1.6,52.6-1.6c28.1,0,34.9,1.9,66.7,2.4c19.7,0.3,35.7,0,45.8-0.4"/>
<path class="st0" d="M15.9,112.9c26.9,3.5,48.2,2.8,62.9,1.4c12.1-1.1,19-2.5,34-3.6c23.3-1.7,25.6,0.9,49.9,0
	c22.3-0.8,22.2-2.7,48.4-3.6c15.7-0.5,19.1,0.1,31.8-0.7c18.5-1.1,21.3-3.6,39.8-5.1c4.6-0.4,5.5-0.3,33.3-0.7
	c25.3-0.4,38.1-0.6,41.9-0.7c29.1-1.2,27.2-3.1,45.5-2.9c14.6,0.2,21.3,1.4,35.4,0c10.3-1.1,18.5-2.9,23.9-4.3"/>
<path class="st0" d="M42,163.5c28.6-7.8,48.5-7.1,61.7-4.7c5.9,1.1,18.1,3.8,34.6,2.5c9.1-0.7,9.9-1.9,21.2-3.4
	c13.9-1.9,24.4-1.6,40.7-1.1c27,0.8,27,3.1,38.4,1.1c11-1.9,14.2-4.6,26.9-5.7c9.3-0.8,14.8,0,24.1,0.6c8,0.5,18.9,0.3,40.7,0
	c38.6-0.6,54.1-4.2,100.8-6.3c17.1-0.8,27.2-0.9,44.1-1.1c86.3-1.5,108.1-6,161.6-5.2c14.3,0.2,27.8,1.6,55,2.3
	c10.3,0.3,27,0.7,48.7,0.6c26.2-0.1,28.4-0.9,59-1.1c12-0.1,22.3-0.1,43,0c33.7,0.1,35.5,0.4,47,0c22.2-0.7,21.6-1.9,41.8-2.3
	c13.1-0.2,24,0.1,40.1,0.6c19.7,0.6,18.6,0.9,30.9,1.1c16.9,0.3,21.4-0.3,45.8-0.6c7.6-0.1,7.7,0,36.7,0c0,0,0,0,52.7,0
	c22.3,0,44.7,0,67,0"/>
<path class="st0" d="M40.6,209.9c21.9-2.4,38.1-1.7,49-0.6c5.2,0.5,15.2,1.8,28.8,0.6c4.7-0.4,9.9-2.2,19-3.1
	c5.8-0.5,9.9-0.6,13.5-0.6c17.1-0.3,20.3-1.6,30.6-1.8c12.8-0.3,14.1,1.5,29.4,2.4c14.7,0.9,16.3-0.5,55.7-2.4
	c12.6-0.6,23.5-1,30-1.2c22.5-0.8,24.2-0.6,36.1-1.2c18.9-1,19-1.9,33.7-2.4c16.3-0.6,20.5,0.2,35.5,0c16.5-0.2,23.8-1.4,43.5-3.1
	c18.9-1.6,45.6-3.8,76.5-3.7c27.6,0.2,30.2,2.1,55.7,1.2c7.8-0.3,9.8-0.5,39.2-1.8c25.2-1.1,29.4-1.2,32.4-1.2
	c18.1-0.2,22.5,1,42.9,1.8c11.4,0.4,25.2,0.3,52.6,0c27.8-0.3,30.4-0.7,49-0.6c20.6,0.1,19.8,0.6,37.3,0.6c29.3,0.1,30.6-1.2,60-1.2
	c18,0,18.8,0.5,49.6,0.6c15.3,0.1,24.2,0,31.8,0c42.7-0.1,50,2.9,79,1.8c17.7-0.6,16.2-1.6,36.1-2.4c26.3-1.1,47.7-0.3,61.8,0.6"/>
<path class="st0" d="M6.6,253.1c10.8,2.5,26.2,5.1,44.7,5c9.9-0.1,11.2-0.8,29-1.7c22.9-1.1,26.2-0.1,46.4-0.8
	c20.9-0.8,22.8-2.1,44.7-3.3c11.8-0.7,27-1.4,46.4-0.8c21.5,0.6,27.7,5.3,44.7,3.3c2.3-0.3,4.1-0.5,11-1.4
	c13.8-1.7,23.8-2.6,29.1-3.1c38.9-3.8,36.2-4.9,49.6-5.2c18-0.4,18.1,1.6,34.3,0.4c11.2-0.8,15.6-2,32.6-4.4c0,0,16-2.2,35.2-4
	c26.9-2.5,28.7,1.6,74.8,1.8c20.7,0.1,38.3-0.4,38.3-0.4c11.2-0.3,16.9-0.7,29-0.9c13.5-0.2,23.5-0.1,28.2,0
	c50.6,0.7,49.5-1.5,71.7,0c25.8,1.7,26.3,4.4,47.5,4.4c12.4,0,15.7-0.9,38.7-1.3c15.6-0.3,27.9-0.1,34.3,0
	c11.1,0.2,24.8,0.7,40.5,1.7"/>
<path class="st0" d="M34.7,313.5c16.4,0,32.7,0,49.1,0c16,0,22.1,0.6,34,0c7.2-0.4,8.9-0.7,35.4-3.3c16.9-1.7,25.4-2.5,34.7-3.3
	c6.8-0.6,22.5-1.8,38-2.6c11.9-0.6,19.7-0.7,68.1-0.7c40.3,0,41.7,0.1,53.7,0c21-0.2,35.2-0.4,53.7-1.3c34.8-1.7,42.4-4,71.4-5.2
	c26.6-1.1,23.7,1,52.4,0c18.2-0.6,27.6-1.7,56.3-2.6c7.7-0.3,15.4-0.5,25.5-0.7c31.9-0.5,36.4,0.9,64.8,0.7
	c15.7-0.1,13.6-0.6,46.5-1.3c3-0.1,18.8-0.4,38-0.7c7.7-0.1,35.2-0.4,87.7,0c42.5,0.3,42.9,0.7,71.4,0.7c19.2,0,36.6,0,60.2-0.7
	c22.7-0.6,38.8-1,60.9-2.6c29.8-2.1,35-3.9,58.9-4.6c18.7-0.6,21.9,0.3,41.2,0c14.8-0.2,35.9-1.1,61.5-3.9"/>
<path class="st0" d="M3.4,363.9c18.5,1.6,33.9,1.7,45,1.4c15.6-0.4,29-1.7,39.5-2.7c24.8-2.4,27.5-3.9,41.6-4.1
	c12.8-0.2,12.2,1,34.1,2c16.3,0.8,20.3,0.3,51.1,0.7c18.6,0.2,16.1,0.4,36.1,0.7c32.1,0.5,48.2,0.7,67.5,0
	c15.3-0.6,26.8-1.5,49.8-3.4c34.9-2.9,40.4-4.3,62.1-5.5c13.2-0.7,14-0.3,49.8-0.7c46.4-0.5,47.1-1.1,83.9-1.4
	c44.1-0.3,39.4,0.7,64.1,0c33.8-0.9,43.8-2.8,70.9-2.7c23.3,0.1,42.2,1.5,54.6,2.7"/>
<path class="st0" d="M30.5,413.1c49.7,2.8,89.6,1.7,117.2,0c22-1.3,36.4-3,78.9-5.5c20.5-1.2,42.5-2.5,69-3.3
	c54-1.6,55.2,1.5,101.9,0c39.5-1.3,42.4-3.5,85.4-4.4c12.8-0.3,11.2,0,61.3,0c72.4,0.1,66.7-0.4,87.6,0c36.3,0.7,43,2,67.9,1.1
	c19.8-0.7,25.2-1.8,49.3-3.3c0,0,34.6-2.1,74.5-2.2c63-0.1,62.6,5.5,115,4.4c25.8-0.6,27.1-1.9,72.3-3.3c24.2-0.7,43-0.9,62.4-1.1
	c20.7-0.2,48.3-0.3,81.1,0"/>
<path class="st0" d="M7.9,462.4c23.1-3,47.9-5.4,74.4-6.8c35-1.8,40.6,1,83.8-0.7c27.9-1.1,35.3-2.4,60.9-2.7c3.8,0,3.2,0,55.4,1.4
	c115.9,3.1,34.1,0.6,62.2,1.4c14.6,0.4,23.7,0.7,37.2,0c15.2-0.8,19.4-2,33.1-3.4c18.3-1.8,24-0.9,76.4-0.7
	c18.5,0.1,13.5-0.1,35.2,0c49.1,0.2,55.2,0.9,86.5,0.7c21.5-0.1,35.5-0.2,55.4-1.4c25.5-1.4,28.6-2.7,56.8-4.7
	c20.5-1.5,44.2-3.2,72.3-2.7c33.4,0.6,31.7,3.5,66.9,4.7c36.3,1.3,39.3-1.8,84.5-1.4c17.1,0.2,9.4,0.5,67.6,2.7
	c58.8,2.2,72.1,2,85.9,1.4c17.5-0.8,21.7-1.8,43.9-2.7c23.3-1,42.5-0.9,55.4-0.7"/>
<path class="st0" d="M16.3,501.3c29,1.6,52.3,0.9,68.6,0c11.6-0.7,19.4-1.5,36.7-2.4c21.8-1.2,31.5-1,50.3-1.6
	c35.1-1.1,33.9-3.7,57.4-3.2c24,0.5,25.1,3.8,53.4,4c8.3,0.1,14.3-0.2,29.5,0c16,0.2,27.5,0.7,31.1,0.8c33,1.2,41.3-2.2,83-2.4
	c27.8-0.1,30.3,1.3,60.6,0.8c16.1-0.3,16.4-0.8,40.7-1.6c28.2-0.9,43.4-1.4,63-0.8c24.7,0.8,26.1,2.4,50.3,3.2
	c21.9,0.8,31.1-0.2,56.6-0.8c31.3-0.8,28.2,0.4,106.9,0.8c31.5,0.2,47.2,0.3,63,0c41.9-0.7,46.9-2.1,83-2.4
	c37.3-0.3,33.9,1.2,71,0.8c40.5-0.4,44.6-2.3,76.6-1.6c3.6,0.1,21,0.8,55.8,2.4c27,1.2,38.4,1.8,55,1.6c16.4-0.2,29.9-0.9,39.1-1.6"
	/>
<path class="st0" d="M-4.6,554.2c26.3,3.6,48.8,4.4,65.9,4.3c3.8,0,19-0.1,39-1.7c22.1-1.8,38.3-4.4,43.4-5.2
	c25.6-4,64.1-3.1,106.7-4.3c24.1-0.7,27.5-1.5,50.3-1.7c6.9-0.1,8.9,0,39,0c26.9,0,40.3,0.1,43.4,0c41.3-0.7,38.5-3.7,59.9-2.6
	c30.6,1.6,31.7,7.5,53.8,5.2c13.6-1.4,19-4.3,37.3-5.2c11.4-0.6,19.8,0,31.2,0.9c25.4,1.9,30.8,4.5,50.3,6.1c12.2,1,15.3,0.4,44.2,0
	c35.7-0.5,35.4,0.4,61.6,0c29.2-0.4,28.3-1.4,84.2-3.5c34.4-1.3,51.6-1.9,65.1-1.7c25.3,0.4,32.8,1.8,56.4,0.9
	c14-0.5,16.2-1.2,41.6-2.6c15.1-0.8,28.5-1.5,42.5-1.7c9.8-0.1,27.3,0.8,62.5,2.6c11.8,0.6,18.9,1,29.5,0.9
	c16-0.2,27.5-1.3,32.1-1.7c14.7-1.3,36.8-1.8,68.5,1.7"/>
<path class="st0" d="M5,605.2c24.4,0,43.6,0,55.9,0c32.8,0.1,38.6,0.2,50.5-0.8c22.9-1.8,24.1-4.1,42.1-4.6
	c21.9-0.5,22.7,2.8,44.4,2.3c20.4-0.5,20.8-3.5,44.4-4.6c19.4-0.9,19.5,1.1,43.6,0.8c22.9-0.3,23.6-2.1,50.5-3.1
	c18.9-0.6,16.4,0.3,49,0c25.4-0.3,29.3-0.9,50.5-0.8c12.3,0.1,12.2,0.3,36,0.8c27.4,0.6,48.4,0.7,59.7,0.8c26.3,0.2,24.4-0.1,54.3,0
	c51.8,0.2,56.5,0.9,80.3,0c9.7-0.4,20.2-1,41.3-2.3c41.8-2.5,38.1-2.9,48.2-3.1c27.4-0.4,34.3,2.7,68.9,3.8
	c13.5,0.5,23.1,0.2,42.1,0c27.8-0.4,36.1-1.1,62-1.5c16.6-0.3,28.1-0.2,46.7,0c46.2,0.4,58.5,1.6,88.8,0.8c7.8-0.2,2.8-0.2,33.7-1.5
	c33.8-1.5,51-2.2,65-2.3c12.4-0.1,30.5,0.1,52.8,1.5"/>
<path class="st0" d="M37.9,653.4c32.9,8.3,54.7,7,68.9,3.8c3.8-0.8,10.9-2.7,21.4-3.8c14.9-1.6,20.6-0.2,39,0
	c19.3,0.2,19.2-1.3,42.8-1.5c14.8-0.1,16.3,0.5,34.4,0.8c16,0.3,39.9,0.7,68.1-1.5c12.4-1,8.9-1.1,43.6-4.6c30.5-3,35.2-3.1,39-3.1
	c23.2,0.2,23.7,4.3,45.1,3.8c15.9-0.4,18.6-2.7,35.2-2.3c12.8,0.3,15.5,1.8,29.1,3.1c10.4,0.9,17.1,0.8,50.5-0.8
	c45.3-2.1,40.4-2.3,46.7-2.3c26.6-0.1,30.2,2.5,58.9,2.3c13.9-0.1,24.6-0.8,36-1.5c27.5-1.8,34.9-3.6,52-4.6
	c26-1.5,24.5,2.3,55.1,1.5c16-0.4,18.7-1.4,44.4-2.3c10.8-0.4,18.7-0.5,35.2-0.8c19.8-0.3,41.2-0.7,68.9-0.8c9.1,0,6.5,0,28.3,0
	c27.9,0,31.3-0.1,41.3,0c14,0.1,24.1,0.4,38.3,0.8c36.8,1,34.9,1.6,49.7,1.5c21.3,0,21.1-1.2,48.2-1.5c20.3-0.2,23.7,0.4,39,0
	c18.5-0.5,33.5-2,42.9-3.1"/>
<path class="st0" d="M30.1,710.8c25.5,0,47.5-0.4,65.1-0.9c12.5-0.4,26.6-0.8,45.5-1.9c21.2-1.2,26.8-2,46.5-2.8
	c8.7-0.4,21.2-0.9,37.2-0.9c26.9-0.1,27.2,1.3,44.6,0.9c22.8-0.5,26.1-2.9,53.9-4.6c17.2-1.1,29.6-1,45.5-0.9
	c37.2,0.2,46.8,4.7,77.1,3.7c17.4-0.5,15.9-2.3,33.5-2.8c19.2-0.5,28.4,1.1,51.3,1.4c3,0,12.9-0.2,32.8-0.7
	c30.9-0.8,33-1.1,49.8-1.3c15.6-0.2,17.4,0.1,36.7,0c29-0.1,26.8-0.8,42-0.7c26.5,0.2,33.7,2,72.1,3.3c2.8,0.1,14.4,0.6,26.9,0.7
	c12.5,0.1,29.9-0.3,76-3.9c35.8-2.8,30-3,39.3-3.3c23.1-0.7,28,1.2,65.6,1.3c0.2,0,0.1,0,30.2,0c5.5,0,20.9,0,21,0
	c48.4,0,55.2,4.3,81.9,1.3c8.9-1,13.7-2.1,24.9-2.6c5.8-0.3,11.3-0.3,32.8,0.7c26.6,1.2,31.7,1.9,45.2,2c10.6,0,19.3-0.3,24.9-0.7"
	/>
<path class="st0" d="M52.4,756.6c16.8,1.4,34.7,2.4,53.5,2.6c20.9,0.3,36.3-0.4,43.7-0.7c26.7-1,56.2-0.8,105.8-2
	c21.8-0.5,32.6-0.8,44.4-1.3c20.6-0.8,25.8-1.4,39.2-1.3c18.3,0.1,19.2,1.2,32,0.7c14.5-0.6,18-2.2,35.9-3.9
	c16.4-1.6,28.8-1.8,38.5-2c23.5-0.4,21.8,1.3,51.6,1.3c14.6,0,22.8-0.4,37.9,0.7c7.6,0.5,13.3,1.1,20.9,2c22.7,2.5,27,3.8,39.8,5.2
	c6.9,0.7,21.2,0.9,49.6,1.3c28.1,0.4,35.7,0.1,39.2,0c4.5-0.2,13.9-0.8,32.6-2c29.6-1.9,31.2-2.1,37.2-2c10.9,0.3,11.6,1.1,30.7,2
	c11.9,0.5,20.9,0.6,23.5,0.7c5.3,0,17.3,0.1,33.3-0.7c13.2-0.6,21.1-1.3,29.4-2c21.3-1.6,41.2-1.7,81-2c17.6-0.1,14.5,0.1,36.6,0
	c27.4-0.1,34.8-0.5,51.6,0c13.2,0.4,10.3,0.6,30,1.3c25.6,0.9,39.5,0.8,46.4,0.7c11.1-0.2,19-0.6,20.9-0.7
	c11.8-0.6,14.6-1.1,20.2-1.3c10.5-0.4,18.5,0.8,33.9,3.3c10,1.6,23.2,4,38.5,7.8"/>
<path class="st0" d="M5.9,806.1c31.4-1.8,56.9-2,74.6-1.8c17.1,0.2,29,0.7,56.4,0.9c19,0.2,33.2,0.1,46.4,0
	c30.1-0.2,53.1-0.6,70-0.9c18.2-0.3,16.8-0.4,40.9-0.9c18.4-0.4,37.3-0.7,60.9-0.9c32.7-0.2,29.7,0.3,54.6,0
	c44.6-0.5,51.4-2.1,88.2-1.8c6.5,0.1,17.7,0.3,40,0.9c33.9,0.9,39.6,1.2,63.7,1.8c19.1,0.5,37.2,0.9,60.9,0.9c8.8,0,32.4,0,63.7-0.9
	c46-1.3,46.4-2.7,76.4-2.7c9.8,0,25.3,0.3,56.4,0.9c19.3,0.4,26.8,0.9,41.8,0.9c21.9,0.1,26.8-0.7,43.7-0.9
	c49.8-0.6,68.3,5.3,109.2,3.6c3.2-0.1,11.4-0.5,23.6-0.9c19.4-0.6,33-0.8,37.3-0.9c14.4-0.3,36.4-1.6,69.1-6.4"/>
<path class="st0" d="M33,851.9c34.1,6.5,60,6,77.8,4.2c8.7-0.9,17.6-2.3,33.6-3.2c18.1-1,27.8-0.4,49.4,0c14.2,0.3,4.4-0.1,69.4,0
	c42.3,0.1,42.9,0.2,53.6,0c33-0.7,37-2.2,64.1-3.2c53.6-1.8,51.3,4,104,2.1c17.9-0.6,34.3-1.9,59.9,0c16.8,1.2,20.1,3.5,35.7,4.2
	c21.4,1,31.3-1.6,53.6-3.2c8.7-0.6,8.8-0.3,54.7,0c44.3,0.3,67,0.4,95.6,0c16.6-0.3,29.6-0.6,45.2-1.1c43.7-1.2,50.6-2,73.6-2.1
	c22.4-0.1,25,0.6,56.8,1.1c46.4,0.7,50.2-1.9,75.7,0c9.2,0.7,20.4,1.8,37.8,2.1c10.4,0.2,15.1-0.1,27.3,0
	c22.9,0.1,23.6,1.1,36.8,1.1c28-0.1,31.1-4.3,50.4-3.2c9.1,0.5,21.7,2.2,36.8,7.4"/>
<path class="st0" d="M57,901.8c26.8-0.2,48.5-0.1,63.4,0c30.5,0.2,39.5,0.7,59,0c23.7-0.8,24.1-1.9,47.7-2.6c22.9-0.7,30.9,0,55.6,0
	c14.4,0,30.7-0.6,63.4-1.7c29.2-1,39.4-1.5,60.8-1.7c10.7-0.1,18.2-0.1,32.1,0c41,0.2,61.5,0.2,70.3,0.9c30,2.3,31.5,5.7,57.3,6.1
	c16.6,0.3,17.4-1.1,42.5-1.7c16.4-0.4,25.5,0,58.2,0.9c47.4,1.3,48.7,2.9,66.8,1.7c19.4-1.2,22.3-3.1,41.7-3.5
	c16.7-0.3,22.3,1,44.3,1.7c14.9,0.5,13.5,0,47.7,0c23.4,0,42.6,0,67.7,0.9c16.1,0.5,32.8,1.3,40.8,1.7c24.4,1.2,24.8,1.5,34.7,1.7
	c4.7,0.1,13.9,0.3,50.4-0.9c30-1,33.8-1.4,50.4-1.7c20.2-0.4,28.1,0,44.3,0c17.4,0,42.9-0.4,74.7-2.6"/>
<path class="st0" d="M12,965.1c32.1,0.3,58.1-1.4,76.4-3.1c25.1-2.3,40.7-4.9,69.2-6.1c20.9-0.9,19,0.4,48.9,0
	c37-0.5,45.8-2.3,83.5-3.1c19.4-0.4,27.7-0.1,48.9,0c67.9,0.3,82.8-2.2,162.9-3.1c23.5-0.2,48.9-0.5,83.5,0
	c62.3,0.9,66.2,3,119.1,3.1c36.7,0,48.3-0.9,83.5,0c10.5,0.3,24.8,0.8,46.8,1c10.8,0.1,25.1,0.3,42.8,0c22.4-0.3,25.4-0.9,59-2
	c29.5-1,44.3-1.4,57-1c19.5,0.6,24.9,2,52.9,4.1c15.4,1.2,34.1,2.4,57,3.1c27.2,0.8,32.1-0.9,59,0c21.7,0.7,27.1,2.3,35.6,2
	c8.8-0.3,21.3-2.5,36.5-12"/>
<path class="st0" d="M35,1014.1c23.9,0.7,44,0.9,58.9,0.9c23.2,0,34.8,0,49.7-0.9c26.5-1.6,32.5-4,55.3-5.5c26.7-1.8,26.2,1,57.1,0
	c37.3-1.2,35.6-4.8,64.5-4.6c21.1,0.2,25.3,2.1,58.9,2.8c8.1,0.2,19.9,0.3,34.1,0c29.5-0.5,39-2.1,61.7-2.8
	c30.4-0.8,27,1.9,52.5,0.9c23.4-0.9,30-3,57.1-4.6c20.4-1.2,36.4-1.2,45.1-0.9c13.1,0.4,16.6,1.2,30.4,1.8c24.8,1.2,25.7-1.1,46,0
	c15.6,0.8,17.7,2.1,35,2.8c11.3,0.4,19.3,0.2,26.7,0c26.6-0.7,51.5-1.3,72.8-0.9c26.1,0.4,21.7,1.9,52.5,2.8
	c32.6,0.9,32.9-0.9,63.5,0c34,1,34.3,3.2,59.9,2.8c20.4-0.4,24.6-1.8,42.4-0.9c14.4,0.8,19.7,2.1,37.8,2.8c10.9,0.4,10.4-0.1,29.5,0
	c21.2,0.1,26.2,0.7,48.8,0.9c9.9,0.1,19.7,0.1,29.5,0"/>
<path class="st0" d="M14.2,1075.3c10.8,0.6,26.2,1.3,44.8,1.5c20.1,0.2,30.2,0.3,41.9-0.7c24.4-2.2,26.4-5.9,48.5-7.3
	c16.5-1.1,16.5,0.9,39.7,0.7c22.1-0.1,21.9-1.9,55.1-3.7c22.5-1.2,41.4-1.3,56.5-1.5c18.8-0.2,17.6,0.2,28.6,0
	c38.5-0.6,47.5-4.5,84.5-5.9c8.7-0.3,22.5-0.2,49.9,0c34.9,0.3,43.8,0.9,62.4-0.7c16.3-1.5,17.8-2.7,30.1-2.9
	c22.3-0.4,24.9,3.5,44.8,3.7c22.6,0.2,22.8-4.9,48.5-5.1c16.6-0.2,15.3,1.9,37.5,2.2c24,0.3,24.1-2.2,40.4-0.7
	c18.3,1.6,21,5,34.5,3.7c11-1.1,12.5-3.7,25-4.4c9.5-0.6,11.8,0.7,26.4,1.5c8.8,0.4,15.2,0.3,27.9,0c24.4-0.6,26.6-2,38.2-0.7
	c12.6,1.4,11.9,3.2,22,3.7c14.7,0.6,18.9-3.2,32.3-3.7c10.3-0.4,11.1,1.8,30.8,5.1c24.1,4.1,42.8,4.4,47,4.4
	c19.7,0.1,18.7-2.3,38.9-2.2c21.2,0.1,22,2.8,42.6,2.9c4.3,0,6.6-0.1,41.9-2.9c33.1-2.7,34-2.8,38.2-2.9c12.2-0.4,29.8,0,51.4,3.7"
	/>
<path class="st0" d="M45.1,1121.6c12.8,1.2,26.4,2,40.7,2.4c13.9,0.3,20.9,0.5,30,0c17.1-1,21.6-3.1,36.6-3
	c10.9,0.1,13.3,1.2,23.4,1.8c19.2,1.2,22-2.7,44.9-3.6c14.1-0.6,15,0.6,33,0c14.8-0.5,14-1.4,27-1.8c19.1-0.6,22.5,1.3,42.5,1.2
	c13.5-0.1,11.7-0.9,33-1.8c21-0.8,22.4,0,44.3-0.6c13.3-0.4,12.7-0.7,45.5-2.4c21.7-1.1,32.5-1.7,39.5-1.8
	c29.7-0.5,29.5,2.7,56.3,2.4c23.8-0.3,26.9-2.7,49.7-1.8c12.6,0.5,14.6,1.3,29.4,1.8c10.6,0.3,14.9,0,40.1-0.6
	c26.6-0.7,40.1-1,47.9-0.6c16.4,0.9,18.6,2.2,34.8,3c16.9,0.8,21.3-1.7,37.8-0.6c12.5,0.9,14.2,2.3,25.2,3c14.9,1,23.4-0.9,37.2-2.4
	c15.9-1.7,32.6-1.6,65.9-1.2c23.3,0.3,19.6,0.9,41.9,1.2c37.3,0.4,40.6-1.6,68.9-0.6c20.2,0.7,36.5,2.4,47.9,3.6
	c16.5,1.7,30.7,3.7,41.9,5.4"/>
<path class="st0" d="M10.8,1189c33.9,0.6,61.5,0,80.8-0.7c24.9-0.9,40.3-2,76.2-3.3c24.5-0.8,20.4-0.4,49.9-1.3
	c57.8-1.8,65.1-3.1,93.3-2.6c23.2,0.4,22.8,1.4,43.3,1.3c22.4-0.1,33.3-1.3,61.1-2.6c17.5-0.9,32-1.2,61.1-2
	c47-1.2,70.6-1.9,85.4-1.3c32.1,1.3,35.9,3.7,63.1,3.3c25.3-0.4,23.1-2.6,51.9-3.3c25.2-0.6,31.7,0.9,69,0.7
	c19.8-0.2,15.8-0.6,32.8-0.7c28.3-0.1,40.2,1,78.2,2c24.7,0.6,26.5-0.4,38.1,0.7c19.1,1.8,24.7,4.6,39.4,4.6
	c15.5,0,20.1-3.2,36.8-5.9c21-3.4,28.9-0.9,64.4,0c30.9,0.8,32.8-1.3,60.4-0.7c20.2,0.5,24.7,1.4,41.4,2c17.1,0.6,41.7,0.7,72.2-2"
	/>
<path class="st0" d="M62,1240.7c18,0.3,36.6,0.4,55.8,0c29.9-0.6,32.2-3.6,47.3-1.7c11.1,1.4,21.3,4,37.2,2.5
	c10.1-0.9,7.9-2.6,18.6-3.4c12.1-0.9,15.7,1.4,27.9,0.8c10.9-0.5,12.1-2.4,22-3.4c12.4-1.2,17.3,1.3,33,3.4
	c14.8,2,25.6,1.9,44.8,1.7c7.8-0.1,9.2-0.3,38-1.7c16.2-0.8,31.7-1.5,36.4-1.7c41.5-1.7,44.6,3.2,76.1,0.8c9-0.7,16.9-1.6,30.4-1.7
	c7.9,0,11.9,0.3,28.7,0.8c0,0,15.8,0.6,28.7,0.8c24.7,0.6,28.6-0.7,56.6-0.8c20.4-0.1,17.7,0.6,50.7,0.8c11.9,0.1,14.1,0,46.5,0
	c37,0,38,0.1,53.3,0c48.6-0.2,44.5-1.1,69.3-0.8c42.2,0.5,40.6,3,75.2,2.5c22.1-0.3,26.4-1.3,60-1.7c7-0.1,22.5-0.2,42.3,0
	c17.2,0.2,25.8,0.3,38,0.8c24.6,1.1,24.6,2.3,41.4,2.5c13.6,0.2,13.9-0.6,37.2-0.8c19.1-0.2,21,0.3,30.4,0
	c11.2-0.4,27.1-1.6,46.5-5.9"/>
<path class="st0" d="M26.5,1297.6c19.5-1.3,39.6-2.4,60.3-3.1c4.4-0.2,12-0.4,49.9-1c38.8-0.7,58.2-1,71.2-1
	c40.9-0.1,37.5,0.9,67,0.5c34-0.5,34.3-1.8,69.6-2.1c7.9-0.1,28.2-0.1,52,0c11.4,0.1,18.8,0.1,30.1,0c18.3-0.2,25.8-0.8,35.9-1
	c34.9-0.9,44.4,3.3,88.9,4.2c8.3,0.2,17.3,0.3,29.6,0c22.4-0.5,27.9-1.9,48.3-2.1c16.7-0.2,14.3,0.7,31.7,0.5
	c22.7-0.2,27.5-1.8,44.7-1.6c17.6,0.2,16.4,1.9,34.8,2.6c26.4,1,30-2.3,63.4-2.6c6.4-0.1,2.3,0.1,41.1,1c21.8,0.5,21.6,0.4,47.8,1
	c43.8,1,43,1.2,51.4,1c26.6-0.5,27.6-2.4,48.3-2.1c21.2,0.4,20,2.4,43.7,3.1c23.7,0.7,26-1.2,53.5-0.5c22.1,0.6,20.2,1.8,34.8,1.6
	c21-0.4,27.8-3,46.8-3.1c13.9-0.1,25.5,1.3,33.8,2.6"/>
<path class="st0" d="M48.9,1345.6c23.6,0.9,42.6,0.8,55.3,0.6c17.9-0.3,27.8-0.9,57.2-1.9c26.6-0.9,39.8-1.3,45.9-1.3
	c33.1,0.1,38.6,2.5,70.4,1.9c13.2-0.3,16.4-0.8,28.9-0.6c19.1,0.2,24.7,1.5,42.7,2.5c15.2,0.8,13.2,0,61,0c26.9,0,27.1,0.3,39,0
	c21.9-0.5,31.1-1.7,47.8-2.5c16.4-0.8,33.8-0.6,67.9,0c49.1,0.8,47.6,1.8,77.3,1.9c27.2,0.1,32.4-0.8,69.1-1.3
	c27.6-0.4,30,0.1,67.3,0c58.2-0.2,52-1.1,76.1-0.6c44.8,0.8,53.6,3.7,91.8,3.8c29.6,0,22.7-1.7,62.9-2.5c37-0.7,47.6,0.6,100.6,0
	c22.9-0.2,22.7-0.5,39.6-0.6c38.7-0.3,69.9,0.9,90.4,1.9"/>
<path class="st0" d="M22,1407.3c35.4,0.5,64-0.6,83.5-1.6c32.7-1.8,52.2-4.3,85.9-4.1c23.7,0.2,43.7,1.8,51.6,2.5
	c34.5,2.8,38.8,5.6,67.9,7.4c13.8,0.8,16.7,0.4,56.5,0.8c42,0.4,42.5,1.5,56.5,0.8c23.6-1.2,27.9-3.5,45.8-2.5
	c16.2,1,19.7,3.3,37.6,4.9c14.4,1.3,19,0.4,44.2,0c26.5-0.4,23.6,0.5,83.5,0.8c17.8,0.1,26.7,0.1,32.7,0c30.4-0.6,35.8-2.5,69.6-4.1
	c26.4-1.2,39.7-1.8,58.9-0.8c10.3,0.5,19.3,1.4,41.7,2.5c18.7,0.9,25.1,0.9,30.3,0.8c14.1-0.2,15.2-1.1,31.9-1.6
	c10.1-0.3,17.6-0.2,32.7,0c14.1,0.2,19.6,1.2,32.7,0.8c7.9-0.2,8.7-0.6,15.5-0.8c14.4-0.5,20.6,0.9,34.4,1.6
	c16.5,0.9,13.5-0.6,40.1,0c17.6,0.4,19.1,1,31.9,0.8c14.6-0.2,15.6-1.1,26.2-0.8c15.8,0.5,17.4,2.5,29.5,2.5
	c11.1-0.1,14.8-1.8,29.5-4.1c8.9-1.4,22-2.9,38.5-3.3"/>
<path class="st0" d="M26.1,1462.2c11.2,0,22.4,0,33.5,0c3,0,43.4,0,43.4,0c39.1,0,38.5,0,39.3,0c31.7,0.5,33.1,2.3,58.9,2.5
	c22.5,0.1,23.5-1.2,45.8-0.8c19.5,0.3,30.9,1.5,45,2.5c35.9,2.5,44.7-0.4,77.7,1.6c4.9,0.3,9.7,0.6,17.2,0.8
	c17.6,0.4,25.5-0.7,39.3-0.8c13.4-0.1,15.2,0.9,32.7,1.6c26.4,1.2,47,0.1,63.8-0.8c24.3-1.3,27.3-2.6,49.1-3.3
	c19.4-0.6,37.2,0,38.5,0c9.5,0.3,11.5,0.5,21.3,0.8c16.8,0.5,29.1,0.2,37.6,0c0,0,33.2-0.8,71.2-0.8c28.2-0.1,31.9,0.9,85.9,2.5
	c47.6,1.4,56.2,1.8,72.8,1.6c16.8-0.1,20.3-0.6,48.3-0.8c15.7-0.1,31.2-0.3,51.6,0c25.1,0.3,27.7,0.9,44.2,0.8
	c20.7-0.1,35.8-1.2,43.4-1.6c21.6-1.4,55.7-3,110.5-4.1"/>
<path class="st0" d="M27.7,1521.1c24.8,0.3,45,0.2,58.9,0c22.2-0.2,34.9-0.7,61.4-0.8c3.9,0,19.5-0.1,38.5,0
	c53.7,0.3,53.2,1.7,90,1.6c17.1,0,25.6-0.3,75.3-0.8c5.1,0,13.1-0.1,23.7,0c15,0.2,21.7,0.6,33.5,0.8c15,0.3,21.8,0.1,37.6,0
	c33.2-0.2,37.5,0.8,64.6,0.8c20.8,0,35.4-0.5,64.6-1.6c22.6-0.9,36.2-1.7,77.7-3.3c20.7-0.8,23.8-0.8,27-0.8
	c26.2,0,41.7,2.3,62.2,4.1c28,2.4,42.1,3.1,61.4,2.5c20.9-0.7,24.6-2.5,46.6-2.5c10,0,13.3,0.4,40.9,1.6c24,1.1,35.9,1.6,40.9,1.6
	c35.3,0.3,37.1-4.7,70.4-4.9c5.9,0,22.3,1.1,54.8,3.3c38.3,2.6,36.2,3,47.5,3.3c21.1,0.5,22.5-1,62.2-1.6c16.7-0.3,26.6-0.4,40.1,0
	c18.8,0.6,34.3,2.1,45,3.3"/>
<path class="st0" d="M26.9,1573.4c18.1,0,38.1,0,53.2,0c59.1,0,62.2,0.1,72-0.8c16-1.5,25.2-3.4,43.4-3.3
	c11.3,0.1,13.9,1.2,33.5,2.5c2.1,0.1,21.7,1.4,42.5,1.6c26.9,0.3,26.6-1.5,54-1.6c25.7-0.2,24.3,1.4,59.7,1.6
	c17.8,0.1,22.2-0.2,44.2,0c17.6,0.2,30.3,0.6,37.6,0.8c29.1,0.9,56.3,1.5,87.6,1.6c34.9,0.1,52.4,0.2,63.8-0.8
	c9.9-0.9,23.8-2.5,44.2-2.5c11.8,0,11.8,0.6,25.4,0.8c23.2,0.4,32.1-1,57.3-1.6c2.5-0.1,21.8-0.6,43.4,0c28.5,0.7,31.7,2.7,67.1,4.9
	c29.2,1.9,52.4,2.2,72,2.5c17.2,0.2,29.1,0.2,49.9,0c54.1-0.4,59.6-1.4,103.1-1.6c33.1-0.2,35.9,0.3,74.5,0
	c23.6-0.2,43-0.5,55.6-0.8"/>
<path class="st0" d="M33.5,1626.6c29.1-0.9,52.5-2.2,68.7-3.3c27.5-1.7,34.6-2.7,51.6-2.5c15.1,0.2,22.9,1.2,41.7,0.8
	c14.5-0.3,19.5-1.1,31.1-1.6c23.3-1.1,30.1,1.6,55.6,1.6c17.8,0,17.5-1.8,27.8-0.8c13,1.2,17.5,4,31.1,4.1c6.3,0.1,6.5-0.5,20.5-1.6
	c2.1-0.2,16.9-1.3,33.5-1.6c15.4-0.3,27,0.3,37.6,0.8c20.5,1,20.7,1.9,36.8,2.5c8.6,0.3,10.2,0.1,36,0c18.8-0.1,28.1-0.1,32.7,0
	c13.3,0.3,32.2,1.5,55.6,5.7"/>
</svg>
