<?xml version="1.0" encoding="utf-8"?>
<!-- Generator: Adobe Illustrator 22.1.0, SVG Export Plug-In . SVG Version: 6.00 Build 0)  -->
<svg version="1.1" id="Layer_1" xmlns="http://www.w3.org/2000/svg" xmlns:xlink="http://www.w3.org/1999/xlink" x="0px" y="0px"
	 viewBox="0 0 1240 734" style="enable-background:new 0 0 1240 734;" xml:space="preserve">
<style type="text/css">
	.st0{fill:none;stroke:#000000;stroke-width:6;stroke-miterlimit:10;}
</style>
<image style="overflow:visible;" width="1240" height="734" xlink:href="processed.jpg" >
</image>
<path class="st0" d="M286.6,43.9c32.9,1.1,59.4,0.7,77.5,0c23.7-0.9,33.2-2,61.3-2.4c18.9-0.3,21.2,0.2,50,0
	c20.6-0.1,29-0.4,54.9-0.8c30-0.5,39.7-0.5,71-0.8c24.4-0.3,58.9-0.7,101.7-1.6"/>
<path class="st0" d="M129.4,139.2c26.4-1.8,49.1-2.7,67-3.2c34.1-1,60.2-0.8,77.9-0.6c32,0.3,48,0.4,61.2,1.3
	c23,1.5,33.4,3.4,53.4,1.9c17.6-1.3,17.1-3.3,34.8-4.5c23.1-1.6,26.7,1.6,53.4,1.3c22.6-0.3,21.2-2.6,46.4-3.2
	c21.4-0.5,24.9,1.1,49.6,1.3c9.2,0.1,23.6-0.6,52.2-1.9c50.1-2.3,54.5-3,70.2-2.6c18,0.5,15.9,1.5,42.5,2.6
	c24.2,0.9,43,0.8,51.5,0.6c12.3-0.2,11.8-0.4,23.8-0.6c20.8-0.4,32.3,0.2,54.7,0.6c28.5,0.6,50.9,0.7,59.9,0.6
	c28.9,0,25.2-0.6,55.4-0.6c21.3,0,28.8,0.3,43.8-0.6c14.8-0.9,17.9-1.8,31.5-2.6c18.8-1,32.1-0.4,42.5,0c16.9,0.6,41.3,1,73.4,0"/>
<path class="st0" d="M47.1,195.8c23.2,3,41.7,2.5,54.4,1.6c15-1.2,22-3,42-3.9c12.4-0.5,15.8-0.1,35.8,0c22.2,0.1,39.2-0.5,49-0.8
	c33.3-1,37.3-2.4,61.4-2.3c5.7,0,15.2,0.3,34.2,0.8c32.3,0.9,34.5,1.3,51.3,1.6c27.7,0.5,25.9-0.5,49,0c29.6,0.7,31.4,2.3,52.9,2.3
	c22.2,0.1,22.5-1.6,55.2-3.1c25.6-1.2,44.8-1,68.4-0.8c45.1,0.4,40.4,2.9,59.9,1.6c26.6-1.8,36.1-6.1,60.7-3.9
	c8.1,0.7,14,1.8,26.4,2.3c14.2,0.6,22.3-0.1,36.6-0.8c7.7-0.3,4.2-0.1,52.1-0.8c28.6-0.4,42.9-0.6,48.2-0.8
	c49.3-1.4,49.2-3.7,70.8-2.3c20.5,1.3,25,3.7,43.6,3.1c17-0.5,18.9-2.6,39.7-4.7c21.9-2.2,38.4-1.6,63-0.8
	c12.1,0.4,28.3,1.2,47.4,3.1"/>
<path class="st0" d="M51.2,247.6c7.8-0.3,19.8-0.6,34.5-0.7c26.7-0.2,33.9,0.5,54.2,0c25.6-0.6,23-1.8,43.6-2.1
	c23.3-0.3,25,1.3,57.7,2.1c22.3,0.5,41.3,0.2,54.2,0c19.1-0.3,23.7-0.7,40.1-0.7c19,0,24.7,0.6,38.7,0.7c25.9,0.2,28.3-1.5,56.3-2.1
	c40.2-0.9,43.2,2.4,80.9,0.7c21.2-0.9,21.5-2,38-2.1c21-0.1,26.8,1.7,55.6,2.1c12.6,0.2,12.6-0.1,32.4,0c21.4,0.1,26.9,0.9,40.8,0.7
	c16.1-0.3,15.7-1.3,34.5-2.1c25.6-1.1,29.1,0.6,66.9,0c9.4-0.1,7.7-0.2,30.3-0.7c23-0.5,26.2-0.4,38.7-0.7
	c25.9-0.6,26.8-1.1,59.1-2.1c21.6-0.6,32.6-1,45.8-0.7c16.1,0.3,24.8,5.1,40.1,2.1c8.5-1.6,10.5-3.5,19-4.2
	c12.3-1,16.8,2.3,30.3,4.2c11.5,1.7,12.2-0.1,42.2-0.7c14-0.3,18.5,0,29.6,0c15.2,0,37.3-0.7,65.5-3.5"/>
<path class="st0" d="M45.7,298.9c10.3,0.1,26.5,0.2,46.5,0c30.1-0.2,35.2-0.7,58.3-0.8c35.1-0.1,32.8,1,63.1,0.8
	c37-0.3,37.9-1.9,59.9-0.8c24,1.2,25.8,3.4,45.7,3.2c19.2-0.2,23.4-2.2,43.4-1.6c14.1,0.5,16.3,1.6,33.1,2.4
	c8.4,0.4,15.8,0.5,37.1,0c36.7-0.8,55.1-1.2,72.5-2.4c23.8-1.6,28.8-2.9,41.8-1.6c13.8,1.4,17,3.7,31.5,3.9c8.4,0.1,12.2-0.6,30-0.8
	c5.7-0.1,8.8,0,16.6,0c22.3,0.1,40,0,44.2,0c19.5-0.1,20.6-0.5,42.6-0.8c24.9-0.4,25.1,0.1,67,0c34.9-0.1,36.7-0.4,52,0
	c23.3,0.6,24,1.4,41.8,1.6c23,0.2,27.1-1.2,52.8-1.6c15.4-0.2,19.6,0.2,48.1,0.8c31.5,0.7,56.6,0.8,64.6,0.8
	c26.2,0,63.1-0.7,109.6-3.9"/>
<path class="st0" d="M40.8,342.5c19.8,0.6,36.8,0.7,50.1,0.7c21.7,0,38.5-0.4,52.3-0.7c31.2-0.8,31-1.3,45-1.5
	c41.3-0.5,46.2,4,94.4,5.2c23,0.5,20.7-0.5,56.8,0c19.2,0.3,22.8,0.6,55.3,1.5c48.7,1.3,45,0.6,64.9,1.5c35.4,1.6,36.5,3.2,69.3,4.4
	c14.3,0.5,13,0.2,61.2,0.7c50.8,0.6,51.2,1,67.8,0.7c35-0.5,33.6-2.2,69.3-2.9c19.6-0.4,26.8-0.1,84.8,0.7c51.3,0.7,50.9,0.7,59,0.7
	c44.1,0.1,46.6-1,83.3-0.7c18.9,0.1,45.4,0.3,79.6,2.2c33,1.8,38.6,3.4,63.4,4.4c32,1.4,58.1,0.3,75.2-0.7"/>
<path class="st0" d="M30.4,401.6c27.7,0.7,52.3,1.2,72.9,1.7c53.4,1.1,61.9,1.2,74.5,0.8c32.6-0.9,33.1-2.7,58-2.5
	c22.2,0.2,21.5,1.7,61.3,3.3c19,0.8,23.6,0.6,52.2,1.7c21.6,0.8,24.5,1.2,39.7,1.7c22.4,0.7,38.1,0.8,50.5,0.8
	c35.3,0.2,39.2,0.9,86.9,1.7c90.3,1.5,93.5-0.5,149.9,1.7c34,1.3,37,2.2,62.1,2.5c43.2,0.5,46.3-2,92.7-1.7
	c47.3,0.3,48.6,3,74.5,0.8c11.4-0.9,24.3-2.5,43.1-1.7c13.6,0.6,18.2,2.8,38.9,5c16.2,1.7,28.5,2.2,35.6,2.5
	c29.3,1.1,51.7-0.4,58.8-0.8c22.9-1.4,59.3-1.1,117.6,6.6"/>
<path class="st0" d="M39.4,458.5c23-3,49.3-4.8,78.3-3.7c17.6,0.6,16.5,1.9,37.3,2.8c31.7,1.4,46-0.5,84.8,0
	c14.5,0.2,21.8,0.2,32.6,0.9c27,1.7,29.1,4.3,44.7,3.7c18.2-0.7,19.2-4.3,39.2-4.7c11.4-0.2,12.3,1,29.8,1.9
	c17.4,0.9,23.5,0.1,45.7,0c25.8-0.1,22.9,1,46.6,0.9c35.1,0,40.1-2.4,66.2-0.9c5.2,0.3,14,1.1,31.7,2.8c31.3,3,36.8,4.1,50.3,4.7
	c10.6,0.5,10.2-0.1,42-0.9c36.5-1,55.1-1.4,70.8,0c20.3,1.8,20.8,3.8,39.2,4.7c16.3,0.8,26.9-0.3,46.6-1.9c37.9-3,56.8-4.6,68.1-4.7
	c27.8-0.2,51.5,2.4,71.8,4.7c21.3,2.4,22.1,3.3,38.2,4.7c18.1,1.5,32.5,1.3,60.6,0.9c61.4-0.8,64.2-0.9,70.8-0.9
	c16.6-0.1,40.6,0,69.9,0.9"/>
<path class="st0" d="M35.4,521.5c33.3,0.9,68.3,0.9,104.7,0c44.2-1.1,59.3-5.2,107-5.6c7.1-0.1,6.2,0,62.4,0c39.5,0,39.3-0.1,47.9,0
	c33.5,0.2,42.4,0.8,73.5,1.1c34.1,0.3,33.5-0.3,57.9,0c49,0.5,63,3.1,108.1,4.5c2.5,0.1,0.7,0,83.6,0c89.4,0,83.6,0,89.1,0
	c23.5-0.2,34-0.4,53.5,0c22.9,0.5,26.8,1.3,52.4,2.2c22.5,0.8,30,0.6,71.3,1.1c31.5,0.4,24.2,0.5,68,1.1c38.2,0.6,44,0.6,59.1,1.1
	c35.2,1.3,32.1,2.3,49,2.2c30-0.1,38-3.4,66.9-3.3c17.9,0,32.4,1.3,41.2,2.2"/>
<path class="st0" d="M48.8,574.9c27.9,0.6,50.4,0.4,65.7,0c19.7-0.5,25.2-1,43.5-1.1c19.9-0.1,29.5,0.4,55.7,1.1
	c40.5,1.1,35.8,0.2,63.5,1.1c48,1.5,51.4,3.6,82.5,3.3c23.9-0.2,20.9-1.5,54.6-2.2c22.3-0.5,24.2,0,69.1,0c37.6,0,42-0.4,61.3,0
	c24.8,0.5,32.9,4.9,51.3,2.2c7.6-1.1,15-2.9,27.9-3.3c10.1-0.3,13.7,0.5,26.7,1.1c20.1,0.9,21.5-0.6,37.9,0
	c22.5,0.8,24.5,3.9,41.2,4.5c19,0.6,18.6-4.1,44.6-5.6c10.2-0.6,19.4-0.4,37.9,0c13.4,0.3,22.6,0.7,31.2,1.1c16,0.7,42,1.9,62.4,2.2
	c35.6,0.6,33.8-1.6,70.2-1.1c31.8,0.4,28.1,2,60.2,2.2c25.2,0.2,35-0.7,64.6,0c17.3,0.4,18.5,0.9,31.2,1.1
	c21.9,0.4,43.4-0.3,64.6-2.2"/>
<path class="st0" d="M48.8,629.5c21-0.3,43.7-0.3,68,0c37,0.5,43.2,1.4,69.1,1.1c37-0.4,36.1-2.3,68-2.2c22,0.1,27.5,1,66.9,2.2
	c16.6,0.5,28.2,0.7,51.3,1.1c64.3,1.2,56.2,0.2,101.4,1.1c14.3,0.3,26.6,0.6,44.6,0c15.9-0.6,19.1-1.3,36.8-2.2
	c5.5-0.3,29.3-1.5,57.9-1.1c27.2,0.4,30.8,1.8,55.7,2.2c26.1,0.5,24.9-1.3,53.5-1.1c24.5,0.1,27.9,1.3,52.4,1.1
	c23.5-0.1,21.8-1.2,40.1-1.1c26.8,0.1,34.6,2.3,63.5,3.3c20.2,0.7,16.6-0.4,46.8,0c35.4,0.5,37.2,1.8,56.8,1.1
	c23.2-0.8,23.4-2.7,46.8-3.3c14.6-0.4,19.3,0.3,46.8,1.1c23.1,0.7,40.1,0.9,57.9,1.1c18.3,0.2,41.7,0.3,69.1,0"/>
<path class="st0" d="M46.6,675.2c40.1,2.9,74.1,4,100.3,4.5c31.3,0.5,54,0.1,59.1,0c36.2-0.7,58.8-2.6,73.5-3.3
	c28.9-1.5,71.3-1.5,127,6.7"/>
</svg>
