<?xml version="1.0" encoding="utf-8"?>
<!-- Generator: Adobe Illustrator 22.1.0, SVG Export Plug-In . SVG Version: 6.00 Build 0)  -->
<svg version="1.1" id="Layer_1" xmlns="http://www.w3.org/2000/svg" xmlns:xlink="http://www.w3.org/1999/xlink" x="0px" y="0px"
	 viewBox="0 0 1240 1653" style="enable-background:new 0 0 1240 1653;" xml:space="preserve">
<style type="text/css">
	.st0{fill:none;stroke:#000000;stroke-width:6;stroke-miterlimit:10;}
</style>
<image style="overflow:visible;" width="1240" height="1653" xlink:href="processed.jpg" >
</image>
<path class="st0" d="M456.8,163.2c12.8-3.9,28.6-7.8,46.9-10.5c8.9-1.3,21.9-2.8,37.6-3.3c24.9-0.8,36.3,1.8,49.7,2.2
	c17,0.5,41.7-2.2,72.9-17.7"/>
<path class="st0" d="M498.8,205.1c21.6-2.9,37.9-4,49.2-4.4c4.2-0.2,10.7-0.4,19.9-1.1c14.8-1.2,25.5-2.8,29.3-3.3
	c11.7-1.7,30.4-3.7,60.2-5"/>
<path class="st0" d="M539.6,239.9c19.9-2.4,39.8-4.8,59.7-7.2"/>
<path class="st0" d="M150.8,291.9c23.9,6.5,43.6,8.9,56.9,9.9c18,1.4,22.3,0.1,59.7,1.1c27.9,0.8,27.3,1.6,45.3,1.7
	c22.3,0.1,39.5-1,56.9-2.2c36.8-2.5,38.1-4.4,60.2-5c27.3-0.7,25.9,2.2,55.2,2.2c35.2,0.1,36.8-4.1,80.1-5
	c26.2-0.6,28.6,0.9,50.3-0.6c19.5-1.3,21.6-2.7,50.3-5.5c6.5-0.6,27.7-2.6,55.2-3.9c25.6-1.1,24.5,0,51.4-1.1
	c24.1-1,25.8-1.9,56.9-3.3c28.4-1.3,26.5-0.6,42-1.7c26.6-1.9,31.5-4.1,59.1-6.6c19.8-1.8,34.1-2.2,53-2.8c17.9-0.5,40.1-0.7,65.7,0
	"/>
<path class="st0" d="M115.2,347.6c11.1,1,27.9,2.3,48.4,3.1c20,0.8,30.8,0.6,52.7,0.6c59.3,0.1,61.9,1.8,104.8,1.2
	c14.9-0.2,32.9-0.5,57-1.8c28.5-1.6,31.6-2.9,66.8-5.5c33.2-2.5,52.9-4,80.3-4.3c27.8-0.3,36.7,0.8,60.7-1.2
	c16.1-1.4,21.1-2.7,37.4-3.7c23.7-1.5,40.3-0.4,50.9,0c29.7,1.1,29.2-2.2,90.1-5.5c30.2-1.6,55.4-2.1,106-3.1
	c26.7-0.5,26.6-0.3,39.8-0.6c27.5-0.7,67.1-2.5,116.3-7.7"/>
<path class="st0" d="M112.6,399.9c17.5,1.8,45.4,4.1,80.1,4.8c8.3,0.2,9.3,0.1,71.1-0.6c50.7-0.6,64.3-0.7,90.2-1.2
	c26.4-0.6,39.5-0.8,46-1.2c42-2.4,54.6-6.6,87.8-5.4c9.9,0.4,14,0.9,27.5,1.2c21.8,0.4,38.2-0.6,47.2-1.2c56.8-3.6,76.9-5.2,101-6.6
	c28.4-1.6,22.9-0.6,64.5-2.4c32.4-1.4,40.2-2.2,103.4-6c73.9-4.4,63.5-3.3,104.6-6c20.3-1.3,45.4-3,81.3-4.8
	c22.3-1.1,39.8-1.7,62.1-1.2c18,0.4,33,1.5,43.6,2.4"/>
<path class="st0" d="M116.5,464.3c17.3,2,35.9,3.6,55.8,4.3c10.4,0.4,16.6,0.3,65.6-0.6c55.9-1.1,62.6-1.3,73-1.8
	c10.4-0.6,8.6-0.6,46.6-3.1c28.2-1.8,37-2.3,48.4-3.1c44.7-2.9,44.9-3.8,74.8-5.5c14.6-0.9,34.7-2,60.7-2.5c37.2-0.6,35.6,1,62.5,0
	c25.4-1,47.1-3.2,69.9-5.5c24.3-2.5,23.5-3,38.6-4.3c26.5-2.3,37.3-1.6,71.7-2.5c21.3-0.5,14.4-0.7,85.2-3.7
	c38.3-1.6,43.4-1.7,61.3-2.5c28.7-1.2,69.5-3.4,120.2-7.4"/>
<path class="st0" d="M125.8,534.2c27.3,2.1,49.5,2,64.9,1.5c23-0.8,29.2-2.4,55.3-2.9c22.7-0.5,27.4,0.6,54.6,0.7
	c20.4,0.1,29.7-0.4,66.4-1.5c45.4-1.4,41.2-0.9,84.8-2.2c65.5-2,73.6-3.1,119.5-4.4c23.4-0.7,64.3-1.6,106.9-1.5
	c4.4,0,16.8,0.1,33.9,0c27.3-0.1,41-0.2,56.8-0.7c33.6-1.2,31-3.1,56.8-3.7c32.2-0.8,29.9,2.3,61.9,1.5c17.2-0.5,19.1-1.4,62.7-3.7
	c12.2-0.6,21-1,30.2-1.5c19.4-0.9,45.1-2,75.9-2.9"/>
<path class="st0" d="M108.7,591.7c34-1.3,61.9-1.2,81.4-0.8c47,0.9,55.2,3.3,84.7,0.8c23.4-2,31.2-4.7,55.6-4.8
	c19.8-0.1,26.3,1.6,46,0.8c21-0.8,33.1-3.5,47.6-5.6c23.6-3.5,43.2-2.9,82.2-3.2c23.8-0.2,36.7-0.3,55.6,0.8
	c20.4,1.2,23.6,2.4,37.9,2.4c21.2,0.1,32-2.5,53.2-4.8c7-0.8,9-0.8,61.3-3.2c67.1-3.1,66.8-3.1,71-3.2c39.1-1,40.9,1.8,80.6,0.8
	c12.2-0.3,5.6-0.4,52.4-2.4c36.4-1.6,42.8-1.6,56.4-3.2c25.7-3,28.6-5.7,46-7.3c15-1.4,37-1.5,64.5,4.8"/>
<path class="st0" d="M122,656.8c7.5,2.4,19.1,5.4,33.5,5.8c13.4,0.4,19.5-1.8,38-3.2c14.6-1.1,16-0.2,37.4-0.6
	c26.6-0.6,31.9-2.2,56.1-3.2c26.7-1.1,30.4,1.2,52.9,0c22.4-1.2,26.1-4.1,41.3-4.5c13.3-0.4,13,1.8,35.5,2.6
	c8.6,0.3,14.9,0.2,23.9,0c28.2-0.6,27.4-0.6,28.4-0.6c16.1-0.3,22.2,0.6,40.6,1.3c26.3,1,50.6,1.9,80-1.3
	c12.9-1.4,15.7-2.4,28.4-3.2c17-1.1,24.1-0.2,43.9-0.6c14.8-0.4,12.7-0.9,34.2-1.9c12.1-0.6,18.5-0.6,57.4-1.3
	c23.6-0.4,35.4-0.6,38-0.6c6.1-0.1,31.1-0.7,63.8-1.9c18.8-0.7,46.1-1.9,78-3.9c36.3-2.2,82.7-5.6,137.4-11"/>
<path class="st0" d="M120.4,719.8c9.6,1.2,23.9,2.6,41.4,2.8c16.6,0.2,29.4-0.8,53.3-2.8c28.1-2.3,31.2-3.5,49.1-4.2
	c16.3-0.7,24-0.1,38.6,0c21.1,0.2,23.5-0.8,77.1-3.5c70.4-3.6,65.6-1.8,81.3-4.2c13.7-2.1,27.3-4.9,48.4-4.9
	c15.2,0,19.8,1.4,35.1,2.1c22.1,1,30.3-1.2,61-3.5c35.8-2.7,32.1-0.2,73.6-2.8c38.5-2.4,38.2-4.3,64.5-4.9
	c29.3-0.6,30.9,1.7,58.9,0.7c24.5-0.9,25-2.8,58.9-4.9c7.3-0.5,11.4-0.6,57.5-2.1c55.2-1.8,56.2-1.7,63.8-2.1
	c17.3-0.9,42.3-2.6,72.9-6.3"/>
<path class="st0" d="M116.2,766.8c17.5,0.1,35.3,0.3,53.3,0.7c27.2,0.6,53.8,1.5,79.9,2.8"/>
<path class="st0" d="M126.7,843.9c13.2-3.5,34.2-8.2,60.3-10.5c30.9-2.8,39.7,0.3,84.8-1.4c27-1,24.9-2.2,64.5-4.2
	c29.3-1.5,44.9-2.3,66.6-2.1c43,0.3,45.7,3.9,72.9,1.4c19.9-1.8,24-4.2,47-5.6c18.6-1.1,23.7,0,47.7,0c23.9,0,41-1.1,66.6-2.8
	c37.4-2.4,41.4-4.1,65.2-5.6c19.8-1.2,48.8-2,84.8,0.7"/>
<path class="st0" d="M130.3,910.6c35.2-4.3,74.4-5.8,116.7-2.3c2.1,0.2,10.5,2.5,22,2.3c9.4-0.2,15.4-1.9,21.4-3.2
	c8.1-1.7,20.1-2,44.1-2.7c12.6-0.4,13.5-0.2,40.8-0.5c16.6-0.2,24.9-0.4,31.6-0.5c27.7-0.8,37.2-2.5,61-3.8c22.7-1.3,23-0.2,55-1.1
	c51.7-1.4,101.7-5.4,136.1-8.2c9.4-0.8,14.4-1.2,22.9-1.6c31.3-1.6,56.8-0.3,73.5,1.1"/>
<path class="st0" d="M130.5,970.5c39.8-1.3,71.6-1.3,93.5-0.9c26.2,0.4,33.4,1.1,51,0c25.2-1.5,37.5-4.5,65.1-5.7
	c15.5-0.6,20,0,36.8,0c27.3,0,73.2-3.6,80.6-4.3c11.7-1.1,20.8-2.3,35.8-2.9c12-0.5,15.3-0.1,24.8-0.5c19.6-0.7,27.4-2.9,43.9-4.8
	c19.7-2.2,18-0.1,57.8-1.4c13.7-0.5,11.9-0.6,53-2.9c46-2.5,40.9-1.9,55.4-2.9c42.6-3,43.9-5.4,71.6-6.2c34.8-1,31.4,2.9,54.9,0.5
	c22.6-2.3,33.4-6.6,62.1-7.6c9.8-0.4,17.6-0.2,25.3,0c25.6,0.6,44.4,2.7,50.6,3.3c17.9,1.8,45.6,2.9,87.4-1"/>
<path class="st0" d="M120.7,1029.4c32,0.8,59.1,0.5,80.2,0c18.7-0.5,31.6-0.8,49.9-2.1c20.4-1.5,26-2.6,51.9-4.6
	c9.9-0.7,25.5-1.9,42.8-2.5c27.6-1,34.9,0.3,62.3,0.4c19.6,0,16.4-0.6,84.4-3.3c51.9-2.1,48.2-1.5,61.9-2.5
	c32.9-2.5,38.8-4.8,60.7-4.2c13,0.4,20.4,1.5,35.3,0.4c13.1-1,17.9-2.6,32.8-4.2c16.4-1.7,28.2-1.6,36.2-1.7
	c36.8-0.2,47.3-3.6,108-5.8c49.2-1.8,49.9,0,88.5-2.1c9-0.5,23-1.3,42.4-1.2c19.2,0.1,22.2,1,40.3,1.2c25.6,0.3,26.7-1.4,54.4-1.7
	c22.1-0.2,39,0.8,54,1.7c19.3,1.1,36.3,2.6,50.3,4.2"/>
<path class="st0" d="M109.7,1088.7c12.6,1.2,30.4,1.8,51.5-1.1c10.4-1.4,12-2.4,21.5-3.4c22.7-2.4,33.2,0.9,53.8,1.7
	c10.2,0.4,5.6-0.5,54.3-4c29.6-2.1,50.6-3.2,55.5-3.4c19.7-1,24.5-0.9,42.5-1.7c26.1-1.1,47.3-2.7,66.2-4c32.2-2.2,38.2-3,55.5-3.4
	c15.7-0.4,21,0,36.2,0c13.6,0,39.2-0.4,67.9-2.8c31.6-2.7,29.4-4.8,59.4-7.4c5.1-0.4,13-1,63.4-2.3c39.6-1,49-0.9,73.6-1.7
	c34-1.1,47.6-1.8,55.5-2.3c24.2-1.5,29.7-2.5,44.2-3.4c17.5-1,43-1.5,74.7,1.7"/>
<path class="st0" d="M117.9,1145.8c29.9-5.8,54.3-7.2,71.5-7.3c23-0.2,32.5,1.9,56.8-0.6c21.8-2.2,24.1-5,42.8-5.6
	c19.4-0.7,24.7,2,49,2.8c8.8,0.3,14.1,0.2,43.9-1.1c46.1-2,69.1-3,84.4-3.9c48-3,43.5-4,65.8-4.5c33.3-0.8,32.8,1.7,72.6,1.1
	c11.4-0.2,6.6-0.3,65.8-2.3c25.7-0.8,33-1,42.8-1.1c24.8-0.2,31.2,0.5,50.6,0.6c28.8,0.1,30.8-1.4,74.3-2.8
	c22.9-0.7,24.7-0.4,67-1.1c50.7-0.9,46.8-1.3,74.8-1.7c76.8-1,97.2,2.5,139.6-5.6c11.7-2.2,21.1-4.6,27-6.2"/>
<path class="st0" d="M118.7,1195.1c31,2.6,56.3,3,73.7,2.9c30.6-0.2,45.6-2,82.5-2.9c30.3-0.7,32.5,0.6,67.9,0
	c12.3-0.2,31.7-0.5,57.3-1.8c30.9-1.5,39-2.7,63.8-2.9c2.6,0,12.5,0,32.2,0c34.7,0,33.7,0.1,35.7,0c26.2-1.2,29.2-5.5,56.2-7
	c11.6-0.7,10,0.2,33.9,0c25.5-0.2,36.8-1.2,54.4-1.8c35.5-1.1,33.4,1.7,67.9,1.2c44.1-0.7,43.6-5,74.9-3.5
	c29.1,1.4,32.2,5.3,56.8,4.1c18.8-0.9,24.6-3.6,49.1-5.3c21.3-1.5,36.3-0.8,45.6-0.6c22.6,0.5,57.1-0.5,107.7-7.6"/>
<path class="st0" d="M116.3,1261.8c16.4,0.7,38.4,1.4,64.4,1.2c4.8,0,26.6-0.3,56.8-1.8c38.6-1.9,40.3-3.4,71.4-4.7
	c32.8-1.3,32.4,0.3,61.4-1.2c29.3-1.5,30-3.2,63.8-5.3c8.4-0.5,13.7-0.7,63.8-2.3c36-1.1,53.9-1.7,56.2-1.8
	c24.4-0.5,59.5,0,103.6,4.1"/>
<path class="st0" d="M116.6,1325.4c47.8,2.6,86.3,3,112.9,2.8c35.5-0.2,65.3-1.6,108.7,0c5.7,0.2,19.7,0.7,40.7,1.4
	c29.9,0.9,44.8,1.4,53.3,1.4c25.3,0,27.3-1.9,82.7-6.3c29.8-2.3,46.7-3.7,68.7-4.2c25.1-0.6,26.1,0.7,69.4,1.4
	c27,0.4,48.2,0.3,90.5,0c39-0.3,34.4-0.5,61.7-0.7c32.4-0.2,49-0.4,70.8,0c27,0.4,40.7,1.2,63.8,2.1c27,1,65.2,1.9,112.9,1.4"/>
<path class="st0" d="M102.6,1382.2c37.2-2,74.3-3.9,111.5-5.6c22.5-1.1,38-3.5,62.4-2.8c21.9,0.6,32.7,2.5,56.8,2.8
	c14.5,0.2,22.6-0.5,49.8-2.1c52.2-3.1,78.3-4.7,89.8-4.9c19.8-0.3,16.5,0.5,79.9,2.8c47.5,1.7,71.3,2.5,90.5,2.1
	c23.2-0.5,56.7-2.5,97.5-9.1"/>
</svg>
