<?xml version="1.0" encoding="utf-8"?>
<!-- Generator: Adobe Illustrator 22.1.0, SVG Export Plug-In . SVG Version: 6.00 Build 0)  -->
<svg version="1.1" id="Layer_1" xmlns="http://www.w3.org/2000/svg" xmlns:xlink="http://www.w3.org/1999/xlink" x="0px" y="0px"
	 viewBox="0 0 1240 1574" style="enable-background:new 0 0 1240 1574;" xml:space="preserve">
<style type="text/css">
	.st0{fill:none;stroke:#000000;stroke-width:6;stroke-miterlimit:10;}
</style>
<image style="overflow:visible;" width="1240" height="1574" xlink:href="processed.jpg" >
</image>
<path class="st0" d="M264.5,25.3c40.2,5.3,82.2,9.8,125.9,13.5c58.9,4.9,103.6,6.7,145.3,8.2c39.6,1.5,90.1,2.9,149.1,3"/>
<path class="st0" d="M136.4,77.7c25.1,0.2,63.7,0.8,110.9,3c59.2,2.7,89.9,6,137.1,9c68.5,4.3,149.2,6.6,170.8,5.2
	c1.6-0.1,7.6-0.5,15.7,0c13.3,0.9,23,3.8,25.5,4.5c16.1,4.6,38.5,3.7,103.4,3.7c33.1,0,50,0.1,66.7,0.7c28.1,1.1,39,2.6,59.2,3.7
	c36,2.1,47.5,0,95.9-0.7c56.6-0.8,100.9,1.1,143.8,3c32,1.4,59,3.1,78.7,4.5"/>
<path class="st0" d="M63.4,130.8c36.9-1,67-0.6,87.8,0c18.2,0.5,26.4,1.1,63.9,2.7c20.1,0.9,40.8,1.7,81.4,3.2
	c104,3.9,119.3,4.3,185.7,6.9c88.6,3.5,117.9,5.1,132,5.9c48.4,2.7,59.8,5.3,98.4,6.4c26.6,0.7,40.2,0.3,94.2,1.1
	c8.2,0.1,25.1,0.4,59.1,1.1c38.8,0.8,111.7,2.4,261.2,6"/>
<path class="st0" d="M57.3,184.1c37.6,3.7,68,4.4,88.4,4.4c62.8-0.1,72.5-6.9,114.5-1c22.9,3.2,35.8,7.5,63.4,7.9
	c26.1,0.3,28.5-4.2,55.5-4.9c32.1-0.8,38,4.8,77.6,7.4c39.6,2.6,34.8-3,70.2-0.5c45.2,3.2,51.2,12.2,89.9,11.3
	c20.3-0.5,18.8-2.9,50.6-4.4c13.6-0.6,30.7-0.4,64.4,0c40.5,0.5,60.8,0.8,65.8,1c34.2,1.3,56.6,3.6,72.2,4.9
	c68.4,5.7,90.7-1.8,177.3-1c25.8,0.2,65.2,1.3,114,5.4"/>
<path class="st0" d="M53.4,234.2c20.7,1.4,48.8,3.2,82.2,4.9c38.6,1.9,68.2,2.9,92,3.7c47.4,1.5,46.8,1,93.8,2.5
	c21.7,0.7,61.4,1.9,111.6,4.3c73.9,3.5,68.1,4.7,89.5,4.3c38.4-0.7,52.8-4.4,89.5-1.2c18.6,1.6,24.8,3.4,44.2,4.3
	c27.3,1.3,35.9-2.8,65.6-2.5c19.1,0.2,21,1.7,44.8,3.1c29.7,1.7,38.5,0,71.7,0c34.8,0,37.8,1.7,106.7,4.3c27.3,1,41.3,1.7,60.7,1.8
	c25.2,0.2,38.9-0.3,60.1-0.6c21.7-0.3,53.3-0.5,92.6,0.6"/>
<path class="st0" d="M50.2,288.6c15.8,0.9,40.5,2.1,71.2,3.1c22.9,0.7,25.5,0.6,40.2,1.2c32.8,1.5,44.4,3.5,76.2,5.6
	c11.7,0.8,33,2.2,57,2.5c67.8,0.9,78.9-8,134.3-4.3c18.6,1.2,25.3,2.8,49.5,3.7c24.5,1,37.7,0.2,63.2,0c20.4-0.2,37.6,0.3,71.8,1.2
	c115,3.1,109.6,9.1,154.2,6.2c20.8-1.3,44.5-4.1,77.4-1.9c7,0.5,16.6,1.3,31.6,1.9c23.9,0.9,41.4,0.2,47.7,0
	c31.5-1,55.4,1.4,98.4,3.7c30.1,1.6,73.4,3.4,128.2,3.7"/>
<path class="st0" d="M47.7,343.7c34,4.5,61.9,6.2,81.1,6.8c22.2,0.7,26.7,0,62.5,0.6c32.9,0.6,38.1,1.4,73.7,2.5
	c30.4,0.9,51.9,1,89.8,1.2c16.1,0.1,19.3,0.1,89.8,0c68.3-0.1,79.7,0,87.9,0c40,0.1,60,0.2,85.4,0.6c78,1.3,84.6,3.9,142.4,3.7
	c35.8-0.1,39-1.1,72.4-0.6c29.1,0.4,45.1,1.4,86.7,3.1c22.3,0.9,44.4,1.6,88.5,3.1c33.3,1.1,81.5,2.5,141.8,3.7"/>
<path class="st0" d="M36.5,400.9c14-0.9,34.9-1.9,60.4-1.7c28.1,0.2,31.4,1.7,65.5,2.6c51.1,1.3,49.7-1.8,80,0.9
	c15.7,1.4,26.8,3.1,47.7,3.4c12.8,0.2,15.4-0.4,35.8-0.9c22.6-0.5,28.7,0,55.3,0c19.2,0,22.9-0.3,57.9-0.9
	c17.4-0.3,42.1-0.6,72.4-0.9"/>
<path class="st0" d="M105.5,457.1c15.5,0.5,38.9,1,67.3,0.9c39-0.1,67.7-1.4,76.6-1.7c58.7-2.3,94.7,0.7,236.7,2.6
	c153.9,2,155.7-1,207.7,3.4c18.6,1.6,48.3,4.5,90.2,5.1c55.5,0.8,62.9-7.3,109.8-4.3c28.9,1.9,39.6,5.3,78.3,6.8
	c26.8,1,46.7,0.3,56.2,0c32.9-1.1,84.2-1.9,164.3-0.9"/>
<path class="st0" d="M36.5,515.8c13.1-4,33.8-9,59.6-9.4c19.2-0.3,25.4,2.3,53.6,4.3c18.9,1.3,36.4,1.2,70.7,0.9
	c37-0.4,39.4-1.1,76.6-1.7c26.1-0.4,56.8-0.9,94.5,0c39.9,1,37.5,2.3,78.3,3.4c52.6,1.5,55.7-0.7,101.3,0.9
	c42.3,1.5,40.9,3.4,86,5.1c28.4,1.1,51.8,1,98.7,0.9c56.3-0.2,58.4-1,104.7-0.9c10.9,0,3.4,0.1,80.9,0.9c61.7,0.6,61.5,0.6,80.9,0.9
	c38.9,0.6,44.3,0.9,63,0.9c29.3-0.1,53.2-1,69-1.7"/>
<path class="st0" d="M34.5,568.2c13.9-1.7,28.9-2.9,44.8-3.4c34.7-1.1,38.4,3.9,72.6,2.9c23.8-0.7,30.4-3.1,54.1-1.9
	c10.5,0.5,14.8,1.3,29.7,1.9c20.8,1,35.8,0.6,41.9,0.5c40.1-0.6,45.6,5.7,82.9,6.3c25,0.4,25.1-2.2,65.3-4.4c35.7-2,62.4-1.4,81.9-1
	c59.6,1.3,72.5,6.2,130.1,8.3c36.9,1.3,70.2,0.3,81.9,0c33.9-0.8,38.9-1.9,71.7-2.4c21.6-0.4,23.4,0.1,80.9,0.5
	c43.5,0.3,65.7,0.5,86.8,0c35.8-0.8,48.2-2.4,72.6-3.4c30.5-1.3,73.9-1.4,127.7,3.9"/>
<path class="st0" d="M38.2,628.4c23.4-2.2,44-3.7,61.1-4.8c14.1-0.9,38.9-2.4,71.3-3.2c14.9-0.4,28.5-0.4,55.7-0.5
	c13.6-0.1,30.2-0.1,51.5,0c17.9,0.1,41.6,0.3,71.8,1.1c38.2,1,38.5,1.9,77.7,3.2c35.3,1.2,65.3,2.2,104.5,1.6
	c45.4-0.7,49.8-2.8,77.7-1.1c23.6,1.5,32,3.7,55.2,3.2c24-0.5,27.9-3.1,52.5-3.8c22.9-0.6,31.1,1.3,57.4,2.7c15.6,0.8,25.5,0.8,74,0
	c104.2-1.7,96.6-2.3,119-2.1c42.8,0.3,48.6,2.3,107.2,4.3c46.9,1.6,85,1.7,109.4,1.6"/>
<path class="st0" d="M40.2,681.3c45-4.1,82.3-5.1,109.5-5.1c28.4,0,43.6,0,65.9,1.5c27.8,1.9,41.7,4.4,68.9,3.5
	c14.9-0.5,15.6-1.4,37-2.5c23.5-1.3,42.6-1.3,61.3-1c70.7,1,96.9,5.5,155.6,5.6c56.8,0,60.3-4.2,123.6-3c29.5,0.5,33,1.5,68.4,2
	c27,0.4,38.4,0,107.4-1c56.7-0.8,85.4-1.3,97.8-1c53.3,1,54.3,4,94.8,3.5c41.3-0.4,49.8-3.6,87.2-3.5c34.7,0.1,62.7,2.8,80.6,5.1"/>
<path class="st0" d="M37.1,735c24.6-1.8,44.5-1.5,57.8-1c23.2,0.9,27.7,2.6,50.7,3c22.8,0.4,27.4-1.1,53.7-1.5
	c24.7-0.4,32.9,0.8,58.3,1.5c36.6,1,37.1-1.2,80.6-1c25,0.1,25.1,0.7,60.8,1c13.6,0.1,32,0.3,54.7,0c49.3-0.6,49.7-2.4,80.6-2
	c41.1,0.5,37.7,3.6,66.4,2.5c28.4-1.1,39.5-4.5,66.4-3.5c20.9,0.7,19.4,3.3,44.6,5.1c16.4,1.2,20.1,0.4,67.9,0
	c30.7-0.3,46-0.4,54.2,0c22.6,1.1,31.5,3.1,53.2,2.5c15.1-0.4,14.6-1.4,31.9-2c22.5-0.8,30.1,0.7,51.2,1c15.8,0.2,17.9-0.6,57.3-2.5
	c23.8-1.2,44.3-2.2,61.3-2.5c22.6-0.4,54.3,0.1,93.2,4.6"/>
<path class="st0" d="M40,790.3c15.7-0.3,31.4-0.5,47.2-0.7c59.4-0.8,73.6-1.5,97.3-0.7c28.8,0.9,24,2.2,57.3,3.6
	c26.1,1.1,60.1,2.7,101.6,0c47.8-3.1,54.9-8.4,89.3-7.3c34.2,1.1,30.1,7.3,64.6,8.7c31.4,1.3,38.4-3.2,93-4.3
	c9.9-0.2,24.3-0.5,43.5,0c26.6,0.7,37.5,2.1,67.1,3.1c10.3,0.3,21,0.6,41.7,0.6c85.1,0.3,149.2-1.2,149.2-1.2
	c43.3-1,106.8-2.3,191.5-3.1"/>
<path class="st0" d="M36.3,856.4c35.9-7.8,64.8-9.2,84.5-9.1c25.7,0.1,36.6,2.9,73.8,2.3c29.3-0.5,30.1-2.3,49.5-1.5
	c31.6,1.3,41.6,6.6,68.5,9.1c27.1,2.5,52.7-1.3,70-3c13.9-1.4,14.7-2,25.1-3c34-3.5,53.8-0.3,80.7,0.8c41.7,1.7,35-4.1,95.9-4.6
	c22.4-0.2,18.1,0.7,75.3,1.5c36.1,0.5,38.2,0.2,65.4,0.8c35.2,0.7,43.7,1.5,74.6,2.3c38.3,1,67.4,0.9,85.2,0.8
	c59.2-0.3,71.6-2.3,125.6-3c23.9-0.3,58.4-0.4,100.5,0.8"/>
<path class="st0" d="M118.9,911.4c14.3-1.9,36.8-4.3,64.8-5.2c19.2-0.6,23.3,0.1,57.5,0c38.6-0.2,38.8-1.1,69.4-1
	c28.2,0.1,46.7,0.1,71.5,2.1c35.9,2.9,35.8,5.9,61.7,6.7c25.3,0.8,27.3-2,68.4-3.6c22.3-0.9,26.2-0.3,71-0.5
	c30.4-0.2,41.9-0.5,74.6-1c67.2-1,84-0.4,159.1-1c81.2-0.7,78.2-2.2,115.6-1.6c33.7,0.6,49.9,1.8,86,1c30.3-0.6,30.3-1.7,68.9-2.6
	c43.3-1,72.2-0.3,82.4,0c19.1,0.5,35.1,1.4,46.6,2.1"/>
<path class="st0" d="M44.7,967.8c14.3-0.9,29.4-1.5,45.2-1.6c26.5-0.1,32.4,1.7,53,1.6c28.9-0.2,28.4-3.6,63.9-5.5
	c21.2-1.1,37.1-0.7,64.7,0c25.7,0.6,30.4,1.4,54.6,2.3c25.3,1,48.1,0.9,93.5,0.8c25.5-0.1,50.6-0.1,84.2-0.8
	c66.8-1.3,63.9-2.9,106-3.1c41.4-0.2,42.6,1.3,110.7,1.6c46.4,0.2,61.5-0.5,67.8-0.8c43.7-2.1,48.3-5.5,82.6-7
	c27.9-1.2,32.2,0.7,95.1,3.1c39.6,1.5,69.1,2,92.8,2.3c33.1,0.5,75.4,0.7,124.7,0"/>
<path class="st0" d="M27.2,1024c11.4,1.9,28.7,4.1,49.9,4.6c24.2,0.5,35.1-1.7,62.2-3.8c21.3-1.7,46.9-1.9,98.3-2.3
	c27.1-0.2,32.5,0,69.1,0c40.2,0,68.5-0.3,120.5-0.8c96.4-0.9,86-1.7,125.9-1.5c32.4,0.1,51.8,0.7,106.7,0.8c23,0,41.5,0,65.3-0.8
	c33.3-1,39.9-2.2,62.2-3.1c35.5-1.3,65.4,0.4,125.2,3.8c40.2,2.3,52.9,3.9,79.9,3.1c24.8-0.7,29.3-3.6,57.6-4.6
	c37.1-1.3,37.2,2.4,69.1,0.8c33.2-1.7,39.4-6,66.8-5.4c19.8,0.4,36,3.1,46.8,5.4"/>
<path class="st0" d="M36.5,1090c18.2-2,45.2-4.4,78.3-5.1c23-0.4,34.9,0.3,55.8,0.7c64.1,1.5,74.6-2.3,143.6-2.2
	c51.8,0.1,50.1,2.2,94.3,2.2c45.7,0,61.6-4.4,126.2-5.8c5.3-0.1,20.5-0.3,50.8-0.7c44.1-0.6,66.5-0.9,79.8-0.7
	c39,0.5,42.3,2.3,76.1,2.9c42.2,0.8,76.3-1.5,87-2.2c46.5-3,51.7-6.3,83.4-5.8c26,0.4,26.1,2.7,58,3.6c35,1,46.5-1.4,74.7-1.5
	c19.9,0,49.3,1.2,85.6,7.3"/>
<path class="st0" d="M29.2,1146.6c20.8-1.3,47.1-2.3,77.6-2.2c31.4,0.1,40.1,1.4,65.3,0.7c40.2-1,45.8-4.9,78.3-6.5
	c52.7-2.6,52.3,7,104.4,5.8c46.9-1.1,51.5-8.9,99.3-9.4c37.4-0.4,36.3,4.4,81.2,6.5c71.5,3.4,77-8.5,155.2-5.8
	c23.6,0.8,41,2.5,71.1,0.7c23.3-1.4,29.6-3.4,51.5-3.6c25.3-0.2,34.4,2.3,59.5,3.6c24.9,1.3,39,0,68.9-1.5
	c55.9-2.7,100.4-2.8,132-2.9c30.2-0.1,69,0.4,114.6,2.2"/>
<path class="st0" d="M26.3,1212.6c41.6-9.3,75-10.3,98.4-9.3c21.6,0.9,36,3.5,68.4,3.1c24-0.3,28.4-1.9,57-3.1
	c31.9-1.4,38.1,0.1,81.8,0c15.7,0,14.7-0.2,91.2-2.1c0,0,48.2-1.2,89.1-2.1c45.6-1,75.6-1.7,106.7-2.1c53-0.7,71.6-0.2,168.9,0
	c74,0.1,88.8,5.8,123.3,0c13.3-2.2,33-6.4,62.2-7.3c20.7-0.6,28.8,1,53.9,1c29.5,0,49.9-2.1,62.2-3.1c27.8-2.3,71.7-3.2,140.9,3.1"
	/>
<path class="st0" d="M17.4,1273.7c37.5-2.4,70.1-3.3,96.5-3.6c42.8-0.4,51.2,1.1,88.2,0c47.9-1.4,48.2-4.3,95.4-6
	c42.7-1.5,40.6,1,106.1,0c21.6-0.3,43.8-1,88.2-2.4c35.2-1.1,45.6-2.5,71.5-2.4c3.9,0,8.6,0.1,56,1.2c47.7,1.1,44.3,1.1,48.9,1.2
	c45.8,0.6,55-2.7,102.5-3.6c26.4-0.5,23,0.6,77.5,1.2c35.7,0.4,64,0.7,95.4,0c62.5-1.5,76.8-5.8,141.8-8.3
	c39.2-1.6,70.7-1.4,89.4-1.2"/>
<path class="st0" d="M17.4,1340.5c17-4.2,44-9.8,77.5-11.9c38.7-2.4,59.1,1.6,108.5,2.4c36,0.6,26.1-1.5,87-2.4
	c48.4-0.7,67.4,0.3,113.2-1.2c28.1-0.9,21.9-1.4,52.4-2.4c54.1-1.8,72-0.1,112-1.2c46-1.3,44.6-4.5,88.2-6
	c39.4-1.4,64.4,5.3,107.3,3.6c39.5-1.6,42-8.2,75.1-6c16.5,1.1,24.4,3.3,45.3,3.6c21.7,0.3,34.5-1.8,52.4-3.6c31-3,46.9-2,76.3-2.4
	c30.1-0.4,75.1-2.4,138.3-9.5"/>
<path class="st0" d="M13.8,1396.5c25.6-1.5,51.9-2.7,78.7-3.6c68.2-2.1,68.8,0.9,116.8-1.2c69.5-3.1,78.3-9.6,124-6
	c17,1.4,28.6,3.3,51.3,3.6c31.6,0.4,45.7-3,76.3-6c36.3-3.5,65.5-3.1,124-2.4c41.5,0.5,42.4,1.8,70.3,1.2
	c36.5-0.8,44.3-3.3,78.7-3.6c32.1-0.3,33.2,1.8,70.3,2.4c36.8,0.6,49.2-1.2,91.8-2.4c54-1.4,61.6,0.8,98.9,0
	c31.4-0.6,76.6-3.1,132.3-11.9"/>
<path class="st0" d="M6.7,1453.7c23-0.5,46.9-0.5,71.5,0c40.8,0.8,47.4,2.7,81,3.6c23.8,0.6,53.6-0.4,113.2-2.4
	c44.9-1.5,67.4-2.3,87-3.6c52-3.5,54-6.1,84.6-6c21.4,0.1,34.8,1.4,59.6-1.2c21-2.2,24.9-4.5,40.5-6c30.4-2.8,49.9,3,69.1,6
	c36.3,5.7,35.8-3.7,101.3-6c43.3-1.5,49.1,2.1,107.3,2.4c22.2,0.1,10.1-0.7,88.2-2.4c23.3-0.5,46.1-1,76.3-1.2
	c40.7-0.3,45.5,0.3,64.4,0c24.3-0.4,59.3-2.2,102.5-8.3"/>
<path class="st0" d="M0,1521.6c18.3-0.9,45.8-2,79.4-2.4c22.1-0.3,36.3-0.1,66.7,0c69.6,0.3,74.7,1,95.4,0
	c37.8-1.7,33.7-4.5,75.1-7.2c11.7-0.8,23.7-1.3,114.4-1.2c51,0.1,54.1,0.2,75.1,0c41.9-0.5,62.8-0.7,84.6-2.4
	c49.3-3.7,53.7-8.7,89.4-8.3c26.9,0.3,25.5,3.1,58.4,3.6c32.3,0.5,36-2.2,73.9-2.4c33.2-0.1,37.1,1.9,62,1.2c34.1-1,39-8,66.7-7.2
	c22.1,0.7,24.4,4.5,48.9,6c28.7,1.7,49.7-2.1,59.6-3.6c26.9-4,69.6-5.2,139.5,7.2"/>
</svg>
