<?xml version="1.0" encoding="utf-8"?>
<!-- Generator: Adobe Illustrator 22.1.0, SVG Export Plug-In . SVG Version: 6.00 Build 0)  -->
<svg version="1.1" id="Layer_1" xmlns="http://www.w3.org/2000/svg" xmlns:xlink="http://www.w3.org/1999/xlink" x="0px" y="0px"
	 viewBox="0 0 1240 1072" style="enable-background:new 0 0 1240 1072;" xml:space="preserve">
<style type="text/css">
	.st0{fill:none;stroke:#000000;stroke-width:6;stroke-miterlimit:10;}
</style>
<image style="overflow:visible;" width="1240" height="1072" xlink:href="processed.jpg" >
</image>
<path class="st0" d="M101.1,53.7c9.4,1.6,24.1,3.3,42,2.2c12.2-0.8,13.9-2.1,27.5-2.9c21.1-1.3,22.4,1.6,44.9,0.7
	c16.4-0.6,18.1-2.2,34.8-2.2c9.6,0,12.2,0.5,23.9,0.7c13.7,0.2,24-0.3,32.6-0.7c67.8-3.5,79.1-5.7,106.5-5.1
	c32.7,0.8,29,4.3,65.9,5.1c22.6,0.5,40.2-0.5,69.6-2.2c43.4-2.4,49.6-4.5,74.6-3.6c6.5,0.2,18.8,1.1,43.5,2.9
	c41.3,3,38.2,3.3,48.5,3.6c34.4,1.2,33.9-3.3,68.8-2.2c17.9,0.6,21.8,1.8,50.7,2.9c13.1,0.5,23.7,0.6,34.1,0.7
	c42.6,0.4,61.8-0.5,109.4-0.7c19.3-0.1,36.3-0.1,70.3,0c34.1,0.1,43.2,0.2,64.5,0c23.6-0.2,29.2-0.5,50.7-0.7
	c24.2-0.2,43.8-0.1,56.5,0"/>
<path class="st0" d="M31.1,112.9c10.4,0.9,25,1.9,42.6,2.2c11.2,0.2,19.5,0.1,29.9,0c35-0.5,38.5-1.9,60.5-1.5
	c21.2,0.4,21.3,1.7,36.6,1.5c17.9-0.3,19.9-2.4,47.8-5.2c15.8-1.6,28.5-2.3,53.8-3.7c17.5-1,26.2-1.5,33.6-1.5
	c20.8-0.1,26.8,1.6,55.3,3.7c31.4,2.3,47.1,3.5,67.2,2.2c22.5-1.4,25.3-3.9,42.6-3c15.7,0.8,22.6,3.4,38.9,2.2
	c13-0.9,14.4-2.9,27.6-4.5c17.5-2.1,22.6,0.6,46.3,1.5c18.9,0.7,15.9-1,53-1.5c22.2-0.3,20.3,0.3,44.1,0c28.4-0.4,33.7-1.4,49.3-0.7
	c18.6,0.8,23,4.7,40.3,4.5c12.7-0.2,16.3-1.9,29.1-3c19.6-1.7,29.4,0.6,50.1,2.2c13.2,1,31.9,0.7,69.5,0c11.3-0.2,34.6-0.7,64.3-2.2
	c27.8-1.4,28.1-2.5,37.4-2.2c16.3,0.4,39.7,3.6,68.2,16.9"/>
<path class="st0" d="M46,171.2c18.1-0.9,41.8-1.9,69.5-2.8c6.7-0.2,19.3-0.6,35.2-0.9c37.6-0.8,60.5-0.8,75.1-0.9
	c47.2-0.5,51.3-4.9,101.1-5.6c31.4-0.4,60.3,0.9,60.3,0.9c13.6,0.6,19.6,1.2,37.1,1.9c21.7,0.8,38.4,0.9,44.5,0.9
	c40.6,0.1,37-2,60.3-0.9c21.2,1,28.3,2.9,46.4,1.9c4.9-0.3,11.8-0.9,22.3-0.9c11.7,0,18.4,0.6,25,0.9c17.9,0.8,25.2-1.6,41.7-2.8
	c22.2-1.5,23.1,1.9,54.7,2.8c29.8,0.9,27.3-2.2,61.2-1.9c37.3,0.4,37,4.1,59.3,1.9c11.9-1.2,22.6-3.3,40.8-2.8
	c9.2,0.3,9.5,0.9,24.1,1.9c18.7,1.2,30.3,2,44.5,0.9c20.9-1.5,22.2-5.1,42.7-5.6c8.8-0.2,8.2,0.5,26.9,0.9c4.6,0.1,14.4,0.3,36.2,0
	c18.7-0.2,32.6-0.7,41.7-0.9c15.1-0.4,37.6-1.1,66.8-1.9"/>
<path class="st0" d="M10.1,230.4c18.5-1.2,33.7-1.2,44.3-1.1c21.6,0.3,31.3,1.7,53.9,1.4c12.3-0.2,15.9-0.7,31.7-1.5
	c37.1-1.9,39.2-0.2,71.8-1.5c34.9-1.4,39.7-3.7,74.1-4.5c17.9-0.4,16.5,0.2,39.3,0c16.9-0.1,51.5-0.5,93.7-3.8
	c28.6-2.2,41.2-4.3,67.3-3.8c11.1,0.2,8.5,0.6,29.5,1.5c14.5,0.7,24.9,0.9,89.9,1.5c24.8,0.2,26.9,0.2,31.7,0
	c26.7-1.3,31.6-4.9,53.7-6c18.1-0.9,15.2,1.5,49.9,2.3c21.5,0.5,22.3-0.4,48.4,0c21.9,0.4,21.2,1,44.6,1.5
	c32.1,0.7,35.7-0.5,53.7,0.8c20.7,1.4,28.4,3.9,44.6,6c7,0.9,39.8,3.4,80.1,0c8-0.7,9.8-1,17.4-1.5c24.5-1.5,29.2,0.9,49.9,0
	c14.9-0.7,14.4-2,37.8-3.8c15.2-1.1,22.8-1.8,30.2-1.5c10.8,0.4,26.7,2.2,45.9,9.5"/>
<path class="st0" d="M53.4,276.9c11.8,1.3,26.3,2.5,43,3.2c16,0.6,30,1.2,48.5,0c20.9-1.4,23-3.4,44.2-4.3c11.6-0.5,14.8-0.1,34.2,0
	c19.4,0.1,33.6-0.3,48.5-0.7c36.3-1,36.7-2.4,72-3.6c36.5-1.2,54.8-1.8,65.6,0c20.6,3.5,32.7,9.2,55.6,7.1c10.6-1,13.4-2.7,27.1-5
	c16.5-2.8,21.9-1.1,53.5-2.9c14.9-0.8,14.7-1.1,23.5-1.4c17.1-0.6,22,1.2,40.6,0.7c11.6-0.3,11.5-0.9,19.2-0.7
	c15.6,0.4,17.8,2.9,29.2,3.6c18,1,19.4-4.9,43.5-5.7c8.7-0.3,6.8,0.5,23.5,0.7c16.9,0.2,21.1-0.7,35.6-0.7c16.5-0.1,18.5,1,36.4,1.4
	c22,0.6,25.5-0.8,42.8-0.7c34.5,0.2,33.6,5.8,68.4,6.4c3.8,0.1,19.8-0.4,52-1.4c22.6-0.7,25.6-0.9,32.1-0.7
	c22.7,0.6,30.1,5.4,52.7,7.1c5.8,0.4,14.6,0.5,32.1,0c16.7-0.4,39.7-1.4,67.7-3.6"/>
<path class="st0" d="M18.4,337c21.9-0.1,39.7-0.1,51.8,0c26.9,0.1,32.1,0.3,45.5,0c21.2-0.5,20.2-1.4,49.1-2.7
	c28.5-1.3,27.7-0.3,60.7-1.8c13.2-0.6,18.8-1,29.4-0.9c19.1,0.2,23,1.7,35.7,1.8c20.2,0.2,20.2-3.5,49.1-6.2
	c5.3-0.5,3.5-0.2,49.1-1.8c28.6-1,30.3-1.1,36.6-0.9c17.8,0.7,21.2,2.6,41,3.6c11.9,0.6,15.6,0.1,33,0c35.7-0.2,35.2,2.6,50,0.9
	c15.9-1.8,18.5-4.6,35.7-5.4c7.7-0.4,15.8-0.2,25,0c12.7,0.3,18.7,0.7,24.1,0.9c21.1,0.7,24.1-3.5,44.6-4.5
	c11.2-0.5,12.5,0.5,49.1,3.6c20.1,1.7,30.2,2.8,35.7,2.7c19.1-0.5,20.3-3.9,38.4-3.6c14,0.2,17.2,2.3,32.1,1.8
	c12.3-0.4,14-2,24.1-2.7c22.4-1.6,27.5,5,50.9,6.2c16.7,0.9,13-2.6,40.2-3.6c19.1-0.7,21.9,1,50,0.9c3.3,0,7.7-0.1,33.9-0.9
	c29.7-1,51.8-1.8,51.8-1.8c17.8-0.7,43.5-1.6,75.9-2.7"/>
<path class="st0" d="M5.6,407.8c25.8-5.3,46.5-5.6,60.9-4.9c17.5,0.9,22.8,3.3,40.6,2.4c18.1-0.9,19.9-3.7,43-4.9
	c12.6-0.6,17.5,0,30-1.6c13.2-1.7,15.1-3.2,23.5-4.1c17-1.7,22.1,3.4,38.2,4.9c19.9,1.8,20.9-5.1,54.4-8.9
	c3.1-0.4,15.8-0.8,41.4-1.6c6.3-0.2,24.9-0.8,55.2-1.6c21.4-0.6,32.1-0.9,34.9-0.8c28.3,0.4,32,3.2,56,2.4c10.5-0.3,15.2-1,27.6-0.8
	c13.9,0.2,18.3,1.2,27.6,1.6c20.2,0.9,21.5-3,49.5-4.9c11.5-0.8,8.6,0,44.7-0.8c21.9-0.5,19.9-0.8,28.4-0.8
	c18.8-0.1,28.9,1,59.3,3.2c28.7,2.1,43.1,3.2,49.5,3.2c26.6,0.3,27.2-2.5,64.1-4.1c16.9-0.7,33.4-0.7,66.6-0.8
	c19.7,0,26.1,0.1,38.2-0.8c16.2-1.3,19.6-2.7,31.7-2.4c13.1,0.3,16,2.2,31.7,3.2c10.2,0.7,17.4,0.5,30,0c22.2-0.8,28.1-2.3,61.7-4.9
	c8.1-0.6,20.3-1.6,36.5-2.4c16.2-0.9,29.1-1.3,41.4-1.6c13.9-0.4,26-0.7,35.7-0.8"/>
<path class="st0" d="M12.6,455.7c10.2,1.3,21.4,2.2,33.6,2.5c19.2,0.4,21.5-1.5,41.1-1.7c22.6-0.2,23.3,2.3,52.9,2.5
	c13.7,0.1,21.5,0.2,32.7-0.8c12.9-1.2,17.5-2.6,31.1-3.4c10.1-0.5,14.6-0.1,25.2,0c6.2,0.1,15.2,0,42.8-1.7c33.5-2,38.4-3.1,68-5
	c34.3-2.3,51.8-3.4,71.4-2.5c18.4,0.8,19.7,2.1,44.5,3.4c6.4,0.3,19.7,0.9,54.6,0.8c31.3-0.1,35.9-0.6,66.3-0.8
	c34.2-0.3,34.6,0.2,77.3,0c35.2-0.2,52.8-0.3,65.5-0.8c39.3-1.8,50.2-4.7,83.1-5c12.2-0.1,28,5.3,49.5,1.7
	c6.8-1.1,10.5-2.4,18.5-3.4c17.9-2.2,30.2,0.3,41.1,1.7c9.5,1.2,4.5-0.1,61.3-0.8c32.7-0.4,35.8,0,52.1-0.8
	c13.8-0.7,17.5-1.3,31.1-1.7c14.9-0.4,20.5,0.1,37.8,0c18.9-0.1,25.6-0.7,35.3-0.8c15.1-0.2,37.2,0.8,65.5,6.7"/>
<path class="st0" d="M87.1,517.6c8,0.2,20.5,0.4,35.8,0c23.4-0.6,27.3-2,45-1.8c23.1,0.2,22.8,2.5,40.4,1.8
	c18.7-0.8,19.3-3.4,40.4-4.6c16.9-0.9,19,0.6,37.6,0c14.2-0.5,19.1-1.6,38.5-3.7c18.8-2,33.1-2.9,61.5-4.6c28.2-1.7,25.1-1,56-2.8
	c52.8-3,49.4-4.5,64.2-3.7c18.2,1,28,3.4,46.8,0.9c8-1.1,12.9-2.4,22-2.8c16.1-0.6,18.9,3.5,34.9,4.6c13.6,0.9,13.8-1.7,37.6-2.8
	c10.7-0.5,13-0.1,30.3,0c24.6,0.1,27.7-0.7,50.5-0.9c18.9-0.2,15.5,0.4,54.1,0.9c25.2,0.3,38.2,0.5,54.1,0
	c19.8-0.6,19.6-1.3,38.5-1.8c29-0.9,31.2,0.7,54.1,0c31.2-0.9,29.8-3.8,60.6-4.6c25.6-0.7,27.6,1.3,51.4,0c18.7-1,23.4-2.6,45-4.6
	c13.4-1.2,32.8-2.6,56.9-2.8"/>
<path class="st0" d="M5.5,582.8c20.9-0.3,37.9-1.6,49.6-2.8c29.5-2.9,37-6.1,61.5-6.4c17.2-0.3,19.1,1.2,34,0
	c17.4-1.4,23.3-4.1,40.4-5.5c13.7-1.2,14.9,0.1,34.9,0c28.4-0.2,32-2.8,72.5-4.6c6.3-0.3,18.5-0.7,34-0.9c30.5-0.4,34.5,0.9,54.1,0
	c23.3-1,21.6-2.9,43.1-3.7c21.6-0.7,21.8,1.2,48.6,0.9c15-0.2,14.6-0.8,45.9-1.8c16.6-0.6,24.9-0.8,34.9-0.9
	c33.3-0.2,36.8,1.8,53.2,0c19.7-2.1,18.2-5.4,38.5-8.3c25.4-3.6,28.6,1.3,59.6,0c32.1-1.4,33.1-6.8,60.6-6.4
	c21.9,0.3,20.1,3.8,47.7,5.5c16.6,1,34.3,0.1,69.7-1.8c18.6-1,28.1-1.5,42.2-2.8c24.4-2.1,32.8-3.8,52.3-4.6c5.2-0.2,14.9-0.1,34,0
	c29,0.2,45.2,0.3,67.9,0.9c23.5,0.6,23.8,0.9,35.8,0.9c10.8,0,27-0.1,47.7-1.8c13.9-1.2,31.7-3.3,52.3-7.3"/>
<path class="st0" d="M9.8,642.9c11.8,0.2,28,0.3,47.3,0c21.2-0.3,37.2-1,55.1-1.7c24.3-1,36.4-1.5,51.7-2.6
	c31.6-2.2,39.6-4.1,73.2-6.9c17.7-1.5,29.9-2.1,54.2-3.4c57.5-3.1,60.8-1.5,107.6-4.3c31.8-1.9,37.3-3,68-4.3
	c20.9-0.9,29.7-0.8,49.9-1.7c37.5-1.6,37.8-3.4,64.6-4.3c20.2-0.7,17.5,0.2,67.1,0c26.6-0.1,40-0.2,49.9-0.9
	c29.1-1.9,31.8-4.7,53.4-4.3c15.3,0.3,20.8,1.8,34.4,0c13-1.7,15.4-4,28.4-5.2c11.4-1.1,16.4,0.1,31.9,0.9c15,0.7,25.7,0.4,40.5,0
	c22-0.6,22.3-2.1,54.2-4.3c29.4-2,25.5-0.5,52.5-2.6c20.7-1.6,26.2-2.7,38.7-1.7c15,1.2,18.6,3.7,31.9,4.3
	c16.9,0.8,28.9-2.4,37.9-4.3c16-3.5,39.9-6.7,73.2-5.2"/>
<path class="st0" d="M23.9,698c11.3-0.2,28.7-0.6,50-2.2c17.8-1.3,26.4-2.5,47.7-4.4c21.7-1.9,35.3-3.1,52.2-3.7
	c35-1.3,40.7,1.4,68.3,0c15.6-0.8,13.1-1.8,54.4-6.6c28.6-3.3,42.9-5,58-5.9c30.5-1.7,54.2-0.7,68.3,0c21.4,1,39.6,2.8,53.6,4.6"/>
<path class="st0" d="M17.2,770.8c20.9,1.7,46.4,1.9,75.1-2.1c14.9-2.1,21.6-5.9,41.3-8.5c20.3-2.6,40.2-3,50.8-3.2
	c17.1-0.3,15.2,0.5,24.3,0c22.9-1.3,33.7-6,52.9-9.5c13.2-2.4,9.8-0.4,48.7-3.2c17.6-1.3,30.2-2.5,48.7-4.2
	c35.9-3.4,40.6-4.5,62.4-6.3c19.6-1.6,33.7-2.2,55-3.2c20.5-0.9,37.2-1.3,69.8-2.1c31.5-0.8,33.6-0.1,48.7-1.1c23-1.5,25-3,47.6-4.2
	c19-1.1,21.9-0.2,48.7-1.1c18.4-0.6,27.2-1.3,42.3-2.1c29.4-1.6,31.9-0.8,78.3-2.1c51-1.5,47.2-2.3,67.7-2.1
	c27.4,0.2,33.3,1.6,60.3,1.1c7.9-0.2,7.8-0.3,46.6-2.1c44.6-2.1,49.1-2.1,52.9-2.1c29.8,0.1,29.3,3.4,58.2,4.2
	c21.3,0.6,28.9-0.9,78.3-4.2c23.5-1.6,42.4-2.6,54-3.2"/>
<path class="st0" d="M31,822.6c14.3,1.3,36.4,2.4,63.5,0c17.7-1.6,20.1-3.1,41.3-5.3c30.6-3.1,38.2-1.2,71.9-3.2
	c12.2-0.7,8.8-0.8,64.5-6.3c42.8-4.2,64.3-6.4,73-6.3c33.2,0.1,38.2,4.7,67.7,2.1c15.3-1.3,15.4-2.7,44.4-6.3
	c13.9-1.8,32.9-4.2,55-5.3c35-1.8,34.2,1.8,63.5,0c28.5-1.8,33.2-5.5,62.4-7.4c17.6-1.2,15.5,0.4,50.8,0c20.7-0.2,38.2-0.4,60.3-2.1
	c21.2-1.6,25.1-2.9,48.7-5.3c13.3-1.3,30.9-2.3,65.6-4.2c33.3-1.9,50.3-2.9,64.5-3.2c12-0.3,29.2-0.6,51.8,0
	c24.5,0.7,24.7,1.7,45.5,2.1c18.5,0.4,32.2-0.2,56.1-1.1c25.4-1,29-1.6,47.6-2.1c19.9-0.5,36.1-0.3,46.6,0"/>
<path class="st0" d="M77.8,876c12.7,0.3,29.7,0.5,49.7,0c8.1-0.2,27.9-0.9,58.9-3.5c45.5-3.8,42.7-5.7,75.1-8.1
	c38.5-2.8,40.7,0.1,79.8-3.5c23.4-2.1,26.3-3.5,46.2-4.6c26.2-1.5,33.9,0.1,61.3,0c29.7-0.1,29.6-2.1,80.9-4.6
	c17.9-0.9,14.1-0.5,68.2-2.3c43.9-1.5,65.8-2.3,89-3.5c37.6-2,33.3-2.5,72.8-4.6c46.2-2.4,84.5-3.3,92.5-3.5
	c33.4-0.7,35.5-0.2,57.8-1.2c9.4-0.4,18.8-0.9,67-4.6c59.3-4.6,59.1-4.8,76.3-5.8c24.6-1.3,30.4-1,68.2-2.3
	c19.1-0.6,46.4-1.7,79.8-3.5"/>
<path class="st0" d="M8.4,923.4c14.9-1.2,38.2-2.9,67-3.5c34.4-0.7,38.9,0.8,71.7,0c31.2-0.8,29.3-2.3,82.1-4.6
	c25.6-1.2,29.9-1,55.5-2.3c22.2-1.2,28.7-1.8,55.5-3.5c34.8-2.2,38.8-2.1,84.4-4.6c28.4-1.6,49.1-2.9,76.3-4.6
	c69.3-4.4,73.3-5.1,97.1-5.8c26.1-0.8,27.7-0.1,61.3-1.2c29.4-0.9,37.9-1.8,61.3-2.3c37.3-0.9,36.8,1.1,63.6,0
	c31.3-1.3,32.4-3.7,63.6-4.6c24.4-0.7,24.8,0.7,52,0c23.5-0.6,27.7-1.8,57.8-3.5c26.1-1.5,20.3-0.4,71.7-2.3
	c35.8-1.3,48.7-2.2,71.7-1.2c10.2,0.5,17.4,2,31.2,2.3c17.2,0.3,28.5-1,43.9-2.3c13.6-1.2,32.9-2.6,56.6-3.5"/>
<path class="st0" d="M10.7,986.9c28.5-4.6,52.2-6.9,69.3-8.1c19.1-1.4,35-1.8,53.2-2.3c38.7-1.1,38.3,0.2,61.3-1.2
	c25.1-1.5,25.2-2.9,55.5-4.6c21.8-1.2,24.7-0.6,38.1-2.3c14.5-1.8,20.8-3.8,35.8-4.6c11.1-0.6,15.9,0,25.4,0c10.7,0.1,18-1,49.7-4.6
	c24.2-2.8,27.3-3.2,30.1-3.5c18.2-1.9,45.7-1.4,84.4,10.4"/>
</svg>
