<?xml version="1.0" encoding="utf-8"?>
<!-- Generator: Adobe Illustrator 22.1.0, SVG Export Plug-In . SVG Version: 6.00 Build 0)  -->
<svg version="1.1" id="Layer_1" xmlns="http://www.w3.org/2000/svg" xmlns:xlink="http://www.w3.org/1999/xlink" x="0px" y="0px"
	 viewBox="0 0 1240 1653" style="enable-background:new 0 0 1240 1653;" xml:space="preserve">
<style type="text/css">
	.st0{fill:none;stroke:#000000;stroke-width:6;stroke-miterlimit:10;}
</style>
<image style="overflow:visible;" width="1240" height="1653" xlink:href="processed.jpg" >
</image>
<path class="st0" d="M147.2,45.3c17.9,2.5,33.4,3.7,45.9,4.3c9.8,0.5,19.6,0.9,32.9,0.4c20.9-0.8,24.9-3,38.9-2.6
	c14.8,0.4,20.1,3.1,34.6,5.6c16.7,2.9,25,2,77-0.4c28.8-1.3,43.2-2,51.1-2.2c59-1.3,60.1,3.9,99.9,0.9c21.1-1.6,30.3-3.8,50.2-2.6
	c12.6,0.8,19.1,2.3,38.5,3.5c10,0.6,15.7,0.6,33.7,0.9c57.4,0.7,55,1.1,68.8,0.9c23.2-0.4,20.1-1.2,47.2-1.7
	c20.2-0.4,36.8-0.2,53.6,0c22,0.3,38.1,0.7,44.6,0.9c50.3,1.3,96.7,0.8,125.5,0.4c43.6-0.5,53.1-1.3,95.2-1.3
	c20.2,0,36.9,0.2,48,0.4"/>
<path class="st0" d="M73.7,90.3c13.3,1.4,32.9,3.1,56.7,3.9c10.3,0.3,19.6,0.5,56.7,0c60.4-0.8,73.2-1.6,107.3-1.3
	c18.7,0.1,11.3,0.4,44.6,0.9c24.4,0.4,62.5,0.9,110.8,0.4c23.4-0.2,22.8-0.4,37.2-0.4c26,0,37,0.7,72.3,1.7
	c34.7,1,52.1,1.5,72.7,1.3c25.8-0.2,22.2-1.2,61.2-2.1c42.2-1,45.8,0,71.9-1.6c22.9-1.4,25.9-2.5,46-3.2c15.6-0.5,26.6-0.2,50.7,0.5
	c64.5,2,58.1,2.1,66.6,2.1c42.8,0.3,40.1-3.6,94.1-4.2c25.4-0.3,35.6,0.4,60.8-1.1c13.5-0.8,21.4-1.6,39.6-2.6
	c18.8-1,34.2-1.4,44.4-1.6"/>
<path class="st0" d="M67.7,137.7c27.9-0.5,50.4-0.3,65.7,0c18.9,0.4,22.9,0.7,50.8,1.3c30.7,0.7,31.9,0.3,56.7,0.9
	c49.6,1.1,46,2.4,63.9,1.8c29.7-1.1,31-4.4,64.8-5.8c21.6-0.9,19.2,0.5,52.6,0c32.2-0.5,38.2-1.9,69.2-2.2c16.1-0.2,18,0.2,46.3,0.4
	c65.9,0.7,59-1.1,89,0c45.5,1.7,58.9,5.7,85,1.8c5.2-0.8,14.4-2.4,27.9-3.1c12.1-0.7,18.8-0.2,39.1,0c0,0,12.6,0.1,30.1,0
	c43.7-0.3,48.1-2.4,71.5-0.9c12.8,0.8,14.5,1.6,28.8,2.2c13.8,0.6,17.1,0.1,37.8,0c35-0.1,34.3,1.4,54.9,0.4
	c10.6-0.5,16.2-1.2,27.4-0.9c11.1,0.3,15.2,1.2,26.5,1.8c12.7,0.7,21.8,0.4,33.7,0c12.8-0.4,29-1.5,47.7-3.9"/>
<path class="st0" d="M72.3,181.4c24.8,1.8,42.4,4.5,54.1,6.7c3.3,0.6,8.8,1.7,16.4,2.4c15,1.4,26.2,0.2,34-0.6
	c15.2-1.5,30.4-1.8,45.6-3c0,0,27.8-2.2,66.9-3.6c55.5-2,62.1,4.8,95.4,1.2c6.9-0.7,23.5-2.8,45.6-3c1.7,0,0.8,0,18.8,0
	c25.5,0,28,0,35.2,0c20.1,0.1,26.7,0.6,34,0.6c26.3,0.1,33.7-8.1,63.8-10.3c5.1-0.4,11.8-1,20.7-0.6c24.5,1,33.1,7.4,52.9,7.3
	c10.1,0,9.1-1.7,27.3-4.3c22.7-3.1,29.7-1.2,78.4-1.8c30.2-0.4,28-1.1,40.7-0.6c23.5,0.9,31.1,3.4,52.3,3.6c14,0.1,12.6-1,39.5-2.4
	c16.5-0.9,40.4-2.2,69.3-1.2c21.6,0.7,23.6,1.9,42.5,1.8c13.1,0,16.2-0.6,38.9-1.2c25-0.6,27-0.1,38.3-0.6
	c12.8-0.6,31.1-2.3,53.5-7.3"/>
<path class="st0" d="M66.9,232.7c13.4,1,31.5,2.1,53,2.7c5.5,0.1,23.8,0.6,52.3,0c53.6-1,56.4-3.8,91.9-3.4c38.9,0.5,35,3.8,56.4,2
	c27.2-2.3,43.8-8.5,68.4-6c3.5,0.3,11.2,1.3,22.1,1.3c10.9,0.1,17.1-0.8,26.2-1.3c14.6-0.9,21.4-0.2,35.6,0
	c35.5,0.4,40.8-3.7,81.2-4c23.2-0.2,18,1.2,35.6,0.7c31.3-0.9,42.8-5.1,75.8-5.4c11.2-0.1,7.2,0.4,26.8,0.7
	c11.9,0.1,34.7,0.2,67.8-1.3c34.3-1.6,29-2.7,51-3.4c22.1-0.7,43.2,0.2,84.5,2c31.6,1.4,26.7,1.6,41.6,2c7.9,0.2,21.6,0.5,80.5-0.7
	c26-0.5,39.1-0.8,55.7-1.3c24.3-0.8,44.9-1.8,60.4-2.7"/>
<path class="st0" d="M65.6,283.1c13,0.9,32.2,2,55.7,2.7c7.7,0.2,14.1,0.3,41.6,0.7c38.2,0.5,57.3,0.7,64.4,0.7
	c37-0.1,55.5-0.1,74.5-2c9.1-0.9,17.8-2,32.2-2.7c17.8-0.8,23.8,0,39.6,0c42.4-0.1,45.4-6.1,78.5-4c12.7,0.8,17.1,2,30.9,2
	c15.3,0,24.7-1.5,40.3-3.4c39.2-4.8,60.7-7.4,87.2-6.7c8,0.2,15.1,0.7,28.9,0.7c17.4,0,30.3-0.9,37.6-1.3c54.2-3.5,81.4-5.2,96-5.4
	c15.8-0.2,19.9,0.3,45.6,0c10.1-0.1,12.9-0.2,39.6-0.7c26.9-0.5,40.4-0.7,42.9-0.7c30.3,0.4,36.3,2.6,56.4,1.3
	c16-1,14.2-2.7,33.6-4.7c13.8-1.4,30-1.4,61.7-1.3c44.6,0.1,47.7,0.2,55,0c22.9-0.5,41.6-1.7,53.7-2.7"/>
<path class="st0" d="M61.5,336.1c19.4-0.5,40-0.3,61.7,0.7c20.5,1,29,2.5,45.6,3.4c25.7,1.3,38.8-0.4,73.1-2
	c28.4-1.3,29.7-0.6,71.1-2c24.6-0.8,37.1-1.3,45.6-2c22.7-2,30.6-4.1,48.3-4c17.2,0.1,17.6,2.2,36.9,3.4c31.5,1.9,35.3-3.3,77.2-3.4
	c17.6,0,19.7,0.9,42.3,0.7c15.4-0.1,27-0.7,40.3-1.3c39.6-2,52.8-3.9,80.5-4.7c15.9-0.5,15.6-0.1,32.9-0.7
	c11.6-0.4,28.2-1.2,47.6-2.7c53.3-4.2,50.5-8,71.1-6.7c27.2,1.6,27.6,8,51,6.7c16.8-0.9,23.5-4.6,45.6-6.7c17-1.6,20.3,1.1,39.6-0.7
	c12.7-1.1,15.9-2.4,27.5-2.7c13.7-0.4,15,1.2,29.5,1.3c7.2,0.1,10.5-0.2,38.9-2.7c6.4-0.5,17.4-1.5,31.5-2.7"/>
<path class="st0" d="M60.9,381.7c11.8,0.2,30.5,0.4,53.7,0c22.9-0.4,28.7-1,49-1.3c26.9-0.4,35.4,0.4,65.1,0.7
	c36.7,0.4,64.9-0.5,71.8-0.7c46.2-1.4,52.8-3.8,100-4.7c20.5-0.4,34.9-0.2,45,0c26,0.6,27.2,1.6,47.6,2c17.6,0.4,22-0.3,75.2-2
	c19.8-0.7,12.8-0.3,44.3-1.3c39.6-1.2,59.5-1.9,79.8-2.7c79.5-3.2,72.3-5.4,110-5.4c28.9,0,41.4,1.3,73.1,0c17-0.7,27.9-2.5,53.7-4
	c8.9-0.5,26.6-1.9,48.3-2c26-0.1,29.4,1.5,53,1.3c19.9-0.1,26.9-1.4,49-2.7c17.2-1,42-1.9,72.5-1.3"/>
<path class="st0" d="M60.2,432c34.6-0.9,61-0.5,79.2,0c6.7,0.2,13.8,0.5,25.5,0.7c9.8,0.2,28.3,0.4,55.7,0
	c26.7-0.4,50.2-0.8,81.2-2.7c29.6-1.8,35.6-3.2,54.4-2.7c22.4,0.6,25.9,2.9,45,3.4c25.2,0.6,37.1-2.9,63.1-6
	c29.6-3.6,22.3-0.1,76.5-3.4c30.7-1.9,46.1-3.6,73.1-2.7c2.6,0.1,15.1,1,30.2,2c11.9,0.8,17.4,1.2,25.5,1.3
	c11.1,0.1,19.2-0.4,22.8-0.7c20.7-1.3,31.8,0,57,0c46-0.1,54.5-4.6,103.3-4c13.3,0.1,11.3,0.5,24.8,0.7c33.8,0.4,48.7-1.5,78.5-2
	c15.5-0.2,7.2,0.4,47.6,0.7c42.2,0.3,68.6-0.4,77.2-0.7c14.9-0.4,27.1-1,34.9-1.3c24.4-1.2,45.3-2.7,61.7-4"/>
<path class="st0" d="M62.2,477.2c13.4,1.3,33.3,2.6,57.6,2.5c16.3-0.1,27.5-0.9,34.1-1.2c40.7-2.2,53.4,3.1,104.7,5
	c47.8,1.7,86.8-1.1,106-2.5c26.6-1.9,55.2-5,55.2-5c29.8-3.2,26.7-3.6,38.4-4.3c22.8-1.3,29.4,0.8,70,1.2c13.5,0.2,9.2-0.1,29.7,0
	c40.7,0.2,48.9,1.3,68.8,0.6c21.7-0.7,16.8-2.1,45.9-3.7c41.4-2.4,83.7-1.4,91.7-1.2c4.2,0.1,14.8,0.4,29.1,0
	c11.9-0.3,20.6-1,24.2-1.2c19.7-1.4,38.8-2.2,76.8-3.7c34.4-1.4,51.6-1.8,65.7-1.9c26,0,32,2.5,53.3,1.2c12-0.7,20.8-2,36.6-1.9
	c13.1,0.1,23.8,1,31,1.9"/>
<path class="st0" d="M57.4,533.1c39.9,2.7,71.8,3,93.9,2.8c19.8-0.2,30.7-0.8,64.2-0.9c28.2-0.1,34.5,0.3,53.9,0
	c31.9-0.4,41.1-3,67.9-2.8c18.6,0.1,22.5,2,40,1.9c20.3-0.2,24.8-3.6,45.6-3.7c16.4-0.1,17.5,1.6,34.4,1.6c13.7,0,19.1-1.2,40.3-3.4
	c24.8-2.5,44-4.5,65.5-4.5c23,0,19.5,2.3,43.7,2.8c26.7,0.5,36.2-2.2,75.6-4.5c20.4-1.2,14.3-0.1,44.2-1.7
	c23.5-1.3,33.8-2.5,59.9-3.9c3.7-0.2,14.8-0.7,37-1.7c28.9-1.3,46.3-2,68.3-2.8c26.8-0.9,22.8-0.6,35.8-1.1
	c50.9-2.1,60.8-5.5,86.2-5c14.3,0.3,35.7,1.9,62.2,8.4"/>
<path class="st0" d="M49.3,585.3c26.1,0.6,47,0.6,61.3,0.6c12.8,0,21.6-0.2,36.7,0c20.8,0.3,35.6,0.9,41.3,1.1
	c41.7,1.6,46.3-2.9,88.8-2.3c43.8,0.6,50.5,5.4,88.3,2.9c10.5-0.7,13.3-1.3,34.4-2.9c6.6-0.5,33.1-2.4,61.9-3.4
	c38.9-1.4,39.9,0.3,75.1-0.6c39.5-1,42.2-3.3,119.8-7.5c13.5-0.7,17.2-0.9,32.7-1.7c34.4-1.9,43.6-2.8,73.9-4.6
	c29.9-1.7,44.9-2.6,60.2-2.9c32.2-0.5,36.2,3.1,59.6,1.1c22.1-1.9,23.4-4.9,47-6.3c17.5-1.1,23,0.2,45.9,0c24.5-0.2,21.5-1.7,47-2.3
	c24.2-0.5,32.7,0.5,49.3-2.3c11.2-1.9,20.2-4.5,25.8-6.3"/>
<path class="st0" d="M55.4,635.5c39.5,6.1,60.5,6.2,72.5,5c2.4-0.2,8.7-1,17.7-1.3c13.2-0.4,19.2,0.5,30.9,0.6
	c6.8,0.1,10.4-0.2,27.8-1.3c53.6-3.4,61.1-3.6,66.9-3.8c6.8-0.2,16.4-0.1,35.3,0c44,0.3,45.9,2.9,63.1,0.6c16.3-2.1,20.4-5,37.8-5.7
	c9.1-0.4,12.6,0.2,27.8,0c14.6-0.2,22.5-0.9,30.3-1.3c33-1.5,34,4.5,60.5,3.2c25.2-1.3,26.7-6.9,56.1-7.6c8.4-0.2,12,0.2,27.8,0
	c3.6,0,23-0.3,38.5-1.3c39.4-2.5,43.8-9.2,80.1-10.7c12.6-0.5,10.8,0.3,34.1,0c29.1-0.4,51.3-2,58-2.5c40.5-3,43.5-6.1,66.9-6.3
	c22.6-0.2,20.5,3.3,51.7,4.4c19.7,0.7,41.5-1.3,49.8-1.9c29.8-2.3,27,1.5,58.7,0c26.7-1.2,30.6-3.6,52.3-4.4
	c23.1-0.8,42.7,1,57.4,3.2"/>
<path class="st0" d="M52.5,690.9c31.1,1.5,56.8,1.6,75.2,1.4c20.1-0.2,37.3-0.8,71.6-2.1c41-1.5,35.1-1.9,51.1-2.1
	c34.2-0.6,46.5,1,72.3-1.4c15.8-1.5,16.5-2.6,35.5-5c29.4-3.7,80.1-2.8,80.1-2.8c49.3,0,53.1-2.9,75.2-1.4c15,1,17.9,2.6,30.5,2.1
	c6.8-0.3,11-1,24.8-2.8c10.9-1.5,21.8-2.8,32.6-4.3c24.5-3.3,38.5-3.2,88.6-6.4c42.3-2.7,33.7-2.9,50.3-3.5
	c54.7-2.2,57.3,3.5,92.9-0.7c20.9-2.5,29.8-5.6,52.5-5.7c19-0.1,17.5,2.1,38.3,2.1c23.7,0,30.6-2.8,61.7-3.5
	c13.3-0.3,10.9,0.2,26.9,0c33.1-0.5,45.7-2.8,68.8-3.5c13.5-0.4,32.9-0.4,56.7,2.1"/>
<path class="st0" d="M60,751.3c27.6,0.2,49.4,0.8,64.5,1.3c10.4,0.4,19.1,0.8,31.6,0c17.3-1.1,27.1-3.5,41-6
	c33.7-6.1,61.3-6.9,78.6-7.4c23.7-0.7,21,0.9,45.7,0c23.4-0.9,32.2-2.5,59.8-4c17.9-1,19.3-0.5,43.7-1.3
	c32.2-1.1,69.1-2.3,112.2-6.7c12-1.2,24.1-2.6,42.3-3.4c18.6-0.7,31.7-0.2,41,0c28.2,0.7,42.2-2.8,78.6-2c9.2,0.2,15.9,1.7,27.5,1.3
	c11.8-0.4,14.1-1.7,30.2-3.4c14.4-1.5,25.3-1.7,38.3-2c22.7-0.5,20.1,0.7,32.9,0c24.1-1.3,25.8-5.2,48.4-6c0.5,0,11.3,0.2,32.9,0.7
	c21.8,0.5,24.9,0.5,30.9,0c14.8-1.3,15.3-3.6,30.9-5.4c3.1-0.4,8.7-0.9,34.3-0.7c20.8,0.2,25,0.6,36.3,0.7c10.9,0.1,26.5-0.3,45.7-2
	"/>
<path class="st0" d="M110,830.4c50.7-1.1,91.7-4.3,120.5-7.1c30.8-3.1,46.8-5.6,91.2-9.5c18.4-1.6,43.9-3.8,76.9-5.5
	c46.5-2.4,49.5-0.9,96.7-3.2c50-2.5,43.9-4.1,84.8-5.5c38.4-1.4,50.3-0.2,79.3-4c18.9-2.5,23.7-4.3,41.2-5.5
	c23.4-1.7,36.4-0.1,59.4,0.8c14.5,0.5,38.5,0.7,68.2-0.8c29.8-1.5,32.7-3.4,54.7-3.2c14.6,0.2,21.2,1.1,41.2,0.8
	c9.2-0.1,20.3-0.3,34.1-1.6c19.4-1.8,22.1-3.8,37.3-5.5c22.4-2.6,28.1,0.2,59.4,0c10.7-0.1,26.3-0.6,45.2-2.4"/>
<path class="st0" d="M35.1,878.5c19.1,0,34.6-0.5,45-0.9c38.4-1.7,40.5-3.9,60.9-2.8c13.9,0.8,22.4,2.3,40.3,1.9
	c8.6-0.2,13.8-0.8,25.3-1.9c0,0,41.8-4,80.5-6.6c18-1.2,27-1.8,32.8-1.9c24.2-0.1,29.5,2.7,45.9,0c12.2-2,13.3-4.2,26.2-5.6
	c11.2-1.2,17.2-0.3,29,0c14.4,0.3,18.2-0.8,38.4-1.9c30-1.6,33.9,0.1,72.1-0.9c4.7-0.1,20.8-0.6,41.2-1.9
	c40.1-2.5,52.4-5.3,85.2-7.5c17.6-1.2,21.6-0.9,58.1-1.9c27.7-0.8,71.6-1.9,101.2-3.7c45.8-2.8,59.2-5.6,92.8-6.8
	c4.7-0.2,20.8-0.7,43.3-1.7c15.3-0.7,15.2-0.8,24.4-1.1c22-0.8,33.4-1.3,48.3-1.1c24.4,0.3,27.9,1.9,40-0.6c9.2-1.8,11-3.5,21.1-5
	c12.9-1.9,19.5-0.5,31.7-0.6c8.5,0,20.7-0.7,35.5-3.9"/>
<path class="st0" d="M46.8,947.4c30-4.9,54.5-7.1,71.7-8.1c22.2-1.3,33.4-2,47.5-1.8c14.1,0.2,25,1,41.2-0.9
	c12.4-1.4,21.2-3.6,25.1-4.5c19.8-4.6,58.9-7.9,136.3-14.3c4.3-0.4,23.5-1.7,61.9-4.5c18.1-1.3,27.3-1.9,38.6-1.8
	c23.2,0.3,37.4,3.2,48.4,4.5c29.1,3.4,29-5.4,81.6-9.9c18-1.5,33.9-2.1,52-2.7c26.4-0.9,25.3-0.1,43.9-0.9
	c38.6-1.6,41.1-4.7,73.5-5.4c20.7-0.4,22.6,0.8,46.6,0c18.8-0.6,29.1-1.7,43-2.7c27.6-1.9,47.8-2.8,73.5-1.8
	c15.6,0.6,17.8,2,27.8,1.8c10.5-0.2,11.9-1.7,24.2-2.7c12.7-1,21.4-0.3,27.8,0c14.8,0.7,32.9-1.3,69-5.4c31.6-3.5,35.5-5,55.6-6.3
	c17-1.1,31.1-1.1,40.4-0.9"/>
<path class="st0" d="M40.8,1006.8c27.2-10.4,45.8-11.6,58-10.6c2.8,0.2,7.5,0.7,15.6,1.2c7.2,0.4,20.4,1,36.4,0.4
	c17.1-0.6,30.1-2.3,34.4-2.8c37-4.6,62.4-3.7,121.6-8.8c71.4-6.2,63.9-10.1,116-12.8c33.4-1.8,43.4-0.5,86-3.2c10-0.6,27.6-1.8,52-2
	c16.4-0.1,22.7,0.3,33.6,0.4c23.1,0.1,32.7-2,70.8-5.2c25-2.1,37.5-3.1,49.6-3.6c33-1.2,38,1,71.2-0.8c16.7-0.9,19.9-1.7,38.4-2.4
	c20.7-0.8,35-0.5,43.2-0.4c42.5,0.3,45.1-5.2,81.6-5.2c29.7,0,25,3.1,50.8,2.4c22.6-0.6,32.1-3.2,69.6-5.6c9.7-0.6,13.9-0.8,32-1.6
	c20.8-1,50.6-2.4,88-4.4"/>
<path class="st0" d="M48.8,1070.8c16.2-1.9,32.8-3.5,49.9-5c21.5-1.8,18.3-1,44.3-3.1c20-1.6,30.9-2.8,48.6-3.1
	c11.4-0.2,9.6,0.3,19.9,0c11.5-0.3,15.5-1,36.1-2.5c17.9-1.3,17.4-1,26.8-1.9c14.5-1.3,24.9-2.9,30.5-3.7
	c30.4-4.4,38.5-3.2,74.8-7.5c32.4-3.8,25.6-4.6,56.1-8.1c13.9-1.6,17.7-1.7,72.9-6.2c13.9-1.2,23.6-2,37.4-3.1
	c44.4-3.7,57.1-5,77.3-5c10.3,0,11.6,0.3,19.3,0c20.3-0.8,28.5-3.7,46.1-5c10.7-0.8,17.1-0.4,30.5,0c8,0.2,46.2,0.5,76.7,0.6
	c17.3,0.1,14.4-0.1,38,0c27.4,0.1,33.9,0.3,46.7,0c18-0.4,28-0.6,41.8-1.9c25.4-2.4,25.5-5,48.6-6.9c5.7-0.5,18.4-0.7,43.6-1.2
	c17.7-0.4,27.8-0.5,33.7-0.6c38.3-0.7,45.6-3.1,71.1-3.1c10,0,24.5,0.3,42.4,1.9"/>
<path class="st0" d="M49.6,1127.5c18.7-2.9,33.9-4.3,44.3-5c10.6-0.7,12.8-0.6,30.8-1.7c11.3-0.7,23-1.4,37.6-2.8
	c23.5-2.2,25.2-3.4,38.1-3.9c15.2-0.7,21.5,0.5,35.9,1.1c19.1,0.8,36.1-0.8,70.1-3.9c27.4-2.5,24.9-3,56.1-6.2c40-4,42.7-3,76.3-6.7
	c25.1-2.8,25.7-3.5,54.4-6.7c7.9-0.9,34-3.8,59.4-5.6c30.6-2.2,30-0.6,106.5-2.2c56.6-1.2,68.3-2.3,77.4-3.4
	c11.8-1.4,20.3-2.8,35.3-3.4c18.2-0.7,26.6,0.6,48.8,0.6c16.8,0,25.2,0,35.9-1.1c34-3.4,37.2-11.7,63.4-12.3
	c19.3-0.5,17.3,4,42.6,3.9c18.6-0.1,39.2-2.6,45.4-3.4c11.7-1.5,10-1.7,16.3-2.2c18.2-1.6,28,0.7,48.2,2.2c0,0,17,1.3,36.4,1.1
	c12.7-0.1,29.5-1,49.3-3.9"/>
<path class="st0" d="M34.5,1183.2c29.1-2.3,53.5-3.9,71.9-5.1c35-2.3,47-2.7,55.7-2.9c26.1-0.7,38.2,0,55,0
	c19.8,0,43.5-2.4,90.9-6.6c37.5-3.3,43.4-4.3,63.1-5.1c5.3-0.2,6.1-0.2,46.9-1.5c36.9-1.1,41.1-1.3,48.4-2.2
	c28.5-3.6,26.7-9.3,49.1-11.7c24.9-2.7,31.2,3.6,63.8,2.9c9.5-0.2,18.8-1.3,37.4-3.7c16.8-2.1,19.5-3.1,30.1-4.4
	c22.6-2.8,32.4-1.1,55.7-1.5c13.4-0.2,27.3-1.7,55-4.4c39.3-3.8,39.8-5,51.3-4.4c28.1,1.4,27.6,8.8,51.3,8.8c21.6,0,24-6.2,56.5-8.8
	c13.9-1.1,12.3,0.1,35.9-0.7c17.2-0.6,24.6-1.5,60.1-4.4c18.2-1.5,36-3,56.5-4.4c17.2-1.2,37.7-2.5,60.9-3.7"/>
<path class="st0" d="M33.5,1250.5c20-3.2,40.9-6.2,62.7-8.7c26.5-3,39-3.4,62.7-5.8c38.6-3.8,47-8,80.1-10.8c17.9-1.5,39.9-2,44-2.2
	c18.6-0.6,32.4-0.7,35.3-0.7c31.6-0.2,30.6,1.2,48.3,0.7c27.7-0.7,30.9-4.1,59.9-5c20.3-0.7,18.3,1,40.4,0.7
	c38.3-0.5,43.7-5.4,80.1-5.8c20.3-0.2,41.4,1.1,46.2,1.4c18,1.2,32.1,2.8,51.9,0c10.3-1.5,9.1-2.5,18-3.6
	c20.7-2.6,28.5,1.9,47.6,2.2c16.4,0.2,11.8-3.1,41.1-5.8c11.8-1.1,14.5-0.7,45.4-2.2c3.9-0.2,16.1-0.8,27.4-1.4
	c53.3-3.1,57.6-6.2,85.1-5.8c16.8,0.2,19.5,1.4,33.9,0.7c19.8-1,23.8-3.7,41.1-5c21.2-1.6,25.5,1.6,51.2,2.2
	c11.5,0.2,28.6,0,49.8-2.9"/>
<path class="st0" d="M33.2,1306.6c29-2,52.4-4.4,68.5-6.2c18.5-2.1,30.2-3.7,48.3-4.7c22.7-1.2,25,0.5,48.3,0
	c34.9-0.7,35.2-4.3,72.4-5.4c4.7-0.1,3,0,54.5,0c21.3,0,31.9,0,41.3,0c32-0.1,54-0.1,79.4-0.8c25.5-0.7,44.5-1.2,70.1-3.1
	c42.3-3.2,45.3-6.1,79.4-7.8c33.2-1.6,32.3,1,62.3-0.8c34.3-2.1,36.8-5.6,77.8-9.3c39.1-3.6,67.9-3.2,74.7-3.1
	c35.6,0.6,36.5,5.1,72.4,5.4c20.2,0.2,25.9-1,59.9-1.6c23.6-0.4,23.1,0.4,49.8,0c21.2-0.3,35.7-1.9,66.2-3.1
	c8.4-0.3,15.3-0.6,24.9-0.8c25.9-0.4,32.8,0.6,46.7,0c9.9-0.4,24.7-1.8,42.8-6.2"/>
<path class="st0" d="M27.9,1365.5c34.7-1.6,69.9-3.6,105.5-5.9c22.9-1.5,28.9-2.2,50.7-3.5c41.3-2.6,64-4,93.1-4.1
	c34.3-0.2,35.3,1.6,86,1.8c23.7,0.1,36.4,0.1,54.2-0.6c36.4-1.5,43-4.1,83.7-7.1c21.4-1.6,15.8-0.6,84.2-3.5
	c16.1-0.7,35.9-1.6,75.4-3.5c60-2.9,55.3-2.7,73.1-3.5c73-3.3,109.6-5,149.1-4.1c38.8,0.8,35.3,2.5,73.6,2.9
	c37,0.4,68.9-0.8,106.6-2.4c25-1,45.9-2.1,60.7-2.9"/>
<path class="st0" d="M20.8,1424.5c17.6-3.6,38.6-6.7,62.3-7.8c29.2-1.3,32.5,2.5,64.6,2.3c35.8-0.2,43.7-4.6,87.2-6.2
	c20.2-0.7,42-0.2,50.6,0c13.4,0.3,22.7,0.8,36.6,0c17.3-1,19.9-3.2,32.7-3.9c17.9-1,23.2,2.4,44.4,4.7c4.9,0.5,11.3,1.1,59.1,0
	c24.1-0.6,36.2-0.8,54.5-1.6c56.7-2.3,62.9-4.3,108.2-5.4c23.6-0.6,49.5-0.8,50.6-0.8c16.7-0.1,19.9,0,37.4,0
	c24.1-0.1,41.8-0.4,63-0.8c17.7-0.3,39.2-0.8,63.8-1.6"/>
</svg>
