<?xml version="1.0" encoding="utf-8"?>
<!-- Generator: Adobe Illustrator 22.1.0, SVG Export Plug-In . SVG Version: 6.00 Build 0)  -->
<svg version="1.1" id="Layer_1" xmlns="http://www.w3.org/2000/svg" xmlns:xlink="http://www.w3.org/1999/xlink" x="0px" y="0px"
	 viewBox="0 0 1240 1653" style="enable-background:new 0 0 1240 1653;" xml:space="preserve">
<style type="text/css">
	.st0{fill:none;stroke:#000000;stroke-width:6;stroke-miterlimit:10;}
</style>
<image style="overflow:visible;" width="1240" height="1653" xlink:href="processed.jpg" >
</image>
<path class="st0" d="M145.5,81.8c39.3,4.1,65.6,4.8,82.9,4.5c4.2-0.1,15.3-0.3,30.7,0c12.1,0.2,22.7,0.7,40.3,1.7
	c42.6,2.5,43.4,3.4,61.9,4c11.5,0.4,24.5,0.1,50.6-0.6c43.8-1,45.6-2,73.3-2.3c26.9-0.2,26.3,0.7,59.6,0.6
	c13.7-0.1,29.4-0.4,60.2-1.1c48.1-1.1,49.8-1.4,71.6-1.7c16-0.2,31-0.1,60.2,0c42.9,0.2,49.2,1.5,74.4,0.6c11.8-0.5,18.9-1,33.5-1.1
	c4.7,0,10.5-0.2,42.6,1.1c48,2,72,3,83.5,4.5c5.5,0.7,14.3,2,26.7,2.3c13.5,0.3,17.4-0.9,30.1-1.1c11.9-0.2,21.8,0.8,41.5,2.8
	c27.1,2.8,27.8,4.4,39.8,4c13.7-0.5,16.9-2.7,28.4-2.3c13.7,0.5,24.7,4.3,31.8,7.4"/>
<path class="st0" d="M108.5,135.4c24.4,2.9,44.5,4.6,59.3,5.7c17.9,1.3,28.3,1.8,37.6,1.9c6.5,0.1,11.8,0.1,22.3,0
	c10.3-0.1,21.4-0.2,35.7-0.6c20.4-0.7,17.5-1.2,27.4-1.3c22.2-0.2,25.7,2.5,48.5,2.6c8.4,0,15.4-0.4,29.3-1.3
	c18.6-1.1,27.3-2.3,42.1-1.9c5.8,0.2,10,0.5,18.5,1.3c21.6,1.8,26.4,3.5,38.3,3.8c11.5,0.3,20.6-1,28.1-1.9
	c15.7-2,20.4-4.2,31.9-4.5c7.1-0.1,7,1.1,23.6,2.6c9.3,0.8,14.3,1.3,20.4,1.3c9.6,0,14.4-1,30-3.2c12.4-1.7,22.3-3.1,31.9-3.8
	c13.7-1.1,23.4-0.6,38.3,0c28.6,1.2,30.6,5.8,49.7,4.5c12.2-0.8,14-2.7,26.1-2.6c12.2,0.1,15.5,2,30.6,2.6c8.5,0.3,14.5,0,24.9-0.6
	c16.7-1,26.7-2.4,34.4-3.2c11.4-1.2,17.4-0.9,79.1,2.6c21,1.2,22.1,1.4,33.8,1.9c18.3,0.8,33.7,1.5,52.9,1.3
	c18.5-0.3,15.1-1,33.2-1.3c5.1-0.1,10.5-0.1,54.2,1.3c15.3,0.5,21.5,0.7,30.6,1.3c20.2,1.3,28.2,2.8,33.2,3.8
	c10,2.1,18.1,4.9,23.6,7"/>
<path class="st0" d="M94.5,176.8c25.8,2.2,46.8,3.3,61.2,3.8c19.2,0.7,21.4,0.4,38.9,1.3c21.4,1.1,25.8,2.1,54.2,3.8
	c12.5,0.8,21.7,1.2,36.4,1.9c13.3,0.6,24.2,1.1,45.9,1.9c34.8,1.4,38.7,1.4,44,1.3c17.9-0.4,18.1-1.5,31.3-1.3
	c18.5,0.4,19.7,2.7,40.2,3.8c13.5,0.7,12.9-0.3,40.8,0c19.7,0.2,21.2,0.7,31.9,0.6c25.4-0.1,27.3-4,49.1-3.8
	c14.1,0.1,14.6,1.6,30.5,1.4c13.3-0.1,18.8-1.1,31.6-1.9c13.4-0.8,22.9-0.5,41.7,0c47.6,1.3,45.8,5.6,75.2,5.1
	c20.7-0.4,24.6-2.5,56.2-3.2c15.2-0.3,22.7-0.8,33.5,0c8.7,0.6,15.3,1.6,25.9,1.3c11.5-0.3,11.8-1.9,19.6-1.9
	c14.9,0,16.1,5.2,32.9,7.6c8.2,1.1,16.9,0.6,34.1-0.6c6.7-0.5,11.9-2.3,20.2-1.9c6.1,0.3,6.6,1.3,17.1,3.2
	c11.8,2.1,19.3,3.5,28.4,2.5c8.7-0.9,9-2.9,18.3-4.4c11.6-1.9,20.3-0.3,27.2,0.6c15.7,2.2,31.6,1.2,47.4,1.9
	c15.2,0.6,36.8,1.2,63.8,0.6"/>
<path class="st0" d="M101.3,219.8c26.3,2.2,47.8,3.5,62.7,4.2c22,1.1,26.2,0.8,45.1,2.1c22.5,1.5,26,2.5,51.5,4.2
	c14.8,1,26.5,1.8,42.3,2.1c24.4,0.5,28.5-0.8,45.8,0c22.3,1,22.8,4.3,43.7,4.9c10.5,0.3,10.4-0.4,35.2-0.7c5.2-0.1,19.1-0.2,33.8,0
	c21.7,0.4,25.4,1.3,47.2,2.1c34.5,1.3,31.7-0.8,57.1,0.7c25,1.5,27.8,3.5,48.6,3.5c10,0,14.3-0.5,33.8-0.7c6.1-0.1,14.8-0.1,30.3,0
	c59.5,0.5,56.2,2.9,75.4,1.4c31-2.4,32.5-8,55-6.3c10.5,0.8,18.9,2.6,33.8,1.4c9.3-0.7,14.3-2.1,26.1-2.8c10.5-0.7,18.3-0.3,24.7,0
	c36.5,1.6,11.9-0.2,60.6,2.1c25.6,1.2,38.3,1.8,54.3,2.8c30.3,1.9,30.7,2.7,55.7,4.2c30.8,1.9,46.6,2.8,67,1.4
	c19.4-1.3,35.2-4.1,45.8-6.3"/>
<path class="st0" d="M92.3,258.4c34.9,7.1,63,9.5,82.5,10.4c11.7,0.5,20,0.5,56.2,1.4c20.2,0.5,34.9,1,47.8,1.4
	c67.2,2.1,84.4,3.5,133.1,4.9c47.7,1.4,49.9-0.9,71.4,1.4c13.4,1.4,29.7,3.8,54.1,4.2c11.2,0.2,10.9-0.3,29.8-0.7
	c21.9-0.4,42.2,0.4,81.8,2.1c28.5,1.2,42.7,1.9,45.1,2.1c34.4,2,43.1,3.6,68.6,4.2c22.4,0.5,19-0.7,37.4,0
	c30.4,1.1,36.2,4.1,62.4,4.2c17.1,0,16.9-1.2,37.4-1.4c24.5-0.2,42.4,1.5,49.9,2.1c54.8,4.5,57.7-3.1,112.3,0.7
	c36.4,2.6,46.6,6.6,79.7,5.5c18.9-0.6,34.5-2.5,45.1-4.2"/>
<path class="st0" d="M86.1,311.8c19.9,1.8,39.8,3.7,59.6,5.5c24.9,2.4,39.8,5,63.8,6.2c13.4,0.7,18.1-0.1,36.1,0.7
	c13,0.6,19.2,1.2,39.5,2.8c28.4,2.2,42.6,3.3,49.9,3.5c29.6,0.8,31-2.1,56.9-0.7c22.8,1.2,20.9,3.4,43,4.2c17.1,0.6,24.5-0.5,47.2,0
	c11.4,0.3,19.4,0.8,29.1,1.4c38.8,2.4,77.7,4.6,116.5,6.9c38.9,2.3,30.1,1.7,47.2,2.8c44.6,2.9,53.7,4.1,75.6,4.2
	c7.5,0,20.5-0.4,46.5-1.4c33.6-1.2,40.5-1.9,61-2.1c22.4-0.2,34-0.3,47.8,1.4c17.8,2.1,19.3,4.2,36.1,5.5c11.3,0.9,14.8,0.3,42.3,0
	c11.6-0.1,24-0.2,36.1,0c27.1,0.5,25.9,2.3,55.5,3.5c27.5,1.1,50.7,0.3,61,0c6.8-0.2,12.5-0.5,16.6-0.7"/>
<path class="st0" d="M102.2,367.2c27,0.9,55.2,2.4,84.6,5c34.4,3,49.6,4.3,66.1,7.1c12.4,2.1,26.6,10.6,48.4,10.7
	c7.5,0,11.1-1.5,22-2.1c14.1-0.9,24.5,0.2,38.4,1.4c25.3,2.3,28.8,4.6,48.4,5c1.4,0,1,0,19.9,0c17.2,0,30.3,0,32,0
	c33.8,0,72.6,2,76.1,2.1c32.8,1.7,34.3,2.8,61.9,4.3c28.3,1.5,43.9-0.4,74,1.4c19.6,1.2,20.2,2.5,37,2.8c15.5,0.3,18.5-0.7,34.8,0
	c15.2,0.6,18.3,1.7,32,2.1c14.2,0.4,24.3-0.3,30.6-0.7c11.9-0.7,19.2-0.6,93.2,2.1c27.2,1,46.4,1.8,57.6,2.1
	c19.4,0.7,33.7,1.1,46.9,1.4c18,0.5,24.8,0.6,30.6,0.7c35,1,43.3,6.1,76.1,7.1c16.3,0.5,14.5-0.6,27.7,0c27.3,1.1,49.3,6.3,64,10.7"
	/>
<path class="st0" d="M90.3,412.3c24.8,3,47.3,5.9,67.1,8.7c15.4,2.1,23.2,3.2,33.1,4.7c38.2,5.9,45.4,8.3,66.3,10.3
	c17.8,1.6,18.8,0.4,40.2,1.6c29.4,1.6,36.9,4.4,67.9,7.9c31.2,3.5,54.8,4.2,96.3,5.5c24.9,0.8,37.4,1.2,51.3,0.8
	c28.8-0.8,35.8-3,56.8-1.6c19.4,1.3,17.8,3.5,44.2,6.3c29.3,3.1,51.6,2.6,57.6,2.4c16.6-0.5,19.2-1.7,42.6-3.2
	c24.8-1.6,37.3-2.2,47.4-1.6c31.2,1.9,40,9.2,65.5,6.3c4.5-0.5,9.3-1.3,17.4-1.6c15.9-0.5,27.2,1.8,34.7,3.2c5.6,1,23.2,2,58.4,3.9
	c34.9,2,33,1.3,46.6,2.4c29.4,2.4,36.7,6,61.6,8.7c12.9,1.4,13.8,1,59.2,1.6c30.5,0.4,49.2,0.7,72.6,2.4c19.5,1.4,35.5,3.3,46.6,4.7
	"/>
<path class="st0" d="M85.9,480.8c41.7,0.2,73.9,2,96.1,3.7c13.3,1,35.4,2.9,66.8,4.4c15.8,0.8,33.8,1.5,33.8,1.5
	c28.5,1.1,28.9,0.8,42.6,1.5c22,1.1,35.1,1.8,52.8,4.4c21.4,3.1,27.1,5.7,42.6,5.1c10.6-0.4,14.3-1.9,25.7-2.2
	c15.4-0.4,25.7,2,36,3.7c6.7,1.1,6.6,0.9,55.8,4.4c68.8,4.9,61.2,4.9,69.7,5.1c48.7,1.6,47.4-3.7,80,0c17.2,2,29.1,4.8,50.6,4.4
	c14.7-0.3,19-2,37.4-3.7c23.4-2.2,40.7-1.8,60.2-1.5c21.4,0.4,30.4,1.7,72.6,5.1c41.7,3.4,62.6,5.1,78.5,5.9
	c35.1,1.7,42.3,0.5,82.2,2.2c41.7,1.7,52.4,2.6,60.9,3.7c26.4,3.4,47.7,8.9,62.4,13.2"/>
<path class="st0" d="M86.2,542.9c52.5-2.3,94.1,0.7,122.6,3.9c27.1,3,38.6,5.9,72.7,8.4c20.7,1.6,41.5,2.3,83,3.9
	c44.1,1.6,49.1,1.3,63.6,3.9c17.3,3.1,25.3,6.3,43.5,7.1c16,0.7,20.8-1.3,41.5-2.6c4.5-0.3,15.3-0.8,55.8,0.6
	c35.8,1.3,44.3,2.4,66.2,3.2c29.2,1.2,29.2-0.1,80.4,0c41.6,0.1,73.4,0.3,113.5,3.2c15.5,1.2,31.7,4.9,57.7,5.8
	c14.3,0.5,14-0.4,45.4-0.6c33.4-0.3,50.1-0.5,64.9,1.3c18.2,2.2,22.2,4.4,38.9,5.2c17.2,0.8,16.3-1.6,38.9-1.9
	c25.1-0.4,30.9,2.3,55.1,0.6c13.6-0.9,13.2-1.9,20.1-1.9c14.7-0.1,33.4,4.1,55.1,19.5"/>
<path class="st0" d="M84.2,589.4c26.1,1.6,54.3,4.5,84.1,9.3c14.7,2.3,27.7,8.2,49.2,9.3c15.9,0.8,19.9-1.1,37.8,0.7
	c16.5,1.7,21.4,4.2,37.1,5.7c14.5,1.4,24.4,0.5,34.2,0c20.1-1,51.5-0.2,69.8,1.4c20.4,1.8,19.6,3.8,42,5.7
	c12.2,1.1,19.2,1.1,40.6,2.1c30,1.4,26.2,2.4,39.9,2.1c19.2-0.3,21-2.5,35.6-1.4c2.9,0.2,12.2,1.8,30.6,5c22.5,3.9,25.7,4.5,32.1,5
	c3.7,0.3,9.9,0.7,27.8,0c31.9-1.2,31-3.1,47-2.9c16.7,0.2,16,2.2,43.5,3.6c13,0.6,23.5,0.7,29.9,0.7c17.6,0.1,23.6-0.5,39.2-0.7
	c20.7-0.3,25.7,0.6,42.8,0.7c26.1,0.2,37.4-1.6,61.3-2.9c18.9-1,46.5-2,79.1,0c38.5,2.3,43.9,10.7,66.3,7.8
	c5.7-0.7,17.8-2.8,34.2-1.4c6.1,0.5,11.7,1.4,20.7,2.9c13.5,2.2,20.5,3.8,27.1,5c9.5,1.7,23.4,3.6,41.3,3.6"/>
<path class="st0" d="M85.1,663c21.1-1.9,45.4-2.4,72.3,0c19.4,1.8,33.2,4.4,33.2,4.4c14.7,2.5,19.3,4.1,30.2,5.2
	c9.3,0.9,12.9,0.4,30.2,0c15-0.3,26.5-0.2,49.4,0c15.6,0.1,25.2,0.2,38.3,0.7c29.4,1.1,34.9,2.7,57.5,2.9c17.6,0.2,18-0.7,33.9-0.7
	c25.6,0,41.3,2.3,67.1,5.2c33.1,3.6,56,5.1,76.7,6.6c26.2,2,40.4,2.8,57.5,2.9c15.9,0.1,20.4-1,38.3-0.7c18.1,0.3,16,1.2,43.5,2.2
	c20.8,0.8,27.7,0.5,42.8,2.2c5.1,0.6,7.4,1,17.7,2.2c15.3,1.8,23,2.7,28.8,2.9c17,0.7,17.1-3.2,34.7-3.7c19.3-0.6,23.5,3.9,45,4.4
	c12.6,0.3,14.3-1.2,30.2-2.2c28.5-1.8,31.2,2.2,74.5,2.9c21.8,0.4,44.2,0,44.2,0c15.5-0.3,19.6-0.6,28.8,0c16.6,1.1,21,3.3,35.4,4.4
	c15.8,1.3,26.3-0.2,34.7-0.7c16.4-1.1,40.7-0.2,74.5,9.6"/>
<path class="st0" d="M95.8,721.3c38.8,4.2,70.3,6.4,91.7,7.6c47.5,2.7,55.3,1.3,113.4,4.9c22.4,1.4,36.1,2.5,60.8,3.3
	c25.9,0.8,41.3,0.5,60.8,0.5c72.4,0,70.8,3.6,133.5,3.3c28.4-0.1,56.8,0.7,85.2,0c12.2-0.3,29-0.8,51,3.3c19,3.5,18.5,6.1,34.2,8.7
	c22,3.6,32.6,0,64-1.6c13.2-0.7,25.3-0.4,49.4,0c6.3,0.1,35.1,0.6,76,3.3c22.5,1.4,18.6,1.6,36.9,2.7c49.4,3,55.4,0.6,90.1,3.8
	c26.8,2.5,24.6,4.1,46.7,5.4c27,1.6,37.5-0.3,59.7,2.2c18.6,2.1,33.8,6,44.5,9.2"/>
<path class="st0" d="M99.2,781.8c34.1,1.5,61,6,79.4,9.8c19.9,4.2,27.1,7,43.8,7.8c10.8,0.5,17.6-0.2,59.4-4.9
	c39.2-4.4,38.9-4.4,40.9-4.5c23.1-0.9,32.2,1.7,65.5,2.9c18.4,0.7,16.9-0.1,35.6,0.4c49.5,1.3,67.4,6.4,114.8,7.4
	c12.4,0.3,9.8-0.2,32.1,0c27.9,0.2,43.8,0.4,61.6,1.8c29,2.3,27.7,5.2,57.1,8c22.8,2.2,23.1,0.4,62.9,1.8
	c31.2,1.1,31.8,2.2,78.5,4.5c8.9,0.4,24.2,1,54.9,2.2c51.5,2,58.7,2.1,74.5,4c1.7,0.2,0.3,0,41,5.4c17.1,2.2,25.7,3.4,27.7,3.6
	c14.4,1.6,32.4,3.7,54.9,4c20.3,0.3,22.1-1.1,37,0c7.3,0.5,7.8,1.1,37,5.8c24.6,4,32.6,5,35.2,5.4c12.9,1.6,23.4,2.6,30.3,3.1"/>
<path class="st0" d="M92.6,859c18.5-2,32.1,0.6,41.5,3.6c10.7,3.4,14.3,6.9,24.8,7.7c12,0.9,16-3,30.2-4.1c12.4-1,17.6,1.4,29.7,2.7
	c19.8,2.1,26.7-1.9,49.1-3.6c16.5-1.3,17.3,0.8,51.8,1.4c14.5,0.2,21-0.3,32.4-0.5c18.2-0.3,17.9,0.7,48.7,1.4
	c25.8,0.5,24.1-0.2,41.5,0.5c21.6,0.8,24.8,2,44.6,2.7c18,0.6,17.3-0.2,41,0c26.7,0.3,32.1,1.5,64.4,2.3c23,0.6,19.1-0.1,41,0.5
	c43.4,1,47.9,3.2,76.1,2.7c24.2-0.5,22.3-2.1,41.9-1.8c19.7,0.3,29.4,2.1,54.1,2.7c15.9,0.4,14.1-0.3,31.1,0
	c32.9,0.5,41.8,2.9,77.9,4.1c15.1,0.5,14.1,0.1,32,0.5c14.9,0.3,39.5,1,70.7,3.6c14.5,1.2,9.7,1.1,63.5,7.2
	c33.1,3.7,36,3.9,52.3,5.9c25.1,3,46.2,6.1,62.2,8.6"/>
<path class="st0" d="M79.3,926.4c33.3-1.3,59.6-1,77.8-0.5c11.9,0.3,22.3,0.8,39.9,1c24.6,0.3,36.3-0.4,51.9-0.5
	c26.5-0.2,33.6,2.4,71.1,3.1c18.5,0.4,14.5-0.4,64.3-0.5c16.2,0,16.1,0.1,32.2,0c16-0.1,27.6-0.2,58.1-0.5
	c45.7-0.5,43.3-0.5,45.1-0.5c17.6,0,49.5-0.1,89.2,2.1c17.1,0.9,30.4,2,57.1,4.2c17.3,1.4,33.1,2.7,54.5,4.7
	c43.6,4.1,53.7,5.9,73.1,3.6c17-2,13.8-3.9,31.1-5.7c11.3-1.2,16.7-0.8,67.4,1.6c17.3,0.8,24,1.1,34.8,2.1c15.3,1.4,26.1,3,30.6,3.6
	c23.8,3.3,29.8,1,73.7,2.6c40.4,1.4,49.6,3.8,85.6,4.7c3.4,0.1,13.6,0.3,27.5,1c14.5,0.8,24.6,1.3,34.2,2.6
	c11.5,1.5,27.8,4.9,47.2,13"/>
<path class="st0" d="M84,988.7c19.5-0.2,39.6,0,60.2,0.5c13.7,0.4,10.6,0.5,39.4,1.6c46,1.7,46.9,1.2,58.1,2.6
	c13.5,1.7,20,3.4,35.3,4.2c4.5,0.2,9.2,0.3,25.9,0c24.7-0.4,39.9-1,39.9-1c64.7-2.4,73.7-2.2,79.9-2.1c23.4,0.6,17.4,2.1,39.9,2.6
	c26.6,0.5,39.7-1.6,76.8-2.1c20.3-0.3,16.1,0.6,26.5,0c28.1-1.5,36.1-6.8,57.1-4.7c9.4,1,8.1,2.1,23.3,4.2
	c16.1,2.2,28.1,2.4,35.8,2.6c50.4,1.2,47.8,3.7,64.8,2.6c18-1.1,17.8-3,38.9-4.2c6.1-0.3,13.1-0.5,40.5,0c22.1,0.4,39,1,55.5,1.6
	c48.2,1.6,45.8,1.4,47.7,1.6c51.2,3,52.3,11.2,91.8,13c32.3,1.4,31.1-4.1,78.3-3.1c23.4,0.5,43.9,2.3,53.4,3.1
	c20.7,1.8,38.6,4.1,52.9,6.2"/>
<path class="st0" d="M80.7,1053.2c19.7,0.3,48.1,0.8,82.4,2c17.4,0.6,30.6,1.1,50.8,2c63.5,2.6,70.1,3.5,97.6,3.9
	c12.4,0.2,31.7,0.5,57.2,0c35.2-0.7,45.5-2.3,82.4-3c19.5-0.3,33.5-0.2,51.3,0c26.6,0.3,54.7,0.6,87.8,2.5
	c54.1,3.1,50.5,6.4,90.7,7.4c1.6,0,25.9-0.1,74.5-0.5c23.4-0.2,37.1-0.3,57.2,0c15.2,0.2,27.1,0.6,41.9,1c23.5,0.7,37.6,1.3,56.2,2
	c35.7,1.3,33,1,74.5,2.5c67.1,2.4,65.2,2.9,95.2,3.5c23.5,0.4,33,0.2,60.2,1c21.7,0.6,39.5,1.4,51.3,2"/>
<path class="st0" d="M79.1,1122.4c33.5,2.1,60.6,2.5,78.9,2.5c37.7,0,43.7-1.7,82.4-1c22.2,0.4,31.9,1.2,61.7,1.5
	c21.6,0.2,32.4,0.4,46,0c28.6-0.8,36.1-2.5,67.3-3c6.6-0.1,17.7-0.2,31.4,0c9.9,0.2,30,0.7,60.2,3c41.3,3.2,38,4.9,62.7,6.1
	c27.3,1.2,27.2-1.1,59.7,0c26.8,0.9,30.1,2.5,57.7,3.5c24.9,0.9,35.3,0,55.1,0c7.2,0,43,0.8,90,5.6c38.2,3.9,33.7,5.4,52.6,6.1
	c30.6,1,39.1-3.1,77.9-2.5c19.4,0.3,17.4,1.3,43,2c27.9,0.7,43.4-0.2,65.2-0.5c30.7-0.5,30,1,80.4,1.5c24.1,0.2,25,0,31.9,0.5
	c29.1,2,52.3,8.8,67.3,14.2"/>
<path class="st0" d="M54,1186.1c30.3,2.8,55.1,3.5,72.2,3.7c16.8,0.2,21.2-0.2,79.6-1.1c27.2-0.4,41.1-0.6,52.4-0.5
	c33.2,0.2,49.9,0.4,70,2.1c30,2.6,42.5,6,62.5,1.6c4.4-1,10.6-2.6,20.3-3.7c13.1-1.5,23.5-1,35.8,0c36.4,3,36.4,6,57.7,6.4
	c19.1,0.4,18.4-2,37.9-1.1c15.7,0.8,22.1,2.6,35.8,1.6c12.8-1,20.9-3.6,27.8-5.3c18.9-4.7,34.1-3.3,64.1-1.6
	c12.7,0.7,14.1,1.2,54,5.3c25.4,2.6,38,3.9,48.6,4.8c66.3,5.6,69.8-1.8,116,4.8c21,3,29.7,5.9,49.7,5.9c18.1,0,24.7-2.3,43.8-1.1
	c18.1,1.2,22.2,3.9,37.9,5.9c23.6,2.9,33.1-1,59.9-2.7c18.5-1.2,21.6,0.2,73.8,3.2c18.8,1.1,46.7,2.5,81.2,3.7"/>
<path class="st0" d="M73.2,1251.8c12.8-1.3,32.6-2.6,56.8-0.7c21.1,1.6,28.8,4.4,47.6,6.4c29.1,3.2,32.2-1.1,76-1.4
	c49.2-0.4,48,4.9,89.4,2.8c19-0.9,30.3-2.6,53.2-2.1c19.7,0.4,31.5,2.1,46.1,3.5c23.3,2.3,63.4,2.8,83.8,2.8
	c50,0.2,49.7,2.4,106.5,3.5c37.3,0.8,38.3-0.3,60.3,0.7c20,0.9,19.5,1.9,41.2,2.8c20,0.9,20.1,0.1,44,0.7c31.8,0.9,55.1,3,61,3.5
	c13.4,1.3,11.8,1.4,27,2.8c20.2,1.9,33.9,3.1,50.4,2.8c15.3-0.3,14.3-1.5,29.8-2.1c13.4-0.5,21.5,0.1,59.6,3.5
	c46.5,4.2,48.5,4.5,56.1,4.3c21-0.6,23.1-3.3,44.7-3.5c13.4-0.2,22.4,0.7,47.6,3.5c25.5,2.9,48.1,5.5,67.4,7.8"/>
<path class="st0" d="M59.7,1320.7c15.9,2.4,39.6,5.6,68.9,7.8c13.5,1,26.8,1.6,53.2,2.8c30.8,1.4,48.8,2.2,73.8,2.8
	c37.5,0.9,44.9,0.3,68.9,2.1c13.8,1.1,17.5,1.7,29.1,2.1c22.1,0.7,30.4-1,52.5-1.4c23.4-0.4,20.7,1.4,46.1,1.4
	c27.5,0,29.4-2.2,60.3-2.8c18.6-0.4,16.4,0.4,54.7,0.7c28.7,0.2,33-0.2,56.8,0c32.4,0.3,33.7,1.8,56.1,1.4c21-0.3,24-1.4,43.3-1.4
	c20.3,0,32.9,1.3,46.1,2.1c28.4,1.9,50.8,1,79.5,0.7c28.7-0.3,28.6-0.9,46.1-0.7c24.2,0.3,31.9,1.6,58.2,2.8
	c37.4,1.8,33.3-0.2,73.1,1.4c7.4,0.3,29.2,1.6,72.4,4.3c15.7,1,28.6,1.7,34.8,2.1c25.6,1.6,64.4,4.5,120,9.9"/>
<path class="st0" d="M49,1397.3c36.3,1,65.7,0.6,85.9,0c21.3-0.6,24.8-1.1,58.2-2.1c19.2-0.6,43.8-1.3,73.1-1.4
	c36.9-0.1,35.5,0.9,62.5,0.7c52.9-0.3,63.8-4.2,105.8-4.3c37.9,0,39.9,4.9,76,4.3c28.5-0.5,32.3-3,59.6-2.8
	c34.4,0.2,35.5,4.3,70.3,5c33.3,0.7,34.8-3,71.7-2.1c14.5,0.3,27.8,1.4,53.9,3.5c39.2,3.2,46.2,6.4,67.4,6.4
	c23.2,0,30.8-8.3,53.2-5.7c9.9,1.2,13.9,3,27.7,4.3c16.4,1.5,27.2,0.5,37.6,0c34.8-1.7,35.4,4,76.7,3.5c26-0.3,24.4-2.5,48.3-2.1
	c23.2,0.3,28.2,2.5,56.8,4.3c31.1,2,34.9,0,61,1.4c16.2,0.9,39.9,2.9,68.9,8.5"/>
<path class="st0" d="M52.6,1471.9c28.1-3.1,52.5-6.7,72.4-9.9c31-5.1,38.9-7.4,56.8-8.5c29-1.8,28.3,3,72.4,5
	c41.7,1.8,56.6-1.9,100.1,2.8c4.1,0.4,11.5,2.5,22,2.8c18,0.5,28.2-3.6,41.2-5.7c20.9-3.3,24.1,4,47.6,2.8c12.2-0.6,14.7-2.5,30.5-5
	c21.2-3.3,23.6,1.5,61,2.1c22.2,0.4,40.9-0.9,47.6-1.4c18-1.4,23.8-2.8,41.9-3.5c12.2-0.5,18.9-0.2,34.1,0c49.4,0.7,46.1-1.9,57.5,0
	c20.1,3.4,24.1,8.8,46.8,10.6c9.1,0.7,14.4,0.3,24.8,0c17.6-0.5,21.2,0,61.8,0.7c47.6,0.8,71.5,1.2,101.5,0.7
	c33.8-0.6,37.5-1.6,66-1.4c18.1,0.1,26,0.6,53.9,0.7c25.6,0.1,26.8-0.3,40.5,0c23,0.4,37.3,1.8,59.6,3.5c18.2,1.4,44.3,3.3,76.7,5"
	/>
<path class="st0" d="M49.8,1530.8c17.7,2.8,44.7,5.5,77.4,2.1c24.3-2.5,29.7-6,57.5-9.2c28.1-3.2,48.5-2.6,83.8-1.4
	c50.2,1.6,56.1,5.3,89.4,3.5c26.6-1.4,24.9-3.8,53.2-5.7c39.7-2.6,57.4,1.2,95.1,2.1c44,1.1,48.3-4.5,91.6-4.3
	c23,0.1,44.6-0.2,71,4.3c7.2,1.2,6.9,1.6,11.4,2.1c21.5,2.8,37.6-2.1,46.8-4.3c9.3-2.2,26.3-1.7,60.3-0.7c33.5,1,39.7,3.3,73.1,5
	c26.5,1.3,27.5,0.1,66,0.7c16.1,0.3,17.2,0.5,122.1,5c23.1,1,42,1.8,68.1,1.4c14.5-0.2,25.8-0.7,41.9-1.4c24.7-1.2,59.1-3,101.5-5.7
	"/>
<path class="st0" d="M61.8,1601.2c21.9,2.2,39.3,1.3,51.2,0c16.9-1.8,25.1-4.5,43.5-6c17.5-1.4,17.8,0.6,41.8,0
	c16.3-0.4,28.3-1.5,48.6-3.4c27-2.5,25.7-3.2,40.1-4.3c22-1.6,24.6,0.1,60.6,0c43-0.1,40.6-2.6,61.4-0.9c21.9,1.8,27.8,4.7,47.8,4.3
	c14.6-0.3,15.5-2,38.4-4.3c26.8-2.7,47.7-2.6,58-2.6c12.7,0.1,26.3,0.9,52.9,2.6c21.5,1.3,31.4,6,49.5,3.4c12.4-1.8,11.6-3.9,24.8-6
	c17.8-2.8,24.9,0.2,50.4,1.7c16.2,0.9,13-0.3,51.2,0c17.6,0.1,30.5,0.5,42.7,0.9c64.2,1.8,62,4.4,93.9,4.3
	c35.5-0.1,37.9-3.3,84.5-3.4c21.6-0.1,29.7,0.6,46.1,0.9c26,0.4,63.6-0.3,110.9-6"/>
</svg>
