<svg id="Layer_1" data-name="Layer 1" xmlns="http://www.w3.org/2000/svg" xmlns:xlink="http://www.w3.org/1999/xlink" viewBox="0 0 3066.88 4032"><defs><style>.cls-1{fill:none;stroke:#1d1d1b;stroke-miterlimit:10;stroke-width:6px;}</style></defs><title>paper_2</title><image width="4032" height="3024" transform="translate(3024 0) rotate(90)" xlink:href="paper_2.jpg"/><path class="cls-1" d="M179.28,98.25a1368.28,1368.28,0,0,0,142.89,22.56c56,5.83,98.43,6.76,144.76,7.52,121.21,2,189.18,1.44,253.81,1.88,160.17,1.08,141.37,7,291.41,7.52,116.1.37,138.88-3.16,242.52,0,45.12,1.37,68.74,3,156,5.64,72.73,2.23,91.31,2.17,148.52,3.76,121.33,3.36,142.76,6.53,233.13,9.4,104,3.31,91.52-.38,246.28,1.88,202.58,3,203.8,9,310.21,5.64,52.16-1.63,91.48-4.32,163.57-3.76,77,.6,98.31,5.81,152.28,5.64,45.9-.14,112.95-3.72,195.53-20.68" transform="translate(0 0)"/><path class="cls-1" d="M48.29,229.86c31.59,6.25,64.67,12,99.19,17,65.92,9.56,101.49,15.1,146,15.59,58.95.65,56.89-8,140.29-12.75,37.23-2.13,52.27-1.25,153,0,128.39,1.58,107.67.19,163,1.41C924.6,255,920.16,264.22,994.87,258.2c49.42-4,78.81-10.24,141.7-9.92,46.83.24,96.41,4,99.2,4.25,65.75,5.13,77,10.62,116.19,8.5,44.61-2.41,43.32-10.22,83.61-11.33,45-1.24,53.53,8.31,111.94,14.17,11.43,1.14,46.51,1.25,116.2,1.41,63.76.16,95.64.23,119,0,75.9-.73,76.08-2.23,109.11-1.41,58.6,1.44,77.24,6.62,126.12,9.92,25.24,1.7,70.21,0,160.12-2.84,119.44-3.82,134.66-6.4,177.13-2.83a590.54,590.54,0,0,0,59.52,2.83c39.08-.24,44.45-4.41,89.27-7.08,38.62-2.31,70-4.18,110.53,1.41,25.56,3.53,32,6.88,53.85,7.09,23.55.23,28.22-3.56,70.85-9.92a799.5,799.5,0,0,1,87.85-8.5c1.77-.07,17.71,0,49.6,0h18.42c16-.14,40-2.49,73.69-12.76" transform="translate(0 0)"/><path class="cls-1" d="M32.91,350.83c23.54,5.9,94.83,18.76,126.4,21.1,27.56,2,28.84-1.53,57.13.89,29.15,2.49,40.88,6.75,74.11,8,8.2.32,18.89.71,33,0,32.25-1.6,43.73-7,70.53-9.82,10.82-1.15,26.26-.76,57.14,0,67.65,1.68,63.39,4.79,92,3.57,36.65-1.56,44-6.69,79.46-5.35,19.51.74,20.53,2.41,44.64,4.46,37.35,3.18,56.46,1,106.24,0,52.17-1,42.79,1.07,83,0,64.83-1.72,79.83-6.77,125-5.36,39.34,1.23,41.84,9.28,73.2,7.15,19.64-1.34,28.42-4.67,52.68-5.36,24.53-.69,41.07,2,54.46,3.57,29.56,3.49,32.27.23,105.34-.89,75.79-1.16,113.68-1.74,135.71,2.68,15.39,3.09,35.37,8.28,64.28,7.14,21.75-.86,25.88-4.41,50-7.14,28.94-3.28,30.18,1,85.71,1.78,22.86.32,48,.66,81.24-1.78,23.1-1.71,25.29-2.93,38.39-2.68,33.4.64,39.16,9,68.74,11.6,32.54,2.87,32.69-6.62,73.21-5.35,26.16.82,27.2,4.81,58,7.14,24.37,1.84,37.12.37,76.78-1.79,42.65-2.31,67.75-3.67,92-3.57,60.2.26,57,9.32,115.17,10.72,45.83,1.1,47.63-4.52,125.88-5.36,33-.35,49.94-.48,68.74,1.79,49.43,6,54.39,17,88.39,16.07,31.12-.83,31.89-10.19,77.62-14.63,14.64-1.42,29.94-1.29,60.55-1,58.87.51,56.32,3.07,84.15,2.06,42.4-1.55,75.47-8.48,93.39-12.32,22.2-4.76,40.87-10.1,55.06-14.61" transform="translate(0 0)"/><path class="cls-1" d="M115.86,500.92a1214.85,1214.85,0,0,0,144.58,9.43c54.62.31,58.85-4.12,130.44-6.28,87.33-2.64,95.81,3,190.17,0,43.08-1.36,40.23-2.5,102.15-4.72,85.52-3.06,82.27-.58,133.58-3.14,101.61-5.07,105.07-14.33,160.31-9.43,33.13,2.93,46.18,7.53,84.86,7.86,36.69.31,49.61-3.62,88-4.72,36-1,39.79,2,97.44,4.72,22.41,1.05,65.23,1.22,150.87,1.57,61.11.24,84.08.09,95.87,0,48.52-.39,72.78-.59,92.72-1.57,69.39-3.42,83.76-10.14,132-9.43,33.22.49,29,4.13,81.73,7.86,31.48,2.22,50.36,2.34,116.29,3.14,49.26.6,86.29.78,119.45,1.57,60.84,1.44,73.57,3.07,133.58,4.71,50.23,1.38,64.65.15,117.87,1.58,58.25,1.56,51.78,3.16,81.72,3.14,67,0,76.56-7.69,127.3-6.29,50.08,1.39,45.22,9,102.15,12.58,16.27,1,39.05,1.83,136.73-4.72,31.18-2.09,72.95-5.12,122.58-9.43" transform="translate(0 0)"/><path class="cls-1" d="M26.71,629.65c57.51,3,104.5,5.14,137.08,6.58,67.77,3,99.26,3.95,114,4.38,26.2.76,76.85,2.24,120.62,2.19,128.08-.12,129.73-13.08,246.74-13.15,60.06,0,84.74,3.33,153.53,0,54.84-2.66,46.43-5.49,96.5-7.68,72.07-3.15,93.64,2.17,186.42-1.1,16.36-.57,19.82-.88,54.83-2.19,51.52-1.92,93.41-3.09,102-3.29,54.56-1.25,111.68,5.81,225.9,18.64,6.8.77,24.68,9.38,47.16,5.49,13.2-2.29,20.07-7,29.6-11,24.07-10,42.11-5.48,75.67-3.29,7.23.47,37-.42,96.5-2.19,63.38-1.9,57.9-3.9,94.31-4.39,58.51-.78,73.16,4.39,144.75,6.58,28.37.87,24.09-.35,99.79,0,52,.24,66.73.69,85.54,2.19,43.07,3.44,43.91,7.29,71.28,7.68,36.79.52,51.12-6.22,88.83-11,38-4.79,36.31.5,104.17-1.09,55.59-1.31,64.27-4.7,120.63-6.58,40.27-1.35,75.2-.94,103.08,0" transform="translate(0 0)"/><path class="cls-1" d="M28.12,752.42c90-.39,162.91,4.1,214.45,8.53,97.38,8.37,126.42,17.2,181.56,6.1,18.59-3.75,53.27-12.4,103.57-14.63a539.65,539.65,0,0,1,67,1.22c103.12,7.66,195.49,2.81,235.17,1.22,77.4-3.1,68.09-7.62,130.37-8.53,82.34-1.21,87.47,6.85,163.28,6.09,94-.93,93.35-13.38,176.68-11,71.78,2.08,74.41,11.39,135.25,8.53,42-2,65.72-7.6,117-4.88,36.27,1.93,36.61,5.39,67,6.1,51.6,1.2,61.63-8.51,114.53-12.19,51.56-3.58,45.86,5.37,127.94,4.87,60.38-.36,61.38-5.19,95-1.21,30.2,3.56,48.29,9.68,87.73,11a446.88,446.88,0,0,0,48.74-1.22c53.27-3.51,57.15-.86,146.22-3.65,112.85-3.54,116.76-8.12,193.74-8.53,49.32-.26,75.82,1.47,108.44,2.44,65.82,2,161.43.94,285.12-13.41" transform="translate(0 0)"/><path class="cls-1" d="M63.54,866.78c117.94,7.94,222.47,11.08,310.31,11.88,153.71,1.42,276.76-4.09,302.39-5.28,118.13-5.48,169-12,232.41-2.64,17.75,2.64,55.48,9.34,107,7.92,26-.71,35.52-2.94,67.34-4,45.65-1.45,78.79,1.47,95.08,2.64,54,3.91,102.07,1.37,198.07-2.64,80.52-3.36,96.53-6.89,137.33-1.32,26.38,3.61,40.88,8,71.31,9.25,44.36,1.85,73.51-5,100.35-9.25,42.37-6.78,92.51-4.52,192.79,0,63.61,2.87,66.73,5.51,143.93,9.25,0,0,65.28,3.15,132.05,4,110.25,1.33,189.35-5.43,306.35-13.21,65.47-4.35,161.86-10.28,281.27-15.84" transform="translate(0 0)"/><path class="cls-1" d="M231.12,973.88A1171,1171,0,0,0,391.9,996.67c92.91,6.6,178.55,1.37,263.32-3.8,15.19-.92,47.41-3,91.15-2.53,31.62.37,52.15,1.91,83.56,3.8,0,0,38.12,2.29,135.46,6.33,23,.95,52.15,2,182.3,3.8,116.63,1.63,205.54,2.38,222.81,2.53,99.24.82,148.85,1.24,200,1.26,133.83.07,146.15-2.23,308.9-3.79,125-1.2,232.89-2.14,372.2,1.26,89.09,2.18,125.58,10.6,205.09,7.6,91.22-3.44,132.08-14.25,212.68-22.79,69.11-7.33,168.08-13.06,291.18-3.8" transform="translate(0 0)"/><path class="cls-1" d="M6.26,1138c77.15,7.88,139.79,9.91,182.26,10.34,78,.79,92.55-3.79,195.19-2.58,64.88.76,79.17,2.82,129.27,1.29,62.85-1.93,75.84-6.26,131.85-9,91.31-4.55,89.85,5.32,177.09,2.59,93.36-2.93,97.13-14.3,197.78-16.81,43.38-1.08,76.32.19,138.31,2.59,61.72,2.38,72.12,4.2,156.42,9,148.85,8.56,224.29,12.66,274,3.88,14.54-2.56,39.41-7.59,75-9,49.12-2,73,4.68,111.17,7.76,53.59,4.32,51-5.26,164.17-12.93,33.73-2.28,71.6-3.24,147.36-5.17,67.88-1.72,119.4-2.34,140.9-2.58,194.37-2.24,232.67-1.31,302.48-2.59,71.84-1.31,175.27-4.92,302.49-15.51" transform="translate(0 0)"/><path class="cls-1" d="M55.4,1275.62c117.19,7.94,193.91,5.27,243.18,1.09,9.62-.82,27.35-2.47,54.53-4.37,38.67-2.69,70.65-4.07,151.58-6.54,58.89-1.79,88.34-2.59,116.68-3.27,82.77-2,122.09-2.5,292.26-5.45,99.53-1.73,113.76-2,147.22-2.18,76-.35,101,.76,162.49,1.09,140.87.74,141.43-4.39,285.71-4.36,103.09,0,113.31,2.63,203.93,1.09,53.62-.92,99.07-1.69,161.39-5.46,49.77-3,64.09-5.13,108-6.54,53.2-1.72,75.79,0,125.41,0,69.64,0,90.46-7.48,154.86-5.45,26.46.83,44.57,2.42,55.61,3.27,23.91,1.83,93.29,6.17,280.26-8.73,71-5.65,159.48-14.12,261.73-27.26" transform="translate(0 0)"/><path class="cls-1" d="M42.17,1415.46c29.36,2,73,4.4,126.2,5.58,42.61,1,51.56.2,130.67,0,131.14-.32,159.61,1.61,231.18-2.23,23.64-1.27,34.45-2.23,78.18-5.59,172.49-13.24,183.53-12.56,266.92-19,148.15-11.42,130.14-12.5,168.64-13.4,80.64-1.9,114.88,3.88,208.84,4.46,30.84.19,74.17-1.41,160.83-4.46,236.39-8.34,231.37-12.19,299.3-10.06,49.52,1.56,85.35,4.65,149.66,2.24,44.92-1.68,53.16-4.15,103.86-5.59,68.71-1.94,72.71,2.06,131.79,0,57.12-2,66.69-6.18,124-8.93,50.07-2.41,74.18,6.19,126.2,0,32.44-3.86,26.85-6.52,53.61-8.94,57.72-5.21,78.62,7.6,129.55,3.35,34.69-2.88,26.29-9.34,68.13-14.51,39.46-4.88,80.78-10,109.45,1.11,3.57,1.39,10.81,4.52,20.1,3.35,13.17-1.65,18.6-10.49,30.15-16.75,13.64-7.39,26.22-6,40.21-5.58,50.59,1.49,62.78-11.54,136.25-11.17a629.83,629.83,0,0,1,88.15,6.7" transform="translate(0 0)"/><path class="cls-1" d="M41.23,1532.57a637.5,637.5,0,0,0,123.11,8.11c29-.89,43.63-3.3,74.4-5.41,38.26-2.61,62.27-2.08,142.05,0,185.16,4.83,211.7,6,263.8,2.71,30.37-1.9,36.51-3.24,63.58-4.06,74.36-2.26,102.27,5.56,158.28,4.06,47.24-1.27,45.88-9.43,108.23-13.53,37.72-2.48,40.27-.27,83.87-2.71,70-3.91,65-9.71,115-10.82,41.75-.93,57.35,2.84,113.64,0,24.88-1.26,21.4-2,39.23-2.7,69.81-2.88,91,9.41,144.75,8.11,44.1-1.06,31.65-9.37,90.64-13.53,44.57-3.14,60.67,1,124.46-2.7,31.22-1.8,28.3-2.84,55.46-4.06,48.38-2.17,66.64.72,102.81,0,40-.8,44.5-4.87,96-9.47,64.27-5.73,59.75.39,161-4.06,73.46-3.23,110.19-4.84,132.58-10.82,8.19-2.19,24.11-6.88,46-6.76,26.77.14,35.82,7.33,58.17,9.47,29.24,2.79,39.88-7,73.05-13.53,37.57-7.37,45.74.94,100.11,1.35,47.81.36,38.18-6.09,132.58-13.53,61.1-4.81,97-4.63,119-4.06,24.76.64,31.77,1.77,52.75,2.71a884.84,884.84,0,0,0,142.05-5.41" transform="translate(0 0)"/><path class="cls-1" d="M27.9,1645.16a780.8,780.8,0,0,0,119.55,12.77c49.57,1.39,67.14-3,148.56-4.65,18.63-.38,47.49-.26,104.45,0,104.09.48,156.14.71,174.1,1.16,115.73,2.91,138.23,9,196.15-1.16,28.59-5,34-8.36,66.15-12.76,52-7.13,81.15-4.23,141.6-3.49,51.82.64,88.69-.78,159-3.48,77-3,82.45-5.32,134.63-5.8,62.6-.57,62.1,2.77,120.7,2.32,35.19-.27,91.76-.87,162.49-9.28,69.1-8.23,80.6-15.45,130-15.09,46,.33,42.82,6.63,92.85,7,70.62.47,76.8-12.05,130-5.8,30.94,3.63,42.54,9.48,76.61,9.28,24.18-.13,27-3.13,63.83-7,57.66-6,62.29.13,114.9-5.8,40-4.52,40.14-8.38,73.12-10.45,36.15-2.27,48.11,1.61,82.41,2.32,49.88,1,61.57-6.39,123-11.6,27.35-2.33,57.69-2.33,117.23-2.33,45.72,0,106.47.54,178.92,2.64" transform="translate(0 0)"/><path class="cls-1" d="M123.41,1774.79c91.81,19.69,156,16.46,198.87,9.13,14.6-2.5,44.6-8.54,87.57-11,45.38-2.54,78.34.47,96.7,1.82,31.66,2.33,103.82,3.34,187.92-3.65,37.86-3.14,31.39-4.27,83.93-9.12,20.41-1.88,68.12-6,146-9.12,110.89-4.42,95.17.75,153.25-3.65,81.29-6.15,94.88-15,156.91-12.77,37.69,1.33,46,5.06,82.1,3.65,48.19-1.89,63.84-9.72,105.82-11,37.82-1.11,47.34,4.58,93,9.12,55.69,5.53,55.78-1.51,184.27-3.65,62.63-1,94-1.56,133.19,0,44.84,1.79,55.84,4.1,85.75,1.83,42.58-3.23,54-10.46,93-11,35.23-.44,36.86,5.3,74.8,7.3,51,2.68,68.35-6.61,124.07-10.95,45.18-3.51,48.22,1.55,113.12,1.83,43.81.18,79.06-2.31,147.78-7.3,116.68-8.48,174.85-15,198.87-18.25,68.45-9.37,75.13-13.78,116.77-16.42a660.93,660.93,0,0,1,147.78,7.3" transform="translate(0 0)"/><path class="cls-1" d="M224.4,1924.89c57.78-6.46,101.51-3.82,131.36,0,14.08,1.8,28.57,4.31,51.84,5.18,32.75,1.23,50.88-2,85.56-5.18,26.68-2.45,17.17-.66,102.83-5.19,82.34-4.35,72.89-5,103.7-6,71.13-2.31,77,2.84,140.86.87,51.14-1.59,46.17-4.86,121-9.51,16.88-1,35.15-2,150.36-5.18,118.13-3.26,105.11-2.43,128.76-3.46,106-4.6,106.87-10,175.82-10.36,60.92-.32,72.39,3.82,127.13,1.3,37.06-1.72,53.61-5.75,111.56-11.68,13.92-1.42,56.86-6.86,109-9.08,31.39-1.34,32.24-.18,118-1.3,24.32-.31,46-.6,73.94-1.29,5.59-.14,53.08-1.35,106.37-3.9,109.46-5.22,165-12.32,323-22,60.73-3.73,98.41-5.51,120.64-6.48,36.56-1.61,52.13-2,102.48-3.9,62.81-2.42,111.53-4.69,121.93-5.18,47.95-2.29,135.63-7.7,271.11-22.06" transform="translate(0 0)"/><path class="cls-1" d="M19.12,2068.27c188.38,2.65,312.36-3.39,392.23-9.72,28.73-2.28,69.57-6,129.65-8.11,96.86-3.38,116,1.94,205.84-1.62,69-2.73,75.71-6.58,158.83-11.34,71-4.07,103.32-.28,179.91-4.87,28.94-1.73,51-5.7,97.24-8.1,19.12-1,33.55-1.39,42.14-1.62,105.59-2.81,170.18-3.24,170.18-3.24,96.18,0,121.62,5.72,189.63-1.62,25-2.7,29.79-4.62,47.32-6.4,26.73-2.71,34.07-.13,63.09-.77,27.35-.6,44.07-3.41,66.16-6.15,25-3.11,61-5.15,133.08-9.23,100.08-5.77,178-8.08,195-8.57,84.07-2.42,95.48-1.09,142-4.49,44.79-3.27,80.54-5.8,128.53-14.94,48.63-9.27,53.77-14.6,92.66-19.43,42.42-5.27,59.8-1.85,107.61-3,62.6-1.5,85.51-8.64,127-12,47.14-3.77,115-2.36,201.77,22.42" transform="translate(0 0)"/><path class="cls-1" d="M86.59,2206.4a1275,1275,0,0,0,182.11-2.94c40.11-3.57,50.33-6.5,111.62-11.75,51.92-4.44,94.5-6.62,138.05-8.81,50.44-2.53,63.11-2.52,107.21-4.4,204.74-8.75,238.27-21.58,323.11-10.28,16.35,2.17,34.18,5.19,61.68,5.87,48.05,1.19,75.19-6,132.18-13.22,26-3.29,50.1-5.13,98.4-8.81,80.33-6.12,142.54-7.43,213-8.81,77.14-1.51,70.77,0,139.52-1.47,82.13-1.79,125.95-2.75,182.11-7.34,112.6-9.21,122.74-20.59,237.92-27.91,54.93-3.49,103.75-4.14,124.84-4.4,67.61-.83,75.93,1.59,151.27,1.47,35.21-.06,93.58-.24,166-4.41,47.07-2.71,52.21-4.35,139.53-11.75,66-5.59,127.68-10.81,199.73-14.69,51-2.74,119-5.43,199.74-5.87" transform="translate(0 0)"/><path class="cls-1" d="M34.28,2343.8q126-3.54,257.81-12c25.65-1.66,55.05-.42,95.62-6.83,36.69-5.8,43.56-10.7,75.12-13.66,37-3.48,48.82,1.28,90.49,1.71,43.6.45,46.5-4.59,105.86-8.54,58.18-3.87,68,.14,134.88-1.71,49.83-1.37,66.35-4.2,126.34-8.53,143.76-10.38,138.26-.58,254.4-10.25,75.15-6.25,103.63-12.53,177.56-13.66,34.59-.52,39.32.69,87.08,0,18.27-.26,75.5-1.27,157.08-6.83,100.81-6.86,89.19-10.46,141.71-12,87-2.46,85.84,8.36,160.49,3.42,45.62-3,56.55-7.76,131.47-13.66,34.07-2.69,57.77-3.75,87.07-5.12,154.73-7.24,139.93-7.76,239-11.95,132.91-5.63,146.35-.35,196.35-6.83,14.82-1.93,39.28-5.62,73.41-5.13,35,.51,42.81,4.87,76.84,5.13,27.54.2,37.53-2.54,80.24-6.83,16.9-1.7,56.49-5.19,97.32-6.83,24.13-1,58.63-1.66,100.73,0" transform="translate(0 0)"/><path class="cls-1" d="M82.13,2486.27c39.16-2.67,101.19-6.77,177.84-11.26,102.68-6,130.25-6.79,198.11-11.26,117-7.7,115.46-10.68,220.62-18,83.57-5.82,87.89-4.17,283.66-13.5,132.69-6.33,122.95-6.72,222.87-11.26,117-5.32,147-5.54,294.91-11.26,52.74-2,181.38-7,312.93-13.5,153-7.53,327.82-18.92,348.94-20.26,49.68-3.16,115.77-7.47,207.11-11.26,70.54-2.93,105.81-4.39,144.08-4.5,107.61-.32,134.71,6.69,225.13,2.25,46-2.26,50-4.62,108.05-9,87.69-6.62,162.72-7.59,220.63-6.75" transform="translate(0 0)"/><path class="cls-1" d="M46.24,2620.94c88.17-1.6,209-5.11,353.31-13.41,99-5.7,102.28-7.61,241.51-15.66,117.1-6.76,224-12.83,362.25-15.65,84.69-1.73,84.82-.27,140.88-2.24,117.6-4.12,165.38-14.69,281.75-22.36,128.29-8.45,117.9,4.57,187.83-6.71,49.5-8,82-18.62,136.41-13.41,24.65,2.35,41.58,6.79,76,6.71,35.56-.09,51.22-4.89,85-8.95,55.55-6.68,66.25-.06,136.4-2.24,47-1.45,52.63-4.74,125.23-11.18,65.62-5.81,74-4.28,199-11.18,136.32-7.52,132.38-9.68,187.84-11.18,55.19-1.49,123.12-1.07,201.25,4.48" transform="translate(0 0)"/><path class="cls-1" d="M193.84,2742.06c200-16.68,344-24.47,440.3-28.49,48.53-2,122.91-4.68,246.05-10.36,44.82-2.06,93.82-4.43,170.94-7.77,52.5-2.27,95.63-4,124.32-5.18" transform="translate(0 0)"/><path class="cls-1" d="M197.83,2931.28c65.82-6,215.44-19.47,278.85-25.17C615,2893.66,649,2890.66,701.32,2886.74c121.3-9.08,150.59-8.83,242.06-15.49,48.15-3.51,38.89-3.65,290.47-29.05,185-18.67,218.24-21.57,275-21.3,52.83.26,75.81,3,133.62,0,73.67-3.85,101.29-11.73,178.15-17.43,43.68-3.23,71.13-3.38,147.18-3.87,184.6-1.18,276.9-1.78,282.72-1.94,185.69-5.11,240.49-20.18,352.44-15.49,14.28.6,59.21,2.76,120.07,1.94,27-.37,58.94-.8,100.69-3.88,75.37-5.54,85.27-12.52,123.94-11.61,27.48.64,68.21,5.24,118.12,25.17" transform="translate(0 0)"/><path class="cls-1" d="M83.52,3110.89C217,3106.6,312.38,3096,376.29,3086.7c22.25-3.24,69.51-10.51,135.49-16.94,59.36-5.78,76.23-5.23,140.34-9.68,140.35-9.73,141.71-18,256.47-24.19,79.61-4.3,87.84-.8,147.59-7.26,55.28-6,74.87-11.86,135.5-16.94,54.11-4.54,73.09-2.76,116.14-4.84,77.28-3.74,87-14.11,191.14-26.61,35.38-4.25,80-9.52,137.91-12.1,77.64-3.46,86.05,2.07,167,0,70.09-1.79,66.41-6,174.21-12.1,98.61-5.57,94.19-1.62,176.63-7.26,94.1-6.43,97.72-11.43,159.69-12.1,61.19-.65,72,4.08,125.81,0,50.13-3.79,57.15-9.13,108.88-12.09,44.76-2.57,52.32.69,108.88,0,47.38-.58,45.8-2.92,130.66-7.26,44.3-2.27,93.6-4.73,154.85-4.84,46.11-.08,84.41,1.19,111.3,2.42" transform="translate(0 0)"/><path class="cls-1" d="M39.38,3253.64a1365.27,1365.27,0,0,0,144.72-4.75c35.81-3.08,46.43-7,111.51-14.23,25.93-2.87,47.25-4.91,80.67-9.49,17.29-2.38,32.1-4.7,61.68-9.49,76.6-12.41,88.27-16.07,116.25-16.61,27.49-.53,37.37,2.6,64.06,4.74,64.43,5.18,100.27-5.57,166.07-14.23,47.82-6.29,33.4-1.2,175.57-9.49,73.26-4.27,140.46-8.19,223-16.61,112.47-11.47,128.3-18.54,213.52-26.1a1925,1925,0,0,1,213.52-7.11" transform="translate(0 0)"/><path class="cls-1" d="M65.48,3386.49c58.74.06,136.4-.87,227.76-4.74,88.75-3.76,155.06-8.81,225.38-14.24,134.81-10.39,237.47-21.17,282.33-26.09,54.31-6,88.17-11.83,159-19,14.66-1.48,65.61-6.56,137.6-11.87,77.29-5.69,134.12-8.36,156.58-9.48,183.92-9.18,213.92-21.7,415.19-33.22,126.25-7.23,128.24-3.09,263.34-11.86,64.61-4.2,111.9-8.24,192.17-11.86,59.58-2.69,88.16-1.54,163.7-4.75,26.54-1.13,58.9-2.72,128.12-7.12,189.86-12.07,231.35-18.21,348.75-23.72,34-1.6,85.7-3.67,149.47-4.75" transform="translate(0 0)"/><path class="cls-1" d="M143.79,3514.3a551.49,551.49,0,0,0,128.86,0c25.75-3,37.43-6.22,58.75-9.47,69.81-10.65,120.74-3.19,161.08,0,83.4,6.6,151.65-4.75,212.24-11.37,62.83-6.86,68.31-10.82,115.59-13.27,63.36-3.27,80.66,2.44,142.13,0,62-2.45,58.21-8.81,134.55-15.16,84.86-7.05,92.75.54,185.71-5.68,66.32-4.44,60.74-8.2,144-15.16,67.18-5.62,91.51-4.9,181.92-9.48,81.77-4.14,105.72-6.94,176.24-11.37,68.75-4.31,168.49-9.35,293.73-11.37" transform="translate(0 0)"/></svg>