<?xml version="1.0" encoding="utf-8"?>
<!-- Generator: Adobe Illustrator 22.1.0, SVG Export Plug-In . SVG Version: 6.00 Build 0)  -->
<svg version="1.1" id="Layer_1" xmlns="http://www.w3.org/2000/svg" xmlns:xlink="http://www.w3.org/1999/xlink" x="0px" y="0px"
	 viewBox="0 0 1240 1294" style="enable-background:new 0 0 1240 1294;" xml:space="preserve">
<style type="text/css">
	.st0{fill:none;stroke:#000000;stroke-width:6;stroke-miterlimit:10;}
</style>
<image style="overflow:visible;" width="1240" height="1294" xlink:href="processed.jpg" >
</image>
<path class="st0" d="M20.4,60c27.7-3.5,50-3.4,65.1-2.6c23.3,1.2,30.3,3.8,52,2.6c18.7-1,22.2-3.4,45.2-4.7c11.4-0.6,14.4-0.3,42,0
	c9.8,0.1,34.8,0.3,60.9,0c32.5-0.4,31.9-1.2,55.7-1.1c19.1,0.1,24,0.6,43.6,0.5c3.4,0,19.5-0.1,41-1.1c30.6-1.3,34.4-2.7,71.9-5.3
	c37.9-2.5,63-3,68.8-3.2c25.1-0.5,37.7-0.9,44.6,0c10.2,1.3,16.9,3.2,27.8,1.6c9.8-1.4,12.4-4,21-3.7c9.5,0.4,11.9,3.7,21.5,5.3
	c9.8,1.5,16-0.5,24.7-2.1c6.7-1.2,21.5-0.8,50.9,0c25.1,0.7,37.7,1,44.6,1.6c32.6,2.5,32.8,6.3,56.7,7.9c14.2,0.9,12.4-0.5,67.2-3.7
	c27.5-1.6,41.5-2.4,53.6-2.1c17.3,0.4,24.2,1.6,47.8,2.1c15.4,0.3,26.7,0.1,35.7,0c35.1-0.6,80.9-1.3,126.6-2.1"/>
<path class="st0" d="M15.6,106.6c23.7-2,44.4-2.9,61.1-3.3c23.2-0.5,40.5-0.1,45.1,0c19.1,0.5,19.3,1.1,46.1,2.4
	c39.3,1.8,58.9,2.7,69.1,0.5c5.9-1.3,14.4-3.6,26.3-2.8c10.9,0.7,15.5,3.4,24.9,5.2c12.8,2.4,21.1,0.8,38.1-1.4
	c0,0,30.1-3.8,58.8-5.2c24-1.1,45.3-0.2,60.7,0.5c9.8,0.4,15.4,0.8,31,1.4c16.9,0.6,30,0.9,35.7,0.9c18.5,0.3,30.4,0.1,45.6,0
	c23.9-0.2,40.4-0.1,64.4,0c29.6,0.1,44.4,0.1,49.4,0.5c24,1.7,30.9,4.5,51.7,3.8c11.1-0.4,10.2-1.2,31-2.4c16.8-0.9,27-1.5,39.5-0.5
	c14.7,1.2,15.7,3.2,30.6,5.2c17.1,2.3,19.1,0.2,56.9,0c26.9-0.1,28.4,0.9,46.6,0c15.7-0.8,18.3-1.8,30.1-1.9
	c19.3-0.1,24.3,2.4,42.3,3.8c27.8,2,27.6-3.2,62.5-2.4c18.8,0.5,19.9,2,41.9,2.4c16.4,0.2,16.8-0.6,39.5-0.9
	c33.8-0.5,37.9,1.3,54.6-0.5c9.3-1,23.4-3.2,40.6-8.9"/>
<path class="st0" d="M22,149.1c21.1,3.9,38.4,5.5,50.1,6.2c19.3,1.2,23.5,0.1,62,1c26.6,0.6,27.4,1.2,41.8,1
	c23.2-0.3,30.7-1.8,48.5-2.6c25.5-1.1,34.6,1.2,68.7,3.1c15.8,0.9,17.4,0.6,77,1.5c60.5,1,68.3-0.2,83.7,1.5c4.4,0.5,9.4,1.2,17,1.5
	c20.7,1,31.6-1.6,48-2.6c6.2-0.4,17.4,0.2,39.8,1.5c16.5,1,25.6,1.8,41.3,3.1c20,1.6,43.6,3.3,59.4,4.1c9.1,0.5,38.5,1.7,76.4,1
	c25-0.4,28-1.3,42.9-0.5c25.6,1.3,27.8,4.3,50.6,5.2c25.1,0.9,25.7-2.6,51.6-1.5c23.8,1,23.9,3.9,44.9,4.1c17.9,0.2,22.6-1.9,47-3.6
	c21.6-1.5,38.1-1.1,47-1c29.2,0.4,52.1,2.6,57.3,3.1c20,2,19.8,3,30,3.1c21.3,0.3,29.7-3.9,46.5-5.2c11.5-0.9,28.6-0.5,50.1,6.2"/>
<path class="st0" d="M23.1,209.3c28-2.6,57.9-4.3,89.5-4.7c10.4-0.1,22.7,0.2,47.3,0.5c22.5,0.3,32.4,0.6,60.4,1
	c20.2,0.3,19.6,0.2,44.2,0.5c58.4,0.7,87.7,1.1,100.4,2.1c11.4,0.9,24.4,2.1,43.7,2.1c12.8,0,15.7-0.6,28.1-0.5
	c19.2,0.1,29.7,1.6,43.7,2.6c29.8,2.2,35.1-3,57.2,0.5c12.2,1.9,11.5,3.2,21.3,4.2c18.5,1.7,24.7-2.6,43.7-1.6
	c11.7,0.6,10.3,2.3,26.5,4.2c14.2,1.6,23.6,1.3,41.1,1c46.7-0.8,44.1-2.3,54.6-0.5c10.2,1.8,18.6,4.4,33.3,4.2
	c8.6-0.2,13-1.2,19.8-2.1c5.5-0.7,14.9-1.5,52,2.6c36.1,4,35.4,5.7,50.5,5.7c14.9,0,14.3-1.6,37.5-2.6c15.7-0.7,18,0,46.8,0
	c19.5,0,20.7-0.3,45.8-0.5c24.9-0.2,44.7-0.1,49.4,0c21.6,0.2,57.5,2.2,111.9,11.4"/>
<path class="st0" d="M29.7,256.9c22,0.5,44,0.9,66,1.5c37.5,0.9,75,1.9,112.5,2.9"/>
<path class="st0" d="M25.1,306.5c17.8,0.6,45.9,1.4,80.7,1.9c45.7,0.6,53.4-0.1,91.9,0.6c45.1,0.9,48.4,2.1,95.1,3.1
	c39.5,0.9,50.8,0.3,91.3,0.6c69.1,0.6,103.7,1.1,125.7,3.1c30.3,2.7,53.7,6.5,95.7,6.9c19.8,0.2,17.7-0.7,38.8-0.6
	c41,0.1,51.3,3.3,105.7,6.3c36.4,2,37.4,0.9,71.9,3.1c38.5,2.5,42.5,6.7,65.7,5.6c19.7-0.9,29-3.8,54.4-3.1
	c9.3,0.3,10.5,0.7,31.3,1.9c13.9,0.8,30.5,1.7,45,1.9c23.5,0.3,27.4-1.5,68.2-3.8c25.6-1.4,38.4-2.1,51.9-1.9
	c17.9,0.3,43.4,2,74.4,8.8"/>
<path class="st0" d="M26.5,361.1c19,0.3,49,0.8,86.2,1.7c32.6,0.8,40.9,1.2,81.6,2.3c68.9,1.8,63.4,1.2,94.3,2.3
	c38.7,1.4,38.8,2.1,106.9,5.2c56.6,2.6,51.9,1.9,79.3,3.4c65.4,3.8,63.7,6.1,93.1,5.7c38.3-0.4,44.9-4.3,77.6-1.7
	c18.2,1.5,26.5,3.5,48.3,4c22.1,0.5,24.1-1.3,50.6-1.7c19.6-0.3,35.1,0.6,66.1,2.3c30.8,1.7,36.4,2.8,53.5,2.3
	c19.2-0.6,22.9-2.3,39.1-2.9c25.1-0.9,35,2.8,59.8,4.6c17.2,1.3,13.2-0.6,60.4-0.6c16.8,0,25.4,0,35.1,0.6
	c27.6,1.5,30.5,5.3,51.7,6.3c19.9,0.9,23.1-2.1,44.8-2.9c14.6-0.5,35.6-0.1,61.5,5.2"/>
<path class="st0" d="M29.8,418.4c31.3-0.3,56.6-1.6,74.4-2.8c19.4-1.3,33.3-2.6,54-2.1c21.5,0.5,41.3,3.3,47.7,4.2
	c6,0.8,12.2,3.2,21.7,3.5c11.7,0.3,18.7-2,26.7-3.5c10.4-1.9,21.7-0.8,44.2,1.4c30.8,3,29.1,5.5,51.2,7c20,1.4,18.6-0.8,47.7,0.7
	c15.8,0.8,20.5,1.7,37.2,2.1c11.1,0.3,19.3,0.2,31.6,0c21-0.3,23.7-1,44.9-1.4c7.6-0.1,18.7-0.3,33,0c3.8,0.1,19.9,0.5,42.1,2.1
	c28.8,2.1,31,3.7,58.9,6.3c18.4,1.7,41.2,3.8,70.2,3.5c24.9-0.2,23.9-1.9,47.7-2.1c20.8-0.2,25.5,1.1,73,4.2
	c40.7,2.7,61.1,4,76.5,3.5c17.3-0.6,25.9-1.9,46.3-1.4c17.4,0.4,22.7,1.7,42.1,2.8c18.3,1.1,31.1,1,55.4,0.7
	c41.8-0.4,37.4-1.9,71.6-2.1c30.1-0.2,59.5,0.7,82.1,1.4c8.4,0.3,15.4,0.5,20.3,0.7"/>
<path class="st0" d="M36.9,480.9c13.6-1.8,28.8-3,45.4-3.3c26.6-0.5,28.2,4,48.1,2c13.3-1.4,22.1-4,38-2.7c9.7,0.8,9.4,2.8,19.4,3.3
	c10,0.6,16.6-0.9,23.4-2c5.6-0.9,17.5-1,41.4-1.3c13.9-0.2,25.8-0.3,42.1,0c13.2,0.3,36.3,0.8,65.4,3.3c34.7,3.1,33.5,5.2,55.4,6
	c22,0.8,28.7-1.1,57.4-2c26.3-0.8,46,0,62.7,0.7c14.5,0.5,15.1,0.8,76.1,4.7c21,1.3,31.4,2,43.4,2.7c8.1,0.5,30.7,1.8,64.7,3.3
	c7.5,0.4,36.4,1.7,80.8,3.3c40.8,1.5,51.7,1.7,98.1,3.3c51.5,1.8,55.8,0.4,71.4,2.7c6,0.9,15.8,2.5,29.4,2c15.3-0.5,19-3.1,34.7-4.7
	c13.8-1.4,13.6,0.4,42.1,0.7c19.4,0.2,19.3-0.6,42.7-0.7c25.4,0,27.9,0.9,42.1,0.7c12.7-0.2,31.5-1.4,54.7-6"/>
<path class="st0" d="M35.2,532.2c26,0.2,47.1,1.4,61.7,2.5c17.6,1.3,25,2.4,43.5,3.1c11,0.5,14.8,0.4,44.1,0.6
	c25.5,0.2,38.2,0.4,49.8,0.6c26,0.6,33.7,1.5,57.9,2.5c51.8,2.1,50.9-3,71.2,1.3c18.4,3.9,25.4,8.6,41.6,6.9
	c15.4-1.6,17.6-6.8,34-8.2c13.3-1.1,17.1,1.9,40.3,5c8.9,1.2,19.8,1.9,41.6,3.1c26.5,1.6,32.5,1.4,54.8,2.5
	c44.3,2.2,49.2,4.3,88.2,5.7c19.1,0.7,28.6,1,42.2,0.6c38.8-1.1,40.9-5.7,68.6-5c26.5,0.6,28.6,5,57.3,4.4
	c18.6-0.4,20.4-2.2,34.6-1.3c24.3,1.6,27.2,7.6,47.9,8.2c17.3,0.5,16.7-3.6,40.9-5c11.8-0.7,13.6,0.2,46.6,1.9
	c25.1,1.3,37.7,1.9,53.5,1.9c29.2-0.1,28.4-2.2,47.2-1.3c20.9,1,26.5,3.9,52.9,6.9c16.8,1.9,32.6,2.9,47.2,3.1"/>
<path class="st0" d="M41.5,586.6c31.7,2.8,58.7,4.5,79.7,5.6c16.1,0.8,16.4,0.6,49.7,2.1c58.2,2.5,57.4,3.1,78.3,3.5
	c29.6,0.6,27.9-0.6,67.1,0c26.8,0.4,41.6,0.6,62.3,2.1c30.7,2.2,30.2,4.1,56.7,5.6c27.4,1.5,30.4-0.4,58.1,1.4
	c26.6,1.7,24.8,3.5,47.6,4.9c34.1,2,37.5-2.1,70.6,0c20.9,1.3,21.2,3.1,49.7,5.6c16.1,1.4,28.9,2,58.1,2.8
	c27.9,0.8,59.2,1.4,115.4,2.1c24.5,0.3,40.5,0.5,64.3,1.4c16.2,0.6,28.6,1.3,42.7,2.1c23,1.3,32.4,2,75.5,4.9
	c44.2,2.9,66.4,4.4,73.4,4.2c15.2-0.5,29.6-1.8,53.9-0.7c12.7,0.6,16.1,1.3,25.2,1.4c21.1,0.2,39-3.2,52.5-7"/>
<path class="st0" d="M46,656.8c26.1-0.5,47.4,0.1,62.3,0.8c26,1.2,33.4,2.7,59.9,3.1c6.3,0.1,6.3,0,43.6,0c25.9,0,29,0,38.9,0
	c57.1-0.1,53-1.3,78.6-0.8c34.2,0.7,35.8,2.7,74.7,3.1c14.9,0.2,15.7-0.1,42,0c14.9,0.1,34.9,0.2,59.9,0.8c22.1,0.5,46,1.1,77,3.1
	c28.3,1.8,29.3,2.7,53.7,3.9c19.7,1,24.1,0.7,56,1.6c27.2,0.8,24.7,1,64.6,2.3c39.2,1.3,45.6,1.2,73.1,2.3
	c15.3,0.6,27.9,2.2,48.2,2.3c14.2,0.1,14-0.8,31.9-0.8c3.4,0,17.9,0,30.3,0.8c20.2,1.3,22,4.1,46.7,7c6.4,0.8,18.2,2,32.7,2.3
	c18,0.5,21.2-0.9,48.2-1.6c12.1-0.3,24.8-0.6,40.5,0c19.2,0.8,29.2,2.4,43.6,3.9c15.9,1.6,38.8,3.1,67.7,2.3"/>
<path class="st0" d="M42.6,717.7c28.6-0.1,51.6,0.6,67.4,1.3c19.5,0.9,35.6,2,60.7,2c15.7,0,17.9-0.4,33.7-0.7
	c49.7-0.7,53.2,3.2,87.7,2c42.3-1.4,40.1-7.4,66.1-4.7c17.3,1.8,28.9,5.6,54.6,6.1c12.2,0.2,13.4-0.5,30.4-0.7
	c14.7-0.1,22.2,0.4,53.3,2c56.9,3,63.5,2.9,70.1,2.7c17.6-0.6,20.4-1.8,38.4-2c22.5-0.3,38.9,1.2,48.6,2c12.6,1.1,37.4,2.1,87,4
	c29.9,1.1,44.9,1.7,62.7,2c35.5,0.6,53.3,0.9,58,0.7c9.6-0.5,21.4-1.4,37.8,0.7c14.2,1.8,12.1,3.3,22.3,4
	c21.9,1.6,29.1-5.7,47.2-1.3c7.3,1.7,6.8,3.1,14.8,4.7c11.5,2.4,18.5,0.8,29.7,0c10.6-0.7,22.8,0.2,47.2,2c14.7,1.1,15.5,1.7,25.6,2
	c14.7,0.5,17.7-0.4,30.4,0c16.7,0.6,16.1,2.4,33,3.4c4.9,0.3,9.6,0.4,38.4-0.7c17.5-0.6,21-1.1,33.7-1.3c11.7-0.2,21.3-0.1,27.7,0"
	/>
<path class="st0" d="M44.2,772.5c15.5,0.9,39.9,2.2,70.1,3.3c33.5,1.3,44.8,1.2,81.8,2.5c56.9,2,50.6,2.8,79.3,3.3
	c55.2,1,56.3-2.4,104.4-0.8c34.7,1.1,40.8,3.1,80.1,4.2c42.4,1.1,39.4-1.7,66.8,0c35.1,2.2,44.4,6.6,82.7,7.5c10,0.3,6-0.1,38.4,0
	c27,0.1,42.7,0.2,61.8,0.8c23.7,0.8,41.3,2.2,56.8,3.3c53.7,4.1,53.1,8,81.8,8.3c32.8,0.4,31.2-4.3,67.6-3.3
	c20.1,0.5,29.1,2.2,53.4,1.7c17-0.4,22.1-1.4,37.6-1.7c34.9-0.6,42.5-0.3,50.9,2.5c12.4,4.1,13.4,7.9,24.2,10
	c8.6,1.7,14.3-0.4,36.7-5c13-2.7,19.3-4.8,25-5c9.2-0.4,12.4,1.1,24.2,1.7c11.6,0.6,19.3-0.3,26.7-0.8c12-0.9,30.5-1.5,57.6,0"/>
<path class="st0" d="M58.7,852c7.5-3.1,19.2-6.9,33.8-7.8c12.6-0.7,20.4,1.1,40.2,3.5c16,1.9,27,3.2,39.5,3.5
	c34.7,0.8,40.1-7.1,71.2-4.2c11.7,1.1,13.8,2.5,28.9,3.5c9.2,0.6,20.7,1,39.5,0c22-1.1,36.5-3.2,45.8-4.2c28-3.1,23.8,1.2,77.5,0.7
	c26-0.3,41.3-1.3,61.3,0.7c2.9,0.3,9.3,1,18.3,1.4c13.3,0.6,22.9,0.3,31.7,0c21.4-0.7,32.1-1,42.3-0.7c12.9,0.3,13.3,1.2,51.5,4.9
	c19,1.9,28.5,2.8,38.8,3.5c20,1.4,24.6,0.7,56.4,1.4c37.4,0.8,56.1,1.2,74.7,3.5c17.4,2.2,21.8,3.8,41.6,5.6
	c9.1,0.8,24.2,2.2,43.7,2.1c24.7-0.1,26.1-2.4,47.9-2.1c21.9,0.3,21.2,2.7,40.9,2.8c20.7,0.1,22.4-2.5,52.2-4.2
	c5.5-0.3,24-1.3,47.9-0.7c17.1,0.5,20,1.4,50,3.5c27.3,1.9,40.9,2.9,53.6,2.8c15.2-0.1,36.9-1.2,63.4-6.3"/>
<path class="st0" d="M61.7,897.1c13.8-2.5,34.2-4.4,57.8,0.9c7.1,1.6,13.3,6.5,24.9,8c11.8,1.6,17.8-0.7,32-1.8
	c12-0.9,14.2,0.1,36.5,0.9c30.2,1,28.5-0.9,53.4,0c28.2,1,30.7,3.4,56.9,3.6c14.6,0.1,13.3-0.7,33.8-0.9c20.4-0.2,26.3,0.5,50.7,0.9
	c26,0.4,22.9-0.3,48.9,0c15.1,0.2,29.4,0.7,57.8,1.8c28.9,1.1,36,1.6,39.1,1.8c23.9,1.7,26.4,3.1,43.6,4.4c29.5,2.3,32.1-1.1,71.2,0
	c27,0.8,23.1,2.3,47.2,2.7c33.8,0.5,36.6-2.6,64.1-0.9c19.9,1.2,22.7,3.1,43.6,3.6c16.6,0.4,20-0.7,35.6,0c20.2,1,21.4,3.1,40,4.4
	c19.5,1.4,23.7-0.6,53.4-0.9c12.4-0.1,14,0.2,42.7,0.9c33.4,0.7,30.5-0.9,52.5,0.9c15.6,1.3,22.3,2.9,38.3,2.7
	c7.4-0.1,10.7-0.5,20.5-0.9c10.2-0.4,18.6-0.5,35.6,0c9.7,0.3,15.8,0.7,40.9,2.7c17.9,1.4,33.3,2.6,45.4,3.6"/>
<path class="st0" d="M59,951.8c18.2,1.7,36.8,3.4,55.6,4.8c33.4,2.6,58.9,3.9,75.8,4.8c29.8,1.6,52.4,2.4,66.2,2.9
	c6.8,0.2,33.5,1.2,69,1.9c33.2,0.7,49.9,1,71,1c40.5-0.1,48.1-1.4,71,0c27.2,1.7,25.4,4.5,53.7,6.7c19.4,1.5,22.6,0.5,71.9,1
	c21.3,0.2,35.4,0.3,52.7,1c29.1,1,32.4,2.3,73.8,4.8c33,2,49.6,3,71.9,2.9c28.4-0.1,25.4-1.7,56.6-1.9c30.3-0.2,58.1,1.2,73.8,1.9
	c13.7,0.7,27.5,1.2,41.2,1.9c12.4,0.6,19.9,1,30.7,1c13.3-0.1,18.9-0.7,26.9-1c21.5-0.6,32.1,2.7,50.8,4.8c19.1,2.2,20.4-0.2,59.5,0
	c15.4,0.1,34.7,0.3,45.1,1c15.1,0.9,38.8,4.1,70,15"/>
<path class="st0" d="M56.4,1023c18.8-3.4,34.1-4,44.6-3.9c18.3,0.2,28.1,2.5,55.5,3.9c15.2,0.8,16.6,0.3,30.5,0.8
	c20.9,0.8,36.9,5.3,61.8,5.5c18.6,0.2,14.4-2.6,31.3-2.3c33.1,0.6,41.3,11.1,68,7.8c13.8-1.7,13.5-4.7,28.1-6.3
	c19.2-2,27.1,2.8,47.7,5.5c22.4,2.9,23.9-1.1,60.2-0.8c4.9,0,6.8,0.3,50.8,3.1c20.6,1.3,30.9,2.6,36,2.3c12.8-0.5,16.4-2.2,28.9-1.6
	c10.6,0.5,12.8,1.9,25.8,3.1c10.5,1,11.4,0.3,28.1,0.8c23.6,0.7,27.2,2.3,46.1,2.3c9.2,0,10.2-0.3,24.2-0.8
	c21.5-0.7,27.1-0.1,62.5,0c41,0.1,37-0.7,50.8,0c15,0.8,24.2,1.9,44.6,2.3c8.9,0.2,14.9,0.1,25.8,0c28.8-0.3,38.2-1.2,64.1-1.6
	c12.3-0.2,19.8-0.2,30.5,0c25.7,0.6,32.9,2.3,62.5,3.9c16.5,0.9,28.9,1.6,46.1,1.6c21.4,0,33.3-1.1,55.5,0.8
	c9.8,0.8,11.2,1.4,20.3,2.3c14.5,1.5,35.6,2.7,62.5,0.8"/>
<path class="st0" d="M57.3,1063.3c24,5.1,43.7,6.9,57.4,7.5c12.6,0.6,19.7,0.2,40.6,0.6c17.5,0.4,26.7,1,44.9,1.9
	c55.6,2.6,53.3,1.2,80.5,3.1c25.4,1.8,18,2.3,67.4,6.9c37.4,3.4,56.4,4.4,71.8,5c11.1,0.4,8.6,0.1,38.1,0.6
	c47.7,0.8,57.6,1.6,91.1,1.9c23.1,0.2,17.3-0.2,42.4,0c26.7,0.2,56.5,0.4,94.2,2.5c13.2,0.7,29.7,1.6,51.8,3.7
	c37.9,3.6,37.9,7,56.8,6.9c26.5-0.2,28.3-6,61.8-6.2c1,0,1.1,0,34.9,0.6c11.2,0.2,22.5,0.4,33.7,0.6c29.6,0.6,49.1,0.9,64.9,1.2
	c66.7,1.4,61.9,1.9,79.2,1.9c21.5,0,52.7-0.7,91.1-4.4"/>
<path class="st0" d="M59.6,1123.2c35.1,2.2,57.6,1,72.1-0.7c4.6-0.5,11.5-1.5,21.4-1.4c15.4,0.1,20.6,2.6,37.8,3.6
	c14.1,0.8,12.3-0.7,26.4,0c18.3,0.9,21.6,3.6,39.3,5c9,0.7,7.4,0,35,0c15.5,0,27.8,0,43.5,0.7c6.4,0.3,20.8,1,39.3,2.9
	c23.6,2.3,25.8,3.7,37.8,4.3c20.8,1.1,33.6-2,46.4-3.6c17.9-2.2,44.2-2.8,79.2,5.7"/>
</svg>
