<?xml version="1.0" encoding="utf-8"?>
<!-- Generator: Adobe Illustrator 22.1.0, SVG Export Plug-In . SVG Version: 6.00 Build 0)  -->
<svg version="1.1" id="Layer_1" xmlns="http://www.w3.org/2000/svg" xmlns:xlink="http://www.w3.org/1999/xlink" x="0px" y="0px"
	 viewBox="0 0 1240 1731" style="enable-background:new 0 0 1240 1731;" xml:space="preserve">
<style type="text/css">
	.st0{fill:none;stroke:#000000;stroke-width:6;stroke-miterlimit:10;}
</style>
<image style="overflow:visible;" width="1240" height="1731" xlink:href="processed.jpg" >
</image>
<path class="st0" d="M58.8,46.9c24.1-0.9,45.4-0.9,63.3-0.6c44.3,0.8,49.2,3.5,80.3,2.3c27.2-1,32.4-3.3,62.7-3.5
	c13-0.1,18.6,0.3,45.1,1.2c48.1,1.6,51.6,2,66.8,1.8c21-0.3,20.3-1.3,44.6-1.8c21.9-0.4,33.5,0.2,52.8,0.6c22.1,0.4,39,0,72.7-0.6
	c42.4-0.7,36.7-1.1,55.1-1.2c48.4-0.2,54.9,2.8,114.9,3.5c23,0.3,28.1-0.1,46.9,0.6c25.6,1,33.3,2.3,59.8,3.5
	c22.9,1.1,39.9,1.1,55.1,1.2c39.3,0.1,43.8-1.3,74.4-1.2c25.8,0.1,31.1,1.2,71.5,2.9c42.8,1.8,47.3,0.7,86.2,2.3
	c21,0.9,37.3,1.9,55.1,2.9c27.7,1.7,51.3,3.3,69.2,4.7"/>
<path class="st0" d="M30,106c8.3,0.2,20.2,0.5,34.5,0.7c19.3,0.2,29,0.3,41.1,0c22.2-0.6,21.8-1.8,39.1-2
	c20.8-0.3,22.3,1.4,42.5,1.3c19-0.1,18.8-1.5,45.1-2.7c21.7-0.9,22,0.1,51.1-0.7c20-0.5,22.9-1.1,48.4-2c19.3-0.7,31-0.9,53.1-1.3
	c76-1.5,70.2-2.3,86.9-2c25.8,0.4,31.1,1.6,66.4,2c19.4,0.2,26-0.1,39.8,0c36,0.1,46,2.7,86.9,4c15.1,0.5,24.7,0.8,38.5,0.7
	c42.7-0.3,52.8-4,87.6-2.7c21.8,0.8,18.9,2.3,38.5,2.7c30.7,0.6,38.3-3.1,63.7-0.7c19.7,1.9,17.4,4.3,35.2,5.3
	c26.8,1.6,27.7-4.1,52.4-2c15,1.3,22.6,4.1,40.5,3.3c7.9-0.4,10.6-1.1,18.6-2c33.3-3.7,61,0.7,72.3,2.7c8.6,1.4,20.2,3.8,33.8,8"/>
<path class="st0" d="M4.5,158.2c30.8-0.1,55.9-0.4,73.6-0.7c26.7-0.5,36.5-0.9,57.4-0.7c26.8,0.2,30.8,1,47.1,0.7
	c26.5-0.5,28-3.8,59.6-5.2c10.9-0.5,20.5-0.6,39.8-0.7c18.5-0.2,30.7,0,33.9,0c16.1,0.2,25,0.6,31.7,0.7c33.3,0.8,45.3-3.4,82.5-5.2
	c26.9-1.2,40.4-1.8,52.3,0c12.6,1.9,21.1,4.6,36.8,4.4c12.1-0.2,16.3-1.9,30.2-3.7c7.7-1,15.6-1.6,52.3-1.5
	c29.7,0.1,52.1,0.7,54.5,0.7c36,0.9,65.1,1.6,103.8,3.7c30.2,1.6,32.7,2.3,62.6,3.7c13.6,0.6,35.2,1.6,61.8,2.2
	c27.5,0.7,41.2,1,44.2,0.7c6.9-0.6,16.5-1.9,29.5,0c10.5,1.6,9.8,4,17.7,4.4c11.5,0.7,15.4-3.6,30.9-3.7c4.3,0,3.3,0.3,11.8,0.7
	c14.2,0.7,21.2,0,29.5,0c16.6,0,18.1,2.8,37.5,4.4c15.5,1.3,27.6,0.4,34.6,0c21.6-1.3,26.2-4.2,42.7-4.4c12.6-0.2,17.9,1.4,31.7,2.9
	c14,1.6,33.9,2.9,58.9,1.5"/>
<path class="st0" d="M5.7,210.3c23.2-3.6,43.3-5.5,59.3-6.6c24.7-1.7,43.6-1.7,56.8-1.6c29.7,0.1,29.8,2.2,52.7,1.6
	c22.9-0.6,25.7-2.6,47.7-2.5c18.1,0.1,22.2,1.5,39.5,1.6c18.2,0.2,27.6-1.2,44.4-2.5c32.3-2.3,34.6,2.5,65-1.6
	c12.5-1.7,18.5-3.5,32.9-4.1c12.3-0.5,21,0.4,27.2,0.8c18.3,1.3,17.4-1.3,45.3-0.8c12.5,0.2,12.9,0.8,25.5,0.8
	c11.8,0.1,18.1-0.4,29.6-0.8c7.8-0.3,5.5-0.1,51-0.8c30.9-0.5,33-0.6,39.5,0c12.3,1.1,15.9,2.5,29.6,3.3c10.9,0.7,14.9,0.2,30.5,0
	c18.6-0.2,32.5,0.3,46.1,0.8c22.8,0.8,22.8,1.7,42,2.5c27.1,1.1,29.1-0.5,65.8,0c20.7,0.3,37,1,52.7,1.6c18.4,0.8,21.2,1.2,46.1,2.5
	c26.5,1.4,48.3,2.5,75.7,3.3c29.4,0.8,53.8,0.8,58.4,0.8c25.1,0,31.3-0.4,52.7,0c27.7,0.6,41.5,1.8,47.7,2.5
	c14.7,1.5,26.8,3.4,35.4,4.9"/>
<path class="st0" d="M46.8,251c14,0.9,31.6,1.8,52.1,2.2c19.2,0.4,34.2,0.1,43.4,0c26.1-0.4,27.9-1.1,53.6-1.4c17.2-0.2,31-0.1,42,0
	c20.1,0.2,25.4,0.5,39.8,0.7c27.5,0.4,48.3-0.2,68-0.7c34.5-1,39.1-2,64.4-2.2c17.3-0.2,16.5,0.3,47.8,0.7c19.4,0.2,47.3,0.6,81.1,0
	c31.6-0.5,34.1-1.3,57.9-1.4c44.2-0.3,42.3,3.6,65.2,1.4c17.2-1.6,29.6-4.6,51.4-2.9c12.1,1,10.4,2.1,22.4,2.9
	c21,1.5,26.7-1.8,54.3-2.2c11.6-0.1,20.7,0.3,29,0.7c20.4,1,23.8,2.3,39.1,2.9c16.3,0.6,15.4-0.7,39.1-0.7c8.8,0,25.1,0.1,44.9,1.4
	c27.5,1.8,25.3,3.5,42,3.6c19.1,0.2,24.2-2,40.5,0c14.6,1.7,13.2,3.8,26.1,5.1c16.4,1.7,18.8-1.6,44.9-2.2c14.6-0.3,15.4,0.7,29,0
	c13.9-0.7,21.1-2.2,28.2-2.9c11.9-1.2,29.3-1.1,52.1,5.8"/>
<path class="st0" d="M12.1,306.3c16.3,0,32.5,0,48.8,0c29.7,0,34.2,0.4,48.2,0c23.1-0.6,23.9-1.6,44.4-1.9
	c17.5-0.3,20.3,0.4,43.1,0.6c19.9,0.2,34.3-0.2,52-0.6c14.1-0.4,35.3-0.9,62.7-2.5c27.1-1.6,35.3-2.8,52.6-1.9
	c17.6,0.9,16.4,2.4,34.9,3.8c26.4,2,30.3-1.1,78.6-1.3c11.4,0,14.2,0.1,29.2,0c19.4-0.2,26.3-0.5,39.9-0.6
	c19.9-0.2,30.1-0.2,43.7,0.6c27.8,1.7,28.7,4.7,48.2,4.4c12.7-0.2,10.6-1.4,37.4-3.2c17.1-1.1,25.7-1.7,37.4-1.3
	c15,0.5,17.5,1.9,32.3,1.9c12,0,12.9-0.9,26.6-1.3c18.1-0.5,32,0.7,38.7,1.3c22,1.9,24.4,4.4,39.3,5.7c20.9,1.9,32.4-1.5,51.3-3.8
	c29.5-3.6,33.2,1.2,75.4,0.6c29.7-0.4,26-3.8,53.2-2.5c18.3,0.9,24.1,3.1,44.4,3.2c14,0.1,17.9-1,34.2-1.9c36-2.1,44.4,1.3,81.1,0
	c9.7-0.3,24.6-1.1,43.1-3.2"/>
<path class="st0" d="M6.5,352.2c16.7,0,33.4,0,50.1,0c67.4,0,67.4,0,67.4,0c36.5,0.1,36.2,0.2,45.3,0c25.6-0.6,48.2-2.2,58.8-2.9
	c25.6-1.8,27.7-2.6,42.4-2.9c15.6-0.3,28.4,0.3,40.5,1c15.4,0.8,18.5,1.4,39.5,2.9c8.8,0.6,27.7,2,50.1,2.9c22.5,0.9,36,1.5,53.9,1
	c25.4-0.7,27.8-4.1,50.1-3.9c14,0.1,15.2,1.3,36.6,1.9c3.4,0.1,16.4,0.5,39.5,0c22.4-0.5,27-1.1,49.1-1.9c31.6-1.1,58.5-1,73.2-1
	c24.7,0.1,29.2,0.6,44.3,0c20-0.8,28.1-5.8,46.2-3.9c10.3,1.1,11.2,2.7,24.1,3.9c10.6,1,17.5,0.6,33.7,0c18-0.6,26.9-0.9,34.7-1
	c26.5-0.1,32.3,3,58.8,3.9c20.9,0.7,22.7-2,42.4-1c7.3,0.4,13.1,1,30.8,1.9c8.7,0.5,14.2,0.8,20.2,1c17.2,0.5,30-0.1,37.5-0.4
	c16.5-0.7,39.6-1.4,74-2.1"/>
<path class="st0" d="M50.6,397.3c23.6,1.2,43.8,1.6,59.8,1.7c13,0.1,28,0.1,48-0.8c18.8-0.9,18.4-1.7,36.2-2.5
	c30-1.5,28.3,0.7,52.2-0.8c22-1.4,27.1-3.5,41.3-1.7c6.3,0.8,11.4,2,21.1,2.5c10.9,0.6,18.4-0.3,25.3-0.8c15.7-1.4,10.2,0,51.4-1.7
	c25.4-1,28.3-1.6,37.9-0.8c14.7,1.2,16.7,3.1,31.2,5.1c17.5,2.3,24.8,0.7,54.7,0c15.7-0.4,31.4,0,47.2,0c32.8,0,73.3,0,73.3,0
	c56.4,0,54.6,0.1,66.5,0c37.4-0.3,41.9-1,64-0.8c22.5,0.1,51.3,2,67.4,2.5c5.9,0.2,30.3-1,79.2-3.4c19.5-0.9,30.6-1.6,47.2-0.8
	c14.5,0.6,21.2,1.7,39.6,3.4c16,1.4,33.9,2.8,54.7,3.4c20.1,0.6,24.1-0.2,42.1,0c15.7,0.1,38.8,1,67.4,4.2"/>
<path class="st0" d="M6.6,445.6c25.9,0.4,50,0.7,67.4,1c10.4,0.2,19.5,0.3,32.2,0c17.2-0.4,20.3-1.2,39.3-2
	c16.7-0.8,29.3-0.8,54.3-1c20.2-0.1,17.7,0.1,37.2,0c29.3-0.2,34.2-0.8,63.4-1c26.7-0.2,22.1,0.3,38.2,0c30.1-0.6,38.7-2.2,61.4-2
	c16.3,0.2,17.3,1.4,38.2,2c15.5,0.5,26.1-0.2,40.3,0c23.2,0.3,22.1,2.4,42.3,2c9.5-0.2,12.1-0.7,26.2-1c12.8-0.3,22.3-0.1,28.2,0
	c34.8,0.6,25.3-0.1,89.6,1c17.2,0.3,10.9,0.2,51.3,1c68,1.3,72.7,1.2,104.7,2c34.8,0.8,33,1,43.3,1c32.9,0,43.5-1.6,77.6-1.8
	c8.2,0,1.9,0.1,48.3,0.8c43.9,0.7,55.4,0.7,76.9,1.6c20.9,0.9,24.6,1.6,40.9,2.5c22,1.2,53.9,2,94.1,0"/>
<path class="st0" d="M4.3,494.7c32.4,2.6,50.5,0.6,61-1.7c2.9-0.6,11.1-2.6,22.4-2.6c10.5,0.1,18,1.9,21.5,2.6
	c17.2,3.6,30,0.8,50.7-0.9c2.8-0.2,0.7,0,67.1,0c0,0,31,0,36.1,0c11.5,0,22.9,0,34.4,0c44.7,0,67.1,0,67.1,0
	c44.2,0.4,44.6,1.5,58.5,0c15.9-1.7,21.2-3.7,36.1-3.4c15.5,0.3,21.4,2.7,37.8,3.4c6.9,0.3,6.9,0,36.1-1.7c17.6-1,26.3-2.6,33.5-1.7
	c9.4,1.2,14.5,3.3,26.6,3.4c6.8,0.1,9.4-0.6,14.6-0.9c15.5-0.8,21.4,3.5,37,6c14.1,2.3,10-1,46.4,0c9.8,0.3,16.1,0.7,30.1,0.9
	c10,0.1,17.3,0,20.6,0c21.2-0.2,52.2,0,75.6,0.9c31,1.1,25.2,2.4,54.2,3.4c26.9,0.9,26.2-0.4,73.9,0c37.9,0.3,39.2,1.1,53.3,0
	c19.2-1.5,25-3.7,40.4-2.6c16.5,1.2,18.1,4.4,37,6c13.7,1.2,17.4-0.1,37.8,0c20.7,0.1,25.5,1.4,40.4,1.7c13.8,0.3,33.7-0.2,58.5-4.3
	"/>
<path class="st0" d="M6.9,541.5c14.1-0.1,36.2-0.1,63.5,0c48.3,0.2,53,0.8,84.6,0.6c24.1-0.1,22.9-0.4,80.4-1.2
	c24.6-0.3,29-0.3,51.4-0.6c76.2-1,73.1-1.8,104-1.8c64.3-0.1,61.6,3.5,117.3,2.4c24.6-0.5,36-1.4,73.1-1.8c31.1-0.4,54.8-0.1,62.9,0
	c56.4,0.7,84.7,1.1,116.7,4.8c19.3,2.3,27.9,4.1,49,5.4c25.9,1.6,29.5-0.1,57.4,0.6c45.7,1.2,47.1,6.2,82.8,5.4
	c20.4-0.5,21.2-2.1,51.4-3c8-0.2,19.8-0.5,51.4,0c31.9,0.5,47.6,1.1,74.3,1.8c16.8,0.4,41.7,1,72.5,1.2"/>
<path class="st0" d="M30.4,593.8c19.2-0.7,48.5-1.7,67.7-2.3c42.4-1.4,52.7-2,69.3-2.3c51.6-1,49.8,2.4,87.7,0.8
	c22.5-1,34.7-2.5,65.4-3.1c10.1-0.2,19-0.2,36.9,0c43.5,0.4,55.3,1.9,96.2,2.3c35.3,0.4,28.5-0.7,43.1,0c36.5,1.8,48,7.1,82.3,6.9
	c13.3-0.1,10.2-0.9,33.9-1.5c25.6-0.7,37.2-0.1,60,0c37.7,0.1,33.9-1.7,65.4-1.5c8.2,0,30.3,1.1,74.6,3.1c27.8,1.3,38,1.8,56.2,2.3
	c14.3,0.4,27,0.6,43.1,0.8c58,0.6,66.8-0.5,105.4,0c47,0.6,47.1,2.3,83.1,2.3c35.8,0,64.9-1.7,83.9-3.1"/>
<path class="st0" d="M6.7,652.1c27,0.2,48.8-0.5,63.6-1.1c22-1,35.1-2.2,57.9-2.3c19.5-0.1,18.4,0.8,42,1.1
	c30.6,0.5,34.6-0.9,77.2-1.1c28-0.2,26.2,0.4,45.4,0c24.6-0.5,30.4-1.6,48.8-1.1c19.6,0.5,18.9,1.8,38.6,2.3
	c18.2,0.5,20.3-0.6,51.1-1.1c18.1-0.3,29.6-0.5,45.4,0c26.5,0.9,29.3,2.6,48.8,2.3c16.7-0.3,19.8-1.6,37.5-2.3
	c22.6-0.9,23.9,1.4,47.7,1.1c16.3-0.2,19.4-1.1,44.3-2.3c6.9-0.3,22.9-1.4,42-1.1c21.5,0.3,24.3,1.9,45.4,2.3
	c11.8,0.2,21.1-0.2,39.7-1.1c35.9-1.7,40.9-3.4,63.6-3.4c11.5,0,13.5,0.4,35.2,1.1c30.5,1,45.7,1.4,60.2,1.1
	c31.7-0.5,28.9-2.8,51.1-2.3c24.4,0.6,27.8,3.4,52.2,3.4c13.5,0,17.1-0.8,42-2.3c21-1.2,35.5-1.9,54.5-2.3c14.2-0.3,23.5-0.5,36.3,0
	c17.4,0.6,31.8,2.1,42,3.4"/>
<path class="st0" d="M39.6,703.2c27.2-5.3,48.7-5.5,63.6-4.5c15,0.9,21.2,2.8,37.5,2.3c19.3-0.6,26.1-3.8,45.4-5.7
	c17.9-1.8,15.5,0.8,46.5,0c17.9-0.5,23.2-1.3,39.7-1.1c11.7,0.1,18.4,0.6,28.4,1.1c15.8,0.8,18,0.5,57.9,1.1
	c41.3,0.7,40.2,1,62.4,1.1c23.2,0.1,23-0.2,43.1,0c29,0.3,30.2,1.1,52.2,1.1c14,0,29.9,0.1,51.1-1.1c19.9-1.1,26.7-2.4,44.3-2.3
	c11.5,0.1,9.8,0.6,29.5,1.1c22.4,0.6,33.7,0.9,46.5,0c10.3-0.8,15.6-1.7,29.5-2.3c10.3-0.4,16.2-0.2,20.4,0
	c8.3,0.5,12.3,1.3,20.4,2.3c11.9,1.5,20.8,1.8,30.6,2.3c15,0.6,26.1,0.3,37.5,0c24.5-0.7,25.7-2,44.3-2.3
	c12.6-0.2,16.4,0.3,38.6,1.1c21.4,0.8,40,1,51.1,1.1c27.5,0.2,48.8-0.6,63.6-1.1c20.4-0.8,40.9-1.1,61.3-2.3
	c9.9-0.6,17.6-1.1,28.4,0c16.1,1.6,28.9,5.7,37.5,9.1"/>
<path class="st0" d="M80.9,746c30.3,3.3,55,3.7,72.3,3.4c14.5-0.2,18-0.9,46.3-1.7c26.4-0.8,39.9-1.2,58-0.8
	c19.8,0.3,38.8,0.7,63.9,3.4c20,2.1,26.7,4,42.1,3.4c17.6-0.7,18.2-3.4,37.9-5c22.2-1.8,24,1.5,53.8,0.8c18.8-0.4,19.5-1.7,42.9-2.5
	c16.7-0.6,26.4-0.2,42.1,0c30.7,0.4,26.8-0.5,92.5-0.8c21.4-0.1,37.1-0.2,58.9,0c19.8,0.2,36.3,0.5,48,0.8"/>
<path class="st0" d="M104.5,802.3c13.3,0.3,30.5,0.7,50.5,0.8c25,0.2,40.2,0.4,58.9,0c56.6-1.1,61.9-5.2,99.3-3.4
	c21.3,1,23.6,2.6,42.1,2.5c26.3-0.1,31.7-3.2,59.7-3.4c19.8-0.1,18.2,1.4,45.4,1.7c17.1,0.2,31.8-0.3,48.8-0.8
	c25.9-0.8,33.4-1.6,48,0c12.9,1.4,17.2,3.2,27.8,5c22.7,3.9,36.1,1.6,63.1,0c52-3,45.8,3.3,93.4,0c22-1.5,35-3.7,55.5,0
	c12.6,2.3,16.4,4.7,30.3,5.9c15.7,1.4,22.3-0.7,42.1-0.8c17.3-0.2,16.9,1.6,34.5,1.7c15.3,0.1,16.9-1,37-1.7
	c11.2-0.4,22.3-0.3,44.6,0c14.6,0.2,26.3,0.3,42.1,0.8c19.9,0.7,29.3,2.8,48.8,2.5c12-0.2,12.6-0.9,18.5-0.8
	c13.3,0.2,32.5,4,56.4,21"/>
<path class="st0" d="M182.3,857.4c8.4-0.2,22.2-0.4,39.2,0c23.1,0.6,33.4,1.8,56.4,2.5c13.9,0.4,14.1,0,42.5,0
	c37.6,0,44.5,0.6,89.1,0.8c21.9,0.1,39.6,0.1,49.9,0c37.6-0.2,50.7-0.7,87.5-0.8c19.4-0.1,20.8,0,44.1,0
	c70.7-0.1,86.5-1.1,125.9-0.8c42.6,0.3,32.9,1.5,90.7,2.5c54.6,0.9,81.9,1.3,99.7,0.8c41.9-1.1,48.9-3.2,67,0.8
	c16.1,3.6,26.9,8.9,42.5,5.7c4.5-0.9,13.3-3.4,25.3-2.5c5,0.4,6,1.3,13.9,2.5c0.5,0.1,11.1,1.6,22.1,1.6c14.5,0.1,19.9-2.5,29.4-3.3
	c9.1-0.7,14.6,0.7,49.9,12.3c17.5,5.7,31.8,10.6,41.7,13.9"/>
<path class="st0" d="M21.3,916.4c21.9,0,43.8,0,65.7,0c26.7,0,53.4-0.1,80.2,0c89,0.2,85.2,1.3,104.6,0c25.4-1.8,39.3-4.2,67.9-3.8
	c18.3,0.2,26.9,3.6,48.9,3.1c15.6-0.4,18.1-1.7,39.7-2.3c15.9-0.4,16.4,0.3,38.9,0c21-0.2,22.8-0.9,37.4-0.8
	c13.8,0.1,15.9,0.7,35.9,1.5c29.8,1.2,44.7,1.9,57.3,0.8c21.8-1.9,24.7-5.3,42.8-4.6c10.6,0.4,12.7,1.7,29,2.3
	c9.2,0.4,16.7,0.2,31.3,0c23.8-0.4,20.8-0.9,29-0.8c22.6,0.3,26,3.6,51.9,4.6c8.9,0.3,15.6,0.2,26.7,0c21.8-0.4,22.9-1.4,38.2-1.5
	c20-0.2,19.9,1.5,42.8,1.5c14.7,0,14.8-0.7,32.8-0.8c8.4,0,20.1-0.1,34.4,0.8c19.8,1.1,19.9,2.5,39.7,3.8c13.1,0.9,25.5,1.7,42,0.8
	c12.1-0.7,15.7-1.7,31.3-2.3c6.7-0.2,14.5-0.5,24.4,0c10.8,0.5,17,1.6,28.2,3.1c8.7,1.1,21.5,2.6,37.4,3.8"/>
<path class="st0" d="M26.7,979.8c16,1.6,28.7,0.9,37.4,0c8.7-0.9,9.9-1.7,22.1-3.1c3.9-0.4,17.3-1.9,34.4-2.3
	c15.6-0.3,27,0.4,33.6,0.8c33.2,1.9,49.9,2.2,69.5,1.5c11.2-0.4,7.5-0.7,48.1-3.1c17.7-1,26.6-1.6,32.1-1.5
	c21.2,0.1,28.2,2.5,47.3,2.3c14-0.2,15.1-1.8,29-2.3c11.1-0.4,29.7,1.7,40.5,2.3c16.6,0.8,16-2.2,44.3-3.1c11.8-0.4,17.6-0.7,24.4,0
	c9.6,0.9,10.2,2.2,19.9,3.1c7.1,0.6,11.4,0.3,19.1,0c13.5-0.5,12.4,0.2,34.4,0c12.8-0.1,16.4-0.3,35.1-0.8c14.1-0.3,29.1-0.7,45-0.8
	c26.5-0.1,31,0.6,69.5,0.8c5.6,0,14.2,0,31.3,0c63.4-0.1,62-0.4,74.1,0c24.8,0.8,25.6,1.9,59.6,3.1c6.1,0.2,18.9,0.6,35.1,0.8
	c35.8,0.4,39.1-1,69.5-0.8c30.8,0.3,29.3,1.7,58.8,1.5c16.2-0.1,25.4-0.5,42.8,0c15.8,0.5,28.8,1.5,37.4,2.3"/>
<path class="st0" d="M10,1032.7c17.1-0.1,31,0.5,40.4,1c28.2,1.6,39,4,65.1,3.9c10.7,0,18.8-0.5,27.6-1c24.1-1.3,38-3.4,53.3-4.9
	c28.4-2.9,50.6-2.9,62.1-3c38-0.2,37.7,4.7,69.7,3.5c18.4-0.7,21.1-2.2,46.4-3.1c4-0.1,20.2-0.6,45.4,0c32.3,0.8,39.9,2.6,58.8,3.1
	c37.3,1.1,37-5.9,72.2-5.2c27.6,0.6,28.9,4.3,53.6,3.1c19.4-0.9,24.3-3.5,47.4-4.1c8.2-0.2,19,0.2,40.2,1c31.2,1.2,35,2.8,51.5,2.1
	c13.3-0.6,14.5-1.7,28.9-2.1c11.9-0.3,17.6,0.3,35,1c5.2,0.2,16.6,0.5,39.2,1c30.5,0.7,45.7,1.1,50.5,1c23.6-0.5,27.5-2,45.4-1
	c6.5,0.4,12.5,0.9,22.7,1c11.9,0.1,17.8-0.7,26.8-1c10.7-0.4,19.1,0.2,37.1,1c26.4,1.3,22.4-0.1,39.2,1c31.5,2.2,50,7.6,55.7,9.3
	c7.4,2.2,13.4,4.5,17.5,6.2"/>
<path class="st0" d="M29,1091.5c19.5,0,35.2,0,45.5,0c31.9-0.1,42.5-0.3,62.4,0c20,0.3,27.2,0.7,40.2,1.1c38.4,0.9,64.8-1,88.9-2.1
	c66-3.1,71.7,2.1,120.7-1.1c10.3-0.7,26-1.9,48.7-2.1c13.8-0.2,21,0.2,38.1,0c18.9-0.2,24.3-1.1,40.2-1.1
	c15.2,0.1,16.7,0.8,29.6,1.1c30.7,0.6,33.7-3.2,63.5-3.2c17.7,0,17.7,1.4,44.5,2.1c23.7,0.7,39.5,0.2,44.5,0
	c18.6-0.6,30.9-1.8,36-2.1c16.5-1.1,19.5,2.4,39.2,3.2c20.1,0.8,19.6-2.8,40.6-1.5c7,0.4,7.6,0.9,26.5,2.5
	c5.7,0.5,14.8,1.3,23.9,1.9c6.5,0.4,18.5,1.1,39,1.3c42.6,0.4,38.6-2.1,59.8-0.6c14.5,1,22.8,2.6,40.9,2.5c7,0,10.5-0.3,21.4-0.6
	c19.2-0.6,28.8-0.8,39.7-0.6c18.2,0.3,18.9,1.2,36.5,1.3c8.5,0,10-0.2,27.1-0.6c13.5-0.3,26.4-0.6,39.7-0.6
	c20.9,0,24.7,0.9,48.5,1.3c16,0.3,29.3,0.2,38.4,0"/>
<path class="st0" d="M7.9,1141.7c24,2.1,43.4,1.3,57.1,0c17.1-1.6,30-4.3,50.7-3.2c16.2,0.8,15.4,3.3,30.6,4
	c18.9,0.9,26.1-2.2,49.9-4c0.9-0.1,0.3,0,37.8-0.8c25.6-0.5,32.8-0.7,45-0.8c13.5-0.1,23.6,0,29,0c95.2,0.6,100.1,1.8,131.1,0.8
	c31.5-1,39-2.5,90.1-4c19.2-0.6,28.8-1.1,33.8-0.8c26.2,1.5,31.7,6.8,56.3,7.2c15.6,0.3,29.8-1.6,36.2-2.4
	c17.6-2.3,20.9-4.5,33.8-4.8c14.5-0.3,14.9,2.4,33,3.2c20.4,0.9,20.2-2.5,40.2-1.6c18.4,0.8,20.5,3.8,37,3.2
	c12.3-0.5,13.3-2.2,24.9-2.4c14.1-0.3,22.6,2.1,33.8,4c25.5,4.4,25.3-0.3,48.3,3.2c7.4,1.1,15,2.7,28.2,4c9.8,1,15.2,1.2,20.9,0.8
	c9.1-0.6,14.3-2.3,19.3-3.2c14.7-2.8,20.2,1.9,37.8,3.2c11.7,0.9,8.4-1.2,32.2-1.6c11.6-0.2,20.4,0.2,35.4,0.8
	c18.6,0.8,17.8,1.3,29,1.6c7.2,0.2,8.8,0.1,28.2,0c0,0,0,0,30.6,0c12.9,0,25.7,0,38.6,0"/>
<path class="st0" d="M34.4,1193.2c31.1,1,56.2,0.6,73.2,0c26-0.8,34.4-2,63.6-2.4c20.8-0.3,21,0.3,49.9,0
	c22.7-0.2,27.3-0.6,51.5-0.8c19.8-0.2,18.9,0.1,41,0c35.3-0.1,36.4-0.8,65.2-0.8c36.4,0,35.2,0.9,50.7,0c25.7-1.6,28.5-4.3,50.7-4.8
	c17.6-0.4,22.9,1.1,47.5,2.4c23.8,1.3,19.9-0.1,58.7,0.8c31.5,0.7,35.7,1.5,48.3,0c11.1-1.3,16.3-2.9,29-3.2
	c10.7-0.3,16.2,0.6,31.4,1.6c11,0.8,11.2,0.5,36.2,1.6c27.6,1.2,49.3,2.4,62.7,3.2c35.3,2,41.9,4.9,62.7,4c12.6-0.5,20.5-5.3,35.4-4
	c11.2,0.9,14.6,3.4,28.2,4c11.3,0.5,11.4-1.1,27.4-1.6c15-0.4,17.5,0.9,36.2,0.8c9.5-0.1,14.4-0.4,22.5-0.8c4.4-0.2,25.5-0.8,53.1,0
	c13.8,0.4,22.4,0.7,34.6,1.6c8,0.6,14.1,1.3,24.1,1.6c10,0.3,17.3,0.1,20.9,0c12.5-0.3,32.4-0.7,66.8-0.8"/>
<path class="st0" d="M8,1244.6c10.4-0.6,24.9-1.5,42.3-2.4c18.8-0.9,32.1-1.4,58-2.4c29.3-1.1,43.9-1.6,50.9-1.6
	c30.6,0.1,54.9,1.6,54.9,1.6c11.8,0.7,20,1.4,32.9,0.8c11-0.6,14.5-1.6,25.9-2.4c15.6-1.1,22.2-0.1,36.1,0
	c23.6,0.2,22.9-2.5,54.1-3.9c22.4-1,39.8-0.4,50.2,0c18.7,0.7,18.9,1.5,44.7,3.1c20.2,1.3,43,2.7,71.3,2.4
	c16.1-0.2,16.3-0.8,44.7-1.6c20.8-0.6,31.7-0.9,46.2-0.8c36,0.2,34.6,2.3,58.8,1.6c19.9-0.6,24.9-2.2,47.8-2.4
	c12.2-0.1,11.7,0.4,31.3,0.8c43.7,0.9,45.9-1.3,69,0.8c14.5,1.3,18.3,2.6,32.9,3.1c14.5,0.5,22.5-0.3,33.7-0.8c23.3-1,28,1,66.6,2.4
	c14.8,0.5,27.1,0.6,51.7,0.8c43.8,0.3,48.4-0.6,86.2,0c7,0.1,18.5,0.3,41.5,0.8c23.5,0.5,35.3,0.7,38.4,0.8
	c19.5,0.4,50.2-1,98.7-8.6"/>
<path class="st0" d="M27.6,1294.8c38.1-2.6,68.7-3.1,90.1-3.1c32.6,0,48.9,0,64.3,0.8c7.1,0.4,21.9,1.2,42.3,0.8
	c6.9-0.1,10.9-0.4,20.4-0.8c47-2.1,43-1.2,58.8-2.4c34-2.4,35.8-5.6,54.1-3.9c11.8,1.1,11.2,2.4,31.3,4.7
	c24.6,2.8,39.3,2.5,43.1,2.4c10.8-0.3,11.2-1.1,26.6-2.4c19.2-1.6,33.4-1.6,54.9-1.6c25.8,0,26.1,0.7,47,0.8
	c47.7,0.2,54.3-3.4,97.2-2.4c13.2,0.3,19.3,0.8,34.5,0.8c20.7-0.1,27.8-1.1,44.7-0.8c24.9,0.4,32.1,1.4,36.8,2.4
	c4.2,0.9,7.7,1.9,13.3,2.4c12.7,1.1,22.3-1.5,25.9-2.4c21.6-5.2,48.3-0.7,80.7,4.7c10.1,1.7,17.3,3.4,29,3.1
	c9.9-0.2,13.8-2.4,30.6-4.7c11.4-1.6,17.2-2.4,23.5-2.4c21.3,0,24.5,7.1,44.7,7.1c11.8,0,12.3-2.5,27.4-3.1
	c14.7-0.7,16.2,2.1,32.9,2.4c19.3,0.3,17.5-2.8,32.1-1.6c10.6,0.9,17.4,3.1,29.8,1.6c6-0.7,9.8-1.9,11.8-2.4
	c9.7-2.3,26,0.2,54.9,22.7"/>
<path class="st0" d="M12.1,1350.3c32.9,0.7,59.6,0.4,77.7,0c11.5-0.3,10.2-0.3,71.5-2.6c47.4-1.8,51-1.8,68.9-2.6
	c48-2.2,42.6-2.7,55-2.6c33.3,0.2,44.1,4,81.1,4.4c22.5,0.2,32.2-0.3,38.4-0.9c13.4-1.3,19.3-2.9,31.4-3.5c14.1-0.7,19.8,0.8,34,1.7
	c27,1.7,27-2.2,61.1-1.7c20.7,0.3,22.4,1.7,46.2,1.7c15.3,0,14-0.6,33.2-0.9c35.4-0.5,58.7,1.3,64.6,1.7c15.4,1.2,15.4,2.3,25.3,2.6
	c17.6,0.5,23-2,42.8-3.5c13.4-1,24.9-0.7,48,0c20.9,0.6,19.7,1.3,38.4,1.7c18.6,0.4,20.7-0.3,45.4,0c10,0.1,20.8,0.2,34.9,0.9
	c26.1,1.2,28.5,2.5,45.4,2.6c11.7,0.1,19.8-0.5,35.8-1.7c31.1-2.3,33.2-4.3,48.9-4.4c4.7,0,22.7,0.1,45.4,5.2
	c13.5,3.1,32.4,8.8,53.2,20.1"/>
<path class="st0" d="M24.3,1417.5c51.4-2.4,89.6-4.5,116-6.1c34.1-2.1,50.7-3.3,76.8-2.6c11.4,0.3,22.5,1,41,0.9
	c21-0.1,35.4-1.1,47.1-1.7c34.6-2,61.5-2.2,115.2-2.6c29-0.2,23.7,0.2,57.6,0c18.3-0.1,57.3-0.3,105.6-1.7
	c77.9-2.3,88.3-5,119.5-3.5c6.1,0.3,27.9,1.5,57.6,1.7c13.5,0.1,12.7-0.1,24.4,0c31.2,0.3,44.6,1.8,69.8,2.6c31.7,1,26.8-1.3,52.4,0
	c29.1,1.5,29.2,4.4,53.2,5.2c19.9,0.7,19.8-1.2,62.8-2.6c23.5-0.8,35.5-1.1,48.9,0c20.5,1.7,37.1,5.6,48,8.7"/>
<path class="st0" d="M64.2,1465.4c21.1-5.2,38.2-6.7,49.9-7.1c9.9-0.4,11.9,0.2,32.6,0c20.1-0.2,25.7-0.8,40.7-1
	c18.3-0.3,20.2,0.5,46.8,1c25.1,0.5,44.5,0.2,63.1,0c28.1-0.4,31.5-0.9,51.9-1c26.8-0.2,38.4,0.7,58,1c29.9,0.5,35.2-1.6,85.5-2
	c23.9-0.2,35.9-0.3,52,0.8c17.3,1.2,22.3,2.5,37.2,2.6c19.6,0.2,26.9-1.9,43-2.6c13-0.6,31.7-0.3,54.7,3.9"/>
<path class="st0" d="M55.8,1516.6c22.9-3.5,41.4-4.5,54.2-4.8c3.5-0.1,17.2-0.1,44.5,0c24.7,0,25.3,0.1,30,0
	c21.8-0.4,24-1.4,45.5-1.9c17-0.4,30.5-0.2,42.6,0c20.6,0.4,22.4,0.9,37.7,1c23.8,0.1,22.5-1.2,39.7-1c27.2,0.4,30.5,3.6,59,3.9
	c8.4,0.1,4.2-0.2,32.9-1c21.6-0.5,29.1-0.5,53.2-1c37.9-0.8,31.8-1.1,39.7-1c28.4,0.6,35,3.9,63.8,3.9c6.6,0,13.7-0.3,28.1-1
	c29.9-1.3,35.2-2.6,49.3-2.9c21.1-0.5,19.7,1.9,55.1,3.9c26.4,1.4,47,1.2,62.9,1c4.4-0.1,24.9-0.4,52.2-1.9
	c20.3-1.2,25.3-2.4,39.7-2.9c24.8-0.9,24.6,2.1,48,1.4c21.3-0.6,23.3-2.9,42.9-2.4c7.2,0.2,10,0.6,28.4,1.2
	c9.2,0.3,15.7,0.5,23.5,0.6c10.5,0.1,15.1-0.2,30.2-0.6c38.5-1.1,36.1,0,48.9-1.2c10.5-1,15.9-2,28.4-2.4c6.5-0.2,11.4-0.2,21.1,0
	c14.3,0.2,20.6,0.6,38.6,1.2c5.3,0.2,13.2,0.4,22.9,0.6"/>
<path class="st0" d="M7.3,1570.2c35.9-0.9,63.7-1.8,82.7-2.4c24.7-0.8,33.4-1.2,48.3-0.6c19.7,0.8,28.1,2.5,45.3,2.4
	c19.3-0.1,21.4-3.2,42.3-3.6c12.7-0.2,12.5,0.7,34.4,1.2c19.7,0.5,21.4-0.3,40.4,0c27.4,0.4,29.5,1.9,47.7,1.8
	c18.8-0.1,23.8-1.9,45.9-3.6c15-1.2,36.2-1.2,78.5-1.2c33.3,0,49.9,0,66.4,0.6c24.3,0.9,34.5,2,55.5,1.8c21.7-0.2,21.6-1.5,45.9-2.4
	c22.4-0.8,25.1,0.2,91.7,1.2c21.7,0.3,23.6,0.3,32.6,0.6c28.3,1.1,43.7,3.2,58.6,4.2c7.2,0.5,11.5,0.7,74.8-2.4
	c18.6-0.9,37.9-1.9,63.4-2.4c13.6-0.3,19.3-0.2,25.4,0c20.2,0.7,27.6,2.8,44.7,3.6c9.2,0.5,18,0.1,35.6-0.6
	c30.8-1.2,36.3-2.9,64.6-3.6c14.7-0.4,23.6-0.2,29,0c9.5,0.3,15.1,0.8,29.6,1.8c8.6,0.6,21.2,1.5,36.8,2.4"/>
<path class="st0" d="M38.1,1614.6c17.5,0,35,0,52.5,0c10.5,0,20.9,0,31.4,0c25.7,0,38.6,0,38.6,0c20.5,0.1,46.5,0.2,78.3,2.1
	c15.8,0.9,21.5,1.6,37.1,2.1c23.8,0.7,34.7-0.1,42.8-1c11.8-1.4,11.4-2.3,22.7-3.6c16-1.8,23.1-0.6,40.2-0.5
	c29.7,0.1,27.5-3.5,50.5-2.6c14.2,0.6,15,1.9,41.2,4.1c0,0,15.7,1.3,33.5,2.1c21.5,0.9,52,2.2,89.1-1c14.6-1.3,25-2.8,45.3-3.6
	c13.2-0.5,20.8-0.8,31.4,0c16.3,1.3,18.3,3.4,31.9,3.6c11.6,0.2,22.5-1.2,29.4-2.1c9.3-1.2,16.5-2.6,26.8-1
	c4.9,0.7,7.8,1.8,10.8,2.6c14.4,3.9,25.8,2.2,41.7,1c11.3-0.8,21.8-0.9,42.8-1c27.8-0.2,27.4,2.4,56.1,3.1
	c15.5,0.4,13.1-0.5,77.3-2.1c11.9-0.3,18-0.4,26.8,0c21.3,1,24.6,3.6,43.8,4.6c15.2,0.8,27-0.1,40.2-1c21-1.5,23.6-3.3,35.5-3.6
	c11.2-0.3,27.6,0.7,47.9,7.2"/>
<path class="st0" d="M5.7,1675.5c16.7-2,34.1-3.8,52.2-5.2c33.1-2.5,39.5-2.8,43.8-2.6c14.6,0.6,21.3,2.4,38.7,2.6
	c10.9,0.1,12.4-0.7,27.7-1.3c7.5-0.3,17.1-0.5,38.7,0c35.2,0.7,34,1.8,54.1,1.9c26.3,0.2,31.1-1.5,69.6-1.9
	c12.9-0.1,19.7-0.2,29.6,0c38.4,0.8,46.4,4,79.3,3.9c7.9,0,20.2-0.3,31.6-0.6c17.1-0.5,23.6-1.1,35.4-0.6
	c10.2,0.4,17.7,1.2,24.5,1.9c30.5,3.4,32.5,7,47.7,7.1c15.5,0.1,13.1-3.8,39.3-7.1c20-2.5,36.2-2.2,46.4-1.9
	c12.3,0.3,23,0.6,37.4,2.6c8.1,1.1,15.1,2.5,25.8,2.6c9.2,0.1,9.2-1,20-1.3c13.4-0.4,17.2,1,32.2,1.3c10.5,0.2,18.6-0.2,23.8-0.6
	c17.7-1.4,18-3.7,27.7-3.2c11.9,0.6,13.7,4,27.1,5.8c8.4,1.1,11.3,0.2,27.1-0.6c17.1-0.9,15.5,0,54.1-0.6
	c14.4-0.3,16.3-0.4,27.7-0.6c40.3-0.8,43.4,1.7,65.7,0c15.9-1.2,18.2-2.7,30.9-2.6c16,0.1,18.5,5,34.8,3.9c6-0.4,6.4-1.1,13.5-1.9
	c16.7-2,29.5-0.1,36.1,0.6c12.3,1.5,31.7,2.8,63.2,1.9"/>
</svg>
