<?xml version="1.0" encoding="utf-8"?>
<!-- Generator: Adobe Illustrator 22.1.0, SVG Export Plug-In . SVG Version: 6.00 Build 0)  -->
<svg version="1.1" id="Layer_1" xmlns="http://www.w3.org/2000/svg" xmlns:xlink="http://www.w3.org/1999/xlink" x="0px" y="0px"
	 viewBox="0 0 1239.8 1653" style="enable-background:new 0 0 1239.8 1653;" xml:space="preserve">
<style type="text/css">
	.st0{fill:none;stroke:#1D1D1B;stroke-width:6;stroke-miterlimit:10;}
</style>
<image style="overflow:visible;" width="1240" height="1653" xlink:href="processed.jpg" >
</image>
<title>paper_3</title>
<path class="st0" d="M80.4,50.6c42.4,2.7,86.1,4.9,131,6.3c34.8,1.1,68.9,1.7,102.3,1.8"/>
<path class="st0" d="M395.4,70.4c40.5,1.5,72.9,0.4,95.2-0.9c28-1.7,46.4-4.1,80.8-3.6c16.1,0.2,20.3,0.9,41.3,0.9
	c26.2,0.1,31.3-0.9,59.2-0.9c11.3,0,26.8,0,46.7,0.9c26.2,1.2,30.4,2.5,52.1,3.6c10.4,0.5,33.5,1.4,61,0c39.6-2,41.3-6.2,71.8-6.3
	c26-0.1,25.2,3,56.5,3.6c27.6,0.5,25.7-1.9,67.3-2.7c14.7-0.3,38.7-0.4,68.2,0.9c12.3,0.5,22.8,1.2,30.5,1.8"/>
<path class="st0" d="M200,152.2c64.6,1.6,116.7,2.5,152.3,3.1c47.8,0.7,77.4,1,87,1c57.3,0.4,103.3,0.2,130.5,0
	c34.6-0.2,70.5-0.9,140.9-2.1c115.7-2,110-2.3,127.4-2c65.3,0.8,66.8,4.1,160.6,6.2c29.9,0.7,48.7,0.8,90.2,2
	c34.4,1.1,54.3,1.5,79.8,3.1c25.3,1.6,46,3.6,60.1,5.2"/>
<path class="st0" d="M118.1,201.9c21.2,3.2,51,7.1,87,9.3c14.6,0.9,36.3,2,80.8,2c44.2,0.1,64.4-0.9,116-2
	c13.4-0.3,58.3-0.9,148.2-2.1c94.4-1.2,99.9-1.2,108.8-1c49.2,0.9,65.6,3.1,118.1,3.1c40.5,0,37.4-1.4,70.5-1
	c54.5,0.5,66.2,4.1,115,5.2c52.3,1.1,54.8-2.7,97.4-2c29.9,0.5,73.7,3.1,127.4,13.4"/>
<path class="st0" d="M103.6,257.8c37,3.3,69.2,5.6,95.3,7.3c58.7,3.6,102.7,4.9,114,5.2c25.8,0.7,49.4,1,70.4,1
	c53.1,0.2,65.9-1.3,120.2-2c75.9-1.1,77.6,1.2,166.8,0c46.2-0.6,48.8-1.3,76.7-1c53.6,0.5,65.6,3.2,117.1,4.1
	c46.9,0.9,42.9-1.2,105.7-1c36.3,0.1,72,0.2,117.1,3.1c29.8,1.9,70.2,5.4,118.1,12.4"/>
<path class="st0" d="M106.8,313.8c28.7-0.5,59.6,0.1,92.2,2c54.8,3.4,64.9,11.9,106.7,11.4c38.7-0.5,38.7-6.8,86-8.3
	c36.4-1.1,37.3,2.6,86,3.1c34,0.4,34.5-1.4,98.4-3.1c41.4-1.1,62.5-1.6,92.2-1c9.6,0.2,26.3,0.7,102.6,5.2
	c59.6,3.5,51.3,3.4,67.4,4.1c55.6,2.5,100,1,158.5-1c43.5-1.5,52.5-2.6,89.1-3.1c58.9-0.8,82.4,1.4,106.7,7.3
	c21.2,5.2,41.7,12.8,61.1,22.8"/>
<path class="st0" d="M102.6,363.5c52.6,6.4,105.5,9.9,158.5,10.4c38.7,0.3,76.7-1,106.7-2c68.7-2.4,65.8-4.4,99.5-4.1
	c56.4,0.4,70.5,5.9,119.1,4.1c16.9-0.6,35.3-4.3,73.5-7.3c26.6-2,37.7-2.3,47.6-2.1c22.2,0.4,35.2,2.5,58,5.2
	c10.6,1.2,43.9,4.9,74.6,6.2c40.3,1.7,47.6-2,92.2-2c10.3,0,34.5,1.5,82.9,4.1c22.7,1.2,38.9,2.3,64.2,3.1c24.4,0.8,31.1,0.7,40.4,1
	c22.4,0.9,54.6,4.8,95.3,18.7"/>
<path class="st0" d="M97.4,417.4c48.2,3.3,89.4,5.1,121.2,6.2c67.6,2.3,115,3.9,178.2,1c25.4-1.1,35.1-2.2,78.8-4.1
	c30-1.3,58.8-2.5,96.3-3.1c33.7-0.5,66.7-0.9,109.8,1c56.1,2.5,73.5,5.2,73.5,5.2c17.8,1.7,33.2,3.4,54.9,2
	c16.7-1,24.7-3.1,38.3-5.2c18.6-2.8,45.1-2.6,97.4-2c31.1,0.3,34.7,0.7,74.6,1c28.7,0.2,41.3,0.2,53.9,0c34.2-0.6,44.9-2,57-2.1
	c23.2-0.1,56.7,4.7,99.5,28"/>
<path class="st0" d="M85,474.4c16.4-0.3,41.2-0.8,71.5-1c32.6-0.3,60.2-0.2,96.3,0c79.8,0.5,84.4,3.8,121.2,1
	c24.7-1.8,32-3.8,61.1-5.2c30.4-1.4,53-0.7,74.6,0c80.6,2.7,94.4,10.6,127.4,2.1c6-1.6,16.6-4.6,32.1-6.2
	c24.4-2.5,42.7,0.7,51.8,2.1c14.2,2.1,39.9,2.1,91.2,2c69.9-0.1,62.8-5.4,106.7-3.1c32,1.6,46.2,5,82.9,4.1
	c22.9-0.5,28-2.1,45.6-2.1c24,0,51.9,2.9,82.9,11.4"/>
<path class="st0" d="M82.9,528.2c32.9,4.8,66.2,7.3,99.5,7.3c25.5,0,47.2-1.5,71.5-3.1c40.6-2.7,43.9-4.5,70.5-6.2
	c39-2.6,45.8,0.2,126.4,1c23.4,0.2,10.6-0.1,82.9,0c66,0.1,81.3,0.4,114,0c42.9-0.5,47.4-1.7,80.8-2c42.4-0.5,66.7,4.6,104.6,2
	c41-2.7,43.2-10.7,70.4-7.3c10.4,1.3,23,4.1,44.6,5.2c12.7,0.6,20.4,0.2,32.1,0c37.7-0.8,44.3,1.2,80.8,1c40.8-0.2,41.8-5.1,59-2
	c24.9,4.3,43.7,16.3,56,25.9"/>
<path class="st0" d="M84,584.2c31.6,1.7,59,3.1,80.8,4.1c82,4.1,103.7,4.6,131.6,3.1c35.3-1.9,31.5-5.1,69.4-7.3
	c36.7-2.1,45.9,0.2,97.4-1c36.6-0.9,35.1-2.1,72.5-3.1c44.4-1.2,57.6,0.2,96.3,0c47.2-0.3,44.3-2.5,119.1-5.2
	c45.4-1.6,83.7-3,134.7-2c46.4,0.8,69.7,1.2,92.2,3.1c36.6,3,48.5,6.3,73.5,3.1c11.7-1.5,24-4.1,43.5-4.1
	c18.4-0.1,31.4,2.1,38.3,3.1c19,2.6,47.4,3.4,87-5.2"/>
<path class="st0" d="M30.5,724.6c35.5,5.9,71.3,9.6,107.2,10.9c43.4,1.6,86.8,0,129.9-5"/>
<path class="st0" d="M291.1,729.6c35.3,4.1,70.8,6.4,106.4,6.7c35.1,0.3,64.1-1.6,91.3-3.4c61.5-3.9,68.4-7.3,108.1-7.5
	c22.8-0.1,15.1,1.1,77.1,3.4c51.3,1.9,90.4,2.4,107.3,2.5c38,0.3,35-0.3,67.9,0c32.8,0.3,59,1.1,113.2,3.4
	c27.5,1.1,67.4,2.8,116.5,5"/>
<path class="st0" d="M176.3,798.2c25.6-0.8,51.3-0.2,76.8,1.9c13.3,1.1,27.4,2.7,46.9,0.9c15.7-1.4,20.6-5,42.1-8.4
	c15.3-2.4,26.7-3.1,38.4-3.7c17.5-1,25.4-0.6,63.7,0c53,0.8,64.9,0.4,74,0c10-0.5,20-1.2,40.3-2.8c41.3-3.2,44.6-4.4,61.8-4.7
	c18.9-0.3,20,1,49.6,1.9c22.9,0.7,34.8,0.2,58.1,0c53.2-0.5,57.3,1.2,98.4,0.9c40.9-0.3,37-2,95.6-3.7c40.2-1.2,66.5-1.1,119-0.9
	c47.6,0.2,65.1,0.8,86.2,2.8c24.9,2.4,45.5,5.7,60,8.4"/>
<path class="st0" d="M60.1,849.7c43.6,3.8,76.7,2.3,99.3,0c14.7-1.5,30.2-3.7,56.2-4.7c23.9-0.9,26.3,0.5,47.8-0.9
	c26.2-1.7,29.1-4.1,51.5-4.7c15.6-0.4,17.3,0.7,40.3,0.9c18,0.2,31.1-0.3,46.9-0.9c57.8-2.3,71.3-3.1,89.9-3.7
	c67.3-2.5,63.6,1,119.9-1.9c19-1,37.3-2.3,67.4-2.8c23.9-0.4,41.7-0.1,48.7,0c84.9,1.4,127.4,2.2,154.6,0.9
	c63.1-3,82.4-10.9,126.5-6.6c6.4,0.6,19.7,2.2,40.3,3.7c37.5,2.9,50,2.2,64.7,3.7c19.8,2.1,48.2,8.7,82.4,30"/>
<path class="st0" d="M47,896c45.1,0.4,81.6,1.7,106.5,2.7c33.2,1.4,55.8,3,93.6,3.6c38.1,0.7,50.1,1,64.2,0
	c32.6-2.3,33.9-7.9,72.5-11.9c11.6-1.2,28.6-2,62.4-3.7c22.3-1.1,33.4-1.6,43.1-1.8c39.4-0.9,46.6,1.8,84.5,1.8
	c11.7,0,31.4-0.9,70.7-2.7c44.6-2.1,44.9-2.5,72.5-3.7c25.1-1,53.1-2.1,87.2-1.8c28.5,0.2,38.8,1.2,78,2.7
	c57.1,2.3,85.7,3.2,105.5,2.7c45-0.9,55-4.4,110.1-4.6c24.4-0.1,44,0.6,67.9,7.3c17.1,4.8,33.4,12,48.6,21.1"/>
<path class="st0" d="M38.8,945.8c31.8,2.5,63.6,3.2,95.4,2c38-1.4,41.7-4.1,87.4-6c47.4-2,53.7,0.5,101.5-2
	c22.8-1.2,18.9-1.6,66.3-5c46.7-3.3,70.1-5,89.4-5c35.1-0.1,32.9,2.6,85.4,4c9.1,0.2,40.4,1,81.4,0c41-1,40.2-2.5,72.4-3
	c44.6-0.8,54.4,1.9,99.5,2c42.3,0.1,51.7-2.1,88.4-3c32.3-0.8,78.9-0.2,136.6,6"/>
<path class="st0" d="M126.8,997.5c9.8-1.1,26.1-2.9,46.2-4.1c50.3-3,68.8,0.8,116-2.3c27.8-1.8,20.2-3,58-6.1
	c28.7-2.3,59.8-4.8,99.2-3.8c36.4,0.9,41.2,3.9,69.4,2.3c23.6-1.4,30.3-4,54.2-6.1c24.3-2.2,27,0.1,76.3,0c33.2,0,31.8-0.9,61.8-0.8
	c23.2,0.1,30.9,0.6,69.4,1.5c7.5,0.2,45.8,1.1,81.7,1.5c24.9,0.3,43.3,0.2,93.1,0c60.7-0.3,80.6,0.8,119.1-0.8
	c5.2-0.2,21.2-2.4,42.7-2.3c11.2,0.1,24.6,0.2,36.7,2.3c12.5,2.2,36.3,8.9,62.6,33.6"/>
<path class="st0" d="M37.6,1045.6c23.9,0.9,57.4,1.6,97.5,0c27.9-1.1,41.9-2.6,76.7-4.5c50.5-2.8,55.7-0.9,100.2-3.6
	c18.9-1.1,36.7-2.5,62.3-4.5c54.7-4.3,52.1-4.5,55.1-4.5c31.2-0.2,38,4.7,69.5,5.4c23,0.5,34.1-1.7,56-3.6
	c36.3-3.1,45.5-0.3,112,0.9c70.8,1.3,73.2-1.6,131.8,0c56.4,1.6,59.7,6.8,97.5,5.4c29.3-1.1,44.3-4.2,83.1-3.6
	c15.8,0.2,25.1,0.9,46,0.9c24.9,0,30.7-1.6,56.9-1.8c19.6-0.1,31.1-0.2,46.9,1.5c21.3,2.3,35.1,3.8,49.9,10.5
	c9.6,4.4,30.4,15.9,47.2,45.3"/>
<path class="st0" d="M36.9,1095.7c52.1,3.7,93.5,2.2,122.2,0c23.2-1.8,34.2-3.7,63.1-4.8c42.2-1.7,46.4,1.3,83.4-1
	c32-2,37.3-4.8,65-4.8c23.1-0.1,35.6,1.8,51.4,2.9c35.3,2.5,47.5-1.5,104.7-5.8c39-2.9,69-3.6,129-4.8c41.7-0.9,63.1-1.3,91.2,0
	c39.2,1.8,40,4.3,76.6,5.8c27.3,1.1,52.5,0.5,102.8-1c58.9-1.7,62.9-3.1,83.4-1c8,0.8,26.6,3.5,64,8.7c21,3,31.6,4.4,33.9,4.8
	c21.5,3.6,52.4,13,90.2,38.8"/>
<path class="st0" d="M51.6,1145.3c42.6,7.8,76,6.6,99.1,3.9c15.6-1.8,23.8-4,42.2-5.9c35.1-3.6,50.5,0.7,84.4,1
	c24.6,0.2,19.1-1.8,72.6-4.9c35.1-2,43.7-1.6,108.9-3.9c60.6-2.2,50.6-2.5,73.6-3c72.3-1.5,84.5,3.4,158,2c35.3-0.7,36-1.8,68.7-2
	c10.6,0,41.7,0,96.2,3c50.8,2.8,48.6,4.1,108,7.8c23.9,1.5,55.8,3.3,104.1,6.9c37,2.7,54.9,4.4,77.5,12.8c19.1,7.1,36.9,17,53,29.4"
	/>
<path class="st0" d="M55.7,1198.6c16,0.6,42.5,1.2,75.3,0c45.1-1.7,58.5-5.2,116.8-8.7c20.5-1.2,42.1-1.9,85.1-3.3
	c48.9-1.6,73.3-2.3,102.6-2.2c35.8,0.2,41.1,2.3,94.9,3.3c24.7,0.5,29.2,0.2,43.7,1.1c35.5,2.2,44.3,5.9,70.9,6.6
	c16.4,0.4,29.1-0.8,54.6-3.3c53-5.1,60.2-10.7,80.8-7.6c14.5,2.2,35.7,8.6,60,29.5"/>
<path class="st0" d="M70.6,1250.4c51.9,0.7,93.9-1.4,123-3.5c33.8-2.5,44.6-4.4,97.2-8.2c37.4-2.7,60.6-4.3,91.4-4.7
	c34.2-0.4,43.1,1.4,84.3,2.3c45.8,1,69.2,2.9,99.7-0.7c18.2-2.2,16.9-3.3,31-4.4c32.5-2.5,47.8,3,76,5.3c37.9,3.2,34.3-4.8,81.3-3.5
	c37.6,1,36.2,6,78.7,8c34.5,1.6,31.5-1.8,85.7-0.9c17.8,0.3,24.4,0.8,64.5,1.8c10.7,0.2,23.7,1,41.5,0.9c18-0.1,18.4-0.8,31.8-0.9
	c10,0,39.8,0.2,76.9,8c15.9,3.3,23.9,5,31,8c29.1,12.4,45.1,37.4,53.1,53.1"/>
<path class="st0" d="M33.9,1298.6c65.9-8.1,118.9-9.3,156.2-8.9c30,0.4,53.9,1.9,101.9,1.1c34.5-0.6,41.7-1.7,87.5-3.3
	c8.3-0.3,60.6-2.1,123-2.2c42.3-0.1,72.9,0.7,134,2.2c91.7,2.3,137.5,3.4,155.1,5.5c46.1,5.5,73.4,12.4,123,10
	c16.8-0.8,27.1-2.3,52.1-3.3c36.2-1.5,51.6,2.9,92,1.1c22.8-1,20.9-2.3,32.1-2.2c25.3,0,56.3,6.4,92,27.7"/>
<path class="st0" d="M51.6,1341.8c15.8,0.1,32.5-0.2,49.9-1.1c32.1-1.6,39.6-6.4,63.1-5.5c22.1,0.8,21.9,4.6,47.6,6.6
	c8.8,0.7,24,1.5,65.3-2.2c43.4-3.9,42.1-6.2,74.2-8.9c44.2-3.6,76-1.7,85.3-1.1c18.2,1.2,36.3,3.4,54.3,6.6"/>
<path class="st0" d="M124.7,1395c41.7-4.6,84.5-8.7,128.5-12.2c27.7-2.2,49.8-5,80.8-5.5c16-0.2,34.3,0.7,70.9,2.2
	c37.8,1.6,42.7,2.3,60.9,2.2c31.9-0.2,30.6-2.4,57.6-2.2c33.2,0.2,36.4,3.7,68.7,3.3c21.3-0.2,22.3-1.8,45.4-2.2
	c25.8-0.5,43.7,1.1,59.8,2.2c47.8,3.4,40.8,0.7,110.8,4.4c67.1,3.6,72,6,101.9,4.4c27.6-1.5,31.2-3.9,58.7-4.4
	c35.2-0.6,62,2.9,82,5.5c38.1,5.1,57.1,7.6,77.5,15.5c18.1,7,46.4,21,75.3,51"/>
<path class="st0" d="M35,1447c16.2,1.5,42.2,3.3,74.2,3.3c30.5,0,47.4-1.7,95.3-4.4c51.6-2.9,45.1-1.7,95.3-4.4
	c91.1-5,88.7-7.8,127.4-7.7c2.9,0,0.2,0,108.6,5.5c40.3,2,62.6,3.2,94.2,2.2c26.1-0.8,30.2-2.1,48.7-2.2c38.7-0.3,52.6,8.4,93.1,10
	c21.4,0.8,34.9-0.6,45.4-1.1c33.2-1.7,84,2.7,159.5,31"/>
</svg>
