<svg id="Layer_1" data-name="Layer 1" xmlns="http://www.w3.org/2000/svg" xmlns:xlink="http://www.w3.org/1999/xlink" viewBox="0 0 2988 5312"><defs><style>.cls-1{fill:none;stroke:#1d1d1b;stroke-miterlimit:10;stroke-width:6px;}</style></defs><title>paper_4</title><image width="5312" height="2988" transform="translate(2988) rotate(90)" xlink:href="paper_4.jpg"/><path class="cls-1" d="M402.43,947.69a1182,1182,0,0,0,136.7,23.52c36.3,4.08,62.9,5.37,105.84,7.35,124.19,5.71,133.29,5.1,202.85,8.82,107.42,5.74,118.69,9.94,189.62,10.29,38.5.19,37.71-1,102.9-1.47,72.57-.49,127.83.67,164.63,1.47,79.15,1.71,83.87,3.18,183.74,5.88,55.81,1.5,63.71,1.3,139.65,2.94,124.05,2.68,186.07,4,222,5.88,148.92,7.71,166.3,18.78,261.65,14.7,26.7-1.15,51.21-3.12,101.42-4.41,72.4-1.86,94.86,1.18,144.06,0,52.86-1.27,76.61-5.69,155.81-14.7,52-5.93,126.16-13.63,217.55-20.58"/><path class="cls-1" d="M405.71,1049.26c86.44,12.65,158.22,19.79,209.67,24,77.63,6.41,84.94,4.24,184.29,12,117.33,9.2,123.91,13.54,203,17.37,75.39,3.64,71.31-.28,160.26,4,84.51,4.07,97.45,8.1,162.93,9.35,70.34,1.34,71.64-3,141.56-2.67,81.53.39,86,6.33,205.66,12,61.62,2.93,51.9.95,189.64,5.34,121.21,3.87,109.4,4.78,157.58,5.34,82.78,1,103.05-1.92,193.65,0,65.56,1.39,59.84,3,96.15,2.67,76.46-.69,82-7.65,169.6-10.68,61.85-2.14,78,.68,126.87-5.34,29.77-3.67,44.31-7.24,77.46-13.36,37.43-6.91,90.9-15.64,157.59-22.7"/><path class="cls-1" d="M391,1165.78q102.23,12.67,210.38,22.43c52.75,4.71,87.53,7.86,136.7,10.68,46.67,2.68,53,2,229.6,7.48,47.88,1.47,76,2.4,114.27,4.27,49,2.38,68.89,5.2,107.86,6.4,60.58,1.88,55.82-2.57,104.65-1.06,82.07,2.53,99.37,14.83,173,11.74,28.86-1.2,24.62-3,56.6-4.27,43.5-1.69,70.12,1,134.55,5.34,37,2.52,71.36,4.86,105.73,6.41,56.85,2.57,82.91,1.59,132.42,2.14,124.68,1.37,135.55,9.5,277.66,11.74,59.75.94,93.5.07,119.61-1.07,46.92-2,76.63-5.24,131.35-10.67,139.64-13.87,122-10.45,238.15-22.43,38.15-3.94,95.25-10,165.52-18.16"/><path class="cls-1" d="M379.29,1288.32c38.75,7.27,89.25,15.4,148.79,21.48,56.91,5.81,98.85,7.37,107.38,7.67,76.78,2.71,86.87-3.21,159.54-3.07,76.92.15,77.39,6.82,207.08,12.27,34.88,1.47,72.94,3,122.72,3.07,94.12.08,105.37-5.37,187.15-6.14,19.74-.18,81.94,2.44,205.55,7.67,104.12,4.42,131.26,5.89,159.53,7.67,77.61,4.9,94.63,7.77,141.13,10.74,102.61,6.56,113.17-1.54,242.37,0,172.06,2.06,171.44,16.63,271.51,7.67,49.93-4.47,80.62-10.83,164.14-16.87,42-3,116.65-5.47,133.45-6.14,58.68-2.34,59.62-1.93,73.63-3.07,34.34-2.78,84.42-9.75,145.73-29.14"/><path class="cls-1" d="M367.38,1396.71q95.17,6.61,193.62,15.49c33.37,3,94,8.71,170.39,17,97.92,10.68,94.62,11.85,150.24,17,43.55,4.06,89.52,6.89,179.68,12.39,73.59,4.49,110.39,6.73,136.31,7.74,82,3.21,143.84,2.45,209.11,1.55,133.26-1.82,147.84-6.57,227.69-3.09,39.23,1.7,29.24,2.57,130.11,9.29,15.36,1,87.15,5.77,189,10.84,72,3.59,128,6.38,179.68,7.75,129.51,3.43,228.58-2.16,323.73-7.75,97.33-5.71,218.45-15.72,357.81-34.07"/><path class="cls-1" d="M344.34,1529.75a2014.28,2014.28,0,0,1,233.19,27.31c90.76,16.13,119.93,28,199.58,33.61,52.29,3.71,54.71-.33,166,2.1,93.38,2,93.59,4.94,168.06,6.31,119.85,2.19,121.79-5.25,216.39-2.1,87,2.89,81.34,9,193.28,14.7,77.8,3.94,142,4.07,205.88,4.2,107,.23,109.53-2.66,170.17,0,61.86,2.72,72.73,6.32,157.56,10.51,45.54,2.25,78.94,3,130.25,4.2,59.71,1.38,109,2.49,161.77,2.1,29.74-.22,125.3-1.38,250-12.6,76.43-6.88,162.51-17.42,256.3-33.62"/><path class="cls-1" d="M357.63,1665.08c74.56,5.47,137.64,12.71,186,19.15,81.84,10.9,114,18.48,177.84,24.63,43.82,4.22,42.77,1.9,183.31,5.47,152.19,3.86,228.29,5.79,265.39,8.21,18.09,1.18,53.31,3.64,101.23,2.73,49.87-.94,56.93-4.47,93-5.47,75.91-2.09,95.49,12.12,177.83,16.42,52.07,2.71,65.63-7.59,117.65-2.74,38.91,3.63,39.9,8.42,79.34,13.68,68.9,9.19,80.46-3.49,169.63,0,57.54,2.25,59.18,7.78,114.92,8.21,46.24.36,65.42-3.29,106.7-5.47,64.14-3.39,80,2.13,172.37,5.47,45.67,1.65,46.15.46,205.19,0,42.6-.12,106.74-.22,186.05,0"/><path class="cls-1" d="M356,1815.27c44.41,3.19,111.46,7.94,193.64,13.42,110.65,7.38,138.54,8.74,159.12,9.58,109,4.46,121.4-1.41,233.9,0,166.24,2.1,178.76,15.4,331.67,13.42,55.75-.72,62.76-2.6,151.46-3.83,94.48-1.32,143.54-1.9,209,1.92,22.58,1.31,70,6,164.88,15.33,107.17,10.56,116,12.32,149.54,13.42,60.19,2,78.7-2.11,157.21-3.83,51.12-1.12,90.32.15,168.71,1.92,88,2,112.09,3.92,176.38,3.83,50.73-.07,75.75-1.34,105.44-1.92,60.66-1.17,148.59.29,261.61,12.93"/><path class="cls-1" d="M344,1942.5a1408.25,1408.25,0,0,1,146.54,14.18c44.5,6.71,64.32,12,104,14.18,43.67,2.44,62.33-1.55,113.45-4.73,44.74-2.78,42.65-.49,198.54,0,128.7.41,108.61-1.22,141.81,0,91.76,3.39,114.67,11,196.17,9.46,41.41-.8,47-3,85.08-2.37,56.22.93,77.18,6.24,130,9.46,41.84,2.55,71.22,1.7,130,0,99.92-2.89,102.71-9.07,170.17-9.46,63.72-.36,74.63,5.07,163.08,9.46,80.66,4,103.81-2.34,174.9,2.36,50.38,3.33,48.8,7.37,108.72,11.82,32.87,2.44,33.84,1.43,122.91,4.73,74.56,2.76,88.38,4,134.72,4.72,34.2.54,53.39.83,80.36,0,43.58-1.34,72.15-4.54,120.53-9.45,34.92-3.54,85.69-8.54,148.91-14.18"/><path class="cls-1" d="M329.43,2061.22q90,3.59,185.71,10.92c93.3,7.27,96.35,11,161.68,15.3,109.86,7.25,201.29,4.25,260,2.18,81-2.86,94.69-6.58,166-6.55,39.9,0,74.67,1.46,144.2,4.37,93.21,3.89,99.88,5.52,179.16,8.74,78.64,3.18,120.58,4.89,179.16,4.37,85.29-.76,80-5.11,148.57-4.37,42.3.45,86.46,3.21,174.78,8.74,81.12,5.07,83.45,6.28,113.61,6.55,56.07.5,77.48-3.43,128.91-2.18,51.21,1.23,47.61,6.61,104.87,8.73,36.74,1.37,69.92.7,104.87,0,36.62-.73,63.66-1.92,69.92-2.18,43.33-1.84,119.25-3,262.18,0"/><path class="cls-1" d="M329.32,2174.47a1338.25,1338.25,0,0,0,156.93,18c21.65,1.21,45.6,1.68,92.61,2.57,129.53,2.46,129.54-.27,174.95,2.57,79.12,5,84.69,13.58,156.93,18,49.59,3,62.59-.47,149.22-2.57,43.42-1,114.12-2.67,203.24,0,28.86.86,116.85,3.5,218.67,12.86,28.83,2.65,54.55,5.46,92.62,5.15,44.44-.36,61.71-4.61,105.48-5.15,43.45-.53,51.75,3.62,95.19,5.15,56.76,2,67.4-8.29,126.06-5.15,34.65,1.86,59.35,8.07,69.46,10.29,35.07,7.71,52.11,2.31,118.35,0,21.78-.75,64.26.36,149.21,2.58,117.31,3.06,107.41,5.19,159.51,5.14,81.43-.07,79.95-5.25,167.22-5.14,49.81.06,61.79,1.75,136.35,2.57,48.84.53,88.94.29,115.77,0"/><path class="cls-1" d="M329.32,2328.83a1175.47,1175.47,0,0,1,144.07,2.57c86.42,6.83,105.43,17.91,174.94,18,60.47.09,58.37-8.27,149.21-12.86,70.19-3.55,126-1.32,156.94,0,89.48,3.79,96.93,10.6,164.65,10.29,59-.27,55.58-5.45,126.06-7.72,17.63-.57,42.83-1,195.52,5.14,104.74,4.26,108.89,5.13,141.5,5.15,67.17,0,88.68-3.66,149.21-5.15,36.56-.89,86.12,1.4,185.24,5.15,107.54,4.07,116,5.54,159.5,5.15,68.25-.63,70.66-4.46,118.35-2.58,67.61,2.68,82.62,11.17,141.49,12.87,58.27,1.67,100-5,120.92-7.72,66.46-8.6,180.25-10.2,388.47,18"/><path class="cls-1" d="M295.1,2464.25c124.78-17.35,213-15.4,271.94-9.89,21.23,2,66,7,131,9.89,38.72,1.73,69.46,2,121.13,2.47,57,.5,102,.26,136,0,146.18-1.11,139.37-2.93,190.36-2.47,142.19,1.28,144.36,15,279.36,14.84,14.21,0,12.79-.17,170.58-5,63.25-1.91,101.87-5.21,165.64-4.94,8.92,0,42.73.23,96.41,2.47,39.48,1.65,105.07,5,234.86,17.3,138.21,13.09,122.86,14.84,173,17.31,80.64,4,117.19-.69,205.2-2.47,57.55-1.17,141.35-1.19,244.74,4.94"/><path class="cls-1" d="M309.93,2568.08c71.39,1.07,129,3.21,168.11,5,78.76,3.5,104.63,6.34,160.69,4.94,50.32-1.25,54.49-4.16,108.78-4.94,62.18-.9,64.84,2.81,128.55,2.47,45.8-.24,53.63-2.2,136-4.94,37.48-1.25,65.4-2.1,98.89-2.48,55.2-.62,100.78.64,158.22,2.48,42.71,1.36,116.69,4.15,210.14,9.89,92.91,5.7,114.87,8.78,168.11,7.41,48.27-1.24,62.51-4.61,103.83-4.94,76.49-.61,92.59,12.44,158.22,14.83,74.17,2.7,72.53-11.48,150.8-12.36,68.41-.77,79.63,9.94,187.89,22.25,83.64,9.51,147.56,11.14,195.3,12.36,62.32,1.59,88.83-.1,220-2.47,76.75-1.39,138.86-2.1,178-2.47"/><path class="cls-1" d="M317.46,2690a1070.28,1070.28,0,0,0,177.37,0c35-2.92,35.5-4.7,64.22-6.12,14.19-.7,58.74-2.48,180.42,9.17,44.77,4.29,40.09,4.66,61.17,6.12,63.76,4.41,104.2.86,134.55,0,127.29-3.6,127.57,38.76,226.3,27.52,63.77-7.25,78.08-26.56,152.91-27.52,39-.5,39.11,4.68,100.91,9.17,69.11,5,94.51.4,189.61,0,15.2-.06,60.29,1,149.84,3.06,131.61,3.06,197.41,4.59,235.48,6.12,56.23,2.25,110.62,5.61,217.12,12.23,100.61,6.26,163.09,10.62,232.42,15.29,79.39,5.35,194.12,12.86,336.39,21.41"/><path class="cls-1" d="M320.51,2809.23c120.43,25.89,199.55,24.89,250.77,18.35a971.13,971.13,0,0,1,113.15-9.17c32.54-.7,55.77.54,100.92,3.05,107.68,6,115.88,11.59,180.42,12.24,42.61.42,32.5-2.08,110.1-3.06,64.41-.81,74.85.87,137.61,0,77.8-1.08,73.49-3.82,116.21-3.06,55.62,1,74.73,5.86,146.79,12.23,74.81,6.62,67.25,2.53,162.08,9.18,139.33,9.76,142.5,17.67,208,15.29,63.46-2.31,64.2-9.88,143.73-12.23,15.84-.47,69.11-1.75,140.67,3,61.84,4.15,55.8,7.37,122.33,12.24,77,5.63,91.07,1.76,156,9.17,52.36,6,50.29,9.31,85.63,12.23,69.26,5.73,112.42-4.15,159-9.17,47.12-5.08,116.22-7.16,204.89,9.17"/><path class="cls-1" d="M314.4,2943.79c26.17-.52,67.76-1,119.26,0,64,1.24,80,3.54,128.44,3.06,55.24-.55,57.81-3.77,125.39-6.12,33.73-1.17,87.4-2.93,152.9,0,69.88,3.13,74.4,8.07,159,12.23,17.55.87,47.38,1.6,107,3.06,66,1.62,103.74,2.55,149.84,3.06,49,.54,71.31.22,143.73,0,177.85-.55,171.12-3.94,198.78,0,63.71,9.07,89,23.14,156,21.41,32.68-.85,36.94-4.46,76.46-6.12,60.29-2.53,101.2,3.75,146.79,9.17,0,0,84.68,10.09,198.77,15.29,60.94,2.79,78.26.89,214.07,0,68.12-.44,131.38-4,201.84,0a1378.3,1378.3,0,0,1,232.41,33.64"/><path class="cls-1" d="M311.34,3121.16A980,980,0,0,0,452,3130.33c70.45-.46,95.6-8.22,180.43-12.23,35.19-1.66,24.67,0,165.14,0,143.18,0,186-1.64,214.07-3.06,51.28-2.58,73.91-10.52,122.32-9.17,46.4,1.3,51.73,8.27,116.21,15.29,85.17,9.27,103.29-6.7,214.06-6.12,52.88.28,40.42,3.88,140.68,9.18,101.55,5.37,112.25,1.57,235.47,6.11,34.08,1.26,84.9,3.9,186.55,9.18,102.48,5.32,128.42,7.13,177.37,6.11,44-.91,60.67-3.15,107-3,35.54.07,50.42,1.81,128.44,6.11,74.5,4.11,111.75,6.16,125.38,6.12,87.5-.29,101.05-12.46,159-9.18,32.59,1.85,81.34,8.69,140.68,33.64"/><path class="cls-1" d="M305.22,3261.83q75.79,1.26,156,0c75.19-1.24,111.8-4.21,174.31-6.11,42.31-1.29,101.6-.72,220.18,0,137.73.83,153.52,1.82,208,0,75.1-2.52,72.64-5.32,134.56-6.12,77.1-1,99.43,3.11,174.31,0,56-2.33,52.08-5,97.86-6.12,60.75-1.5,87.5,2.68,159,6.12,79.85,3.83,68.11-.34,162.08,3.06,103.93,3.76,116.42,8.8,195.72,9.17,71.82.34,63.29-3.79,122.32-3.06,90,1.12,103.69,10.62,226.3,18.35,63.67,4,52.83,1,146.79,6.12,115.85,6.31,116.43,10,165.14,9.17,70.14-1.22,85.85-9.22,159-9.17a1004.15,1004.15,0,0,1,110.09,6.11"/><path class="cls-1" d="M256.29,3423.91A1378.77,1378.77,0,0,0,442.84,3427c55.47-2.86,61.55-8.21,125.38-12.23,96.94-6.11,98.24,3.4,183.49-3.06,69.14-5.24,82.88-12.61,143.73-12.23,45.53.28,57.66,4.52,97.86,6.11,49.56,2,71.46-3.38,171.25-15.29,94-11.22,141-16.83,183.49-18.35,50.21-1.79,37.71,2.68,159,6.12,63,1.79,80.17,1.09,174.31,3.06,102.58,2.14,108.46,1.89,119.27,3.06,33.07,3.58,56.91,8.53,97.86,9.17,28.47.45,28.44-2.11,67.27-3.06,79.57-1.94,98.4,12.16,174.32,9.18,43.47-1.71,34.66-6.23,67.27-6.12,63.79.22,77.86,17.44,146.79,21.41,43.72,2.51,44.17-4.06,88.69,0,41.61,3.79,64.51,11.66,94.8,18.35,34.71,7.66,85,15.06,149.85,12.23"/><path class="cls-1" d="M259.35,3558.47c54.52,3.8,112.75,6.08,174.31,6.11,44.82,0,53.45-1.66,177.37-6.11,66.38-2.39,66.27-2.06,183.49-6.12,119.75-4.14,131.37-4.88,146.79-6.11,48.61-3.89,71.48-7.64,122.32-9.18,38.21-1.16,42.42.44,88.69,0,52.75-.5,78.81-2.87,140.67-6.12,79.36-4.16,119.06-5.93,156-6.11,65.8-.33,65.5,3.56,152.91,6.11,91.17,2.66,114.54-.9,232.42,0,68.23.53,73.34,2,146.78,3.06,107.9,1.61,211,0,211,0,96.64-1.61,87.44-3.74,137.62-3.06,56.42.77,105.34,4,137.61,6.12,76.54,5.1,70.6,7.3,113.15,9.18,83.28,3.66,104.85-4.83,177.37-3.06a897.61,897.61,0,0,1,143.73,15.29"/><path class="cls-1" d="M274.64,3693a1310.7,1310.7,0,0,1,156,0c52.58,3.19,72.71,7.71,128.44,9.18,40.31,1.06,66.52-.34,122.32-3.06,140.12-6.82,155-7.78,198.78-9.17,86.26-2.74,137.06-.15,180.42,0,67.22.22,78.67-5.56,156-9.18,69.24-3.24,118.54-.95,204.89,3.06,105.3,4.89,119.25,10.17,192.66,12.23,98.57,2.78,110.78-12,195.72-6.11,55.86,3.9,66.38,10,128.44,12.23,46.12,1.64,55.46-1.19,134.56-3.06,50.69-1.2,101.25-2.39,162.08,0,74.3,2.92,79,7.85,162.08,12.23,69.06,3.64,66.88.29,159,3.06,23.7.71,106.51,3.42,214.07,12.23,59.68,4.89,111.42,10.39,152.9,15.29"/><path class="cls-1" d="M268.53,3821.46c89.82.17,162.7,3.22,214.06,6.12,55.55,3.13,104.67,7.15,174.32,3.06,16.46-1,47.88-4.85,110.09-12.23,131.91-15.67,125.93-16.4,152.9-18.35,78.61-5.7,77.92,4.26,189.6,3.06,113.79-1.23,107.12-11.48,171.26-6.12,73.12,6.11,86.79,19.91,177.37,27.52,16.37,1.38,15.11.86,119.26,3.06,154.14,3.26,167,4.62,214.07,3.06,82-2.72,72-7.8,116.21-6.12,89,3.39,101.83,22.92,180.43,21.41,55.35-1.06,59.87-11,119.26-9.17,45.1,1.35,59.37,7.56,107,12.23,65.43,6.4,98.12.52,143.73,0,51-.59,124.46,5.44,217.12,36.69"/><path class="cls-1" d="M265.47,3959.08a823.47,823.47,0,0,0,152.9,3.06c37.12-2.74,47.79-6.1,88.69-9.18,56.06-4.21,85.41-1.61,152.9,0,97.29,2.32,93.56-1.72,198.78,0,92.63,1.52,105.47,9.5,168.2,6.12,56.86-3.06,58.62-8.74,119.26-12.23,60-3.45,83.3.65,165.14,3.05,89,2.62,83.24-1.6,183.49,0,78.46,1.26,136.34,4.72,211,9.18,93.12,5.56,95.39,7.49,214.07,15.29,75.35,5,92,5.33,207.95,12.23,61,3.63,68.09,4.33,195.72,12.23,117.16,7.26,134,8.16,156,9.18,71.89,3.33,90.81,2.91,143.73,6.12,60,3.63,108.73,8.59,140.67,12.23"/><path class="cls-1" d="M265.47,4084.46c38.39-3.62,98-8.17,171.25-9.17,48.07-.66,70.62.64,220.19,6.11,177.6,6.51,200.12,6.66,229.35,6.12,80.77-1.5,75.85-5.8,180.43-9.17,118.81-3.84,204.25-.84,226.3,0,86.4,3.28,100.86,11.8,177.37,12.23,73.14.41,74.48-5.83,140.67-6.12,87.25-.37,100.3,10.4,235.48,21.41,39.09,3.18,107.38,7.93,189.6,9.17,94,1.42,97.09-3.39,198.78-3.06,50.82.17,134.9,1.64,235.47,9.18,62.11,4.65,72.9,7.3,189.6,18.35,74,7,134.51,12.08,174.32,15.29"/><path class="cls-1" d="M256.29,4209.84c61.7-1.76,112.93-1.07,149.85,0,105.09,3.05,122.13,10,189.6,6.12,66.75-3.84,66.77-11.59,143.73-15.29,34.71-1.67,68-1.11,134.56,0,73.53,1.23,87.77,2.93,137.62,3.06,61.64.15,66.17-2.39,122.32-3.06,50.84-.61,114.09,2.64,238.53,9.17,92.16,4.84,100,6,134.56,6.12,71.51.26,78.06-4.52,137.61-3.06,54.12,1.33,54.24,5.41,152.91,12.23,45.4,3.14,81.4,5.58,128.44,6.12,68.83.79,75.74-3.45,125.38-3.06,81.23.65,104.22,12.34,195.72,21.41,50.93,5,50.44,1.3,174.31,6.12,29.18,1.13,79.1,2.85,131.5,6.11,73.73,4.58,83.11,7.74,146.79,12.23,35.93,2.54,89.5,5.53,156,6.12"/><path class="cls-1" d="M247.12,4341.34q50.24,2.53,104,3.06c44.92.39,74-1,146.79-3.06,100.71-2.84,101.69-3.15,122.33-3.06,49.32.22,60.67,2.15,125.38,3.06,33.31.47,48.76.22,100.92,0,69.37-.29,130.7-.54,183.48,0,53.64.56,66.94,1.61,201.84,6.12,109.17,3.65,133.08,5.58,195.72,6.11,58.29.5,58.3-.76,113.15,0,71.64,1,93.58,3.47,174.31,6.12,63.26,2.08,109.26,2.52,165.14,3.06,44.22.43,113.06,1.07,201.83,0,115.83-1.4,134.34-4.13,186.55,0,52.84,4.18,80.81,20.35,140.67,21.41,45.88.8,37.68-8.17,100.92-9.18,28.4-.45,42,1.71,143.73,15.29,69.83,9.33,105,14,119.26,15.29a1075.12,1075.12,0,0,0,146.79,3.06"/><path class="cls-1" d="M262.41,4494.25c27.95,1,71.69,2.31,125.38,3.06,93.31,1.29,128-.41,229.36,0,95.81.38,143.72.57,186.54,3,125.7,7.3,134.2,19.37,220.19,18.35,80.7-.95,79.12-11.65,177.37-15.29,59.8-2.21,77.73,1.11,204.89,6.12,137.47,5.41,119.1,1.63,214.07,6.11,169.85,8,180.55,17.86,266,12.24,60.73-4,72.9-10.08,152.91-15.29,60.15-3.92,108-3.33,174.31-3.06,69.82.28,132.18,2.21,159,3.06,46.54,1.47,60.91,2.43,100.92,3,49.22.77,66.93-.08,113.15,0,37.22.07,93.1.17,143.73,3.06a1306.69,1306.69,0,0,1,186.54,24.47"/></svg>